<svg xmlns="http://www.w3.org/2000/svg" width="46" height="49"><path fill="#393536" d="M44.728 11.219a.704.704 0 01.397.634v25.551c0 .27-.154.516-.397.633L22.934 48.558a.699.699 0 01-.61 0L.528 38.037a.703.703 0 01-.398-.633V11.853c0-.27.155-.516.398-.634L22.323.698a.704.704 0 01.611 0zm-27.93-6.292l20.04 9.674a.725.725 0 01.118.075l5.85-2.823-20.178-9.741zM11.09 7.718l20.14 9.722 4.126-1.992L15.21 5.722zm20.883 10.925v7.364l3.854-1.861v-7.364zm11.745-5.67l-6.485 3.131v8.483c0 .27-.154.516-.397.634l-5.26 2.539a.708.708 0 01-.679-.037.704.704 0 01-.33-.596V18.69l-.01-.013L9.438 8.481l-6.986 3.372 15.222 7.348a.703.703 0 01-.61 1.267L1.537 12.973v23.99l20.387 9.842v-23.99l-1.858-.897a.703.703 0 01.612-1.266l1.95.941 4.954-2.392a.703.703 0 11.611 1.267l-4.863 2.347v23.99l20.388-9.842z"/></svg>