<svg xmlns="http://www.w3.org/2000/svg" width="49" height="43"><path fill="#393536" d="M47.025 6.506L17.627.286a2.318 2.318 0 00-2.739 1.782l-.559 3.59 33.92 7.177.56-3.589a2.318 2.318 0 00-1.784-2.74zm-11.857 8.91l11.806 2.5-2.074 9.798a2.317 2.317 0 01-2.74 1.782l-3.277-.693.875 3.152a2.341 2.341 0 01-1.625 2.872l-29.224 8.11a2.34 2.34 0 01-2.872-1.624L.943 22.953a2.34 2.34 0 011.624-2.87l9.04-2.51 1.447-6.836 13.156 2.784 5.58-1.549a2.34 2.34 0 012.873 1.624zm2.87 7.511a.954.954 0 00.734 1.128l3.416.722a.953.953 0 001.127-.733l.722-3.416a.954.954 0 00-.733-1.127l-3.416-.723a.954.954 0 00-1.127.733zM3.075 21.914a.438.438 0 00-.3.531l.997 3.59 30.054-8.34-.756-2.722-.241-.868a.44.44 0 00-.53-.3l-2.054.57-19.082 5.296zm33.71 6.445l-1.832-6.604-30.054 8.34 2.97 10.71a.443.443 0 00.42.315.431.431 0 00.112-.016l29.224-8.11a.417.417 0 00.257-.204.427.427 0 00.043-.327z"/><path fill="#393536" d="M13.123 33.196a.954.954 0 00-1.171-.662l-3.413.947a.954.954 0 00-.662 1.171l.947 3.413a.953.953 0 001.171.661l3.413-.947a.952.952 0 00.662-1.171z"/></svg>