<svg xmlns="http://www.w3.org/2000/svg" width="49" height="49"><path fill="#393536" d="M48.744 33.113c0-5.956-3.417-11.272-8.535-13.858-.16 11.42-9.418 20.68-20.84 20.839 2.587 5.118 7.903 8.535 13.859 8.535 2.793 0 5.509-.744 7.895-2.157l7.553 2.089-2.09-7.553a15.461 15.461 0 002.158-7.895z"/><path fill="#393536" d="M37.4 18.956c0 10.107-8.222 18.329-18.328 18.329-3.294 0-6.501-.877-9.316-2.542L.811 37.217l2.474-8.944a18.283 18.283 0 01-2.541-9.317C.744 8.85 8.966.628 19.072.628S37.4 8.85 37.4 18.956zm-21.141-4.265a2.816 2.816 0 012.813-2.813 2.815 2.815 0 012.812 2.813c0 .799-.325 1.536-.915 2.076l-3.303 3.023v3.432h2.812v-2.193l2.39-2.187a5.643 5.643 0 001.829-4.151 5.63 5.63 0 00-5.625-5.625 5.63 5.63 0 00-5.625 5.625zm1.407 14.157h2.813v-2.813h-2.813z"/></svg>