<svg width="29" height="46" viewBox="0 0 29 46" fill="none" xmlns="http://www.w3.org/2000/svg">
<circle cx="27.6888" cy="1.08889" r="1.08889" transform="rotate(90 27.6888 1.08889)" fill="#F98412"/>
<circle cx="27.6888" cy="9.79995" r="1.08889" transform="rotate(90 27.6888 9.79995)" fill="#F98412"/>
<circle cx="27.6888" cy="18.5111" r="1.08889" transform="rotate(90 27.6888 18.5111)" fill="#F98412"/>
<circle cx="27.6888" cy="27.2221" r="1.08889" transform="rotate(90 27.6888 27.2221)" fill="#F98412"/>
<circle cx="27.6888" cy="35.9332" r="1.08889" transform="rotate(90 27.6888 35.9332)" fill="#F98412"/>
<circle cx="27.6888" cy="44.6443" r="1.08889" transform="rotate(90 27.6888 44.6443)" fill="#F98412"/>
<circle cx="18.5111" cy="1.08889" r="1.08889" transform="rotate(90 18.5111 1.08889)" fill="#F98412"/>
<circle cx="18.5111" cy="9.79995" r="1.08889" transform="rotate(90 18.5111 9.79995)" fill="#F98412"/>
<circle cx="18.5111" cy="18.5111" r="1.08889" transform="rotate(90 18.5111 18.5111)" fill="#F98412"/>
<circle cx="18.5111" cy="27.2221" r="1.08889" transform="rotate(90 18.5111 27.2221)" fill="#F98412"/>
<circle cx="18.5111" cy="35.9332" r="1.08889" transform="rotate(90 18.5111 35.9332)" fill="#F98412"/>
<circle cx="18.5111" cy="44.6443" r="1.08889" transform="rotate(90 18.5111 44.6443)" fill="#F98412"/>
<circle cx="9.79994" cy="1.08889" r="1.08889" transform="rotate(90 9.79994 1.08889)" fill="#F98412"/>
<circle cx="9.79994" cy="9.79995" r="1.08889" transform="rotate(90 9.79994 9.79995)" fill="#F98412"/>
<circle cx="9.79994" cy="18.5111" r="1.08889" transform="rotate(90 9.79994 18.5111)" fill="#F98412"/>
<circle cx="9.79994" cy="27.2221" r="1.08889" transform="rotate(90 9.79994 27.2221)" fill="#F98412"/>
<circle cx="9.79994" cy="35.9332" r="1.08889" transform="rotate(90 9.79994 35.9332)" fill="#F98412"/>
<circle cx="9.79994" cy="44.6443" r="1.08889" transform="rotate(90 9.79994 44.6443)" fill="#F98412"/>
<circle cx="1.08888" cy="1.08889" r="1.08889" transform="rotate(90 1.08888 1.08889)" fill="#F98412"/>
<circle cx="1.08888" cy="9.79995" r="1.08889" transform="rotate(90 1.08888 9.79995)" fill="#F98412"/>
<circle cx="1.08888" cy="18.5111" r="1.08889" transform="rotate(90 1.08888 18.5111)" fill="#F98412"/>
<circle cx="1.08888" cy="27.2221" r="1.08889" transform="rotate(90 1.08888 27.2221)" fill="#F98412"/>
<circle cx="1.08888" cy="35.9332" r="1.08889" transform="rotate(90 1.08888 35.9332)" fill="#F98412"/>
<circle cx="1.08888" cy="44.6443" r="1.08889" transform="rotate(90 1.08888 44.6443)" fill="#F98412"/>
</svg>
