<svg width="41" height="41" viewBox="0 0 41 41" fill="none" xmlns="http://www.w3.org/2000/svg">
<path d="M12.0967 19.3504L0.18457 6.51396L6.55619 21.6495L12.0967 19.3504Z" fill="url(#paint0_linear_212_2136)"/>
<path d="M26.3175 12.3574L14.4053 19.8294L20.4075 20.5957L26.3175 12.3574Z" fill="url(#paint1_linear_212_2136)"/>
<path d="M28.5337 11.3037L34.5359 15.2312L40.4458 2.87378L35.9211 9.48358L34.4898 7.08873L28.5337 11.3037Z" fill="url(#paint2_linear_212_2136)"/>
<path d="M0.18457 6.51396V40.9999H6.55619V21.6495L0.18457 6.51396Z" fill="url(#paint3_linear_212_2136)"/>
<path d="M14.4053 40.9999H20.7769L20.4075 20.5957L14.4053 19.8294V40.9999Z" fill="url(#paint4_linear_212_2136)"/>
<path d="M34.5359 15.2312L28.5337 11.3037V40.9999H34.5359V15.2312Z" fill="url(#paint5_linear_212_2136)"/>
<path d="M12.0967 40.9999V19.3504L6.55619 21.6495V40.9999H12.0967Z" fill="url(#paint6_linear_212_2136)"/>
<path d="M26.3175 40.9999V12.3574L20.4075 20.5957L20.7769 40.9999H26.3175Z" fill="url(#paint7_linear_212_2136)"/>
<path d="M40.4458 40.9999V2.87378L34.5359 15.2312V40.9999H40.4458Z" fill="url(#paint8_linear_212_2136)"/>
<path d="M13.1126 18.3925L0 4.21495L13.1126 14.8481L33.6126 2.96962L32.7815 1.43691L41 0L35.9212 6.7056L35.0901 5.26869L13.1126 18.3925Z" fill="url(#paint9_linear_212_2136)"/>
<path d="M0.18457 37.1682L20.3152 41L40.4458 37.1682V41H0.18457V37.1682Z" fill="url(#paint10_linear_212_2136)"/>
<defs>
<linearGradient id="paint0_linear_212_2136" x1="-3.2321" y1="42.2452" x2="32.3899" y2="7.62996" gradientUnits="userSpaceOnUse">
<stop stop-color="#F83600"/>
<stop offset="1" stop-color="#F9D423"/>
</linearGradient>
<linearGradient id="paint1_linear_212_2136" x1="-3.2321" y1="42.2452" x2="32.3899" y2="7.62996" gradientUnits="userSpaceOnUse">
<stop stop-color="#F83600"/>
<stop offset="1" stop-color="#F9D423"/>
</linearGradient>
<linearGradient id="paint2_linear_212_2136" x1="-3.2321" y1="42.2452" x2="32.3899" y2="7.62996" gradientUnits="userSpaceOnUse">
<stop stop-color="#F83600"/>
<stop offset="1" stop-color="#F9D423"/>
</linearGradient>
<linearGradient id="paint3_linear_212_2136" x1="-5.54066" y1="27.5887" x2="45.7093" y2="27.5887" gradientUnits="userSpaceOnUse">
<stop stop-color="#F83600"/>
<stop offset="1" stop-color="#F9D423"/>
</linearGradient>
<linearGradient id="paint4_linear_212_2136" x1="-5.54066" y1="27.5887" x2="45.7093" y2="27.5887" gradientUnits="userSpaceOnUse">
<stop stop-color="#F83600"/>
<stop offset="1" stop-color="#F9D423"/>
</linearGradient>
<linearGradient id="paint5_linear_212_2136" x1="-5.54066" y1="27.5887" x2="45.7093" y2="27.5887" gradientUnits="userSpaceOnUse">
<stop stop-color="#F83600"/>
<stop offset="1" stop-color="#F9D423"/>
</linearGradient>
<linearGradient id="paint6_linear_212_2136" x1="-3.2321" y1="42.2452" x2="27.012" y2="27.8938" gradientUnits="userSpaceOnUse">
<stop stop-color="#FF6E41"/>
<stop offset="1" stop-color="#FFEA7E"/>
</linearGradient>
<linearGradient id="paint7_linear_212_2136" x1="-3.2321" y1="42.2452" x2="27.012" y2="27.8938" gradientUnits="userSpaceOnUse">
<stop stop-color="#FF6E41"/>
<stop offset="1" stop-color="#FFEA7E"/>
</linearGradient>
<linearGradient id="paint8_linear_212_2136" x1="-3.2321" y1="42.2452" x2="27.012" y2="27.8938" gradientUnits="userSpaceOnUse">
<stop stop-color="#FF6E41"/>
<stop offset="1" stop-color="#FFEA7E"/>
</linearGradient>
<linearGradient id="paint9_linear_212_2136" x1="0" y1="9.19625" x2="41" y2="9.19625" gradientUnits="userSpaceOnUse">
<stop stop-color="#FF5858"/>
<stop offset="1" stop-color="#F09819"/>
</linearGradient>
<linearGradient id="paint10_linear_212_2136" x1="0.18457" y1="41" x2="1.12435" y2="32.7104" gradientUnits="userSpaceOnUse">
<stop stop-color="#F83600"/>
<stop offset="1" stop-color="#F9D423"/>
</linearGradient>
</defs>
</svg>
