<svg width="164" height="138" viewBox="0 0 164 138" fill="none" xmlns="http://www.w3.org/2000/svg">
<path d="M66.8332 33.6667L45.3332 11.3333L56.8332 37.6667L66.8332 33.6667Z" fill="url(#paint0_linear_211_1972)"/>
<path d="M92.4999 21.5L70.9999 34.5L81.8332 35.8333L92.4999 21.5Z" fill="url(#paint1_linear_211_1972)"/>
<path d="M96.4999 19.6667L107.333 26.5L118 5L109.833 16.5L107.25 12.3333L96.4999 19.6667Z" fill="url(#paint2_linear_211_1972)"/>
<path d="M45.3332 11.3333V71.3333H56.8332V37.6667L45.3332 11.3333Z" fill="url(#paint3_linear_211_1972)"/>
<path d="M70.9999 71.3333H82.4999L81.8332 35.8333L70.9999 34.5V71.3333Z" fill="url(#paint4_linear_211_1972)"/>
<path d="M107.333 26.5L96.4999 19.6667V71.3333H107.333V26.5Z" fill="url(#paint5_linear_211_1972)"/>
<path d="M66.8332 71.3333V33.6667L56.8332 37.6667V71.3333H66.8332Z" fill="url(#paint6_linear_211_1972)"/>
<path d="M92.4999 71.3333V21.5L81.8332 35.8333L82.4999 71.3333H92.4999Z" fill="url(#paint7_linear_211_1972)"/>
<path d="M118 71.3333V5L107.333 26.5V71.3333H118Z" fill="url(#paint8_linear_211_1972)"/>
<path d="M68.6667 32L45 7.33333L68.6667 25.8333L105.667 5.16667L104.167 2.5L119 0L109.833 11.6667L108.333 9.16667L68.6667 32Z" fill="url(#paint9_linear_211_1972)"/>
<path d="M45.3332 64.6667L81.6666 71.3334L118 64.6667V71.3334H45.3332V64.6667Z" fill="url(#paint10_linear_211_1972)"/>
<path d="M4.24199 107H7.46713V96.9662H11.0307V93.98H0.698327V96.9662H4.24199V107ZM20.168 107.259C24.2292 107.259 27.096 104.392 27.096 100.49C27.096 96.588 24.2292 93.7212 20.168 93.7212C16.1067 93.7212 13.2399 96.588 13.2399 100.49C13.2399 104.392 16.1067 107.259 20.168 107.259ZM20.168 104.273C17.9581 104.273 16.5048 102.68 16.5048 100.49C16.5048 98.3001 17.9581 96.7074 20.168 96.7074C22.3778 96.7074 23.8311 98.3001 23.8311 100.49C23.8311 102.68 22.3778 104.273 20.168 104.273ZM30.6929 107H33.918V103.158H35.8093C39.353 103.158 40.9257 101.207 40.9257 98.5589C40.9257 95.9111 39.353 93.98 35.8093 93.98H30.6929V107ZM33.918 100.171V96.9662H35.869C37.2427 96.9662 37.6608 97.6431 37.6608 98.5589C37.6608 99.4946 37.2427 100.171 35.869 100.171H33.918ZM51.1424 107H54.3675V93.98H51.1424V107ZM58.3272 107H61.5524V99.196C61.5524 97.6033 62.3089 96.7074 63.9015 96.7074C65.4942 96.7074 66.2507 97.6033 66.2507 99.196V107H69.4759V99.196C69.4759 95.8315 67.485 93.7212 63.9015 93.7212C60.3181 93.7212 58.3272 95.8315 58.3272 99.196V107ZM76.2997 107H79.8434L84.3028 93.98H80.9184L78.1114 103.257L75.3043 93.98H71.8403L76.2997 107ZM87.5519 107H97.1676V104.014H90.777V101.684H96.0129V99.0964H90.777V96.9662H97.1676V93.98H87.5519V107ZM105.205 107.259C108.151 107.259 110.102 105.626 110.102 103.038C110.102 99.8729 107.733 99.4349 105.862 99.0964C104.647 98.8774 103.652 98.6784 103.652 97.8223C103.652 97.1454 104.11 96.4884 105.264 96.4884C106.379 96.4884 106.857 97.0857 106.877 97.8422H109.903C109.803 95.3736 107.952 93.7212 105.225 93.7212C102.417 93.7212 100.546 95.4731 100.546 97.9418C100.546 101.107 102.915 101.545 104.767 101.884C105.961 102.103 106.957 102.302 106.957 103.158C106.957 103.974 106.459 104.492 105.205 104.492C103.95 104.492 103.453 103.974 103.453 103.158H100.307C100.367 105.686 102.298 107.259 105.205 107.259ZM115.959 107H119.184V96.9662H122.748V93.98H112.415V96.9662H115.959V107ZM126.217 107H129.442V93.98H126.217V107ZM133.402 107H136.627V99.196C136.627 97.6033 137.383 96.7074 138.976 96.7074C140.568 96.7074 141.325 97.6033 141.325 99.196V107H144.55V99.196C144.55 95.8315 142.559 93.7212 138.976 93.7212C135.392 93.7212 133.402 95.8315 133.402 99.196V107ZM154.784 107.259C158.607 107.259 161.374 104.711 161.692 101.167V99.7534H153.988V102.341H158.169C157.571 103.616 156.417 104.273 154.784 104.273C152.574 104.273 151.121 102.68 151.121 100.49C151.121 98.3001 152.574 96.7074 154.784 96.7074C156.158 96.7074 157.233 97.3047 157.85 98.3001H161.394C160.538 95.5528 158.029 93.7212 154.784 93.7212C150.723 93.7212 147.856 96.588 147.856 100.49C147.856 104.392 150.723 107.259 154.784 107.259ZM51.4598 131H52.8932V119.294H57.3128V117.98H47.0402V119.294H51.4598V131ZM66.0627 131.259C70.124 131.259 72.9907 128.392 72.9907 124.49C72.9907 120.588 70.124 117.721 66.0627 117.721C62.0014 117.721 59.1346 120.588 59.1346 124.49C59.1346 128.392 62.0014 131.259 66.0627 131.259ZM66.0627 129.945C62.8176 129.945 60.568 127.636 60.568 124.49C60.568 121.345 62.8176 119.035 66.0627 119.035C69.3077 119.035 71.5573 121.345 71.5573 124.49C71.5573 127.636 69.3077 129.945 66.0627 129.945ZM76.5876 131H81.2461C85.7454 131 88.1543 128.392 88.1543 124.49C88.1543 120.588 85.7454 117.98 81.2461 117.98H76.5876V131ZM78.021 129.686V119.294H81.2461C84.9292 119.294 86.7209 121.364 86.7209 124.49C86.7209 127.616 84.9292 129.686 81.2461 129.686H78.021ZM91.432 131H92.8256V126.62H101.247V131H102.68V123.296C102.68 119.871 100.689 117.721 97.0461 117.721C93.4228 117.721 91.432 119.871 91.432 123.296V131ZM92.8256 125.306V123.296C92.8256 120.668 94.2789 119.035 97.0262 119.035C99.8134 119.035 101.247 120.668 101.247 123.296V125.306H92.8256ZM110.322 131H111.756V125.266L117.091 117.98H115.399L111.059 124.092L106.699 117.98H104.967L110.322 125.286V131Z" fill="white"/>
<defs>
<linearGradient id="paint0_linear_211_1972" x1="39.1666" y1="73.5" x2="101.167" y2="11" gradientUnits="userSpaceOnUse">
<stop stop-color="#F83600"/>
<stop offset="1" stop-color="#F9D423"/>
</linearGradient>
<linearGradient id="paint1_linear_211_1972" x1="39.1666" y1="73.5" x2="101.167" y2="11" gradientUnits="userSpaceOnUse">
<stop stop-color="#F83600"/>
<stop offset="1" stop-color="#F9D423"/>
</linearGradient>
<linearGradient id="paint2_linear_211_1972" x1="39.1666" y1="73.5" x2="101.167" y2="11" gradientUnits="userSpaceOnUse">
<stop stop-color="#F83600"/>
<stop offset="1" stop-color="#F9D423"/>
</linearGradient>
<linearGradient id="paint3_linear_211_1972" x1="34.9999" y1="48" x2="127.5" y2="48" gradientUnits="userSpaceOnUse">
<stop stop-color="#F83600"/>
<stop offset="1" stop-color="#F9D423"/>
</linearGradient>
<linearGradient id="paint4_linear_211_1972" x1="34.9999" y1="48" x2="127.5" y2="48" gradientUnits="userSpaceOnUse">
<stop stop-color="#F83600"/>
<stop offset="1" stop-color="#F9D423"/>
</linearGradient>
<linearGradient id="paint5_linear_211_1972" x1="34.9999" y1="48" x2="127.5" y2="48" gradientUnits="userSpaceOnUse">
<stop stop-color="#F83600"/>
<stop offset="1" stop-color="#F9D423"/>
</linearGradient>
<linearGradient id="paint6_linear_211_1972" x1="39.1666" y1="73.5" x2="92.9999" y2="47" gradientUnits="userSpaceOnUse">
<stop stop-color="#FF6E41"/>
<stop offset="1" stop-color="#FFEA7E"/>
</linearGradient>
<linearGradient id="paint7_linear_211_1972" x1="39.1666" y1="73.5" x2="92.9999" y2="47" gradientUnits="userSpaceOnUse">
<stop stop-color="#FF6E41"/>
<stop offset="1" stop-color="#FFEA7E"/>
</linearGradient>
<linearGradient id="paint8_linear_211_1972" x1="39.1666" y1="73.5" x2="92.9999" y2="47" gradientUnits="userSpaceOnUse">
<stop stop-color="#FF6E41"/>
<stop offset="1" stop-color="#FFEA7E"/>
</linearGradient>
<linearGradient id="paint9_linear_211_1972" x1="45" y1="16" x2="119" y2="16" gradientUnits="userSpaceOnUse">
<stop stop-color="#FF5858"/>
<stop offset="1" stop-color="#F09819"/>
</linearGradient>
<linearGradient id="paint10_linear_211_1972" x1="45.3332" y1="71.3334" x2="46.9108" y2="56.8979" gradientUnits="userSpaceOnUse">
<stop stop-color="#F83600"/>
<stop offset="1" stop-color="#F9D423"/>
</linearGradient>
</defs>
</svg>
