<svg fill="none" height="41" viewBox="0 0 41 41" width="41" xmlns="http://www.w3.org/2000/svg" xmlns:xlink="http://www.w3.org/1999/xlink"><linearGradient id="a"><stop offset="0" stop-color="#f83600"/><stop offset="1" stop-color="#f9d423"/></linearGradient><linearGradient id="b" gradientUnits="userSpaceOnUse" x1="-3.2321" x2="32.3899" xlink:href="#a" y1="42.2452" y2="7.62996"/><linearGradient id="c" gradientUnits="userSpaceOnUse" x1="-5.54066" x2="45.7093" xlink:href="#a" y1="27.5887" y2="27.5887"/><linearGradient id="d" gradientUnits="userSpaceOnUse" x1="-3.2321" x2="27.012" y1="42.2452" y2="27.8938"><stop offset="0" stop-color="#ff6e41"/><stop offset="1" stop-color="#ffea7e"/></linearGradient><linearGradient id="e" gradientUnits="userSpaceOnUse" x1="0" x2="41" y1="9.19625" y2="9.19625"><stop offset="0" stop-color="#ff5858"/><stop offset="1" stop-color="#f09819"/></linearGradient><linearGradient id="f" gradientUnits="userSpaceOnUse" x1=".18457" x2="1.12435" xlink:href="#a" y1="41" y2="32.7104"/><g fill="url(#b)"><path d="m12.0967 19.3504-11.91213-12.83644 6.37162 15.13554z"/><path d="m26.3175 12.3574-11.9122 7.472 6.0022.7663z"/><path d="m28.5337 11.3037 6.0022 3.9275 5.9099-12.35742-4.5247 6.6098-1.4313-2.39485z"/></g><path d="m.18457 6.51396v34.48594h6.37162v-19.3504z" fill="url(#c)"/><path d="m14.4053 40.9999h6.3716l-.3694-20.4042-6.0022-.7663z" fill="url(#c)"/><path d="m34.5359 15.2312-6.0022-3.9275v29.6962h6.0022z" fill="url(#c)"/><path d="m12.0967 40.9999v-21.6495l-5.54051 2.2991v19.3504z" fill="url(#d)"/><path d="m26.3175 40.9999v-28.6425l-5.91 8.2383.3694 20.4042z" fill="url(#d)"/><path d="m40.4458 40.9999v-38.12612l-5.9099 12.35742v25.7687z" fill="url(#d)"/><path d="m13.1126 18.3925-13.1126-14.17755 13.1126 10.63315 20.5-11.87848-.8311-1.53271 8.2185-1.43691-5.0788 6.7056-.8311-1.43691z" fill="url(#e)"/><path d="m.18457 37.1682 20.13063 3.8318 20.1306-3.8318v3.8318h-40.26123z" fill="url(#f)"/></svg>