<svg xmlns="http://www.w3.org/2000/svg" viewBox="0 0 512 512"><path fill="#0260c9" d="M465.408 96H46.592C20.912 96 0 116.912 0 142.592v226.816C0 395.088 20.912 416 46.592 416h418.816c25.68 0 46.592-20.912 46.592-46.592V142.592C512 116.912 491.088 96 465.408 96zM480 369.408c0 8.048-6.544 14.592-14.592 14.592H46.592C38.544 384 32 377.456 32 369.408V142.592C32 134.544 38.544 128 46.592 128h418.816c8.048 0 14.592 6.544 14.592 14.592v226.816z"/><path fill="#0260c9" d="M343.008 162.208c-6.256-6.256-16.368-6.256-22.624 0L157.408 325.184c-6.256 6.256-6.256 16.368 0 22.624a15.956 15.956 0 0011.312 4.688c4.096 0 8.192-1.552 11.312-4.688l162.976-162.976c6.256-6.256 6.256-16.368 0-22.624zM186.72 144.16c-26 0-47.152 21.152-47.152 47.152s21.152 47.152 47.152 47.152 47.152-21.152 47.152-47.152-21.152-47.152-47.152-47.152zm0 62.304c-8.352 0-15.152-6.8-15.152-15.152s6.8-15.152 15.152-15.152 15.152 6.8 15.152 15.152-6.8 15.152-15.152 15.152zm127.408 64.16c-26.416 0-47.904 21.488-47.904 47.904 0 26.416 21.488 47.904 47.904 47.904s47.904-21.488 47.904-47.904c0-26.416-21.488-47.904-47.904-47.904zm0 63.808c-8.768 0-15.904-7.136-15.904-15.904s7.136-15.904 15.904-15.904 15.904 7.136 15.904 15.904-7.136 15.904-15.904 15.904z"/></svg>