<svg xmlns="http://www.w3.org/2000/svg" width="72" height="72"><g fill-rule="evenodd" clip-rule="evenodd"><path d="M10.1 72H62c5.5 0 10-4.5 10-10.1V10.1C72 4.5 67.5 0 61.9 0H10.1C4.5 0 0 4.5 0 10.1V62c0 5.5 4.5 10 10.1 10z" fill="#7f4da0"/><path d="M36 10c14.4 0 26 11.6 26 26S50.4 62 36 62 10 50.4 10 36s11.6-26 26-26zm1.6 10.6c1.8.2 3.2.6 4.8 1.4 1.5.8 2.5 1.5 3.8 2.8 1.2 1.2 1.9 2.2 2.6 3.6 1 2 1.6 4.4 1.7 7 0 .9 0 1.1-.2 1.4-.4.5-1.2.4-1.5-.1-.1-.2-.1-.3-.1-1.1-.1-1.1-.1-1.8-.3-2.7-.6-3.3-2.2-6-4.8-7.9-2.1-1.6-4.3-2.4-7.2-2.6-1-.1-1.1-.1-1.4-.3-.4-.3-.4-1.1 0-1.4.2-.2.4-.3 1.2-.2.4 0 1 0 1.4.1zm-11.8.5c.2.1.5.2.6.3 1 .6 3.7 4.1 4.6 5.9.5 1 .7 1.7.5 2.3-.2.6-.4.9-1.7 1.9-.5.4-.9.8-1 .9-.2.3-.3.8-.3 1.2 0 .9.6 2.4 1.3 3.6.6.9 1.6 2.1 2.6 3 1.2 1.1 2.2 1.8 3.4 2.4 1.5.7 2.4.9 3.1.6.2-.1.3-.2.4-.2.1 0 .4-.5.9-1.1.8-1 1-1.2 1.6-1.4.7-.2 1.5-.2 2.2.2.6.3 1.8 1.1 2.6 1.6 1 .7 3.3 2.6 3.6 2.9.5.7.6 1.5.3 2.4-.4 1-1.9 2.8-2.9 3.6-.9.7-1.6 1-2.5 1-.7 0-1 0-1.9-.4-7.2-3-13-7.4-17.6-13.5-2.4-3.2-4.2-6.5-5.5-9.9-.7-2-.8-2.9-.2-3.9.3-.4 1.4-1.5 2.1-2.1 1.3-1 1.9-1.3 2.4-1.5.5.1 1 .1 1.4.2zm12.1 3.2c3.1.5 5.5 1.9 7.1 4.3.9 1.3 1.4 2.9 1.6 4.5.1.6.1 1.7 0 1.9-.1.2-.3.4-.5.5-.2.1-.6.1-.9 0-.4-.2-.5-.5-.5-1.4 0-1.3-.3-2.7-.9-3.8-.7-1.2-1.7-2.3-2.9-3-1-.6-2.6-1.1-4-1.2-.5 0-.8-.1-1-.4-.3-.3-.3-.8-.1-1.2.5-.3.9-.4 2.1-.2zm1.1 3.9c1 .2 1.8.6 2.5 1.2.9.8 1.3 1.8 1.5 3.2.1.9.1 1.3-.2 1.6-.3.3-.9.3-1.2 0-.2-.2-.3-.4-.4-.9-.1-.7-.2-1.2-.4-1.7-.5-1-1.2-1.5-2.6-1.6-.6-.1-.8-.1-1-.4-.4-.4-.2-1.2.3-1.4.2-.1.3-.1.7-.1.2 0 .6 0 .8.1z" fill="#fff"/></g></svg>