<svg xmlns="http://www.w3.org/2000/svg" viewBox="0 0 376.4 376.4"><path d="M375.76 191.32l-.32.16-54-134.4h24.64a8 8 0 000-16H195.52V17.96a8 8 0 00-16 0V41H29.04a8 8 0 000 16h25.68L.64 191.32a8 8 0 00-.64 2.96c0 36.738 29.782 66.52 66.52 66.52s66.52-29.782 66.52-66.52a8 8 0 00-.64-2.96l-54-134.4h101.12v247.36c-38.16 2.88-68 26.08-68 54.16a8 8 0 008 8h136a8 8 0 008-8c0-28.08-29.84-51.28-68-54.16V56.92h102.16L244 191.32a8 8 0 00-.64 2.96c0 36.738 29.782 66.52 66.52 66.52s66.52-29.782 66.52-66.52a8 8 0 00-.64-2.96zm-309.28 53.6c-24.778-.034-45.88-18.02-49.84-42.48H116c-3.94 24.341-24.863 42.29-49.52 42.48zm46.64-58.48H20L66.64 70.36l46.48 116.08zm132.96 164h-117.2c5.92-17.2 30.32-30.48 58.56-30.48s52.72 13.28 58.64 30.48zm63.44-280l46.48 116h-93.12l46.64-116zm0 174.48v.08c-24.683-.197-45.615-18.187-49.52-42.56h99.36c-3.96 24.46-25.062 42.446-49.84 42.48z"/></svg>