<svg width="27" height="25" viewBox="0 0 27 25" fill="none" xmlns="http://www.w3.org/2000/svg">
<path d="M3.17315 0C1.25635 0 0 1.25639 0 2.91545C0 4.5423 1.22413 5.83083 3.09261 5.83083H3.12486C5.07388 5.83083 6.29809 4.5423 6.29809 2.91545C6.26587 1.25639 5.08996 0 3.17315 0Z" fill="white"/>
<path d="M0.322266 8.13574H5.92772V25.0003H0.322266V8.13574Z" fill="white"/>
<path d="M19.6993 7.73242C16.6711 7.73242 14.6415 10.5674 14.6415 10.5674V8.11899H9.03613V24.9836H14.6415V15.5607C14.6415 15.0614 14.6737 14.5459 14.8187 14.1916C15.2214 13.1768 16.1395 12.1459 17.7019 12.1459C19.7315 12.1459 20.5369 13.6922 20.5369 15.9634V24.9836H26.1423V15.303C26.1584 10.1486 23.3879 7.73242 19.6993 7.73242Z" fill="white"/>
</svg>
