<svg width="150" height="78" viewBox="0 0 150 78" fill="none" xmlns="http://www.w3.org/2000/svg">
<path d="M36.1623 34.5178C37.7613 32.5498 38.9298 30.3973 39.6679 27.9987C40.4059 25.6002 40.7749 23.2017 40.7749 20.8032C40.7749 17.7896 40.2829 15.0221 39.2373 12.6236C38.2533 10.2251 36.7773 8.13406 34.8093 6.41205C32.8413 4.69003 30.4428 3.33702 27.6137 2.41451C24.7232 1.492 21.4637 1 17.7737 1H0V59.6715H11.5621V41.0369H19.2497L31.6728 59.6715H45.1414L31.4883 38.3923C33.3333 37.3468 34.9323 36.0553 36.1623 34.5178ZM11.5621 12.1931H19.8647C21.8942 12.1931 23.4932 12.5621 24.6617 13.2386C25.8302 13.9151 26.7527 14.7761 27.3062 15.7601C27.9212 16.7441 28.2902 17.7896 28.4748 18.7737C28.6593 19.7577 28.7823 20.5572 28.7823 21.2337C28.7823 22.0947 28.6593 23.0172 28.3517 24.0012C28.0442 24.9852 27.5522 25.9077 26.9372 26.8302C26.2607 27.7527 25.3382 28.4907 24.1697 29.0442C23.0012 29.6593 21.5252 29.9053 19.8032 29.9053H11.5621V12.1931Z" fill="white"/>
<path d="M112.31 59.733H123.872V36.6703H145.643V25.4772H123.872V12.1931H149.026V1H112.31V59.733Z" fill="white"/>
<path d="M79.6004 28.5977V39.7908H89.748V46.8634C88.7639 47.4169 87.5954 47.7859 86.2424 48.0319C84.8894 48.2779 83.3519 48.4009 81.6914 48.4009C78.8009 48.4009 76.2178 48.0319 73.8193 47.2324C71.4823 46.4329 69.3913 45.2644 67.6693 43.7269C65.9472 42.1894 64.5942 40.2829 63.6717 38.1303C62.6877 35.9163 62.2572 33.4563 62.2572 30.6888C62.2572 27.5522 62.6877 24.7847 63.5487 22.4477C64.4097 20.1107 65.6397 18.0812 67.3618 16.4821C69.0223 14.8831 71.1133 13.7146 73.5118 12.9151C75.9718 12.1156 78.8009 11.7466 81.9374 11.7466C83.2289 11.7466 84.7049 11.9311 86.3039 12.2386C87.9644 12.6076 89.5634 13.0381 91.1625 13.5301C92.7615 14.0836 94.053 14.5756 94.9755 15.1291L98.727 4.30504C96.5745 3.07503 93.8685 2.02952 90.732 1.23001C87.5954 0.430504 84.1514 0 80.3384 0C76.3408 0 72.5278 0.615005 68.8993 1.90652C65.2707 3.19803 62.0727 5.16605 59.2437 7.74907C56.4762 10.3936 54.2621 13.6531 52.6016 17.6507C51.0026 21.5867 50.1416 26.2607 50.1416 31.6728C50.1416 35.7933 50.8796 39.5448 52.2941 42.9889C53.7086 46.4329 55.7997 49.4464 58.5057 51.968C61.2117 54.4895 64.4712 56.4575 68.2843 57.872C72.0973 59.2865 76.4023 59.963 81.1994 59.963C82.9829 59.963 84.8894 59.7785 86.9189 59.348C88.9484 58.979 90.9165 58.4255 92.8845 57.8105C94.8525 57.1955 96.513 56.4575 98.0505 55.7195C99.5265 54.92 100.634 54.182 101.31 53.444V28.5977H79.6004Z" fill="white"/>
<path d="M2.95203 66.0516C3.50553 66.0516 4.05904 66.1131 4.48954 66.2976C4.98154 66.4206 5.41205 66.6666 5.71955 66.9741C6.08855 67.2816 6.33456 67.6506 6.58056 68.0811C6.76506 68.5116 6.88806 69.0036 6.88806 69.5571C6.88806 69.9876 6.82656 70.4181 6.70356 70.8486C6.58056 71.2791 6.33456 71.6481 6.08855 72.0171C5.78105 72.3861 5.41205 72.6321 4.92004 72.8781C4.42804 73.0626 3.87453 73.1856 3.13653 73.1856H1.47601V77.3062H0V66.1746H2.95203V66.0516ZM3.07503 71.6481C3.50553 71.6481 3.87453 71.5866 4.18204 71.4636C4.48954 71.3406 4.67404 71.1561 4.85854 70.9716C5.04305 70.7871 5.16605 70.5411 5.22755 70.2951C5.28905 70.0491 5.35055 69.8031 5.35055 69.6186C5.35055 69.3726 5.28905 69.1881 5.22755 68.9421C5.16605 68.6961 5.04305 68.4501 4.85854 68.2656C4.67404 68.0811 4.48954 67.8966 4.18204 67.7736C3.93604 67.6506 3.56703 67.5891 3.19803 67.5891H1.47601V71.7711H3.07503V71.6481ZM4.92004 72.5091L7.81057 77.1832H6.08855L3.13653 72.5706L4.92004 72.5091Z" fill="white"/>
<path d="M12.546 77.3062C11.808 77.3062 11.193 77.1832 10.6395 76.8757C10.086 76.5682 9.71701 76.1992 9.40951 75.6457C9.102 75.1537 8.979 74.5386 8.979 73.9236C8.979 73.3086 9.16351 72.7551 9.47101 72.2016C9.77851 71.7096 10.209 71.2791 10.7625 70.9716C11.316 70.6641 11.8695 70.4796 12.546 70.4796C13.407 70.4796 14.0835 70.7256 14.6371 71.2176C15.1906 71.7096 15.5596 72.3861 15.7441 73.2471L10.5165 75.0922L10.1475 74.2311L14.4526 72.6321L14.1451 72.8166C14.022 72.4476 13.8375 72.2016 13.53 71.9556C13.2225 71.7096 12.8535 71.5866 12.423 71.5866C12.054 71.5866 11.685 71.7096 11.3775 71.8941C11.07 72.0786 10.824 72.3246 10.6395 72.6936C10.455 73.0011 10.3935 73.3701 10.3935 73.8006C10.3935 74.2311 10.5165 74.6617 10.701 74.9692C10.8855 75.2767 11.1315 75.5842 11.439 75.7687C11.7465 75.9532 12.1155 76.0762 12.546 76.0762C12.8535 76.0762 13.0995 76.0147 13.3455 75.8917C13.5915 75.7687 13.8375 75.6457 14.0835 75.4612L14.7601 76.5067C14.4526 76.7527 14.0835 76.8757 13.7145 77.0602C13.3455 77.2447 12.915 77.3062 12.546 77.3062Z" fill="white"/>
<path d="M19.9879 77.3677L16.4209 70.7871H18.1429L20.5414 75.8302H19.6804L21.8944 70.7871H23.4935L20.1109 77.3677H19.9879Z" fill="white"/>
<path d="M27.798 77.3062C27.06 77.3062 26.445 77.1832 25.8915 76.8757C25.338 76.5682 24.969 76.1992 24.6615 75.6457C24.354 75.1537 24.231 74.5386 24.231 73.9236C24.231 73.3086 24.4155 72.7551 24.723 72.2016C25.0305 71.7096 25.461 71.2791 26.0145 70.9716C26.568 70.6641 27.1215 70.4796 27.798 70.4796C28.659 70.4796 29.3355 70.7256 29.889 71.2176C30.4425 71.7096 30.8115 72.3861 30.996 73.2471L25.7685 75.0922L25.3995 74.2311L29.7045 72.6321L29.397 72.8166C29.274 72.4476 29.0895 72.2016 28.782 71.9556C28.4745 71.7096 28.1055 71.5866 27.675 71.5866C27.306 71.5866 26.937 71.7096 26.6295 71.8941C26.322 72.0786 26.076 72.3246 25.8915 72.6936C25.707 73.0011 25.6455 73.3701 25.6455 73.8006C25.6455 74.2311 25.7685 74.6617 25.953 74.9692C26.1375 75.2767 26.3835 75.5842 26.691 75.7687C26.9985 75.9532 27.3675 76.0762 27.798 76.0762C28.1055 76.0762 28.3515 76.0147 28.5975 75.8917C28.8435 75.7687 29.0895 75.6457 29.3355 75.4612L30.012 76.5067C29.7045 76.7527 29.3355 76.8757 28.9665 77.0602C28.5975 77.2447 28.167 77.3062 27.798 77.3062Z" fill="white"/>
<path d="M34.1328 70.7871L34.2558 72.3246L34.1943 72.0786C34.3788 71.5866 34.7478 71.2176 35.1783 70.9716C35.6703 70.6641 36.1623 70.5411 36.7773 70.5411C37.3924 70.5411 37.8844 70.7256 38.2534 71.0946C38.6224 71.4636 38.8069 71.8941 38.8684 72.4476V77.1832H37.3924V73.0011C37.3924 72.6321 37.2693 72.3861 37.0848 72.1401C36.9003 71.8941 36.5928 71.8326 36.2238 71.8326C35.8548 71.8326 35.5473 71.9556 35.2398 72.1401C34.9323 72.3246 34.6863 72.6321 34.5633 73.0011C34.3788 73.3701 34.3173 73.8007 34.3173 74.2312V77.2447H32.8413V70.8486H34.1328V70.7871Z" fill="white"/>
<path d="M43.4197 77.4292C42.8661 77.4292 42.3741 77.2447 42.0051 76.8757C41.6361 76.5067 41.4516 76.0762 41.3901 75.5227V70.7871H42.8046V74.9692C42.8046 75.3382 42.9276 75.5842 43.1121 75.8302C43.2967 76.0762 43.6042 76.1377 43.9732 76.1992C44.3422 76.1992 44.6497 76.0762 44.9572 75.8917C45.2647 75.7072 45.4492 75.3997 45.6337 75.0307C45.8182 74.6617 45.8797 74.2312 45.8797 73.8007V70.8486H47.2942V77.2447H46.0027L45.8797 75.6457L45.9412 75.9532C45.8182 76.2607 45.6337 76.5067 45.3877 76.7527C45.1417 76.9987 44.8342 77.1832 44.5267 77.3062C44.2192 77.3677 43.7887 77.4292 43.4197 77.4292Z" fill="white"/>
<path d="M52.7672 77.3062C52.0292 77.3062 51.4142 77.1832 50.8607 76.8757C50.3072 76.5682 49.9382 76.1992 49.6307 75.6457C49.3232 75.1537 49.2002 74.5386 49.2002 73.9236C49.2002 73.3086 49.3847 72.7551 49.6922 72.2016C49.9997 71.7096 50.4302 71.2791 50.9837 70.9716C51.5372 70.6641 52.0907 70.4796 52.7672 70.4796C53.6282 70.4796 54.3047 70.7256 54.8582 71.2176C55.4118 71.7096 55.7808 72.3861 55.9653 73.2471L50.7377 75.0922L50.3687 74.2311L54.6737 72.6321L54.3662 72.8166C54.2432 72.4476 54.0587 72.2016 53.7512 71.9556C53.4437 71.7096 53.0747 71.5866 52.6442 71.5866C52.2752 71.5866 51.9062 71.7096 51.5987 71.8941C51.2912 72.0786 51.0452 72.3246 50.8607 72.6936C50.6762 73.0011 50.6147 73.3701 50.6147 73.8006C50.6147 74.2311 50.7377 74.6617 50.9222 74.9692C51.1067 75.2767 51.3527 75.5842 51.6602 75.7687C51.9677 75.9532 52.3367 76.0762 52.7672 76.0762C53.0747 76.0762 53.3207 76.0147 53.5667 75.8917C53.8127 75.7687 54.0587 75.6457 54.3047 75.4612L54.9812 76.5067C54.6737 76.7527 54.3047 76.8757 53.9357 77.0602C53.5667 77.2447 53.1362 77.3062 52.7672 77.3062Z" fill="white"/>
<path d="M63.0381 66.0516H69.6801V67.4661H64.5756V71.0331H69.0651V72.4476H64.5756V77.1832H63.0996V66.0516H63.0381Z" fill="white"/>
<path d="M73.5544 77.4292C73.0009 77.4292 72.5089 77.2447 72.1399 76.8757C71.7709 76.5067 71.5864 76.0762 71.5249 75.5227V70.7871H72.9394V74.9692C72.9394 75.3382 73.0624 75.5842 73.2469 75.8302C73.4314 76.0762 73.7389 76.1377 74.1079 76.1992C74.4769 76.1992 74.7844 76.0762 75.0919 75.8917C75.3994 75.7072 75.5839 75.3997 75.7684 75.0307C75.9529 74.6617 76.0144 74.2312 76.0144 73.8007V70.8486H77.429V77.2447H76.1374L76.0144 75.6457L76.0759 75.9532C75.9529 76.2607 75.7684 76.5067 75.5224 76.7527C75.2764 76.9987 74.9689 77.1832 74.6614 77.3062C74.3539 77.3677 73.9849 77.4292 73.5544 77.4292Z" fill="white"/>
<path d="M81.2422 70.7871L81.3652 72.3246L81.3037 72.0786C81.4882 71.5866 81.8572 71.2176 82.2877 70.9716C82.7797 70.6641 83.2717 70.5411 83.8867 70.5411C84.5017 70.5411 84.9937 70.7256 85.3628 71.0946C85.7318 71.4636 85.9163 71.8941 85.9778 72.4476V77.1832H84.5017V73.0011C84.5017 72.6321 84.3787 72.3861 84.1942 72.1401C84.0097 71.8941 83.7022 71.8326 83.3332 71.8326C82.9642 71.8326 82.6567 71.9556 82.3492 72.1401C82.0417 72.3246 81.7957 72.6321 81.6727 73.0011C81.4882 73.3701 81.4267 73.8007 81.4267 74.2312V77.2447H80.0122V70.8486H81.2422V70.7871Z" fill="white"/>
<path d="M91.0823 77.3062C90.4673 77.3062 89.9753 77.1832 89.4833 76.8757C88.9913 76.5682 88.6223 76.1992 88.3763 75.6457C88.0688 75.1537 87.9458 74.5387 87.9458 73.8622C87.9458 73.1242 88.0688 72.5706 88.3763 72.0171C88.6838 71.5251 89.0528 71.1561 89.5448 70.8486C90.0368 70.6026 90.5903 70.4181 91.2668 70.4181C91.7588 70.4181 92.2508 70.5411 92.6813 70.7256C93.1118 70.9716 93.4808 71.2176 93.7268 71.6481L93.6653 72.1401V65.1291H95.0799V77.0602H93.7268V75.4612L93.9114 75.8917C93.6038 76.2607 93.2348 76.6297 92.7428 76.8757C92.2508 77.1832 91.6973 77.3062 91.0823 77.3062ZM91.5128 76.1377C91.8818 76.1377 92.2508 76.0762 92.5583 75.9532C92.8658 75.8302 93.1118 75.6457 93.2963 75.3997C93.4808 75.1537 93.6038 74.8462 93.7268 74.5387V73.3087C93.6653 73.0011 93.4808 72.7551 93.2963 72.5091C93.1118 72.2631 92.8043 72.0786 92.5583 71.9556C92.2508 71.8326 91.9433 71.7711 91.5743 71.7711C91.2053 71.7711 90.8363 71.8941 90.5288 72.0786C90.2213 72.2631 89.9753 72.5091 89.7293 72.8781C89.5448 73.1857 89.4218 73.6162 89.4218 74.0467C89.4218 74.4772 89.5448 74.8462 89.7293 75.1537C89.9138 75.4612 90.1598 75.7687 90.5288 75.9532C90.7748 76.0147 91.1438 76.1377 91.5128 76.1377Z" fill="white"/>
<path d="M111.562 76.1992C111.377 76.3222 111.193 76.4452 110.885 76.5682C110.578 76.6912 110.332 76.8142 109.963 76.9372C109.655 77.0602 109.286 77.1217 108.917 77.1832C108.548 77.2447 108.241 77.2447 107.933 77.2447C107.011 77.2447 106.211 77.1217 105.535 76.8142C104.797 76.5067 104.182 76.1377 103.69 75.6457C103.198 75.1537 102.767 74.6002 102.521 73.9237C102.275 73.2471 102.091 72.5091 102.091 71.7711C102.091 70.8486 102.214 69.9876 102.521 69.3111C102.829 68.5731 103.259 67.9581 103.751 67.4661C104.305 66.9741 104.92 66.5436 105.596 66.2976C106.273 66.0516 107.011 65.9286 107.81 65.9286C108.487 65.9286 109.04 65.9901 109.594 66.1746C110.147 66.3591 110.639 66.5436 111.07 66.7896L110.578 68.1426C110.393 68.0196 110.147 67.8966 109.84 67.7736C109.532 67.6506 109.225 67.5891 108.917 67.5276C108.61 67.4661 108.302 67.4046 107.995 67.4046C107.318 67.4046 106.765 67.5276 106.211 67.7121C105.658 67.8966 105.227 68.2041 104.858 68.5731C104.489 68.9421 104.182 69.3726 103.997 69.9261C103.813 70.4796 103.69 71.0331 103.69 71.7096C103.69 72.3246 103.813 72.8781 103.997 73.3702C104.182 73.8622 104.489 74.2927 104.858 74.6617C105.227 75.0307 105.719 75.3382 106.211 75.5227C106.765 75.7072 107.318 75.8302 107.933 75.8302C108.302 75.8302 108.671 75.7687 109.04 75.7072C109.409 75.6457 109.717 75.5227 110.024 75.3997V73.1856H107.872V71.7711H111.562V76.1992Z" fill="white"/>
<path d="M115.375 70.7871L115.498 72.6321L115.437 72.3861C115.621 72.0171 115.867 71.6481 116.175 71.4021C116.482 71.1561 116.79 70.9101 117.159 70.7871C117.528 70.6641 117.774 70.5411 118.081 70.5411L118.02 71.9556C117.528 71.9556 117.097 72.0171 116.728 72.2631C116.359 72.5091 116.052 72.7551 115.867 73.1241C115.683 73.4932 115.56 73.8622 115.56 74.2927V77.1832H114.145V70.7871H115.375Z" fill="white"/>
<path d="M119.065 73.9237C119.065 73.3086 119.188 72.6936 119.495 72.2016C119.803 71.7096 120.233 71.2791 120.725 70.9716C121.279 70.6641 121.894 70.5411 122.57 70.5411C123.247 70.5411 123.862 70.6641 124.415 70.9716C124.969 71.2791 125.338 71.6481 125.645 72.2016C125.953 72.6936 126.076 73.3086 126.076 73.9237C126.076 74.5387 125.953 75.1537 125.645 75.6457C125.338 76.1377 124.969 76.5682 124.415 76.8757C123.862 77.1832 123.247 77.3062 122.57 77.3062C121.894 77.3062 121.279 77.1832 120.787 76.8757C120.295 76.5682 119.864 76.1992 119.557 75.7072C119.188 75.2152 119.065 74.6002 119.065 73.9237ZM120.479 73.9237C120.479 74.3542 120.602 74.7232 120.787 75.0307C120.971 75.3382 121.217 75.6457 121.525 75.8302C121.832 76.0147 122.201 76.1377 122.57 76.1377C123.001 76.1377 123.308 76.0147 123.616 75.8302C123.923 75.6457 124.169 75.3997 124.354 75.0307C124.538 74.7232 124.6 74.3542 124.6 73.9237C124.6 73.4931 124.538 73.1241 124.354 72.8166C124.169 72.5091 123.923 72.2016 123.616 72.0171C123.308 71.8326 122.939 71.7096 122.57 71.7096C122.201 71.7096 121.832 71.8326 121.525 72.0171C121.217 72.2016 120.971 72.5091 120.787 72.8166C120.602 73.1856 120.479 73.5546 120.479 73.9237Z" fill="white"/>
<path d="M131.919 70.7871L133.825 75.0922H133.518L135.301 70.7871H136.716L133.764 77.5522L131.734 73.1856L129.889 77.5522L126.937 70.7871H128.352L130.32 75.2767L129.828 75.2152L131.242 71.8941L130.75 70.7871H131.919Z" fill="white"/>
<path d="M138.807 67.9581H140.222V70.7871H142.005V71.8941H140.222V77.1217H138.807V71.9556H137.639V70.8486H138.807V67.9581Z" fill="white"/>
<path d="M143.727 77.1832V65.2521H145.141V72.2631L145.08 72.0171C145.326 71.5866 145.633 71.2176 146.064 70.9716C146.494 70.6641 147.048 70.5411 147.663 70.5411C148.278 70.5411 148.77 70.7256 149.139 71.0946C149.508 71.4636 149.692 71.8941 149.754 72.4476V77.1832H148.278V73.0012C148.278 72.6321 148.155 72.3861 147.97 72.1401C147.786 71.8941 147.478 71.8326 147.109 71.8326C146.74 71.8326 146.433 71.9556 146.125 72.1401C145.818 72.3246 145.572 72.6321 145.449 73.0012C145.264 73.3702 145.203 73.8007 145.203 74.2312V77.2447H143.727V77.1832Z" fill="white"/>
</svg>
