<svg width="25" height="19" viewBox="0 0 25 19" fill="none" xmlns="http://www.w3.org/2000/svg">
<path d="M12.5029 10.3136C12.8598 10.3136 13.1475 10.1202 13.3286 9.95909C15.6086 7.88562 22.1344 1.86397 24.1001 0.0483451C24.0255 0.0322301 23.9509 0 23.8657 0H1.13478C1.04955 0 0.974971 0.0322301 0.900391 0.0483451C2.86611 1.86397 9.39185 7.88562 11.6772 9.95909C11.853 10.1202 12.1407 10.3136 12.5029 10.3136Z" fill="white"/>
<path d="M14.0849 10.8077C13.6161 11.2321 13.0674 11.4577 12.4974 11.4577C11.9274 11.4577 11.3787 11.2321 10.9099 10.8077C10.6382 10.5606 10.292 10.2491 9.91906 9.8999C7.03175 12.3977 2.45041 16.7757 0.878906 18.2851C0.96414 18.3066 1.04405 18.3388 1.13461 18.3388H23.8655C23.9561 18.3388 24.036 18.3066 24.1212 18.2851C22.5497 16.7757 17.9684 12.3977 15.0811 9.90527C14.7028 10.2491 14.3566 10.5606 14.0849 10.8077Z" fill="white"/>
<path d="M0.0639257 0.827637C0.0319628 0.929699 0 1.03176 0 1.14457V17.1898C0 17.2972 0.0319628 17.3885 0.0585985 17.4906C1.57683 16.0295 6.13154 11.6784 9.07212 9.12688C6.12088 6.41955 1.57151 2.2189 0.0639257 0.827637Z" fill="white"/>
<path d="M15.9277 9.12688C18.8683 11.6731 23.423 16.0295 24.9413 17.4906C24.9679 17.3939 24.9999 17.2972 24.9999 17.1898V1.14457C24.9999 1.03176 24.9679 0.929699 24.9359 0.827637C23.4337 2.2189 18.879 6.41955 15.9277 9.12688Z" fill="white"/>
</svg>
