<svg width="25" height="36" viewBox="0 0 25 36" fill="none" xmlns="http://www.w3.org/2000/svg">
<path d="M12.5 0C5.60755 0 0 5.60755 0 12.5C0 21.1631 12.5123 35.9614 12.5123 35.9614C12.5123 35.9614 25 20.737 25 12.5C25 5.60755 19.3927 0 12.5 0ZM16.2715 16.16C15.2316 17.1997 13.8659 17.7197 12.5 17.7197C11.1343 17.7197 9.76822 17.1997 8.72871 16.16C6.64903 14.0806 6.64903 10.6969 8.72871 8.61721C9.73573 7.60975 11.0753 7.05487 12.5 7.05487C13.9247 7.05487 15.264 7.60996 16.2715 8.61721C18.3512 10.6969 18.3512 14.0806 16.2715 16.16Z" fill="white"/>
</svg>
