<svg width="25" height="20" viewBox="0 0 25 20" fill="none" xmlns="http://www.w3.org/2000/svg">
<path d="M22.8757 2.83126C22.3403 2.9793 21.9157 2.96083 21.9157 2.96083L21.9342 2.84978C22.4327 2.44267 23.6881 1.22134 23.8543 0.647682C23.9282 0.407114 23.8358 0.314534 23.8358 0.314534L22.2295 0.999262L20.8817 1.6099C19.9586 0.629122 18.5554 0 16.986 0C14.1981 0 11.9272 1.98004 11.9272 4.42272C11.9272 4.86685 12.001 5.68108 12.1303 6.08819C12.1303 6.21773 12.1303 5.95865 12.1303 6.08819C10.3393 6.03267 8.03141 5.29249 5.98201 4.25619C1.9386 2.20212 1.68016 0.777164 1.68016 0.777164C1.05241 1.46186 0.720041 3.70104 1.36625 5.45903C1.77244 6.58785 3.19416 7.58713 3.19416 7.58713C3.19416 7.58713 2.56642 7.6056 1.90175 7.36503C1.23708 7.14297 0.978596 6.92092 0.978596 6.92092C0.590872 7.88319 1.38471 9.60412 2.75098 10.844C3.54489 11.5657 5.00351 12.0099 5.00351 12.0099L2.73259 12.0653C2.60335 14.286 7.36674 15.5998 7.36674 15.5998C5.96355 16.6731 4.33884 17.3393 2.60331 17.3393C1.69862 17.3393 0.830838 17.2098 0 16.9507C2.28942 18.8567 5.24356 20.1522 8.45614 19.9856C16.9676 19.5415 21.7864 12.1949 22.008 4.97788L22.0265 4.9964C22.0265 4.9964 22.4326 4.79281 23.2819 3.94157C24.1312 3.09033 24.6667 2.09105 24.6667 2.09105C24.6667 2.09105 23.4111 2.68322 22.8757 2.83126ZM23.8358 0.314534C23.8358 0.333039 23.8543 0.44407 23.8358 0.314534V0.314534Z" fill="white"/>
</svg>
