<svg xmlns="http://www.w3.org/2000/svg" viewBox="0 0 384 384" width="16" height="16"><path d="M362.667 266.667c-26.56 0-52.267-4.267-76.16-12.16-7.36-2.347-15.787-.64-21.653 5.227l-46.933 47.04c-60.48-30.72-109.867-80.107-140.587-140.48l46.933-47.147c5.867-5.867 7.573-14.293 5.227-21.653-7.893-23.893-12.16-49.6-12.16-76.16A21.26 21.26 0 0096 0H21.333C9.6 0 0 9.493 0 21.333 0 221.653 162.347 384 362.667 384A21.259 21.259 0 00384 362.667V288a21.259 21.259 0 00-21.333-21.333z" data-original="#000000" class="active-path" data-old_color="#000000" fill="#043461"/></svg>