<svg id="Слой_2" data-name="Слой 2" xmlns="http://www.w3.org/2000/svg" viewBox="0 0 691.01 389.34" preserveAspectRatio="none"><defs><style>.cls-1{fill:#0b0c0c;}.cls-2{fill:#ea1d2a;}.cls-3{fill:#161616;}.cls-4,.cls-5{fill:none;stroke-miterlimit:10;}.cls-4{stroke:#c01a24;}.cls-5{stroke:#161616;}</style></defs><title>svg_block</title><polygon class="cls-1" points="0.01 0 0.01 294.33 95.01 389.33 691.01 389.33 691.01 0 0.01 0"/><g id="Слой_9" data-name="Слой 9"><polygon class="cls-2" points="95.01 389.34 0 294.43 0 293.03 96.42 389.34 95.01 389.34"/><polygon class="cls-3" points="0.08 284.01 0.08 282.59 249.6 33.08 250.31 33.78 0.08 284.01"/><line class="cls-4" x1="255.95" y1="27.43" x2="265.93" y2="17.45"/><polygon class="cls-3" points="272.29 11.8 271.58 11.1 282.67 0 284.09 0 272.29 11.8"/><line class="cls-5" x1="310.95" y1="388.93" x2="396.45" y2="303.43"/><line class="cls-4" x1="402.45" y1="297.43" x2="413.45" y2="286.43"/><polygon class="cls-3" points="422.06 278.53 421.35 277.82 691.01 8.16 691.01 9.57 422.06 278.53"/></g></svg>