<svg xmlns="http://www.w3.org/2000/svg" viewBox="0 0 261.472 261.472" width="20" height="20"><path d="M187.497 152.427H73.974c-38.111 0-69.117 31.006-69.117 69.117v39.928h251.758v-39.928c-.001-38.111-31.007-69.117-69.118-69.117zm54.117 94.046H19.856v-24.928c0-29.84 24.277-54.117 54.117-54.117h113.523c29.84 0 54.117 24.277 54.117 54.117l.001 24.928zM130.735 145.326c40.066 0 72.663-32.597 72.663-72.663S170.802 0 130.735 0 58.072 32.596 58.072 72.663s32.597 72.663 72.663 72.663zm0-130.326c31.796 0 57.663 25.867 57.663 57.663s-25.867 57.663-57.663 57.663-57.663-25.868-57.663-57.663S98.939 15 130.735 15z" data-original="#000000" class="active-path" data-old_color="#000000" fill="#237FFA"/></svg>