<svg xmlns="http://www.w3.org/2000/svg" width="25" height="24"><path fill="#918f8f" d="M18.384 5.034c.71 0 1.286.575 1.286 1.285v11.143c0 .71-.576 1.286-1.286 1.286H7.241c-.71 0-1.285-.576-1.285-1.286V6.319c0-.71.575-1.285 1.285-1.285zm-5.57 11.142a4.285 4.285 0 100-8.571 4.285 4.285 0 000 8.571zm4.713-7.714a1.286 1.286 0 100-2.573 1.286 1.286 0 000 2.573z"/><path fill="#918f8f" d="M16.242 11.89a3.428 3.428 0 11-6.856.001 3.428 3.428 0 016.856 0z"/><path fill="#918f8f" d="M12.813-.109c6.624.007 11.992 5.375 12 12 0 6.627-5.373 12-12 12-6.628 0-12-5.373-12-12 0-6.628 5.372-12 12-12zm7.714 6.428a2.146 2.146 0 00-2.143-2.143H7.241a2.146 2.146 0 00-2.143 2.143v11.143a2.146 2.146 0 002.143 2.143h11.143a2.145 2.145 0 002.143-2.143z"/></svg>