<svg xmlns="http://www.w3.org/2000/svg" width="63" height="65"><path fill="#7b7979" d="M50.436 14.038l-9.004 9.004h-3.03l10.519-10.52a1.072 1.072 0 011.515 1.516z"/><path fill="#7b7979" d="M52.196 15.126a43.082 43.082 0 01-3.872 7.916h-2.518a45.841 45.841 0 004.139-7.98l-2.048-2.048a49.75 49.75 0 00-15.448 10.028h-2.997c.185-.256.392-.495.618-.715a49.96 49.96 0 0117.763-11.564c.375-.118.785-.02 1.067.256 1.94 1.984 1.258 1.26 3.008 3.02.295.277.407.7.288 1.087z"/><path fill="#7b7979" d="M58.682 1.268L48.174 11.766l3.008 3.02L61.69 4.276c.401-.399.627-.94.63-1.505a2.133 2.133 0 00-3.638-1.504zM19.647 28.376h14.935a3.2 3.2 0 013.201 3.2v12.802a1.067 1.067 0 002.134 0V31.576a3.2 3.2 0 116.4 0v6.401a1.067 1.067 0 002.134 0v-6.401a3.2 3.2 0 013.2-3.2c.59 0 1.067-.478 1.067-1.067v-2.133H18.58v2.133c0 .589.478 1.067 1.067 1.067z"/><path fill="#7b7979" d="M60.187 25.176c1.178 0 2.133.955 2.133 2.134v1.066c0 17.087-13.851 30.938-30.937 30.938C14.296 59.314.445 45.463.445 28.376V27.31c0-1.18.955-2.134 2.134-2.134h13.868v2.134a3.2 3.2 0 003.2 3.2h14.936c.589 0 1.067.478 1.067 1.067v12.802a3.2 3.2 0 006.4 0V31.577a1.067 1.067 0 012.135 0v6.4a3.2 3.2 0 106.4 0v-6.4c0-.59.478-1.067 1.067-1.067a3.2 3.2 0 003.2-3.2v-2.134zM4.712 36.143a1.109 1.109 0 002.134-.598 25.445 25.445 0 01-1.067-6.102 1.067 1.067 0 00-2.133 0 27.456 27.456 0 001.066 6.7zm4.844 7.585a1.066 1.066 0 00.32-1.483 25.299 25.299 0 01-1.526-2.603 1.068 1.068 0 10-1.909.939 27.542 27.542 0 001.6 2.837c.322.49.98.629 1.472.31zm31.428 16.29v2.496a2.133 2.133 0 01-2.134 2.134H23.915a2.134 2.134 0 01-2.134-2.134v-2.496a32.976 32.976 0 0019.203 0z"/></svg>