<svg xmlns="http://www.w3.org/2000/svg" width="52" height="64"><path fill="#642281" d="M3.823 61.673h41.602v1.975H3.823zm20.21-1.363H38.23l-3.748-5.62-3.351 5.03-3.351-5.03-3.205 4.81-3.206-4.81-3.35 5.03-3.352-5.03-3.748 5.62h7.494zm22.777-28.9c1.19-.418 5.184 0 5.188.002v1.613s-3.926-.134-4.767.358c-.844.487-1.756 4.635-2.458 4.635h-.321c-.175 4.514-.79 9.534-2.53 11.124h1.74v2.57H7.722v-2.57H9.83c-1.7-1.549-2.32-6.344-2.511-10.767h-.097c-.705 0-1.612-4.145-2.458-4.635-.843-.49-4.762-.354-4.762-.354v-1.614s3.987-.422 5.186 0c.649.23 1.457.93 2.067 1.527.022-1.63.076-2.772.09-3.089H5.788v-1.947h39.997v1.947h-1.376c.012.311.064 1.401.089 2.97.62-.63 1.573-1.508 2.314-1.77zM12.214 45.858c.755 1.51 1.589 2.336 1.589 2.336s-.046-1.16-.243-2.753c-.108-.785-.23-1.707-.363-2.685-.14-.987-.3-1.915-.437-3.02-.07-.578-.18-1.028-.197-1.556-.043-.515-.083-1.023-.153-1.519-.137-.995-.186-1.915-.255-2.72-.108-.813-.106-1.465-.152-1.952-.05-.484-.043-.764-.043-.764s-.554.985-.89 2.633c-.076.41-.164.858-.255 1.325-.11.475-.087.971-.145 1.49-.042.516-.06 1.052-.075 1.603-.03.543-.026 1.161.027 1.67.042.531.054 1.078.193 1.641.117.545.19 1.112.363 1.602a14.697 14.697 0 001.036 2.67zm4.9-30.008c-.224-.395-.435-.808-.527-1.164-.279-.736-.292-1.485-.306-2.165.016-1.374.364-2.548.754-3.486.783-1.883 1.757-2.846 1.757-2.846s-.16 1.347-.28 3.193c-.044.926-.065 1.983.09 3.005.07.507.21 1.009.388 1.445.075.254.186.393.265.556.035.143.362.46.527.687l.033.046a1.622 1.622 0 01-.056-.063l.023.029.095.122.192.248c.12.166.257.322.358.5.174.36.403.705.512 1.08.274.734.356 1.489.356 2.17.03.694-.095 1.336-.22 1.92a8.808 8.808 0 01-.51 1.586c-.783 1.888-1.769 2.842-1.769 2.842s.18-1.345.301-3.19c.042-.92.055-1.975-.113-2.984-.06-.514-.248-.981-.419-1.421-.07-.236-.23-.406-.327-.618l-.527-.635c-.205-.296-.364-.42-.597-.857zm2.712-.716l-.01-.012-.001-.001.011.013zm3.091-5.822c-.221-.397-.432-.81-.524-1.167-.282-.734-.293-1.484-.31-2.164.017-1.375.365-2.548.757-3.487.783-1.881 1.758-2.846 1.758-2.846s-.162 1.349-.282 3.196c-.043.926-.064 1.98.089 3.005a6.1 6.1 0 00.388 1.446c.075.254.187.389.265.554.035.142.362.463.527.686l.036.046.008.013a3.754 3.754 0 00-.067-.075l.026.034.096.122.189.244c.119.166.256.323.357.499.174.362.404.707.512 1.082.273.733.356 1.489.356 2.17.028.693-.095 1.334-.222 1.919a8.795 8.795 0 01-.508 1.586c-.783 1.888-1.768 2.843-1.768 2.843s.179-1.347.3-3.191c.043-.92.055-1.974-.113-2.984-.06-.513-.248-.98-.42-1.421-.07-.235-.228-.406-.326-.617l-.527-.635c-.205-.297-.364-.42-.597-.858zm7.167 5.929c-.22-.398-.432-.81-.523-1.165-.282-.735-.292-1.485-.308-2.165.016-1.375.363-2.547.756-3.485.783-1.883 1.756-2.848 1.756-2.848s-.158 1.348-.28 3.194c-.044.926-.064 1.981.089 3.005.07.508.207 1.007.388 1.446.073.254.186.39.265.554.035.142.362.463.527.686l.035.047.011.017-.064-.076.022.031.094.122.19.243c.12.166.254.323.357.5.175.361.405.706.512 1.082.273.733.357 1.488.357 2.17.027.692-.096 1.334-.223 1.918a8.807 8.807 0 01-.507 1.587c-.784 1.888-1.768 2.842-1.768 2.842s.179-1.346.3-3.189c.04-.92.052-1.976-.114-2.985-.06-.514-.248-.98-.419-1.422-.07-.235-.23-.405-.327-.617l-.527-.635c-.206-.297-.365-.419-.599-.857z"/></svg>