<svg xmlns="http://www.w3.org/2000/svg" width="64" height="65"><path fill="#7b7979" d="M36.417 4.982c0 .976-.328 1.871-.866 2.603 4.568 1.003 8.425 3.896 10.73 7.814a4.377 4.377 0 012.216-1.64l.682 2.101a2.212 2.212 0 00-1.42 2.784 2.212 2.212 0 002.787 1.42c2.392-.779 2.178-4.89 1.8-7.433C48.656 5.911 41.729 1.23 33.68.648c2.157 1.313 2.737 2.953 2.737 4.334zm-20.918 8.776a4.378 4.378 0 012.215 1.64c2.304-3.917 6.16-6.81 10.729-7.813a4.384 4.384 0 01-.865-2.602h2.21c0 1.218.99 2.21 2.21 2.21a2.212 2.212 0 002.209-2.21c0-2.51-3.962-3.58-6.492-4.007-7.821 1.468-14.265 6.862-17.201 14.06 1.922-1.66 3.667-1.706 4.985-1.278z"/><path fill="#7b7979" d="M46.361 23.766c0 7.92-6.444 14.364-14.364 14.364-7.92 0-14.364-6.444-14.364-14.364 0-7.92 6.444-14.364 14.364-14.364 7.92 0 14.364 6.444 14.364 14.364zm-23.482 3.979a9.952 9.952 0 01-.626-1.988l-2.167.437c.168.832.427 1.65.769 2.434zm-.826-3.98c0-5.482 4.461-9.943 9.944-9.943v-2.21c-6.701 0-12.154 5.453-12.154 12.154z"/><path fill="#7b7979" d="M19.17 37.663c-1.467 2.018 1.07 5.184 2.867 7.027a23.01 23.01 0 009.96 2.28c4.483 0 8.658-1.3 12.21-3.51a7.763 7.763 0 01-.636.026c-2.117 0-3.37-.908-4.11-1.926a4.381 4.381 0 01-.829-2.616 16.487 16.487 0 01-13.27 0 4.378 4.378 0 01-.83 2.616l-1.787-1.299a2.217 2.217 0 00-.489-3.088 2.215 2.215 0 00-3.087.49zm30.695-15.282c-.472 0-.936-.077-1.376-.222.052.53.082 1.064.082 1.607 0 4.221-1.6 8.066-4.207 10.996a4.38 4.38 0 012.249 1.601l-1.786 1.3a2.213 2.213 0 00-3.088-.49 2.214 2.214 0 00-.488 3.087c1.465 2.016 5.259.585 7.56-.552 3.949-4.16 6.39-9.766 6.39-15.942 0-1.913-.26-3.763-.698-5.542-.583 2.455-1.962 3.514-3.276 3.941-.452.146-.91.216-1.362.216zM31.997 53.599c-1.178 0-24.653-.054-32.043-3.984v1.773c.563 1.564 11.758 4.42 32.043 4.42s31.48-2.856 32.048-4.457l-.002-1.737c-7.387 3.93-30.868 3.985-32.046 3.985zm0 8.839c-1.178 0-24.653-.054-32.043-3.984v1.774c.563 1.563 11.758 4.42 32.043 4.42s31.48-2.857 32.048-4.46l-.002-1.735c-7.387 3.93-30.868 3.985-32.046 3.985zM17.05 41.485c-.976-2.333-.482-4.002.33-5.12a4.377 4.377 0 012.25-1.603c-2.606-2.93-4.206-6.775-4.206-10.996 0-.543.029-1.078.08-1.607a4.38 4.38 0 01-2.735.005l.68-2.1a2.211 2.211 0 001.368-4.205c-2.374-.768-4.616 2.645-5.807 4.918a23.03 23.03 0 00-.216 2.99c0 7.1 3.214 13.458 8.256 17.718z"/><path fill="#7b7979" d="M31.997 60.228c20.258 0 31.45-2.85 32.045-4.45-.002-.004-.264-.408-1.704-1.003-8.75 3.194-29.243 3.243-30.34 3.243-1.099 0-21.59-.049-30.34-3.242-1.415.59-1.679 1.017-1.704 1.063v.017c.598 1.522 11.787 4.372 32.043 4.372zm0-8.839c20.285 0 31.48-2.857 32.048-4.458-.217-.534-3.6-2.507-15.776-3.663a25.298 25.298 0 01-16.272 5.91 25.298 25.298 0 01-16.272-5.91C3.602 44.418.196 46.38-.045 46.998v.017c.597 1.524 11.786 4.374 32.042 4.374z"/></svg>