<?xml version="1.0" standalone="no"?>
<!DOCTYPE svg PUBLIC "-//W3C//DTD SVG 1.1//EN" "http://www.w3.org/Graphics/SVG/1.1/DTD/svg11.dtd" >
<svg xmlns="http://www.w3.org/2000/svg" xmlns:xlink="http://www.w3.org/1999/xlink" version="1.1">
<metadata>
Created by FontForge 20170731 at Wed Jan  9 17:31:40 2019
 By Aleksey,,,
Copyright (c) 2019 by KYRYLO TKACHOV. All rights reserved.
</metadata>
<defs>
<font id="CLICKABLE-Black" horiz-adv-x="632" >
  <font-face 
    font-family="CLICKABLE"
    font-weight="900"
    font-stretch="normal"
    units-per-em="1000"
    panose-1="2 0 5 5 0 0 0 2 0 2"
    ascent="800"
    descent="-200"
    x-height="706"
    cap-height="706"
    bbox="-63 -170 6672 939"
    underline-thickness="50"
    underline-position="-200"
    unicode-range="U+0020-2022"
  />
<missing-glyph horiz-adv-x="335" 
 />
    <glyph glyph-name=".notdef" horiz-adv-x="335" 
 />
    <glyph glyph-name=".null" horiz-adv-x="0" 
 />
    <glyph glyph-name="nonmarkingreturn" horiz-adv-x="333" 
 />
    <glyph glyph-name="space" unicode=" " horiz-adv-x="335" 
 />
    <glyph glyph-name="exclam" unicode="!" horiz-adv-x="380" 
d="M139 -14q60 0 90 24t38 84q9 60 -14.5 83.5t-83.5 23.5t-89.5 -23t-38.5 -84q-8 -60 15 -84t83 -24zM83 270l45 436h224l-77 -436h-192z" />
    <glyph glyph-name="quotedbl" unicode="&#x22;" horiz-adv-x="515" 
d="M39 449l34 244l203 26l-78 -270h-159zM273 449l34 244l203 26l-78 -270h-159z" />
    <glyph glyph-name="numbersign" unicode="#" horiz-adv-x="892" 
d="M363 0l57 130h-144l-57 -130h-186l57 130h-79l23 166h128l50 114h-101l23 166h151l57 130h186l-57 -130h144l57 130h186l-57 -130h79l-23 -166h-129l-50 -114h102l-23 -166h-151l-57 -130h-186zM398 410l-50 -114h144l50 114h-144z" />
    <glyph glyph-name="dollar" unicode="$" horiz-adv-x="678" 
d="M65 482q21 151 215 193l8 57h216l-6 -41l128 -3l-27 -193q-85 9 -166 9q-70 0 -101.5 -6t-33.5 -26q-1 -9 5 -15.5t21.5 -11t29.5 -7.5t39 -7t40 -7q32 -6 58 -13.5t56 -22t49 -33.5t29.5 -48.5t5.5 -65.5q-11 -82 -65.5 -130.5t-158.5 -68.5l-8 -58h-216l6 42
q-133 2 -175 15l27 192q86 -19 203 -19q85 0 118 5.5t36 25.5q1 11 -7.5 18t-27.5 11.5t-39 7.5t-49 7.5t-49 8.5q-181 38 -161 184z" />
    <glyph glyph-name="percent" unicode="%" horiz-adv-x="1026" 
d="M79 508l6 45q25 175 217 175t167 -175l-6 -45q-24 -174 -216 -174q-102 0 -141 45t-27 129zM555 155l7 45q25 175 216 175q193 0 168 -175l-7 -45q-24 -174 -216 -174q-102 0 -141 45t-27 129zM65 0l719 706h176l-719 -706h-176zM345 506l7 49q3 25 -12 40t-55 15
q-75 0 -82 -55l-7 -49q-3 -25 12.5 -39.5t54.5 -14.5q75 0 82 54zM821 153l7 49q3 26 -12 40.5t-54 14.5q-76 0 -83 -55l-7 -49q-7 -54 68 -54q74 0 81 54z" />
    <glyph glyph-name="ampersand" unicode="&#x26;" horiz-adv-x="904" 
d="M21 198q19 136 167 186q-40 63 -32 123q31 215 384 215q138 0 190 -4l-31 -215q-121 18 -184 18q-74 0 -103 -11.5t-33 -40.5q-4 -23 20.5 -53t80.5 -78l48 -44l22 159h296l-24 -175h-121v-1l-20 -6l20 5q-9 -63 -34 -111l179 -165h-278l-44 42q-91 -56 -224 -56
q-131 0 -212.5 53t-66.5 159zM245 212q-4 -28 20.5 -45t67.5 -17q34 0 71 8l-92 89l-17 16q-47 -16 -50 -51z" />
    <glyph glyph-name="quotesingle" unicode="'" horiz-adv-x="281" 
d="M39 449l34 244l203 26l-78 -270h-159z" />
    <glyph glyph-name="parenleft" unicode="(" horiz-adv-x="407" 
d="M228 327q-15 -108 6.5 -212.5t75.5 -166.5h-162q-67 63 -96 167t-14 212t73.5 212t143.5 167h162q-72 -62 -123 -166.5t-66 -212.5z" />
    <glyph glyph-name="parenright" unicode=")" horiz-adv-x="407" 
d="M179 327q15 108 -7 213t-76 166h162q67 -62 96.5 -166.5t14.5 -212.5t-74 -212t-144 -167h-161q71 62 122.5 166.5t66.5 212.5z" />
    <glyph glyph-name="asterisk" unicode="*" horiz-adv-x="654" 
d="M379 212l-62 181l-112 -181l-107 86l165 138v1l-195 26l65 140l163 -96l-9 197h148l-65 -197l191 96l25 -140l-202 -26l126 -139zM384 437l-1 2v-3z" />
    <glyph glyph-name="plus" unicode="+" horiz-adv-x="582" 
d="M39 262l27 186h144l21 145h186l-21 -145h146l-27 -186h-145l-20 -145h-186l20 145h-145z" />
    <glyph glyph-name="comma" unicode="," horiz-adv-x="298" 
d="M-6 -122l90 318h216l-187 -360z" />
    <glyph glyph-name="hyphen" unicode="-" horiz-adv-x="441" 
d="M29 242l27 186h355l-27 -186h-355z" />
    <glyph glyph-name="period" unicode="." horiz-adv-x="292" 
d="M130 -14q-60 0 -83 24t-14 84q8 60 37.5 83.5t90.5 23.5q60 0 83 -23.5t15 -83.5q-9 -60 -39 -84t-90 -24z" />
    <glyph glyph-name="slash" unicode="/" horiz-adv-x="519" 
d="M-41 0l395 706h206l-396 -706h-205z" />
    <glyph glyph-name="zero" unicode="0" horiz-adv-x="800" 
d="M48 258l27 190q39 278 377 278q179 0 248.5 -72t50.5 -206l-27 -190q-39 -278 -377 -278q-179 0 -248.5 72t-50.5 206zM504 258l27 190q5 37 -19.5 58t-87.5 21q-118 0 -129 -79l-27 -190q-5 -37 19.5 -58t87.5 -21q118 0 129 79z" />
    <glyph glyph-name="one" unicode="1" horiz-adv-x="455" 
d="M21 449l27 190l286 67h92l-99 -706h-216l67 480z" />
    <glyph glyph-name="two" unicode="2" horiz-adv-x="686" 
d="M343 719q192 0 262.5 -60t53.5 -181v-1q-8 -53 -32 -91.5t-67.5 -64t-86.5 -41t-109 -31.5q-107 -25 -126 -49h375l-28 -200h-601l18 134q13 98 72.5 149t190.5 91q92 28 130 46.5t42 43.5q4 27 -23 37t-110 10q-95 0 -234 -27l30 212q122 23 243 23z" />
    <glyph glyph-name="three" unicode="3" horiz-adv-x="679" 
d="M247 173q82 0 117.5 12.5t39.5 39.5t-28.5 39.5t-116.5 12.5q-30 0 -142 -8l14 100l213 135h-279l28 200h570l-21 -153l-196 -104q113 -14 152.5 -69.5t25.5 -153.5q-17 -119 -114 -181.5t-290 -62.5q-129 0 -223 19l27 195q102 -21 223 -21z" />
    <glyph glyph-name="four" unicode="4" horiz-adv-x="697" 
d="M-20 152l27 200l413 354h182l-55 -388h137l-27 -190h-136l-18 -128h-216l18 128h-328l4 24h-1zM173 318h158l22 155z" />
    <glyph glyph-name="five" unicode="5" horiz-adv-x="676" 
d="M244 173q82 0 117.5 12.5t39.5 39.5t-28.5 39.5t-116.5 12.5q-132 0 -212 -10l90 437h546l-28 -200h-360l-16 -57q44 4 91 4q159 0 214.5 -57t39.5 -170q-17 -119 -114 -181.5t-290 -62.5q-129 0 -223 19l27 195q102 -21 223 -21z" />
    <glyph glyph-name="six" unicode="6" horiz-adv-x="779" 
d="M293 433l-1 -4q68 26 156 26q161 0 224 -61.5t47 -175.5q-34 -238 -369 -238q-179 0 -249.5 72t-52.5 206l25 175q40 288 442 288q123 0 204 -14l-29 -201q-131 16 -203 16q-182 0 -194 -89zM264 225l-1 -4q-7 -68 109 -68q117 0 128 72q5 33 -20 52.5t-88 19.5
q-119 0 -128 -72z" />
    <glyph glyph-name="seven" unicode="7" horiz-adv-x="630" 
d="M415 506h-366l28 200h594l-21 -154q-171 -113 -256 -248t-109 -305h-222q24 170 119.5 298.5t232.5 208.5z" />
    <glyph glyph-name="eight" unicode="8" horiz-adv-x="754" 
d="M97 514q29 211 332 211q159 0 222.5 -54.5t49.5 -156.5q-14 -101 -89 -153q82 -52 66 -167q-29 -214 -354 -214q-171 0 -239.5 55.5t-54.5 158.5q16 115 112 167q-59 51 -45 153zM245 223q-4 -32 20 -50.5t84 -18.5q113 0 122 69q5 32 -19 50.5t-84 18.5q-112 0 -123 -69
zM496 487q5 31 -15.5 48t-75.5 17q-101 0 -111 -65q-9 -65 92 -65t110 65z" />
    <glyph glyph-name="nine" unicode="9" horiz-adv-x="775" 
d="M725 448l-24 -175q-20 -140 -127 -213t-317 -73q-111 0 -206 19l28 201q103 -21 206 -21q184 0 196 87v3q-64 -25 -153 -25q-160 0 -222.5 61t-46.5 176q33 238 366 238q179 0 249 -72t51 -206zM510 481v4q3 32 -21 50t-85 18q-115 0 -126 -72q-5 -34 19 -53t87 -19
q115 0 126 72z" />
    <glyph glyph-name="colon" unicode=":" horiz-adv-x="312" 
d="M115 -14q-60 0 -83 24t-14 84q8 60 37.5 83.5t90.5 23.5q60 0 83 -23.5t15 -83.5q-9 -60 -39 -84t-90 -24zM165 341q-60 0 -83 24t-14 84q8 60 37.5 83.5t90.5 23.5q60 0 83 -23.5t15 -83.5q-9 -60 -39 -84t-90 -24z" />
    <glyph glyph-name="semicolon" unicode=";" horiz-adv-x="294" 
d="M176 341q-60 0 -83 24t-15 84q9 61 38.5 84t89.5 23t83.5 -23.5t14.5 -83.5q-8 -60 -38 -84t-90 -24zM-35 -122l90 318h216l-187 -360z" />
    <glyph glyph-name="less" unicode="&#x3c;" horiz-adv-x="592" 
d="M38 216l13 92l13 94l13 92l489 160l-28 -196l-335 -103l306 -103l-28 -196z" />
    <glyph glyph-name="equal" unicode="=" horiz-adv-x="602" 
d="M75 408l26 186h466l-26 -186h-466zM34 116l26 186h466l-26 -186h-466z" />
    <glyph glyph-name="greater" unicode="&#x3e;" horiz-adv-x="592" 
d="M553 494l-13 -92l-13 -94l-13 -92l-489 -160l28 196l334 103l-305 103l28 196z" />
    <glyph glyph-name="question" unicode="?" horiz-adv-x="591" 
d="M108 260q-13 44 5.5 76.5t55.5 50t75.5 31t69 28.5t32.5 33q3 22 -24.5 29t-96.5 7q-52 0 -179 -13l31 216q52 4 180 4q169 -1 255.5 -53t70.5 -168q-7 -47 -34 -83t-68 -56.5t-82 -31.5t-87 -16l-5 -34zM178 -14q59 0 89 24t39 84t-14.5 83.5t-83.5 23.5t-89.5 -23
t-38.5 -84q-9 -60 14.5 -84t83.5 -24z" />
    <glyph glyph-name="at" unicode="@" horiz-adv-x="916" 
d="M732 510l-28 -201q-11 -73 27 -73q20 0 31.5 19t18.5 61q23 164 -49.5 237.5t-225.5 73.5q-318 0 -361 -311h-109q27 193 157.5 301.5t326.5 108.5t296.5 -108.5t73.5 -301.5q-16 -108 -71.5 -166t-145.5 -58q-97 0 -132 61q-57 -61 -150 -61q-96 0 -141 55t-29 162
q15 107 75 162t156 55q76 0 113 -51l21 35h146zM36 316h109q-24 -165 49.5 -238t234.5 -73q101 0 172 13t143 44l-15 -102q-139 -54 -314 -54q-206 0 -306.5 107.5t-72.5 302.5zM403 309q-9 -58 49 -58q32 0 49 11t23 40q0 5 1 8v5q3 29 -10.5 40.5t-45.5 11.5
q-26 0 -44 -14t-22 -44z" />
    <glyph glyph-name="A" unicode="A" horiz-adv-x="758" 
d="M563 706l159 -706h-232l-24 124h-240l-58 -124h-231l356 706h270zM397 484l-84 -177h118z" />
    <glyph glyph-name="B" unicode="B" horiz-adv-x="753" 
d="M699 205q-29 -205 -360 -205h-306l99 706h274q161 0 239 -51t63 -156q-14 -89 -76 -138q80 -51 67 -156zM480 228q4 30 -17 38.5t-83 8.5h-93l-13 -95h92q63 0 86.5 9t27.5 39zM487 478q4 30 -17 39t-83 9h-64l-14 -96h64q62 0 86 9t28 39z" />
    <glyph glyph-name="C" unicode="C" 
d="M392 -15q-197 0 -289 92t-66 276t143.5 276.5t314.5 92.5q65 0 132 -5l-30 -211q-72 7 -131 7q-98 0 -147 -34t-62 -126q-12 -92 26.5 -125.5t137.5 -33.5q54 0 136 8l-29 -211q-82 -6 -136 -6z" />
    <glyph glyph-name="D" unicode="D" horiz-adv-x="825" 
d="M787 353q-25 -174 -137.5 -263.5t-298.5 -89.5h-318l99 706h318q186 0 273.5 -89.5t63.5 -263.5zM567 353q12 86 -23 119.5t-122 33.5h-102l-43 -306h102q88 0 132 33.5t56 119.5z" />
    <glyph glyph-name="E" unicode="E" 
d="M33 0l99 706h486l-28 -200h-270l-8 -58h133l-25 -180h-134l-9 -68h280l-28 -200h-496z" />
    <glyph glyph-name="F" unicode="F" horiz-adv-x="597" 
d="M33 0l99 706h476l-28 -200h-260l-14 -98h153l-25 -180h-153l-32 -228h-216z" />
    <glyph glyph-name="G" unicode="G" horiz-adv-x="758" 
d="M389 -15q-197 0 -287.5 92t-64.5 276q26 185 145.5 277t322.5 92q91 0 169 -6l-29 -212q-92 9 -169 9q-104 0 -155 -34t-64 -126q-12 -87 30 -123t139 -36h33l22 158h213l-46 -332q-138 -35 -259 -35z" />
    <glyph glyph-name="H" unicode="H" horiz-adv-x="832" 
d="M484 0l37 267h-235l-37 -267h-216l99 706h216l-36 -253h235l36 253h216l-99 -706h-216z" />
    <glyph glyph-name="I" unicode="I" horiz-adv-x="386" 
d="M35 0l99 706h216l-99 -706h-216z" />
    <glyph glyph-name="J" unicode="J" horiz-adv-x="495" 
d="M64 520l26 186h388l-68 -483q-19 -131 -120 -188t-301 -49l28 207q77 -7 126 5.5t53 40.5l40 281h-172z" />
    <glyph glyph-name="K" unicode="K" horiz-adv-x="765" 
d="M480 0l-151 267h-43l-37 -267h-216l99 706h216l-36 -253h41l226 253h247l-313 -342l214 -364h-247z" />
    <glyph glyph-name="L" unicode="L" horiz-adv-x="577" 
d="M33 0l99 706h216l-71 -506h260l-28 -200h-476z" />
    <glyph glyph-name="M" unicode="M" horiz-adv-x="1051" 
d="M389 0l-82 430l-60 -430h-214l99 706h302l79 -443l203 443h301l-99 -706h-214l60 427l-201 -427h-174z" />
    <glyph glyph-name="N" unicode="N" horiz-adv-x="895" 
d="M455 0l-144 454l-64 -454h-214l99 706h307l144 -455l64 455h214l-99 -706h-307z" />
    <glyph glyph-name="O" unicode="O" horiz-adv-x="848" 
d="M810 353q-26 -185 -139 -279t-300 -94t-273 94t-60 279q25 185 138 279t300 94t273 -94t61 -279zM258 353q-13 -92 21 -128t121 -36t132 36t58 128q12 92 -22 128t-121 36q-88 0 -132.5 -36t-56.5 -128z" />
    <glyph glyph-name="P" unicode="P" horiz-adv-x="730" 
d="M723 459q-18 -126 -106.5 -186.5t-265.5 -60.5h-73l-29 -212h-216l99 706h288q176 0 248.5 -61t54.5 -186zM503 458q4 29 -17 39t-86 10h-80l-14 -99h80q65 0 89 10.5t28 39.5z" />
    <glyph glyph-name="Q" unicode="Q" horiz-adv-x="839" 
d="M810 353q-15 -105 -59 -183q13 -9 33 -9t44 7l-27 -191q-33 -6 -62 -6q-84 0 -133 60q-98 -51 -234 -51q-187 0 -273.5 94t-60.5 279t139 279t300 94t273 -94t60 -279zM258 353q-13 -92 21.5 -128t121.5 -36q62 0 102 17l-53 94h128q7 22 12 53q13 92 -21.5 128
t-121.5 36t-131.5 -36t-57.5 -128z" />
    <glyph glyph-name="R" unicode="R" horiz-adv-x="788" 
d="M731 463q-21 -146 -143 -203l21 -36q17 -30 60 -30q27 0 60 7l-29 -208q-40 -5 -83 -5q-76 0 -115.5 22t-70.5 84l-66 127h-84l-31 -221h-216l99 706h216v-1h78q176 0 248.5 -59.5t55.5 -182.5zM511 462q4 26 -17.5 35.5t-86.5 9.5h-86l-13 -91h86q65 0 89 9.5t28 36.5z
" />
    <glyph glyph-name="S" unicode="S" horiz-adv-x="678" 
d="M67 491q31 229 394 231q123 0 175 -4l-30 -213q-95 10 -171 10q-70 0 -101.5 -7t-34.5 -29q-1 -10 5 -17.5t21.5 -12.5t29 -7.5t39.5 -7t40 -7.5q217 -45 195 -204q-17 -125 -117 -180.5t-305 -56.5q-147 0 -198 15l30 213q32 -8 96 -14.5t107 -6.5q84 0 117 6.5t37 28.5
q2 12 -7 20t-28 13t-38.5 8.5t-48.5 8t-49 9.5q-181 43 -158 204z" />
    <glyph glyph-name="T" unicode="T" horiz-adv-x="630" 
d="M38 506l28 200h596l-28 -200h-190l-71 -506h-216l71 506h-190z" />
    <glyph glyph-name="U" unicode="U" horiz-adv-x="827" 
d="M540 323l54 383h216l-56 -393q-46 -331 -392 -333q-345 0 -299 333l56 393h216l-54 -383q-10 -74 15.5 -104t94.5 -30t104 30t45 104z" />
    <glyph glyph-name="V" unicode="V" horiz-adv-x="762" 
d="M196 0l-159 706h232l92 -490l230 490h232l-357 -706h-270z" />
    <glyph glyph-name="W" unicode="W" horiz-adv-x="1120" 
d="M151 0l-109 706h227l52 -456l200 456h176l71 -456l181 456h227l-307 -706h-233l-66 427l-186 -427h-233z" />
    <glyph glyph-name="X" unicode="X" horiz-adv-x="780" 
d="M310 706l107 -177l155 177h242l-304 -332l227 -374h-247l-125 206l-180 -206h-241l327 362l-208 344h247z" />
    <glyph glyph-name="Y" unicode="Y" horiz-adv-x="728" 
d="M206 0l37 262l-228 444h241l119 -269l195 269h241l-352 -444l-37 -262h-216z" />
    <glyph glyph-name="Z" unicode="Z" horiz-adv-x="689" 
d="M107 506l28 200h530l-28 -200l-365 -306h342l-28 -200h-588l28 200l365 306h-284z" />
    <glyph glyph-name="a" unicode="a" horiz-adv-x="758" 
d="M563 706l159 -706h-232l-24 124h-240l-58 -124h-231l356 706h270zM397 484l-84 -177h118z" />
    <glyph glyph-name="b" unicode="b" horiz-adv-x="753" 
d="M699 205q-29 -205 -360 -205h-306l99 706h274q161 0 239 -51t63 -156q-14 -89 -76 -138q80 -51 67 -156zM480 228q4 30 -17 38.5t-83 8.5h-93l-13 -95h92q63 0 86.5 9t27.5 39zM487 478q4 30 -17 39t-83 9h-64l-14 -96h64q62 0 86 9t28 39z" />
    <glyph glyph-name="c" unicode="c" 
d="M392 -15q-197 0 -289 92t-66 276t143.5 276.5t314.5 92.5q65 0 132 -5l-30 -211q-72 7 -131 7q-98 0 -147 -34t-62 -126q-12 -92 26.5 -125.5t137.5 -33.5q54 0 136 8l-29 -211q-82 -6 -136 -6z" />
    <glyph glyph-name="d" unicode="d" horiz-adv-x="825" 
d="M787 353q-25 -174 -137.5 -263.5t-298.5 -89.5h-318l99 706h318q186 0 273.5 -89.5t63.5 -263.5zM567 353q12 86 -23 119.5t-122 33.5h-102l-43 -306h102q88 0 132 33.5t56 119.5z" />
    <glyph glyph-name="e" unicode="e" 
d="M33 0l99 706h486l-28 -200h-270l-8 -58h133l-25 -180h-134l-9 -68h280l-28 -200h-496z" />
    <glyph glyph-name="f" unicode="f" horiz-adv-x="597" 
d="M33 0l99 706h476l-28 -200h-260l-14 -98h153l-25 -180h-153l-32 -228h-216z" />
    <glyph glyph-name="g" unicode="g" horiz-adv-x="758" 
d="M389 -15q-197 0 -287.5 92t-64.5 276q26 185 145.5 277t322.5 92q91 0 169 -6l-29 -212q-92 9 -169 9q-104 0 -155 -34t-64 -126q-12 -87 30 -123t139 -36h33l22 158h213l-46 -332q-138 -35 -259 -35z" />
    <glyph glyph-name="h" unicode="h" horiz-adv-x="833" 
d="M484 0l37 267h-235l-37 -267h-216l99 706h216l-36 -253h235l36 253h216l-99 -706h-216z" />
    <glyph glyph-name="i" unicode="i" horiz-adv-x="386" 
d="M35 0l99 706h216l-99 -706h-216z" />
    <glyph glyph-name="j" unicode="j" horiz-adv-x="495" 
d="M64 520l26 186h388l-68 -483q-19 -131 -120 -188t-301 -49l28 207q77 -7 126 5.5t53 40.5l40 281h-172z" />
    <glyph glyph-name="k" unicode="k" horiz-adv-x="765" 
d="M480 0l-151 267h-43l-37 -267h-216l99 706h216l-36 -253h41l226 253h247l-313 -342l214 -364h-247z" />
    <glyph glyph-name="l" unicode="l" horiz-adv-x="577" 
d="M33 0l99 706h216l-71 -506h260l-28 -200h-476z" />
    <glyph glyph-name="m" unicode="m" horiz-adv-x="1051" 
d="M389 0l-82 430l-60 -430h-214l99 706h302l79 -443l203 443h301l-99 -706h-214l60 427l-201 -427h-174z" />
    <glyph glyph-name="n" unicode="n" horiz-adv-x="895" 
d="M455 0l-144 454l-64 -454h-214l99 706h307l144 -455l64 455h214l-99 -706h-307z" />
    <glyph glyph-name="o" unicode="o" horiz-adv-x="848" 
d="M810 353q-26 -185 -139 -279t-300 -94t-273 94t-60 279q25 185 138 279t300 94t273 -94t61 -279zM258 353q-13 -92 21 -128t121 -36t132 36t58 128q12 92 -22 128t-121 36q-88 0 -132.5 -36t-56.5 -128z" />
    <glyph glyph-name="p" unicode="p" horiz-adv-x="730" 
d="M723 459q-18 -126 -106.5 -186.5t-265.5 -60.5h-73l-29 -212h-216l99 706h288q176 0 248.5 -61t54.5 -186zM503 458q4 29 -17 39t-86 10h-80l-14 -99h80q65 0 89 10.5t28 39.5z" />
    <glyph glyph-name="q" unicode="q" horiz-adv-x="839" 
d="M810 353q-15 -105 -59 -183q13 -9 33 -9t44 7l-27 -191q-33 -6 -62 -6q-84 0 -133 60q-98 -51 -234 -51q-187 0 -273.5 94t-60.5 279t139 279t300 94t273 -94t60 -279zM258 353q-13 -92 21.5 -128t121.5 -36q62 0 102 17l-53 94h128q7 22 12 53q13 92 -21.5 128
t-121.5 36t-131.5 -36t-57.5 -128z" />
    <glyph glyph-name="r" unicode="r" horiz-adv-x="788" 
d="M731 463q-21 -146 -143 -203l21 -36q17 -30 60 -30q28 0 61 7l-29 -208q-40 -5 -84 -5q-76 0 -115.5 22t-70.5 84l-66 127h-84l-31 -221h-216l99 706h216v-1h78q176 0 248.5 -59.5t55.5 -182.5zM511 462q4 26 -17.5 35.5t-86.5 9.5h-86l-13 -91h86q65 0 89 9.5t28 36.5z
" />
    <glyph glyph-name="s" unicode="s" horiz-adv-x="678" 
d="M67 491q31 229 394 231q123 0 175 -4l-30 -213q-95 10 -171 10q-70 0 -101.5 -7t-34.5 -29q-1 -10 5 -17.5t21.5 -12.5t29 -7.5t39.5 -7t40 -7.5q217 -45 195 -204q-17 -125 -117 -180.5t-305 -56.5q-147 0 -198 15l30 213q32 -8 96 -14.5t107 -6.5q84 0 117 6.5t37 28.5
q2 12 -7 20t-28 13t-38.5 8.5t-48.5 8t-49 9.5q-181 43 -158 204z" />
    <glyph glyph-name="t" unicode="t" horiz-adv-x="630" 
d="M38 506l28 200h596l-28 -200h-190l-71 -506h-216l71 506h-190z" />
    <glyph glyph-name="u" unicode="u" horiz-adv-x="827" 
d="M540 323l54 383h216l-56 -393q-46 -331 -392 -333q-345 0 -299 333l56 393h216l-54 -383q-10 -74 15.5 -104t94.5 -30t104 30t45 104z" />
    <glyph glyph-name="v" unicode="v" horiz-adv-x="762" 
d="M196 0l-159 706h232l92 -490l230 490h232l-357 -706h-270z" />
    <glyph glyph-name="w" unicode="w" horiz-adv-x="1120" 
d="M151 0l-109 706h227l52 -456l200 456h176l71 -456l181 456h227l-307 -706h-233l-66 427l-186 -427h-233z" />
    <glyph glyph-name="x" unicode="x" horiz-adv-x="780" 
d="M310 706l107 -177l155 177h242l-304 -332l227 -374h-247l-125 206l-180 -206h-241l327 362l-208 344h247z" />
    <glyph glyph-name="y" unicode="y" horiz-adv-x="728" 
d="M206 0l37 262l-228 444h241l119 -269l195 269h241l-352 -444l-37 -262h-216z" />
    <glyph glyph-name="z" unicode="z" horiz-adv-x="689" 
d="M107 506l28 200h530l-28 -200l-365 -306h342l-28 -200h-588l28 200l365 306h-284z" />
    <glyph glyph-name="section" unicode="&#xa7;" horiz-adv-x="736" 
d="M64 305q10 70 94 106q-73 46 -61 128q26 184 388 184q131 0 170 -3l-24 -170q-101 8 -166 8q-70 0 -101.5 -5.5t-33.5 -23.5q-1 -9 6.5 -15.5t26.5 -11t34.5 -6.5t44.5 -6q5 -1 8 -1t7.5 -1t8.5 -1q41 -5 73.5 -13t67 -22.5t52 -39t12.5 -56.5q-10 -75 -98 -112
q77 -43 66 -121q-14 -100 -113 -144.5t-303 -44.5q-145 0 -198 12l24 170q83 -17 203 -17q84 0 117.5 5t35.5 23q1 9 -7.5 16t-28 11.5t-38 7t-49 6t-49.5 6.5q-183 29 -169 131zM294 328q-3 -33 59 -33q82 0 87 33q2 15 -13 24t-45 9q-83 0 -88 -33z" />
    <glyph glyph-name="guillemotleft" unicode="&#xab;" horiz-adv-x="554" 
d="M36 254l23 160l214 174l-26 -188l-96 -66l77 -66l-26 -188zM279 254l23 160l214 174l-26 -188l-96 -66l77 -66l-26 -188z" />
    <glyph glyph-name="uni00AD" unicode="&#xad;" horiz-adv-x="441" 
d="M29 262l27 186h355l-27 -186h-355z" />
    <glyph glyph-name="guillemotright" unicode="&#xbb;" horiz-adv-x="554" 
d="M517 414l-23 -160l-214 -174l26 188l96 66l-77 66l26 188zM274 414l-23 -160l-214 -174l26 188l96 66l-77 66l26 188z" />
    <glyph glyph-name="afii10023" unicode="&#x401;" 
d="M262 778q-43 0 -59.5 18t-9.5 63q6 45 27.5 62.5t64.5 17.5t59.5 -17.5t10.5 -62.5q-7 -45 -28.5 -63t-64.5 -18zM490 778q-43 0 -59.5 18t-9.5 63q6 45 27.5 62.5t64.5 17.5t59.5 -17.5t10.5 -62.5q-7 -45 -28.5 -63t-64.5 -18zM33 0l99 706h486l-28 -200h-270l-8 -58
h133l-25 -180h-134l-9 -68h280l-28 -200h-496z" />
    <glyph glyph-name="afii10053" unicode="&#x404;" horiz-adv-x="667" 
d="M402 -15q-199 0 -295 92.5t-70 275.5t148 276t320 93q42 0 151 -8l-29 -207q-99 9 -157 9q-86 0 -131 -17t-68 -61h209l-22 -159h-212q7 -50 47.5 -69t131.5 -19q103 0 167 9l-29 -207q-115 -8 -161 -8z" />
    <glyph glyph-name="afii10055" unicode="&#x406;" horiz-adv-x="386" 
d="M35 0l99 706h216l-99 -706h-216z" />
    <glyph glyph-name="afii10056" unicode="&#x407;" horiz-adv-x="386" 
d="M152 778q-43 0 -59.5 18t-9.5 63q6 45 27.5 62.5t64.5 17.5t59.5 -17.5t10.5 -62.5q-7 -45 -28.5 -63t-64.5 -18zM350 778q-43 0 -59.5 18t-9.5 63q6 45 27.5 62.5t64.5 17.5t59.5 -17.5t10.5 -62.5q-7 -45 -28.5 -63t-64.5 -18zM35 0l99 706h216l-99 -706h-216z" />
    <glyph glyph-name="afii10017" unicode="&#x410;" horiz-adv-x="758" 
d="M563 706l159 -706h-232l-24 124h-240l-58 -124h-231l356 706h270zM397 484l-84 -177h118z" />
    <glyph glyph-name="afii10018" unicode="&#x411;" horiz-adv-x="741" 
d="M697 227q-17 -117 -97.5 -172t-255.5 -55h-311l99 706h566l-28 -200h-350l-8 -52h96q175 0 240 -55t49 -172zM274 180h89q63 0 86.5 9t27.5 39t-17 38.5t-83 8.5h-90z" />
    <glyph glyph-name="afii10019" unicode="&#x412;" horiz-adv-x="753" 
d="M699 205q-29 -205 -360 -205h-306l99 706h274q161 0 239 -51t63 -156q-14 -89 -76 -138q80 -51 67 -156zM480 228q4 30 -17 38.5t-83 8.5h-93l-13 -95h92q63 0 86.5 9t27.5 39zM487 478q4 30 -17 39t-83 9h-64l-14 -96h64q62 0 86 9t28 39z" />
    <glyph glyph-name="afii10020" unicode="&#x413;" horiz-adv-x="562" 
d="M33 0l99 706h476l-28 -200h-260l-71 -506h-216z" />
    <glyph glyph-name="afii10021" unicode="&#x414;" horiz-adv-x="892" 
d="M111 234l108 472h608l-73 -520h103l-70 -356h-196l24 170h-422l-33 -170h-195l49 356h39q29 1 40.5 12t17.5 36zM326 264q-9 -44 -24 -78h236l47 334h-203z" />
    <glyph glyph-name="afii10022" unicode="&#x415;" 
d="M33 0l99 706h486l-28 -200h-270l-8 -58h133l-25 -180h-134l-9 -68h280l-28 -200h-496z" />
    <glyph glyph-name="afii10024" unicode="&#x416;" horiz-adv-x="1165" 
d="M682 265l-37 -265h-216l37 265h-43l-136 -172q-48 -62 -94 -84t-122 -22q-41 0 -78 5l29 211q30 -7 56 -7q43 0 68 30l110 128l-182 352h241l128 -265h48l37 265h216l-37 -265h41l138 167q48 59 97 82.5t109 23.5q30 0 66 -6l-30 -213q-22 8 -47 8q-34 0 -62 -30
l-105 -115l203 -358h-247l-142 265h-46z" />
    <glyph glyph-name="afii10025" unicode="&#x417;" horiz-adv-x="668" 
d="M623 507q-13 -92 -78 -145q82 -52 67 -164q-16 -108 -120 -160t-271 -52q-172 0 -223 15l30 213q31 -8 105 -14.5t119 -6.5v-1q78 0 108 7.5t34 33.5q4 24 -24 32t-97 8h-92l22 159h95q53 1 75.5 9.5t26.5 32.5q4 28 -22.5 34.5t-110.5 6.5q-105 0 -189 -12l31 215
q52 4 190 4q177 0 258.5 -53t65.5 -162z" />
    <glyph glyph-name="afii10026" unicode="&#x418;" horiz-adv-x="875" 
d="M33 0l99 706h216l-64 -454l296 454h261l-99 -706h-216l63 453l-295 -453h-261z" />
    <glyph glyph-name="afii10027" unicode="&#x419;" horiz-adv-x="875" 
d="M584 933h160q-20 -104 -86.5 -148.5t-183.5 -44.5t-171 44.5t-45 148.5h160q-2 -40 16 -54t58 -14t61.5 14t30.5 54zM33 0l99 706h216l-64 -454l296 454h261l-99 -706h-216l63 453l-295 -453h-261z" />
    <glyph glyph-name="afii10028" unicode="&#x41a;" horiz-adv-x="784" 
d="M488 0l-146 260h-57l-37 -260h-216l100 706h216l-37 -260h52l136 162q89 106 208 106q31 0 67 -6l-30 -213q-22 8 -48 8q-36 0 -64 -30l-106 -115l209 -358h-247z" />
    <glyph glyph-name="afii10029" unicode="&#x41b;" horiz-adv-x="821" 
d="M473 0l73 520h-185l-45 -298v-4q-17 -121 -82 -177t-210 -56q-27 0 -43 1l28 208q20 -3 35 -3q33 0 47 11.5t18 36.5l77 467h602l-99 -706h-216z" />
    <glyph glyph-name="afii10030" unicode="&#x41c;" horiz-adv-x="1051" 
d="M389 0l-82 430l-60 -430h-214l99 706h302l79 -443l203 443h301l-99 -706h-214l60 427l-201 -427h-174z" />
    <glyph glyph-name="afii10031" unicode="&#x41d;" horiz-adv-x="833" 
d="M484 0l37 267h-235l-37 -267h-216l99 706h216l-36 -253h235l36 253h216l-99 -706h-216z" />
    <glyph glyph-name="afii10032" unicode="&#x41e;" horiz-adv-x="848" 
d="M810 353q-26 -185 -139 -279t-300 -94t-273 94t-60 279q25 185 138 279t300 94t273 -94t61 -279zM258 353q-13 -92 21 -128t121 -36t132 36t58 128q12 92 -22 128t-121 36q-88 0 -132.5 -36t-56.5 -128z" />
    <glyph glyph-name="afii10033" unicode="&#x41f;" horiz-adv-x="823" 
d="M474 0l73 519h-225l-73 -519h-216l99 706h657l-99 -706h-216z" />
    <glyph glyph-name="afii10034" unicode="&#x420;" horiz-adv-x="730" 
d="M723 459q-18 -126 -106.5 -186.5t-265.5 -60.5h-73l-29 -212h-216l99 706h288q176 0 248.5 -61t54.5 -186zM503 458q4 29 -17 39t-86 10h-80l-14 -99h80q65 0 89 10.5t28 39.5z" />
    <glyph glyph-name="afii10035" unicode="&#x421;" 
d="M392 -15q-197 0 -289 92t-66 276t143.5 276.5t314.5 92.5q65 0 132 -5l-30 -211q-72 7 -131 7q-98 0 -147 -34t-62 -126q-12 -92 26.5 -125.5t137.5 -33.5q54 0 136 8l-29 -211q-82 -6 -136 -6z" />
    <glyph glyph-name="afii10036" unicode="&#x422;" horiz-adv-x="630" 
d="M38 506l28 200h596l-28 -200h-190l-71 -506h-216l71 506h-190z" />
    <glyph glyph-name="afii10037" unicode="&#x423;" horiz-adv-x="715" 
d="M208 224l-169 482h232l103 -344l190 344h232l-334 -548q-31 -51 -53 -78t-58.5 -53.5t-87.5 -37t-125 -10.5q-32 0 -46 1l29 207q26 -3 70 -3q54 0 72 4.5t20 18.5q1 5 -2.5 8.5t-13 5.5t-23 2.5t-36.5 0.5z" />
    <glyph glyph-name="afii10038" unicode="&#x424;" horiz-adv-x="994" 
d="M339 0l11 83q-177 0 -260.5 70t-64.5 211q19 140 123 210.5t281 70.5l9 61h216l-9 -61q177 -1 261 -71t65 -210q-20 -140 -124 -210.5t-281 -70.5l-11 -83h-216zM245 364q-8 -54 22.5 -77.5t108.5 -23.5l28 202q-77 0 -114.5 -23.5t-44.5 -77.5zM751 364q7 53 -23.5 76.5
t-107.5 24.5l-28 -202q77 0 114 23.5t45 77.5z" />
    <glyph glyph-name="afii10039" unicode="&#x425;" horiz-adv-x="780" 
d="M310 706l107 -177l155 177h242l-304 -332l227 -374h-247l-125 206l-180 -206h-241l327 362l-208 344h247z" />
    <glyph glyph-name="afii10040" unicode="&#x426;" horiz-adv-x="857" 
d="M45 0l99 706h216l-73 -520h216l73 520h216l-73 -520h103l-70 -356h-196l24 170h-535z" />
    <glyph glyph-name="afii10041" unicode="&#x427;" horiz-adv-x="749" 
d="M715 706l-99 -706h-216l31 226q-68 -10 -121 -10q-152 0 -211.5 56t-42.5 180l36 254h216l-33 -235q-4 -31 17 -44.5t75 -13.5q45 0 91 3l41 290h216z" />
    <glyph glyph-name="afii10042" unicode="&#x428;" horiz-adv-x="1140" 
d="M33 0l99 706h216l-73 -520h163l73 520h216l-73 -520h163l73 520h216l-99 -706h-974z" />
    <glyph glyph-name="afii10043" unicode="&#x429;" horiz-adv-x="1183" 
d="M45 0l99 706h216l-73 -520h163l73 520h216l-73 -520h163l73 520h216l-73 -520h103l-70 -356h-196l24 170h-861z" />
    <glyph glyph-name="afii10044" unicode="&#x42a;" horiz-adv-x="793" 
d="M750 247q-18 -126 -107 -186.5t-266 -60.5h-294l71 506h-126l28 200h342l-30 -212h78q176 0 248.5 -61t55.5 -186zM529 246q4 28 -17 38t-86 10h-86l-14 -97h87q65 0 88.5 10t27.5 39z" />
    <glyph glyph-name="afii10045" unicode="&#x42b;" horiz-adv-x="1069" 
d="M681 247q-18 -126 -107 -186.5t-266 -60.5h-275l99 706h216l-30 -212h59q176 0 248.5 -61t55.5 -186zM720 0l99 706h216l-99 -706h-216zM460 246q4 28 -17 38t-86 10h-67l-14 -97h68q65 0 88.5 10t27.5 39z" />
    <glyph glyph-name="afii10046" unicode="&#x42c;" horiz-adv-x="743" 
d="M700 247q-18 -126 -107 -186.5t-266 -60.5h-294l99 706h216l-30 -212h78q176 0 248.5 -61t55.5 -186zM479 246q4 28 -17 38t-86 10h-86l-14 -97h87q65 0 88.5 10t27.5 39z" />
    <glyph glyph-name="afii10047" unicode="&#x42d;" horiz-adv-x="667" 
d="M196 191q90 0 136 19t67 69h-212l22 159h209q-9 44 -50.5 61t-126.5 17q-55 0 -159 -9l29 207q57 8 153 8q198 0 294 -93t70 -276t-147.5 -275.5t-319.5 -92.5q-50 0 -159 8l29 207q62 -9 165 -9z" />
    <glyph glyph-name="afii10048" unicode="&#x42e;" horiz-adv-x="1188" 
d="M1141 353q-26 -185 -135.5 -279t-288.5 -94q-157 0 -240 72t-84 215h-107l-37 -267h-216l99 706h216l-36 -253h109q43 135 145.5 204t255.5 69q179 0 261.5 -94t57.5 -279zM615 353q-13 -92 17.5 -128t111.5 -36t122.5 36t54.5 128q12 92 -18.5 128t-111.5 36t-122.5 -36
t-53.5 -128z" />
    <glyph glyph-name="afii10049" unicode="&#x42f;" horiz-adv-x="804" 
d="M156 221l31 35q-123 55 -103 203q18 125 107.5 186t265.5 61h314l-99 -706h-216l30 217h-103l-88 -124q-44 -62 -92 -84t-123 -22q-32 0 -69 5l29 206q30 -7 49 -7q38 0 67 30zM303 453q-4 -32 17 -43t86 -11h106l15 107h-106q-65 0 -89.5 -11t-28.5 -42z" />
    <glyph glyph-name="afii10065" unicode="&#x430;" horiz-adv-x="758" 
d="M563 706l159 -706h-232l-24 124h-240l-58 -124h-231l356 706h270zM397 484l-84 -177h118z" />
    <glyph glyph-name="afii10066" unicode="&#x431;" horiz-adv-x="741" 
d="M697 227q-17 -117 -97.5 -172t-255.5 -55h-311l99 706h566l-28 -200h-350l-8 -52h96q175 0 240 -55t49 -172zM274 180h89q63 0 86.5 9t27.5 39t-17 38.5t-83 8.5h-90z" />
    <glyph glyph-name="afii10067" unicode="&#x432;" horiz-adv-x="753" 
d="M699 205q-29 -205 -360 -205h-306l99 706h274q161 0 239 -51t63 -156q-14 -89 -76 -138q80 -51 67 -156zM480 228q4 30 -17 38.5t-83 8.5h-93l-13 -95h92q63 0 86.5 9t27.5 39zM487 478q4 30 -17 39t-83 9h-64l-14 -96h64q62 0 86 9t28 39z" />
    <glyph glyph-name="afii10068" unicode="&#x433;" horiz-adv-x="562" 
d="M33 0l99 706h476l-28 -200h-260l-71 -506h-216z" />
    <glyph glyph-name="afii10069" unicode="&#x434;" horiz-adv-x="892" 
d="M111 234l108 472h608l-73 -520h103l-70 -356h-196l24 170h-422l-33 -170h-195l49 356h39q29 1 40.5 12t17.5 36zM326 264q-9 -44 -24 -78h236l47 334h-203z" />
    <glyph glyph-name="afii10070" unicode="&#x435;" 
d="M33 0l99 706h486l-28 -200h-270l-8 -58h133l-25 -180h-134l-9 -68h280l-28 -200h-496z" />
    <glyph glyph-name="afii10072" unicode="&#x436;" horiz-adv-x="1165" 
d="M682 265l-37 -265h-216l37 265h-43l-136 -172q-48 -62 -94 -84t-122 -22q-41 0 -78 5l29 211q30 -7 56 -7q43 0 68 30l110 128l-182 352h241l128 -265h48l37 265h216l-37 -265h41l138 167q48 59 97 82.5t109 23.5q30 0 66 -6l-30 -213q-22 8 -47 8q-34 0 -62 -30
l-105 -115l203 -358h-247l-142 265h-46z" />
    <glyph glyph-name="afii10073" unicode="&#x437;" horiz-adv-x="668" 
d="M623 507q-13 -92 -78 -145q82 -52 67 -164q-16 -108 -120 -160t-271 -52q-172 0 -223 15l30 213q31 -8 105 -14.5t119 -6.5v-1q78 0 108 7.5t34 33.5q4 24 -24 32t-97 8h-92l22 159h95q53 1 75.5 9.5t26.5 32.5q4 28 -22.5 34.5t-110.5 6.5q-105 0 -189 -12l31 215
q52 4 190 4q177 0 258.5 -53t65.5 -162z" />
    <glyph glyph-name="afii10074" unicode="&#x438;" horiz-adv-x="875" 
d="M33 0l99 706h216l-64 -454l296 454h261l-99 -706h-216l63 453l-295 -453h-261z" />
    <glyph glyph-name="afii10075" unicode="&#x439;" horiz-adv-x="875" 
d="M584 933h160q-20 -104 -86.5 -148.5t-183.5 -44.5t-171 44.5t-45 148.5h160q-2 -40 16 -54t58 -14t61.5 14t30.5 54zM33 0l99 706h216l-64 -454l296 454h261l-99 -706h-216l63 453l-295 -453h-261z" />
    <glyph glyph-name="afii10076" unicode="&#x43a;" horiz-adv-x="784" 
d="M488 0l-146 260h-57l-37 -260h-216l100 706h216l-37 -260h52l136 162q89 106 208 106q31 0 67 -6l-30 -213q-22 8 -48 8q-36 0 -64 -30l-106 -115l209 -358h-247z" />
    <glyph glyph-name="afii10077" unicode="&#x43b;" horiz-adv-x="821" 
d="M473 0l73 520h-185l-45 -298v-4q-17 -121 -82 -177t-210 -56q-27 0 -43 1l28 208q20 -3 35 -3q33 0 47 11.5t18 36.5l77 467h602l-99 -706h-216z" />
    <glyph glyph-name="afii10078" unicode="&#x43c;" horiz-adv-x="1051" 
d="M389 0l-82 430l-60 -430h-214l99 706h302l79 -443l203 443h301l-99 -706h-214l60 427l-201 -427h-174z" />
    <glyph glyph-name="afii10079" unicode="&#x43d;" horiz-adv-x="833" 
d="M484 0l37 267h-235l-37 -267h-216l99 706h216l-36 -253h235l36 253h216l-99 -706h-216z" />
    <glyph glyph-name="afii10080" unicode="&#x43e;" horiz-adv-x="848" 
d="M810 353q-26 -185 -139 -279t-300 -94t-273 94t-60 279q25 185 138 279t300 94t273 -94t61 -279zM258 353q-13 -92 21 -128t121 -36t132 36t58 128q12 92 -22 128t-121 36q-88 0 -132.5 -36t-56.5 -128z" />
    <glyph glyph-name="afii10081" unicode="&#x43f;" horiz-adv-x="823" 
d="M474 0l73 519h-225l-73 -519h-216l99 706h657l-99 -706h-216z" />
    <glyph glyph-name="afii10082" unicode="&#x440;" horiz-adv-x="730" 
d="M723 459q-18 -126 -106.5 -186.5t-265.5 -60.5h-73l-29 -212h-216l99 706h288q176 0 248.5 -61t54.5 -186zM503 458q4 29 -17 39t-86 10h-80l-14 -99h80q65 0 89 10.5t28 39.5z" />
    <glyph glyph-name="afii10083" unicode="&#x441;" 
d="M392 -15q-197 0 -289 92t-66 276t143.5 276.5t314.5 92.5q65 0 132 -5l-30 -211q-72 7 -131 7q-98 0 -147 -34t-62 -126q-12 -92 26.5 -125.5t137.5 -33.5q54 0 136 8l-29 -211q-82 -6 -136 -6z" />
    <glyph glyph-name="afii10084" unicode="&#x442;" horiz-adv-x="630" 
d="M38 506l28 200h596l-28 -200h-190l-71 -506h-216l71 506h-190z" />
    <glyph glyph-name="afii10085" unicode="&#x443;" horiz-adv-x="715" 
d="M208 224l-169 482h232l103 -344l190 344h232l-334 -548q-31 -51 -53 -78t-58.5 -53.5t-87.5 -37t-125 -10.5q-32 0 -46 1l29 207q26 -3 70 -3q54 0 72 4.5t20 18.5q1 5 -2.5 8.5t-13 5.5t-23 2.5t-36.5 0.5z" />
    <glyph glyph-name="afii10086" unicode="&#x444;" horiz-adv-x="994" 
d="M339 0l11 83q-177 0 -260.5 70t-64.5 211q19 140 123 210.5t281 70.5l9 61h216l-9 -61q177 -1 261 -71t65 -210q-20 -140 -124 -210.5t-281 -70.5l-11 -83h-216zM245 364q-8 -54 22.5 -77.5t108.5 -23.5l28 202q-77 0 -114.5 -23.5t-44.5 -77.5zM751 364q7 53 -23.5 76.5
t-107.5 24.5l-28 -202q77 0 114 23.5t45 77.5z" />
    <glyph glyph-name="afii10087" unicode="&#x445;" horiz-adv-x="780" 
d="M310 706l107 -177l155 177h242l-304 -332l227 -374h-247l-125 206l-180 -206h-241l327 362l-208 344h247z" />
    <glyph glyph-name="afii10088" unicode="&#x446;" horiz-adv-x="857" 
d="M45 0l99 706h216l-73 -520h216l73 520h216l-73 -520h103l-70 -356h-196l24 170h-535z" />
    <glyph glyph-name="afii10089" unicode="&#x447;" horiz-adv-x="749" 
d="M715 706l-99 -706h-216l31 226q-68 -10 -121 -10q-152 0 -211.5 56t-42.5 180l36 254h216l-33 -235q-4 -31 17 -44.5t75 -13.5q45 0 91 3l41 290h216z" />
    <glyph glyph-name="afii10090" unicode="&#x448;" horiz-adv-x="1140" 
d="M33 0l99 706h216l-73 -520h163l73 520h216l-73 -520h163l73 520h216l-99 -706h-974z" />
    <glyph glyph-name="afii10091" unicode="&#x449;" horiz-adv-x="1183" 
d="M45 0l99 706h216l-73 -520h163l73 520h216l-73 -520h163l73 520h216l-73 -520h103l-70 -356h-196l24 170h-861z" />
    <glyph glyph-name="afii10092" unicode="&#x44a;" horiz-adv-x="793" 
d="M750 247q-18 -126 -107 -186.5t-266 -60.5h-294l71 506h-126l28 200h342l-30 -212h78q176 0 248.5 -61t55.5 -186zM529 246q4 28 -17 38t-86 10h-86l-14 -97h87q65 0 88.5 10t27.5 39z" />
    <glyph glyph-name="afii10093" unicode="&#x44b;" horiz-adv-x="1069" 
d="M681 247q-18 -126 -107 -186.5t-266 -60.5h-275l99 706h216l-30 -212h59q176 0 248.5 -61t55.5 -186zM720 0l99 706h216l-99 -706h-216zM460 246q4 28 -17 38t-86 10h-67l-14 -97h68q65 0 88.5 10t27.5 39z" />
    <glyph glyph-name="afii10094" unicode="&#x44c;" horiz-adv-x="743" 
d="M700 247q-18 -126 -107 -186.5t-266 -60.5h-294l99 706h216l-30 -212h78q176 0 248.5 -61t55.5 -186zM479 246q4 28 -17 38t-86 10h-86l-14 -97h87q65 0 88.5 10t27.5 39z" />
    <glyph glyph-name="afii10095" unicode="&#x44d;" horiz-adv-x="667" 
d="M196 191q90 0 136 19t67 69h-212l22 159h209q-9 44 -50.5 61t-126.5 17q-55 0 -159 -9l29 207q69 8 153 8q198 0 294 -93t70 -276t-147.5 -275.5t-319.5 -92.5q-50 0 -159 8l29 207q62 -9 165 -9z" />
    <glyph glyph-name="afii10096" unicode="&#x44e;" horiz-adv-x="1188" 
d="M1141 353q-26 -185 -135.5 -279t-288.5 -94q-157 0 -240 72t-84 215h-107l-37 -267h-216l99 706h216l-36 -253h109q43 135 145.5 204t255.5 69q179 0 261.5 -94t57.5 -279zM615 353q-13 -92 17.5 -128t111.5 -36t122.5 36t54.5 128q12 92 -18.5 128t-111.5 36t-122.5 -36
t-53.5 -128z" />
    <glyph glyph-name="afii10097" unicode="&#x44f;" horiz-adv-x="804" 
d="M156 221l31 35q-123 55 -103 203q18 125 107.5 186t265.5 61h314l-99 -706h-216l30 217h-103l-88 -124q-44 -62 -92 -84t-123 -22q-32 0 -69 5l29 206q30 -7 49 -7q38 0 67 30zM303 453q-4 -32 17 -43t86 -11h106l15 107h-106q-65 0 -89.5 -11t-28.5 -42z" />
    <glyph glyph-name="afii10071" unicode="&#x451;" 
d="M262 778q-43 0 -59.5 18t-9.5 63q6 45 27.5 62.5t64.5 17.5t59.5 -17.5t10.5 -62.5q-7 -45 -28.5 -63t-64.5 -18zM490 778q-43 0 -59.5 18t-9.5 63q6 45 27.5 62.5t64.5 17.5t59.5 -17.5t10.5 -62.5q-7 -45 -28.5 -63t-64.5 -18zM33 0l99 706h486l-28 -200h-270l-8 -58
h133l-25 -180h-134l-9 -68h280l-28 -200h-496z" />
    <glyph glyph-name="afii10101" unicode="&#x454;" horiz-adv-x="667" 
d="M402 -15q-199 0 -295 92.5t-70 275.5t148 276t320 93q42 0 151 -8l-29 -207q-99 9 -157 9q-86 0 -131 -17t-68 -61h209l-22 -159h-212q7 -50 47.5 -69t131.5 -19q103 0 167 9l-29 -207q-115 -8 -161 -8z" />
    <glyph glyph-name="afii10103" unicode="&#x456;" horiz-adv-x="386" 
d="M35 0l99 706h216l-99 -706h-216z" />
    <glyph glyph-name="afii10104" unicode="&#x457;" horiz-adv-x="386" 
d="M152 778q-43 0 -59.5 18t-9.5 63q6 45 27.5 62.5t64.5 17.5t59.5 -17.5t10.5 -62.5q-7 -45 -28.5 -63t-64.5 -18zM350 778q-43 0 -59.5 18t-9.5 63q6 45 27.5 62.5t64.5 17.5t59.5 -17.5t10.5 -62.5q-7 -45 -28.5 -63t-64.5 -18zM35 0l99 706h216l-99 -706h-216z" />
    <glyph glyph-name="afii10050" unicode="&#x490;" horiz-adv-x="552" 
d="M609 858l-50 -352h-250l-71 -506h-216l99 706h264l30 152h194z" />
    <glyph glyph-name="afii10098" unicode="&#x491;" horiz-adv-x="552" 
d="M609 858l-50 -352h-250l-71 -506h-216l99 706h264l30 152h194z" />
    <glyph glyph-name="endash" unicode="&#x2013;" horiz-adv-x="672" 
d="M21 252l23 166h606l-23 -166h-606z" />
    <glyph glyph-name="emdash" unicode="&#x2014;" horiz-adv-x="832" 
d="M1 252l23 166h806l-23 -166h-806z" />
    <glyph glyph-name="quoteleft" unicode="&#x2018;" horiz-adv-x="264" 
d="M289 684l-91 -318h-215l186 360z" />
    <glyph glyph-name="quoteright" unicode="&#x2019;" horiz-adv-x="279" 
d="M18 388l70 318h216l-167 -360z" />
    <glyph glyph-name="quotedblleft" unicode="&#x201c;" horiz-adv-x="509" 
d="M535 684l-91 -318h-216l187 360zM289 684l-91 -318h-215l186 360z" />
    <glyph glyph-name="quotedblright" unicode="&#x201d;" horiz-adv-x="522" 
d="M18 388l70 318h216l-167 -360zM261 388l70 318h216l-167 -360z" />
    <glyph glyph-name="bullet" unicode="&#x2022;" horiz-adv-x="383" 
d="M160 203q-73 0 -100 29t-17 102t45.5 101.5t108.5 28.5q72 0 100 -28.5t18 -101.5q-10 -72 -46.5 -101.5t-108.5 -29.5z" />
    <glyph glyph-name="_0000" horiz-adv-x="8202" 
d="M3357 0l44 309q5 37 -10.5 59t-48.5 22q-45 0 -69.5 -26t-32.5 -85l-40 -279h-189l80 564h149l6 -38q70 50 165 50q107 0 157 -71q74 71 189 71q97 0 148 -59.5t38 -158.5l-51 -358h-189l44 309l1 7q3 34 -13 54t-47 20q-45 0 -69.5 -26t-32.5 -85h-1l-39 -279h-189z
M2251 278q-21 -148 -99 -223t-205 -75q-82 0 -137 32l-14 -102h-189l92 654h149l6 -39q72 51 176 51q127 0 184.5 -75.5t36.5 -222.5zM1525 279q-21 -148 -111 -223t-240 -75q-149 0 -218.5 75t-48.5 223t111 223t240 75q149 0 218.5 -75t48.5 -223zM5672 255l52 309l186 1
v-1h143l189 1l-80 -565h-189l55 387h-148l-30 -181q-35 -218 -197 -218q-67 0 -96 19l25 177q15 -3 29 -3q28 0 41 15.5t20 58.5zM2699 0l44 309q12 81 -69 81q-50 0 -76.5 -24t-35.5 -87l-40 -279h-189l80 564h149l6 -38q71 50 175 50q103 0 156.5 -57.5t39.5 -160.5
l-51 -358h-189zM4735 564l-44 -309q-12 -81 69 -81q50 0 77 24t36 87l39 279h189l-80 -564h-149l-6 38q-71 -50 -175 -50q-103 0 -156.5 57.5t-39.5 160.5l51 358h189zM5477 674l-16 -110h115l-25 -177h-115l-18 -132q-4 -35 15.5 -54.5t56.5 -19.5q13 0 28 3l-25 -177
q-34 -19 -104 -19q-93 0 -136.5 62t-30.5 156l26 181h-55l25 177h55zM4028 0l80 564h149l6 -38q71 50 175 50l-27 -194q-18 8 -42 8q-50 0 -76.5 -24t-35.5 -87l-40 -279h-189zM6557 309q-3 -20 -16.5 -32t-33.5 -12q-31 0 -93 -0.5t-93 -0.5q48 29 58 94q31 218 197 218
q68 0 96 -19l-25 -177q-15 3 -29 3q-28 0 -41.5 -15.5t-19.5 -58.5zM1103 279q-9 -63 14 -87t83 -24q59 0 89.5 24t39.5 87t-14.5 87t-83.5 24t-89.5 -24t-38.5 -87zM1849 279q-9 -63 11.5 -87t75.5 -24q54 0 82 24t37 87t-12.5 87t-75.5 24q-55 0 -82 -24t-36 -87z" />
    </font>
</defs>
</svg>
