<svg width="20" height="20" viewBox="0 0 20 20" fill="none" xmlns="http://www.w3.org/2000/svg">
<path d="M5.3125 0C4.98891 0 4.72656 0.262344 4.72656 0.585938V6.83594C4.72656 7.01926 4.81238 7.19203 4.95848 7.30281L7.10688 8.93203V0H5.3125Z" fill="#777777"/>
<path d="M14.6874 0H12.8931V8.93203L15.0415 7.30281C15.1876 7.19203 15.2734 7.01926 15.2734 6.83594V0.585938C15.2734 0.262344 15.011 0 14.6874 0Z" fill="#777777"/>
<path d="M11.4607 10.0183L11.7213 9.82066V0H8.27875V9.8207L8.53934 10.0183C6.43809 10.6479 4.90234 12.599 4.90234 14.9023C4.90234 17.7132 7.18914 20 10 20C12.8109 20 15.0977 17.7132 15.0977 14.9023C15.0977 12.599 13.5619 10.6479 11.4607 10.0183ZM12.5131 14.82L11.7689 15.6849L11.8627 16.822C11.8795 17.0259 11.7887 17.2239 11.6231 17.3442C11.4576 17.4645 11.2413 17.4896 11.0524 17.4106L10 16.97L8.94758 17.4106C8.75875 17.4896 8.54246 17.4644 8.37691 17.3442C8.21133 17.2239 8.12055 17.0259 8.13734 16.822L8.23113 15.6849L7.48688 14.82C7.3534 14.6649 7.31047 14.4514 7.37375 14.2568C7.43699 14.0621 7.59719 13.9146 7.79637 13.8676L8.90684 13.6054L9.4993 12.6303C9.60559 12.4554 9.79539 12.3486 10 12.3486C10.2047 12.3486 10.3945 12.4554 10.5008 12.6303L11.0932 13.6054L12.2037 13.8676C12.4029 13.9146 12.5631 14.0621 12.6263 14.2568C12.6895 14.4514 12.6466 14.6649 12.5131 14.82Z" fill="#777777"/>
</svg>