<svg width="20" height="20" viewBox="0 0 20 20" fill="none" xmlns="http://www.w3.org/2000/svg">
<path d="M2.6043 16.3915V2.18553H14.0775V14.1162L16.2634 12.3106V1.09277C16.2634 0.489362 15.7745 0 15.1711 0H1.51153C0.908126 0 0.419189 0.489362 0.419189 1.09277V17.4838C0.419189 18.0872 0.908126 18.5766 1.51153 18.5766H11.0468L9.50217 16.3915H2.6043Z" fill="#777777"/>
<path d="M19.4099 11.7485C19.2086 11.5587 18.8993 11.5498 18.6874 11.7242L13.6754 15.8664L10.3354 13.8625C10.1137 13.7298 9.82991 13.7693 9.65331 13.96C9.47799 14.1489 9.45884 14.4353 9.60821 14.6464L13.2278 19.7685C13.3291 19.9119 13.4937 19.9979 13.6691 19.9996C13.6708 19.9996 13.6725 19.9996 13.6742 19.9996C13.8478 19.9996 14.0116 19.9174 14.1146 19.7762L19.4763 12.4685C19.638 12.2468 19.6103 11.9383 19.4099 11.7485Z" fill="#777777"/>
<path d="M11.6196 3.82471H5.06256C4.45915 3.82471 3.97021 4.31407 3.97021 4.91747C3.97021 5.52088 4.45915 6.01024 5.06256 6.01024H11.6192C12.2226 6.01024 12.7111 5.52088 12.7111 4.91747C12.7111 4.31407 12.223 3.82471 11.6196 3.82471Z" fill="#777777"/>
<path d="M11.6196 7.10254H5.06256C4.45915 7.10254 3.97021 7.5919 3.97021 8.19531C3.97021 8.79871 4.45915 9.28807 5.06256 9.28807H11.6192C12.2226 9.28807 12.7111 8.79914 12.7111 8.19531C12.7123 7.5919 12.223 7.10254 11.6196 7.10254Z" fill="#777777"/>
<path d="M11.6196 10.3809H5.06256C4.45915 10.3809 3.97021 10.8702 3.97021 11.4736C3.97021 12.077 4.45915 12.5664 5.06256 12.5664H11.6192C12.2226 12.5664 12.7111 12.077 12.7111 11.4736C12.7123 10.8702 12.223 10.3809 11.6196 10.3809Z" fill="#777777"/>
</svg>