<svg width="20" height="20" viewBox="0 0 20 20" fill="none" xmlns="http://www.w3.org/2000/svg">
<path d="M19.9959 2.52692C19.9959 1.12598 18.8516 0.0223389 17.4913 0.0223389H2.50458C1.10364 0.0223389 0 1.16671 0 2.52692V17.473C0 18.8739 1.14437 19.9775 2.50458 19.9775H17.4506C18.8516 19.9775 19.9552 18.8739 20 17.473V2.52692H19.9959ZM2.50458 1.67984H17.4506C17.919 1.67984 18.3018 2.06266 18.3018 2.53099V6.0089H1.65343V2.52692C1.65343 2.05858 2.03625 1.67984 2.50458 1.67984ZM18.3425 17.5137C18.3425 17.982 17.9597 18.3648 17.4913 18.3648H2.50458C2.03625 18.3648 1.65343 17.982 1.65343 17.5137V7.70713H18.3384V17.5137H18.3425Z" fill="#777777"/>
<path d="M4.07649 10.7655H5.39191C5.81545 10.7655 6.24306 10.3827 6.24306 9.91439C6.24306 9.44605 5.86024 9.06323 5.39191 9.06323H4.07649C3.60816 9.06323 3.22534 9.44605 3.22534 9.91439C3.22534 10.3827 3.60816 10.7655 4.07649 10.7655Z" fill="#777777"/>
<path d="M9.29744 10.7655H10.6129C11.0812 10.7655 11.464 10.3827 11.464 9.91439C11.464 9.44605 11.0812 9.06323 10.6129 9.06323H9.29744C8.8291 9.06323 8.44629 9.44605 8.44629 9.91439C8.44629 10.3827 8.8291 10.7655 9.29744 10.7655Z" fill="#777777"/>
<path d="M14.5633 10.7655H15.8787C16.3471 10.7655 16.7299 10.3827 16.7299 9.91439C16.7299 9.44605 16.3471 9.06323 15.8787 9.06323H14.5633C14.095 9.06323 13.7122 9.44605 13.7122 9.91439C13.7122 10.3827 14.095 10.7655 14.5633 10.7655Z" fill="#777777"/>
<path d="M4.07649 13.82H5.39191C5.81545 13.82 6.24306 13.4372 6.24306 12.9688C6.24306 12.5005 5.86024 12.1177 5.39191 12.1177H4.07649C3.60816 12.1177 3.22534 12.5005 3.22534 12.9688C3.22534 13.4372 3.60816 13.82 4.07649 13.82Z" fill="#777777"/>
<path d="M9.29744 13.82H10.6129C11.0812 13.82 11.464 13.4372 11.464 12.9688C11.464 12.5005 11.0812 12.1177 10.6129 12.1177H9.29744C8.8291 12.1177 8.44629 12.5005 8.44629 12.9688C8.44629 13.4372 8.8291 13.82 9.29744 13.82Z" fill="#777777"/>
<path d="M14.5633 13.82H15.8787C16.3471 13.82 16.7299 13.4372 16.7299 12.9688C16.7299 12.5005 16.3471 12.1177 15.8787 12.1177H14.5633C14.095 12.1177 13.7122 12.5005 13.7122 12.9688C13.7122 13.4372 14.095 13.82 14.5633 13.82Z" fill="#777777"/>
<path d="M4.07649 16.8783H5.39191C5.81545 16.8783 6.24306 16.4955 6.24306 16.0272C6.24306 15.5588 5.86024 15.176 5.39191 15.176H4.07649C3.60816 15.176 3.22534 15.5588 3.22534 16.0272C3.22534 16.4955 3.60816 16.8783 4.07649 16.8783Z" fill="#777777"/>
<path d="M8.27937 16.8783H11.6758C12.0994 16.8783 12.527 16.4955 12.527 16.0272C12.527 15.5588 12.1442 15.176 11.6758 15.176H8.27937C7.81104 15.176 7.42822 15.5588 7.42822 16.0272C7.42822 16.4955 7.81104 16.8783 8.27937 16.8783Z" fill="#777777"/>
<path d="M14.5633 16.8783H15.8787C16.3471 16.8783 16.7299 16.4955 16.7299 16.0272C16.7299 15.5588 16.3471 15.176 15.8787 15.176H14.5633C14.095 15.176 13.7122 15.5588 13.7122 16.0272C13.7122 16.4955 14.095 16.8783 14.5633 16.8783Z" fill="#777777"/>
</svg>
