<svg width="16" height="16" viewBox="0 0 16 16" fill="none" xmlns="http://www.w3.org/2000/svg">
<path d="M14.7307 2.26807C13.9025 1.36975 12.766 0.875 11.5304 0.875C10.6068 0.875 9.76099 1.16699 9.01636 1.7428C8.64062 2.03345 8.30017 2.38904 8 2.80408C7.69995 2.38916 7.35938 2.03345 6.98352 1.7428C6.23901 1.16699 5.39319 0.875 4.4696 0.875C3.23401 0.875 2.09741 1.36975 1.26917 2.26807C0.450806 3.15588 0 4.36877 0 5.68347C0 7.03662 0.504272 8.27527 1.58691 9.58167C2.55542 10.7502 3.94739 11.9365 5.55933 13.3102C6.10974 13.7793 6.73364 14.311 7.38147 14.8774C7.55261 15.0273 7.77222 15.1099 8 15.1099C8.22766 15.1099 8.44739 15.0273 8.61829 14.8777C9.26611 14.3112 9.89038 13.7792 10.441 13.3098C12.0527 11.9364 13.4447 10.7502 14.4132 9.58154C15.4958 8.27527 16 7.03662 16 5.68335C16 4.36877 15.5492 3.15588 14.7307 2.26807Z" fill="#FB7709"/>
</svg>