<svg width="16" height="16" viewBox="0 0 16 16" fill="none" xmlns="http://www.w3.org/2000/svg">
<g clip-path="url(#clip0)">
<path d="M12.6666 3.33333V1.83333C12.6666 0.822 11.8446 0 10.8333 0H5.16659C4.15525 0 3.33325 0.822 3.33325 1.83333V3.33333H12.6666Z" fill="#FB7709"/>
<path d="M14.1667 4H1.83333C0.822 4 0 4.822 0 5.83333V10.1667C0 11.178 0.822 12 1.83333 12H2.66667V9.16667C2.66667 8.52333 3.19 8 3.83333 8H12.1667C12.81 8 13.3333 8.52333 13.3333 9.16667V12H14.1667C15.178 12 16 11.178 16 10.1667V5.83333C16 4.822 15.178 4 14.1667 4Z" fill="#FB7709"/>
<path d="M12.1666 8.66663H3.83325C3.55725 8.66663 3.33325 8.89063 3.33325 9.16663V14.1666C3.33325 15.178 4.15525 16 5.16659 16H10.8333C11.8446 16 12.6666 15.178 12.6666 14.1666V9.16663C12.6666 8.89063 12.4426 8.66663 12.1666 8.66663ZM5.83325 11H6.83325C7.10925 11 7.33325 11.224 7.33325 11.5C7.33325 11.776 7.10925 12 6.83325 12H5.83325C5.55725 12 5.33325 11.776 5.33325 11.5C5.33325 11.224 5.55725 11 5.83325 11ZM9.49992 14H5.83325C5.55725 14 5.33325 13.776 5.33325 13.5C5.33325 13.224 5.55725 13 5.83325 13H9.49992C9.77592 13 9.99992 13.224 9.99992 13.5C9.99992 13.776 9.77592 14 9.49992 14Z" fill="#FB7709"/>
</g>
<defs>
<clipPath id="clip0">
<rect width="16" height="16" fill="white"/>
</clipPath>
</defs>
</svg>
