<svg width="12" height="12" viewBox="0 0 12 12" fill="none" xmlns="http://www.w3.org/2000/svg">
<path d="M8.8724 5.06189C8.86543 5.81852 8.6301 6.5562 8.19606 7.18199C7.76202 7.80779 7.14868 8.29371 6.43333 8.57853C5.71797 8.86336 4.93259 8.93435 4.17614 8.78256C3.41968 8.63077 2.72599 8.26299 2.18246 7.72555C1.63892 7.18812 1.26986 6.50507 1.12177 5.76246C0.973674 5.01986 1.05317 4.25091 1.35025 3.5525C1.64733 2.85409 2.14869 2.25746 2.79118 1.83777C3.43367 1.41809 4.18854 1.19412 4.96069 1.19409C5.47671 1.19636 5.98721 1.2982 6.46306 1.4938C6.93891 1.68941 7.37078 1.97494 7.73401 2.3341C8.09725 2.69326 8.38474 3.11901 8.58006 3.58705C8.77539 4.05508 8.87472 4.55624 8.8724 5.06189ZM8.97836 8.20286C9.57544 7.45815 9.94774 6.56446 10.0531 5.62303C10.1585 4.68161 9.99264 3.73009 9.57445 2.87627C9.15626 2.02246 8.50241 1.30047 7.68697 0.79212C6.87154 0.283767 5.92711 0.00936426 4.96069 0C3.6265 0.0540436 2.36528 0.611435 1.44075 1.55562C0.516233 2.49981 0 3.75769 0 5.06622C0 6.37476 0.516233 7.63263 1.44075 8.57682C2.36528 9.52101 3.6265 10.0784 4.96069 10.1324C6.11311 10.1327 7.23123 9.74819 8.13068 9.04219L10.9276 11.8062C10.9831 11.8671 11.0511 11.9159 11.1272 11.9493C11.2033 11.9827 11.2857 12 11.3691 12C11.4525 12 11.5349 11.9827 11.611 11.9493C11.6871 11.9159 11.7551 11.8671 11.8106 11.8062C11.8704 11.7504 11.9181 11.6833 11.9507 11.6089C11.9832 11.5345 12 11.4544 12 11.3735C12 11.2926 11.9832 11.2125 11.9507 11.1381C11.9181 11.0638 11.8704 10.9966 11.8106 10.9409L8.97836 8.20286Z" fill="white"/>
</svg>
