<svg width="25" height="25" viewBox="0 0 25 25" fill="none" xmlns="http://www.w3.org/2000/svg">
<path d="M10.3644 14.6375C7.97574 12.2488 7.43639 9.86013 7.31471 8.90309C7.28071 8.63847 7.37177 8.37309 7.56109 8.1851L9.49414 6.25291C9.77849 5.96873 9.82895 5.52585 9.61582 5.18498L6.53803 0.405854C6.30223 0.0284117 5.81807 -0.107811 5.42006 0.0913012L0.479119 2.4183C0.157257 2.57679 -0.0320587 2.91876 0.00448529 3.27566C0.263376 5.73513 1.33562 11.7811 7.27717 17.7231C13.2187 23.6651 19.2638 24.7369 21.7246 24.9958C22.0815 25.0323 22.4235 24.843 22.5819 24.5211L24.9089 19.5802C25.1073 19.183 24.972 18.7002 24.5961 18.4639L19.817 15.387C19.4763 15.1737 19.0335 15.2238 18.7491 15.5078L16.8169 17.4409C16.6289 17.6302 16.3635 17.7213 16.0989 17.6873C15.1418 17.5656 12.7531 17.0262 10.3644 14.6375Z" fill="white"/>
</svg>
