<svg width="166" height="29" viewBox="0 0 166 29" xmlns="http://www.w3.org/2000/svg"><g fill="#FFF" fill-rule="evenodd"><path d="M115.3 17.8c-.2-.3-.5-.4-1-.2-.6.3-1.4.6-2.2.6-2.2 0-3.8-1.5-3.8-3.7s1.5-3.7 3.8-3.7c.7 0 1.6.2 2.2.6.4.2.7.2 1-.2l.2-.3c.2-.4.2-.7-.1-1-1-.6-2-.9-3.3-.9-1.7 0-3.3.6-4.4 1.7-1 1-1.6 2.4-1.6 4s.5 2.9 1.6 4 2.6 1.7 4.4 1.7c1.3 0 2.3-.3 3.4-1 .3-.2.3-.5.1-.9l-.3-.7zM120.6 11.8c-2.4 0-4.3 1.8-4.3 4.1s1.9 4.2 4.3 4.2 4.3-1.8 4.3-4.2c-.1-2.3-2-4.1-4.3-4.1zm0 6.5c-1.3 0-2.3-1-2.3-2.3 0-1.3 1-2.4 2.3-2.4 1.3 0 2.3 1 2.3 2.4-.1 1.2-1.1 2.3-2.3 2.3zM130.7 11.8c-1.1 0-2 .5-2.4 1.3v-.4c0-.4-.2-.7-.7-.7h-.7c-.4 0-.7.2-.7.7v6.6c0 .4.2.7.7.7h.7c.4 0 .7-.2.7-.7V16c0-.8.4-2.5 2-2.5.8 0 1.3.7 1.3 1.9v3.7c0 .4.2.7.7.7h.7c.4 0 .7-.2.7-.7v-3.8c0-2.2-1.2-3.5-3-3.5zM149.2 11.9h-.7c-.4 0-.7.2-.7.7v.4c-.6-.8-1.5-1.2-2.6-1.2-2.2 0-3.9 1.7-3.9 4.1 0 2.4 1.6 4.2 3.9 4.2 1.1 0 2-.4 2.6-1.2v.3c0 .4.2.7.7.7h.7c.4 0 .7-.2.7-.7v-6.5c0-.5-.3-.8-.7-.8zm-3.6 6.4c-1.3 0-2.2-1-2.2-2.4s.9-2.4 2.2-2.4c1.3 0 2.2 1 2.2 2.4s-.9 2.4-2.2 2.4zM155.9 13.6c.2 0 .8 0 1.3.3.4.2.7.1 1-.2l.2-.2c.1-.2.2-.4.1-.5 0-.1-.1-.3-.3-.4-.9-.5-1.8-.7-2.4-.7-2.7 0-4.5 1.7-4.5 4.2 0 2.4 1.9 4.1 4.5 4.1.5 0 1.4-.1 2.2-.5.2-.1.4-.3.5-.5 0-.2 0-.3-.1-.5l-.2-.2c-.2-.3-.5-.4-1-.1-.6.3-1.2.3-1.3.3-1.5 0-2.5-1-2.5-2.4-.1-1.7 1-2.7 2.5-2.7zM165.4 18.5l-.5-.6c-.1-.1-.1-.1-.2-.1s-.2 0-.3.1c0 .1-.3.3-.6.3h-.3c-.4 0-.7-.3-.7-.9v-3.8h1.9c.2 0 .4-.1.4-.4v-.8c0-.2-.1-.4-.4-.4h-1.9v-1.5c0-.4-.2-.7-.7-.7h-.6c-.4 0-.7.2-.7.7v1.4h-.8c-.2 0-.4.1-.4.4v.8c0 .2.1.4.4.4h.8v3.8c0 2.4 1.7 2.8 2.7 2.8.3 0 .6 0 .9-.1.1 0 .3-.1.4-.2.2-.1.4-.2.6-.4.1-.1.2-.2.2-.3 0-.1 0-.3-.2-.5zM140.1 17.9c-.1-.1-.1-.1-.2-.1s-.2 0-.3.1c0 .1-.3.3-.6.3h-.3c-.4 0-.7-.3-.7-.9v-3.8h1.9c.2 0 .4-.1.4-.4v-.8c0-.2-.1-.4-.4-.4H138v-1.5c0-.4-.2-.7-.7-.7h-.7c-.4 0-.7.2-.7.7v1.4h-.9c-.2 0-.4.1-.4.4v.8c0 .2.1.4.4.4h.8v3.8c0 2.4 1.7 2.8 2.7 2.8.3 0 .6 0 .9-.1.1 0 .3-.1.4-.2.2-.1.4-.2.6-.4.1-.1.2-.2.2-.3.1-.1.1-.3 0-.5l-.5-.6zM43.6 17.7c-.2-.3-.5-.4-1-.2-.6.3-1.4.6-2.2.6-2.2 0-3.8-1.5-3.8-3.7s1.5-3.7 3.8-3.7c.7 0 1.6.2 2.2.6.4.2.7.2 1-.2l.2-.3c.2-.4.2-.7-.1-1-1-.6-2-.9-3.3-.9-1.7 0-3.3.6-4.4 1.7-1 1-1.6 2.4-1.6 4s.5 2.9 1.6 4 2.6 1.7 4.4 1.7c1.3 0 2.3-.3 3.4-1 .3-.2.3-.5.1-.9l-.3-.7zM48.8 11.8c-2.4 0-4.3 1.8-4.3 4.1s1.9 4.2 4.3 4.2 4.3-1.8 4.3-4.2c0-2.3-1.9-4.1-4.3-4.1zm0 6.5c-1.3 0-2.3-1-2.3-2.3 0-1.3 1-2.4 2.3-2.4 1.3 0 2.3 1 2.3 2.4 0 1.2-1 2.3-2.3 2.3zM59 11.8c-1.1 0-2 .5-2.4 1.3v-.4c0-.4-.2-.7-.7-.7h-.7c-.4 0-.7.2-.7.7v6.6c0 .4.2.7.7.7h.7c.4 0 .7-.2.7-.7V16c0-.8.4-2.5 2-2.5.8 0 1.3.7 1.3 1.9v3.7c0 .4.2.7.7.7h.7c.4 0 .7-.2.7-.7v-3.8c0-2.2-1.2-3.5-3-3.5zM67.2 15.3l-1-.3c-.5-.1-.7-.4-.7-.7 0-.4.4-.7.9-.7.3 0 .6.1.8.3.2.3.5.4.9.3l.3-.1c.2 0 .4-.2.5-.4 0-.1 0-.3-.1-.5-.5-.8-1.3-1.3-2.5-1.3-1.6 0-2.8 1-2.8 2.5 0 1 .7 1.8 2.1 2.2l1 .3c.6.2.8.4.8.7 0 .4-.4.8-1.1.8-.5 0-1-.2-1.2-.5-.2-.3-.4-.5-.9-.4l-.4.1c-.2 0-.4.2-.5.3v.5c.5 1 1.6 1.6 3 1.6 2.1 0 3-1.2 3-2.5 0-.7-.4-1.7-2.1-2.2zM84.3 11.9h-.7c-.4 0-.7.2-.7.7v.4c-.6-.8-1.5-1.2-2.6-1.2-2.2 0-3.9 1.7-3.9 4.1 0 2.4 1.6 4.2 3.9 4.2 1.1 0 2-.4 2.6-1.2v.3c0 .4.2.7.7.7h.7c.4 0 .7-.2.7-.7v-6.5c0-.5-.3-.8-.7-.8zm-3.6 6.4c-1.3 0-2.2-1-2.2-2.4s.9-2.4 2.2-2.4c1.3 0 2.2 1 2.2 2.4s-.9 2.4-2.2 2.4zM91.4 11.8c-1.1 0-2 .5-2.4 1.3v-.4c0-.4-.2-.7-.7-.7h-.7c-.4 0-.7.2-.7.7v6.6c0 .4.2.7.7.7h.7c.4 0 .7-.2.7-.7V16c0-.8.4-2.5 2-2.5.8 0 1.3.7 1.3 1.9v3.7c0 .4.2.7.7.7h.7c.4 0 .7-.2.7-.7v-3.8c0-2.2-1.2-3.5-3-3.5zM100.7 17.8c-.1-.1-.1-.1-.2-.1s-.2 0-.3.1c0 .1-.3.3-.6.3h-.3c-.4 0-.7-.3-.7-.9v-3.8h1.9c.2 0 .4-.1.4-.4v-.7c0-.2-.1-.4-.4-.4h-1.9v-1.5c0-.4-.2-.7-.7-.7h-.6c-.4 0-.7.2-.7.7v1.4h-.8c-.2 0-.4.1-.4.4v.8c0 .2.1.4.4.4h.8v3.8c0 2.4 1.7 2.8 2.7 2.8.3 0 .6 0 .9-.1.1 0 .3-.1.4-.2.2-.1.4-.2.6-.4.1-.1.2-.2.2-.3.1-.1.1-.3 0-.5l-.7-.7zM75.4 17.8c-.1-.1-.1-.1-.2-.1s-.2 0-.3.1c0 .1-.3.3-.6.3H74c-.4 0-.7-.3-.7-.9v-3.8h1.9c.2 0 .4-.1.4-.4v-.7c0-.2-.1-.4-.4-.4h-1.9v-1.5c0-.4-.2-.7-.7-.7H72c-.4 0-.7.2-.7.7v1.4h-.8c-.2 0-.4.1-.4.4v.8c0 .2.1.4.4.4h.8v3.8c0 2.4 1.7 2.8 2.7 2.8.3 0 .6 0 .9-.1.1 0 .3-.1.4-.2.2-.1.4-.2.6-.4.1-.1.2-.2.2-.3.1-.1.1-.3 0-.5l-.7-.7zM18.9 11.9c.2.7.9 1.2 1.7 1.2.2 0 .4 0 .6-.1.9-.3 1.4-1.4 1.1-2.3-.6-1.6-1.8-2.9-3.6-3.7-.9-.4-2 0-2.4.9-.4.9 0 2 .9 2.4.9.3 1.5.9 1.7 1.6zM18.3.5c-1-.2-1.9.4-2.1 1.4-.2 1 .4 1.9 1.4 2.1 4.1.8 6.9 3.6 7.6 7.6.1.9.9 1.5 1.8 1.5h.3c1-.2 1.6-1.1 1.5-2.1C27.9 5.5 24 1.5 18.3.5zM13.7 18.6c-1.6 0-3-1.3-3-3 0-1.6 1.3-3 3-3 1 0 1.8-.8 1.8-1.8S14.7 9 13.7 9a6.7 6.7 0 106.7 6.7c0-1-.8-1.8-1.8-1.8s-1.8.8-1.8 1.8c0 1.6-1.4 2.9-3.1 2.9z"/><path d="M24.7 13.8c-1 0-1.8.8-1.8 1.8 0 5.1-4.1 9.2-9.2 9.2s-9.2-4.1-9.2-9.2 4.1-9.2 9.2-9.2c1 0 1.8-.8 1.8-1.8s-.8-1.8-1.8-1.8C6.7 2.8.9 8.6.9 15.6c0 7 5.8 12.8 12.8 12.8 7 0 12.8-5.8 12.8-12.8 0-1-.8-1.8-1.8-1.8z"/></g></svg>