<svg width="180" height="40" fill="none" xmlns="http://www.w3.org/2000/svg"><path d="M108.223 8.968H96.768c-8.064 0-13.101 5.172-13.101 11.033v10.382c0 .364.287.65.651.65h23.905a.646.646 0 00.651-.65V9.619a.658.658 0 00-.651-.651zm-7.413 16.415a.646.646 0 01-.651.652h-7.758a.646.646 0 01-.651-.652V20.02c0-3.026 2.088-6.014 6.053-6.014h2.375c.364 0 .651.287.651.65v10.727h-.019zM24.537 8.968H13.102C5.038 8.968 0 14.14 0 20c0 7.03 5.038 11.033 13.102 11.033h11.435a.646.646 0 00.651-.651V9.619c.02-.345-.287-.651-.651-.651zm-7.413 17.028s-.977.039-3.026.039c-3.965 0-6.053-3.008-6.053-6.015 0-3.026 2.088-6.014 6.053-6.014h2.375c.364 0 .651.287.651.65v11.34zM79.99 8.968H68.535C60.47 8.968 55.433 14.14 55.433 20c0 7.03 5.038 11.033 13.102 11.033h11.454a.646.646 0 00.651-.651V9.619c.02-.345-.287-.651-.65-.651zm-7.413 17.028s-.977.039-3.026.039c-3.965 0-6.053-3.008-6.053-6.015 0-3.026 2.088-6.014 6.053-6.014h2.375c.364 0 .651.287.651.65v11.34zM52.771 8.968H41.316c-8.064 0-13.102 5.172-13.102 11.033v10.382c0 .364.288.65.652.65h6.761a.646.646 0 00.652-.65V20c0-3.027 2.087-6.015 6.052-6.015h2.375c.364 0 .652.288.652.652v15.764c0 .364.287.651.651.651h6.762a.646.646 0 00.65-.651V9.619a.658.658 0 00-.65-.651zm83.685 0h-11.435c-8.064 0-13.101 5.172-13.101 11.033v10.382c0 .364.287.65.651.65h23.905a.646.646 0 00.651-.65V9.619c-.019-.345-.307-.651-.671-.651zm-7.412 16.415a.646.646 0 01-.652.652h-7.757a.646.646 0 01-.651-.652V20.02c0-3.026 2.087-6.014 6.052-6.014h2.376c.364 0 .651.287.651.65v10.727h-.019zm49.763-16.415h-7.413v7.872a.646.646 0 01-.651.652h-7.758a.646.646 0 01-.651-.652V9.62a.646.646 0 00-.651-.652h-6.762a.646.646 0 00-.651.651v20.783c0 .364.287.651.651.651h6.762a.646.646 0 00.651-.651V23.18c0-.363.287-.65.651-.65h7.758c.364 0 .651.287.651.65v7.222c0 .364.288.651.651.651h6.762a.646.646 0 00.651-.651V9.619a.658.658 0 00-.651-.651zM143.218.08c-.575-.306-1.207.326-.881.881.709 1.207 1.322 3.084 1.322 5.996 0 6.014-3.525 9.098-3.525 18.062 0 9.156 4.693 13.198 7.988 14.903.593.306 1.187-.345.861-.92-.689-1.207-1.264-3.065-1.264-5.938 0-6.014 3.525-9.002 3.525-18.063-.019-9.174-4.731-13.216-8.026-14.92z" fill="#ED1C24"/></svg>