<svg xmlns="http://www.w3.org/2000/svg" width="22" height="25"><path fill="#fff" d="M21.94 23.837a.54.54 0 01-.12.419.483.483 0 01-.389.179H.658a.482.482 0 01-.388-.18c-.09-.12-.15-.27-.12-.418L1.944 7.13a.546.546 0 01.538-.478H5.89V5.635c0-2.87 2.331-5.2 5.2-5.2a5.205 5.205 0 015.201 5.2v1.017h3.317c.27 0 .508.209.538.478zM15.751 9.67a.472.472 0 00-.478.478c0 .269.21.479.478.479.27 0 .478-.21.478-.48a.472.472 0 00-.478-.477zM6.965 6.652h8.25V5.635a4.133 4.133 0 00-4.126-4.124 4.133 4.133 0 00-4.124 4.124zM6.427 9.67a.472.472 0 00-.478.478c0 .269.21.479.478.479.27 0 .478-.21.478-.48a.472.472 0 00-.478-.477zm14.466 13.659L19.22 7.698h-3.05v.986a1.519 1.519 0 011.016 1.435 1.53 1.53 0 01-1.524 1.524 1.53 1.53 0 01-1.524-1.524c0-.658.418-1.226 1.016-1.435v-.986H6.905v.986a1.519 1.519 0 011.016 1.435 1.53 1.53 0 01-1.524 1.524 1.53 1.53 0 01-1.524-1.524c0-.658.418-1.226 1.016-1.435v-.986H2.96l-1.674 15.63z"/></svg>