<svg width="45" height="45" fill="none" xmlns="http://www.w3.org/2000/svg"><g clip-path="url(#clip0)" fill="#151515" opacity=".7"><path d="M22.5 8.703c-7.607 0-13.797 6.19-13.797 13.797 0 7.608 6.19 13.797 13.797 13.797 7.608 0 13.797-6.19 13.797-13.797 0-7.608-6.19-13.797-13.797-13.797zm0 26.11c-6.79 0-12.313-5.524-12.313-12.313 0-6.79 5.524-12.313 12.313-12.313 6.79 0 12.313 5.524 12.313 12.313 0 6.79-5.524 12.313-12.313 12.313zm0 2.967a.742.742 0 00-.742.742v5.736a.742.742 0 101.484 0v-5.736a.742.742 0 00-.742-.742zm10.017-2.754a.742.742 0 10-1.2.872l3.372 4.64a.74.74 0 001.036.165.742.742 0 00.164-1.036l-3.372-4.641zm10.905-6.508l-5.455-1.772a.742.742 0 00-.458 1.41l5.455 1.773a.743.743 0 10.458-1.41zM37.738 18.29a.742.742 0 00.229-.036l5.456-1.772a.742.742 0 10-.459-1.411l-5.455 1.772a.742.742 0 00.229 1.448zm-6.257-8.152a.738.738 0 001.036-.164l3.372-4.64a.742.742 0 00-1.2-.873l-3.372 4.64a.742.742 0 00.164 1.037zM22.5 7.22c.41 0 .742-.332.742-.742V.742a.742.742 0 10-1.484 0v5.736c0 .41.332.742.742.742zM12.482 9.974a.74.74 0 001.036.164.742.742 0 00.164-1.036l-3.371-4.64a.742.742 0 10-1.2.871l3.371 4.641zm-4.991 6.869l-5.455-1.772a.742.742 0 00-.459 1.41l5.456 1.773a.74.74 0 00.935-.476.741.741 0 00-.477-.934zm-.458 9.903l-5.456 1.772a.742.742 0 10.459 1.411l5.455-1.772a.742.742 0 10-.458-1.411zm6.485 8.116a.742.742 0 00-1.036.164l-3.371 4.64a.742.742 0 101.2.873l3.372-4.641a.742.742 0 00-.165-1.036z"/></g><defs><clipPath id="clip0"><path fill="#fff" d="M0 0h45v45H0z"/></clipPath></defs></svg>