<svg 
 xmlns="http://www.w3.org/2000/svg"
 xmlns:xlink="http://www.w3.org/1999/xlink"
 width="14px" height="18px">
<path fill-rule="evenodd"  fill="rgb(0, 0, 0)"
 d="M13.996,15.560 L12.995,3.953 C12.973,3.696 12.762,3.501 12.516,3.501 L10.455,3.501 C10.427,1.564 8.889,0.000 7.000,0.000 C5.111,0.000 3.573,1.564 3.545,3.501 L1.484,3.501 C1.234,3.501 1.027,3.696 1.005,3.953 L0.004,15.560 C0.004,15.574 -0.000,15.589 -0.000,15.604 C-0.000,16.925 1.177,18.000 2.625,18.000 L11.375,18.000 C12.823,18.000 14.000,16.925 14.000,15.604 C14.000,15.589 14.000,15.574 13.996,15.560 ZM7.000,0.994 C8.356,0.994 9.461,2.113 9.490,3.501 L4.510,3.501 C4.539,2.113 5.644,0.994 7.000,0.994 ZM11.375,17.006 L2.625,17.006 C1.717,17.006 0.980,16.388 0.966,15.626 L1.924,4.498 L3.541,4.498 L3.541,6.007 C3.541,6.284 3.756,6.504 4.024,6.504 C4.292,6.504 4.507,6.284 4.507,6.007 L4.507,4.498 L9.490,4.498 L9.490,6.007 C9.490,6.284 9.704,6.504 9.972,6.504 C10.241,6.504 10.455,6.284 10.455,6.007 L10.455,4.498 L12.072,4.498 L13.034,15.626 C13.020,16.388 12.279,17.006 11.375,17.006 Z"/>
</svg>