<svg 
 xmlns="http://www.w3.org/2000/svg"
 xmlns:xlink="http://www.w3.org/1999/xlink"
 width="11px" height="11px">
<path fill-rule="evenodd"  fill="rgb(255, 255, 255)"
 d="M6.188,5.000 L9.754,1.435 C10.082,1.107 10.082,0.575 9.754,0.246 C9.425,-0.082 8.893,-0.082 8.565,0.246 L5.000,3.812 L1.435,0.246 C1.107,-0.082 0.575,-0.082 0.246,0.246 C-0.082,0.575 -0.082,1.107 0.246,1.435 L3.812,5.000 L0.246,8.565 C-0.082,8.893 -0.082,9.425 0.246,9.754 C0.575,10.082 1.107,10.082 1.435,9.754 L5.000,6.188 L8.565,9.754 C8.893,10.082 9.425,10.082 9.754,9.754 C10.082,9.425 10.082,8.893 9.754,8.565 L6.188,5.000 Z"/>
</svg>