<svg 
 xmlns="http://www.w3.org/2000/svg"
 xmlns:xlink="http://www.w3.org/1999/xlink"
 width="16px" height="16px">
<path fill-rule="evenodd"  fill="rgb(255, 67, 67)"
 d="M13.639,2.346 C12.131,0.838 10.123,-0.000 7.987,-0.000 C5.851,-0.000 3.843,0.838 2.335,2.346 C-0.784,5.466 -0.784,10.534 2.335,13.654 C3.843,15.162 5.851,16.000 7.987,16.000 C10.123,16.000 12.131,15.162 13.639,13.654 C16.758,10.534 16.758,5.466 13.639,2.346 ZM13.095,13.109 C11.734,14.470 9.914,15.224 7.987,15.224 C6.060,15.224 4.240,14.470 2.879,13.109 C1.519,11.748 0.764,9.927 0.764,8.000 C0.764,6.073 1.519,4.252 2.879,2.891 C4.240,1.530 6.062,0.776 7.987,0.776 C9.912,0.776 11.734,1.530 13.095,2.891 C14.455,4.252 15.209,6.075 15.209,8.000 C15.209,9.925 14.455,11.748 13.095,13.109 ZM10.416,6.137 L8.470,8.083 L10.416,10.030 C10.563,10.177 10.563,10.428 10.416,10.575 C10.332,10.658 10.249,10.680 10.144,10.680 C10.040,10.680 9.956,10.637 9.873,10.575 L7.925,8.628 L5.977,10.575 C5.893,10.658 5.810,10.680 5.705,10.680 C5.601,10.680 5.517,10.637 5.434,10.575 C5.287,10.428 5.287,10.177 5.434,10.030 L7.380,8.083 L5.434,6.137 C5.287,5.989 5.287,5.739 5.434,5.592 C5.581,5.444 5.831,5.444 5.979,5.592 L7.925,7.539 L9.871,5.592 C10.018,5.444 10.268,5.444 10.416,5.592 C10.563,5.739 10.563,5.968 10.416,6.137 Z"/>
</svg>