<svg 
 xmlns="http://www.w3.org/2000/svg"
 xmlns:xlink="http://www.w3.org/1999/xlink"
 width="15px" height="16px">
<path fill-rule="evenodd"  opacity="0.302" fill="rgb(0, 0, 0)"
 d="M14.732,16.000 L0.268,16.000 C0.120,16.000 -0.000,15.881 -0.000,15.733 L-0.000,4.267 L-0.000,1.333 C-0.000,1.186 0.120,1.067 0.268,1.067 L2.143,1.067 L2.143,0.267 C2.143,0.119 2.263,0.000 2.411,0.000 L4.286,0.000 C4.434,0.000 4.554,0.119 4.554,0.267 L4.554,1.067 L10.446,1.067 L10.446,0.267 C10.446,0.119 10.566,0.000 10.714,0.000 L12.589,0.000 C12.737,0.000 12.857,0.119 12.857,0.267 L12.857,1.067 L14.732,1.067 C14.880,1.067 15.000,1.186 15.000,1.333 L15.000,4.267 L15.000,15.733 C15.000,15.881 14.880,16.000 14.732,16.000 ZM4.018,1.333 L4.018,0.533 L2.679,0.533 L2.679,1.333 L2.679,2.133 L4.018,2.133 L4.018,1.333 ZM12.321,1.333 L12.321,0.533 L10.982,0.533 L10.982,1.333 L10.982,2.133 L12.321,2.133 L12.321,1.333 ZM14.464,1.600 L12.857,1.600 L12.857,2.400 C12.857,2.548 12.737,2.667 12.589,2.667 L10.714,2.667 C10.566,2.667 10.446,2.548 10.446,2.400 L10.446,1.600 L4.554,1.600 L4.554,2.400 C4.554,2.548 4.434,2.667 4.286,2.667 L2.411,2.667 C2.263,2.667 2.143,2.548 2.143,2.400 L2.143,1.600 L0.536,1.600 L0.536,4.000 L14.464,4.000 L14.464,1.600 ZM14.464,4.533 L0.536,4.533 L0.536,15.467 L14.464,15.467 L14.464,4.533 ZM5.357,6.133 L7.232,6.133 L7.768,6.133 L9.643,6.133 L10.179,6.133 L12.589,6.133 L12.589,8.533 L12.589,9.067 L12.589,10.933 L12.589,11.467 L12.589,13.867 L10.179,13.867 L9.643,13.867 L7.768,13.867 L7.232,13.867 L5.357,13.867 L4.821,13.867 L2.411,13.867 L2.411,11.467 L2.411,10.933 L2.411,9.067 L2.411,8.533 L2.411,6.133 L4.821,6.133 L5.357,6.133 ZM10.179,13.333 L12.054,13.333 L12.054,11.467 L10.179,11.467 L10.179,13.333 ZM10.179,10.933 L12.054,10.933 L12.054,9.067 L10.179,9.067 L10.179,10.933 ZM10.179,8.533 L12.054,8.533 L12.054,6.667 L10.179,6.667 L10.179,8.533 ZM7.768,13.333 L9.643,13.333 L9.643,11.467 L7.768,11.467 L7.768,13.333 ZM7.768,10.933 L9.643,10.933 L9.643,9.067 L7.768,9.067 L7.768,10.933 ZM7.768,8.533 L9.643,8.533 L9.643,6.667 L7.768,6.667 L7.768,8.533 ZM5.357,13.333 L7.232,13.333 L7.232,11.467 L5.357,11.467 L5.357,13.333 ZM5.357,10.933 L7.232,10.933 L7.232,9.067 L5.357,9.067 L5.357,10.933 ZM5.357,8.533 L7.232,8.533 L7.232,6.667 L5.357,6.667 L5.357,8.533 ZM2.946,13.333 L4.821,13.333 L4.821,11.467 L2.946,11.467 L2.946,13.333 ZM2.946,10.933 L4.821,10.933 L4.821,9.067 L2.946,9.067 L2.946,10.933 ZM2.946,8.533 L4.821,8.533 L4.821,6.667 L2.946,6.667 L2.946,8.533 Z"/>
</svg>