<svg 
 xmlns="http://www.w3.org/2000/svg"
 xmlns:xlink="http://www.w3.org/1999/xlink"
 width="16px" height="16px">
<path fill-rule="evenodd"  opacity="0.302" fill="rgb(0, 0, 0)"
 d="M8.010,0.013 C10.218,0.013 12.216,0.911 13.667,2.356 C15.112,3.807 16.010,5.806 16.010,8.013 C16.010,10.220 15.112,12.219 13.667,13.670 C12.216,15.115 10.218,16.013 8.010,16.013 C5.803,16.013 3.805,15.115 2.360,13.670 C0.908,12.219 0.017,10.221 0.017,8.013 C0.017,5.806 0.908,3.807 2.359,2.356 C3.805,0.911 5.803,0.013 8.010,0.013 L8.010,0.013 ZM12.087,7.576 C12.327,7.576 12.518,7.773 12.518,8.013 C12.518,8.253 12.327,8.450 12.087,8.450 L8.023,8.450 L8.010,8.450 C7.850,8.450 7.709,8.357 7.635,8.228 L7.629,8.222 L7.629,8.222 L7.623,8.210 L7.623,8.210 L7.623,8.204 L7.623,8.204 L7.617,8.191 L7.617,8.191 L7.610,8.179 L7.610,8.179 L7.610,8.173 L7.610,8.173 L7.604,8.160 L7.604,8.160 L7.598,8.154 L7.598,8.154 L7.598,8.142 L7.598,8.142 L7.592,8.129 L7.592,8.129 L7.592,8.123 L7.592,8.123 L7.586,8.111 L7.586,8.111 L7.586,8.098 L7.586,8.098 L7.586,8.092 L7.586,8.086 L7.579,8.080 L7.579,8.080 L7.579,8.067 L7.579,8.067 L7.579,8.055 L7.579,8.055 L7.579,8.044 L7.579,8.044 L7.579,8.038 L7.579,8.038 L7.579,8.025 L7.579,8.025 L7.579,8.013 L7.579,8.013 L7.579,2.805 C7.579,2.565 7.770,2.374 8.010,2.374 C8.250,2.374 8.446,2.565 8.446,2.805 L8.446,7.576 L12.087,7.576 ZM13.052,2.971 C11.761,1.680 9.978,0.886 8.010,0.886 C6.043,0.886 4.259,1.679 2.968,2.971 C1.683,4.262 0.884,6.045 0.884,8.013 C0.884,9.981 1.683,11.764 2.968,13.055 C4.259,14.347 6.043,15.140 8.010,15.140 C9.978,15.140 11.761,14.347 13.052,13.055 C14.343,11.764 15.143,9.981 15.143,8.013 C15.143,6.045 14.344,4.262 13.052,2.971 L13.052,2.971 Z"/>
</svg>