<svg 
 xmlns="http://www.w3.org/2000/svg"
 xmlns:xlink="http://www.w3.org/1999/xlink"
 width="12px" height="12px">
<path fill-rule="evenodd"  fill="rgb(29, 29, 29)"
 d="M11.093,5.790 C10.886,4.579 10.313,3.477 9.442,2.605 C8.522,1.689 7.358,1.107 6.074,0.927 L6.204,-0.000 C7.690,0.207 9.037,0.879 10.101,1.943 C11.111,2.955 11.773,4.229 12.015,5.633 L11.093,5.790 ZM8.430,3.569 C9.037,4.179 9.437,4.946 9.581,5.793 L8.660,5.950 C8.547,5.296 8.240,4.701 7.770,4.231 C7.273,3.734 6.643,3.422 5.951,3.325 L6.081,2.398 C6.976,2.523 7.788,2.928 8.430,3.569 ZM3.928,6.547 C4.567,7.331 5.289,8.028 6.151,8.570 C6.336,8.685 6.541,8.770 6.733,8.875 C6.831,8.930 6.898,8.913 6.978,8.830 C7.270,8.530 7.568,8.236 7.865,7.941 C8.255,7.554 8.744,7.554 9.137,7.941 C9.614,8.415 10.091,8.890 10.566,9.367 C10.963,9.767 10.961,10.257 10.561,10.661 C10.291,10.933 10.004,11.193 9.749,11.478 C9.377,11.895 8.912,12.030 8.377,12.000 C7.600,11.958 6.886,11.700 6.196,11.366 C4.665,10.621 3.355,9.590 2.259,8.286 C1.447,7.321 0.777,6.270 0.337,5.086 C0.122,4.514 -0.030,3.927 0.017,3.305 C0.047,2.923 0.190,2.595 0.472,2.328 C0.777,2.038 1.064,1.736 1.364,1.441 C1.754,1.057 2.244,1.057 2.636,1.439 C2.878,1.676 3.115,1.918 3.355,2.158 C3.588,2.393 3.820,2.623 4.052,2.857 C4.462,3.270 4.462,3.749 4.055,4.159 C3.763,4.454 3.473,4.748 3.175,5.036 C3.098,5.113 3.091,5.176 3.130,5.271 C3.328,5.740 3.610,6.157 3.928,6.547 Z"/>
</svg>