<svg width="40" height="31" viewBox="0 0 40 31" fill="none" xmlns="http://www.w3.org/2000/svg">
<g clip-path="url(#clip0_174:13)">
<path d="M20.0043 17.5063C20.5754 17.5063 21.0356 17.1926 21.3254 16.9312C24.9734 13.5672 35.4145 3.79796 38.5596 0.852359C38.4403 0.826215 38.321 0.773926 38.1846 0.773926H1.81553C1.67916 0.773926 1.55983 0.826215 1.44051 0.852359C4.58562 3.79796 15.0267 13.5672 18.6832 16.9312C18.9645 17.1926 19.4247 17.5063 20.0043 17.5063Z" fill="white"/>
<path d="M22.5357 18.3078C21.7857 18.9962 20.9078 19.3623 19.9958 19.3623C19.0838 19.3623 18.2059 18.9962 17.4558 18.3078C17.0211 17.9069 16.4671 17.4014 15.8705 16.835C11.2509 20.8873 3.92079 27.9899 1.4064 30.4388C1.54278 30.4736 1.67063 30.5259 1.81552 30.5259H38.1846C38.3295 30.5259 38.4573 30.4736 38.5937 30.4388C36.0793 27.9899 28.7493 20.8873 24.1296 16.8437C23.5245 17.4014 22.9704 17.9069 22.5357 18.3078Z" fill="white"/>
<path d="M0.10228 2.11621C0.05114 2.28179 0 2.44737 0 2.63038V28.6615C0 28.8358 0.05114 28.9839 0.0937567 29.1495C2.52291 26.7791 9.81036 19.7201 14.5152 15.5806C9.79331 11.1883 2.51438 4.37334 0.10228 2.11621Z" fill="white"/>
<path d="M25.4847 15.5806C30.1896 19.7114 37.4771 26.7791 39.9062 29.1495C39.9488 28.9926 40 28.8358 40 28.6615V2.63038C40 2.44737 39.9488 2.28179 39.8977 2.11621C37.4941 4.37334 30.2067 11.1883 25.4847 15.5806Z" fill="white"/>
</g>
<defs>
<clipPath id="clip0_174:13">
<rect width="40" height="29.7436" fill="white" transform="translate(0 0.773926)"/>
</clipPath>
</defs>
</svg>
