<svg width="41" height="48" viewBox="0 0 41 48" fill="none" xmlns="http://www.w3.org/2000/svg">
<g clip-path="url(#clip0_157:664)">
<path d="M0 39.0226V44.6809C0 46.2719 1.31497 47.5597 2.93956 47.5597H37.104C38.7285 47.5597 40.0435 46.2719 40.0435 44.6809V39.0226C40.0435 35.9452 38.1894 33.1465 35.321 31.8901C28.0895 28.7273 20.8634 28.7168 20.0218 28.7168C19.1872 28.7168 11.9718 28.7203 4.72252 31.8901C1.85413 33.1465 0 35.9452 0 39.0226Z" fill="white"/>
<path d="M20.068 25.7908C27.1987 25.7908 32.9793 20.1297 32.9793 13.1464C32.9793 6.16306 27.1987 0.501953 20.068 0.501953C12.9373 0.501953 7.15674 6.16306 7.15674 13.1464C7.15674 20.1297 12.9373 25.7908 20.068 25.7908Z" fill="white"/>
</g>
<defs>
<clipPath id="clip0_157:664">
<rect width="40.0417" height="47.0576" fill="white" transform="translate(0 0.501953)"/>
</clipPath>
</defs>
</svg>
