<svg width="41" height="40" viewBox="0 0 41 40" fill="none" xmlns="http://www.w3.org/2000/svg">
<g clip-path="url(#clip0_157:658)">
<path d="M36.8288 26.2993C34.3773 26.2993 31.9702 25.9238 29.6892 25.1856C28.5715 24.8122 27.1974 25.1547 26.5153 25.8409L22.013 29.1694C16.7916 26.4398 13.5753 23.291 10.8262 18.2159L14.1249 13.9216C14.982 13.0833 15.2894 11.8589 14.9211 10.7101C14.164 8.46443 13.7795 6.1082 13.7795 3.70632C13.7796 1.97118 12.3382 0.55957 10.5665 0.55957H3.21304C1.4414 0.55957 0 1.97118 0 3.70622C0 23.5942 16.5212 39.7739 36.8288 39.7739C38.6005 39.7739 40.0419 38.3623 40.0419 36.6273V29.4458C40.0418 27.7109 38.6003 26.2993 36.8288 26.2993Z" fill="white"/>
</g>
<defs>
<clipPath id="clip0_157:658">
<rect width="40.0417" height="39.2144" fill="white" transform="translate(0 0.55957)"/>
</clipPath>
</defs>
</svg>
