<svg width="40" height="52" viewBox="0 0 40 52" fill="none" xmlns="http://www.w3.org/2000/svg">
<g clip-path="url(#clip0_157:651)">
<path d="M20.0272 0.59668C9.63206 0.59668 1.17506 8.87906 1.17506 19.0594C1.17506 31.6936 18.0459 50.2413 18.7641 51.0247C19.4388 51.7606 20.6167 51.7593 21.2902 51.0247C22.0085 50.2413 38.8793 31.6936 38.8793 19.0594C38.8791 8.87906 30.4222 0.59668 20.0272 0.59668ZM20.0272 28.3485C14.7971 28.3485 10.5423 24.1815 10.5423 19.0594C10.5423 13.9374 14.7972 9.7704 20.0272 9.7704C25.2571 9.7704 29.5119 13.9375 29.5119 19.0595C29.5119 24.1816 25.2571 28.3485 20.0272 28.3485Z" fill="white"/>
</g>
<defs>
<clipPath id="clip0_157:651">
<rect width="40" height="51" fill="white" transform="translate(0 0.164551)"/>
</clipPath>
</defs>
</svg>
