<svg width="32" height="32" viewBox="0 0 32 32" fill="none" xmlns="http://www.w3.org/2000/svg">
<path d="M30.375 0.375H1.625C0.933594 0.375 0.375 0.933594 0.375 1.625V30.375C0.375 31.0664 0.933594 31.625 1.625 31.625H30.375C31.0664 31.625 31.625 31.0664 31.625 30.375V1.625C31.625 0.933594 31.0664 0.375 30.375 0.375ZM26.7656 9.49609H24.2695C22.3125 9.49609 21.9336 10.4258 21.9336 11.793V14.8047H26.6055L25.9961 19.5195H21.9336V31.625H17.0625V19.5234H12.9883V14.8047H17.0625V11.3281C17.0625 7.29297 19.5273 5.09375 23.1289 5.09375C24.8555 5.09375 26.3359 5.22266 26.7695 5.28125V9.49609H26.7656Z" fill="white"/>
</svg>
