<svg width="64" height="64" viewBox="0 0 64 64" fill="none" xmlns="http://www.w3.org/2000/svg">
<rect x="2.66667" y="2.66667" width="58.6667" height="58.6667" rx="29.3333" stroke="#E90000" stroke-width="5.33333"/>
<path d="M41.472 30.8033C43.1787 31.3438 44.5156 32.254 45.4827 33.534C46.4498 34.7855 46.9333 36.3358 46.9333 38.1847C46.9333 40.8015 45.9093 42.8211 43.8613 44.2433C41.8418 45.6371 38.8836 46.334 34.9867 46.334H19.5413V16.4673H34.1333C37.7742 16.4673 40.5618 17.1642 42.496 18.558C44.4587 19.9518 45.44 21.8433 45.44 24.2327C45.44 25.6833 45.0844 26.9775 44.3733 28.1153C43.6907 29.2531 42.7236 30.1491 41.472 30.8033ZM26.4107 21.6726V28.7126H33.28C34.9867 28.7126 36.2809 28.414 37.1627 27.8166C38.0444 27.2193 38.4853 26.3375 38.4853 25.1713C38.4853 24.0051 38.0444 23.1375 37.1627 22.5686C36.2809 21.9713 34.9867 21.6726 33.28 21.6726H26.4107ZM34.4747 41.1287C36.2951 41.1287 37.6604 40.83 38.5707 40.2327C39.5093 39.6353 39.9787 38.7109 39.9787 37.4593C39.9787 34.9847 38.144 33.7473 34.4747 33.7473H26.4107V41.1287H34.4747Z" fill="#E90000"/>
</svg>
