<svg width="32" height="32" viewBox="0 0 32 32" fill="none" xmlns="http://www.w3.org/2000/svg">
<path d="M16.0002 10.7929C13.1331 10.7929 10.7932 13.1328 10.7932 15.9999C10.7932 18.8671 13.1331 21.207 16.0002 21.207C18.8674 21.207 21.2073 18.8671 21.2073 15.9999C21.2073 13.1328 18.8674 10.7929 16.0002 10.7929ZM31.6174 15.9999C31.6174 13.8437 31.637 11.707 31.5159 9.55463C31.3948 7.05463 30.8245 4.83588 28.9963 3.00775C27.1643 1.17572 24.9495 0.609316 22.4495 0.488222C20.2932 0.367129 18.1565 0.38666 16.0042 0.38666C13.8479 0.38666 11.7112 0.367129 9.55884 0.488222C7.05884 0.609316 4.84009 1.17963 3.01197 3.00775C1.17993 4.83979 0.613528 7.05463 0.492434 9.55463C0.37134 11.7109 0.390871 13.8476 0.390871 15.9999C0.390871 18.1523 0.37134 20.2929 0.492434 22.4453C0.613528 24.9453 1.18384 27.164 3.01197 28.9921C4.844 30.8242 7.05884 31.3906 9.55884 31.5117C11.7151 31.6328 13.8518 31.6132 16.0042 31.6132C18.1604 31.6132 20.2971 31.6328 22.4495 31.5117C24.9495 31.3906 27.1682 30.8203 28.9963 28.9921C30.8284 27.1601 31.3948 24.9453 31.5159 22.4453C31.6409 20.2929 31.6174 18.1562 31.6174 15.9999ZM16.0002 24.0117C11.5667 24.0117 7.98853 20.4335 7.98853 15.9999C7.98853 11.5663 11.5667 7.98822 16.0002 7.98822C20.4338 7.98822 24.012 11.5663 24.012 15.9999C24.012 20.4335 20.4338 24.0117 16.0002 24.0117ZM24.3401 9.53119C23.3049 9.53119 22.469 8.69525 22.469 7.6601C22.469 6.62494 23.3049 5.789 24.3401 5.789C25.3752 5.789 26.2112 6.62494 26.2112 7.6601C26.2115 7.9059 26.1633 8.14935 26.0694 8.3765C25.9755 8.60365 25.8376 8.81004 25.6638 8.98385C25.49 9.15766 25.2836 9.29547 25.0565 9.38939C24.8293 9.48331 24.5859 9.5315 24.3401 9.53119Z" fill="white"/>
</svg>
