<svg width="30" height="30" viewBox="0 0 30 30" fill="none" xmlns="http://www.w3.org/2000/svg">
<path d="M17.8711 15C17.8711 16.5857 16.5857 17.8711 15 17.8711C13.4143 17.8711 12.1289 16.5857 12.1289 15C12.1289 13.4143 13.4143 12.1289 15 12.1289C16.5857 12.1289 17.8711 13.4143 17.8711 15Z" fill="#E90000"/>
<path d="M21.7145 9.92015C21.5765 9.54616 21.3563 9.20764 21.0702 8.92978C20.7923 8.64368 20.454 8.42349 20.0798 8.28548C19.7763 8.1676 19.3204 8.0273 18.4806 7.98907C17.5722 7.94765 17.2998 7.93872 15 7.93872C12.7 7.93872 12.4276 7.94742 11.5194 7.98885C10.6796 8.0273 10.2235 8.1676 9.9202 8.28548C9.54597 8.42349 9.20746 8.64368 8.92982 8.92978C8.64372 9.20764 8.42354 9.54593 8.28529 9.92015C8.16742 10.2236 8.02711 10.6798 7.98889 11.5196C7.94746 12.4278 7.93854 12.7001 7.93854 15.0002C7.93854 17.3 7.94746 17.5724 7.98889 18.4808C8.02711 19.3206 8.16742 19.7765 8.28529 20.08C8.42354 20.4542 8.64349 20.7925 8.9296 21.0704C9.20746 21.3565 9.54575 21.5766 9.91997 21.7147C10.2235 21.8328 10.6796 21.9731 11.5194 22.0113C12.4276 22.0527 12.6997 22.0614 14.9998 22.0614C17.3 22.0614 17.5724 22.0527 18.4804 22.0113C19.3201 21.9731 19.7763 21.8328 20.0798 21.7147C20.831 21.4249 21.4247 20.8312 21.7145 20.08C21.8324 19.7765 21.9727 19.3206 22.0111 18.4808C22.0525 17.5724 22.0612 17.3 22.0612 15.0002C22.0612 12.7001 22.0525 12.4278 22.0111 11.5196C21.9729 10.6798 21.8326 10.2236 21.7145 9.92015ZM15 19.4229C12.5571 19.4229 10.5769 17.4428 10.5769 15C10.5769 12.5571 12.5571 10.577 15 10.577C17.4426 10.577 19.4229 12.5571 19.4229 15C19.4229 17.4428 17.4426 19.4229 15 19.4229ZM19.5978 11.4358C19.0269 11.4358 18.5641 10.973 18.5641 10.4022C18.5641 9.83134 19.0269 9.36855 19.5978 9.36855C20.1686 9.36855 20.6314 9.83134 20.6314 10.4022C20.6312 10.973 20.1686 11.4358 19.5978 11.4358Z" fill="#E90000"/>
<path d="M15 0C6.717 0 0 6.717 0 15C0 23.283 6.717 30 15 30C23.283 30 30 23.283 30 15C30 6.717 23.283 0 15 0ZM23.5613 18.5511C23.5197 19.468 23.3739 20.094 23.161 20.6419C22.7135 21.7989 21.7989 22.7135 20.6419 23.161C20.0942 23.3739 19.468 23.5194 18.5513 23.5613C17.6328 23.6032 17.3394 23.6133 15.0002 23.6133C12.6608 23.6133 12.3676 23.6032 11.4489 23.5613C10.5322 23.5194 9.90601 23.3739 9.35829 23.161C8.78334 22.9447 8.26286 22.6057 7.83257 22.1674C7.39449 21.7374 7.05551 21.2167 6.83922 20.6419C6.62636 20.0942 6.48056 19.468 6.4389 18.5513C6.39656 17.6326 6.38672 17.3392 6.38672 15C6.38672 12.6608 6.39656 12.3674 6.43867 11.4489C6.48033 10.532 6.6259 9.90601 6.83876 9.35806C7.05505 8.78334 7.39426 8.26263 7.83257 7.83257C8.26263 7.39426 8.78334 7.05528 9.35806 6.83899C9.90601 6.62613 10.532 6.48056 11.4489 6.43867C12.3674 6.39679 12.6608 6.38672 15 6.38672C17.3392 6.38672 17.6326 6.39679 18.5511 6.4389C19.468 6.48056 20.094 6.62613 20.6419 6.83876C21.2167 7.05505 21.7374 7.39426 22.1677 7.83257C22.6057 8.26286 22.9449 8.78334 23.161 9.35806C23.3741 9.90601 23.5197 10.532 23.5616 11.4489C23.6034 12.3674 23.6133 12.6608 23.6133 15C23.6133 17.3392 23.6034 17.6326 23.5613 18.5511Z" fill="#E90000"/>
</svg>
