<svg fill="none" height="57" viewBox="0 0 240 57" width="240" xmlns="http://www.w3.org/2000/svg" xmlns:xlink="http://www.w3.org/1999/xlink"><filter id="a" color-interpolation-filters="sRGB" filterUnits="userSpaceOnUse" height="57" width="240" x="0" y="0"><feFlood flood-opacity="0" result="BackgroundImageFix"/><feColorMatrix in="SourceAlpha" result="hardAlpha" type="matrix" values="0 0 0 0 0 0 0 0 0 0 0 0 0 0 0 0 0 0 127 0"/><feOffset/><feGaussianBlur stdDeviation="2.5"/><feColorMatrix type="matrix" values="0 0 0 0 1 0 0 0 0 1 0 0 0 0 1 0 0 0 1 0"/><feBlend in2="BackgroundImageFix" mode="normal" result="effect1_dropShadow"/><feBlend in="SourceGraphic" in2="effect1_dropShadow" mode="normal" result="shape"/></filter><g filter="url(#a)"><rect height="45" rx="22.5" stroke="#fff" stroke-width="2" width="228" x="6" y="6"/></g><g fill="#fff"><path d="m34.328 27.264c.96.304 1.712.816 2.256 1.536.544.704.816 1.576.816 2.616 0 1.472-.576 2.608-1.728 3.408-1.136.784-2.8 1.176-4.992 1.176h-8.688v-16.8h8.208c2.048 0 3.616.392 4.704 1.176 1.104.784 1.656 1.848 1.656 3.192 0 .816-.2 1.544-.6 2.184-.384.64-.928 1.144-1.632 1.512zm-8.472-5.136v3.96h3.864c.96 0 1.688-.168 2.184-.504s.744-.832.744-1.488-.248-1.144-.744-1.464c-.496-.336-1.224-.504-2.184-.504zm4.536 10.944c1.024 0 1.792-.168 2.304-.504.528-.336.792-.856.792-1.56 0-1.392-1.032-2.088-3.096-2.088h-4.536v4.152zm18.0876 3.216c-1.744 0-3.32-.376-4.728-1.128-1.392-.752-2.488-1.784-3.288-3.096-.784-1.328-1.176-2.816-1.176-4.464s.392-3.128 1.176-4.44c.8-1.328 1.896-2.368 3.288-3.12 1.408-.752 2.984-1.128 4.728-1.128s3.312.376 4.704 1.128 2.488 1.792 3.288 3.12c.8 1.312 1.2 2.792 1.2 4.44s-.4 3.136-1.2 4.464c-.8 1.312-1.896 2.344-3.288 3.096s-2.96 1.128-4.704 1.128zm0-3.312c.992 0 1.888-.224 2.688-.672.8-.464 1.424-1.104 1.872-1.92.464-.816.696-1.744.696-2.784s-.232-1.968-.696-2.784c-.448-.816-1.072-1.448-1.872-1.896-.8-.464-1.696-.696-2.688-.696s-1.888.232-2.688.696c-.8.448-1.432 1.08-1.896 1.896-.448.816-.672 1.744-.672 2.784s.224 1.968.672 2.784c.464.816 1.096 1.456 1.896 1.92.8.448 1.696.672 2.688.672zm27.522-13.776v16.8h-3.192l-8.376-10.2v10.2h-3.84v-16.8h3.216l8.352 10.2v-10.2zm3.9748 0h7.632c1.824 0 3.432.352 4.824 1.056 1.408.688 2.496 1.664 3.264 2.928.784 1.264 1.176 2.736 1.176 4.416s-.392 3.152-1.176 4.416c-.768 1.264-1.856 2.248-3.264 2.952-1.392.688-3 1.032-4.824 1.032h-7.632zm7.44 13.608c1.68 0 3.016-.464 4.008-1.392 1.008-.944 1.512-2.216 1.512-3.816s-.504-2.864-1.512-3.792c-.992-.944-2.328-1.416-4.008-1.416h-3.552v10.416zm23.2176-.408h-7.8l-1.488 3.6h-3.9839l7.4879-16.8h3.84l7.512 16.8h-4.08zm-1.224-2.952-2.664-6.432-2.664 6.432zm19.239 6.552-3.24-4.68h-.192-3.384v4.68h-3.888v-16.8h7.272c1.488 0 2.776.248 3.864.744 1.104.496 1.952 1.2 2.544 2.112s.888 1.992.888 3.24-.304 2.328-.912 3.24c-.592.896-1.44 1.584-2.544 2.064l3.768 5.4zm-.072-10.704c0-.944-.304-1.664-.912-2.16-.608-.512-1.496-.768-2.664-.768h-3.168v5.856h3.168c1.168 0 2.056-.256 2.664-.768s.912-1.232.912-2.16zm20.025 7.584v3.12h-13.008v-16.8h12.696v3.12h-8.832v3.648h7.8v3.024h-7.8v3.888zm18.501-13.68v16.8h-3.192l-8.376-10.2v10.2h-3.84v-16.8h3.216l8.352 10.2v-10.2zm10.095 10.2-2.256 2.352v4.248h-3.864v-16.8h3.864v7.848l7.44-7.848h4.32l-6.96 7.488 7.368 9.312h-4.536zm19.172 6.888c-1.744 0-3.32-.376-4.728-1.128-1.392-.752-2.488-1.784-3.288-3.096-.784-1.328-1.176-2.816-1.176-4.464s.392-3.128 1.176-4.44c.8-1.328 1.896-2.368 3.288-3.12 1.408-.752 2.984-1.128 4.728-1.128s3.312.376 4.704 1.128 2.488 1.792 3.288 3.12c.8 1.312 1.2 2.792 1.2 4.44s-.4 3.136-1.2 4.464c-.8 1.312-1.896 2.344-3.288 3.096s-2.96 1.128-4.704 1.128zm0-3.312c.992 0 1.888-.224 2.688-.672.8-.464 1.424-1.104 1.872-1.92.464-.816.696-1.744.696-2.784s-.232-1.968-.696-2.784c-.448-.816-1.072-1.448-1.872-1.896-.8-.464-1.696-.696-2.688-.696s-1.888.232-2.688.696c-.8.448-1.432 1.08-1.896 1.896-.448.816-.672 1.744-.672 2.784s.224 1.968.672 2.784c.464.816 1.096 1.456 1.896 1.92.8.448 1.696.672 2.688.672z"/><path d="m214.9 20.87h-2.4v6.13h-.98v-6.13h-2.39v-.87h5.77zm7.705 6.13-.01-5.1-2.53 4.25h-.46l-2.53-4.22v5.07h-.96v-7h.82l2.92 4.92 2.88-4.92h.82l.01 7z"/></g></svg>