<svg width="81" height="81" viewBox="0 0 81 81" fill="none" xmlns="http://www.w3.org/2000/svg">
<g filter="url(#filter0_d)">
<path d="M62.0668 18.9332C56.306 13.1726 48.6468 10 40.5 10C32.3532 10 24.694 13.1726 18.9332 18.9332C13.1726 24.694 10 32.3532 10 40.5C10 48.6468 13.1726 56.306 18.9332 62.0668C24.694 67.8274 32.3532 71 40.5 71C46.0773 71 51.5344 69.48 56.2816 66.6045C57.4071 65.9226 57.7669 64.4574 57.0851 63.3319C56.4031 62.2061 54.9378 61.8465 53.8124 62.5284C49.8101 64.9529 45.2066 66.2344 40.5 66.2344C26.31 66.2344 14.7656 54.69 14.7656 40.5C14.7656 26.31 26.31 14.7656 40.5 14.7656C54.69 14.7656 66.2344 26.31 66.2344 40.5C66.2344 45.5741 64.7255 50.5131 61.8707 54.7831C61.1393 55.877 61.4332 57.3568 62.5272 58.0883C63.6214 58.8199 65.1011 58.5257 65.8324 57.4318C69.2131 52.3752 71 46.5202 71 40.5C71 32.3532 67.8274 24.694 62.0668 18.9332Z" fill="#E90000"/>
<path d="M37.9581 28.0406C36.2798 27.0668 34.2741 27.0634 32.593 28.0318C30.9056 29.0034 29.8983 30.748 29.8983 32.6984V48.3017C29.8983 50.2521 30.9056 51.9967 32.593 52.9683C33.431 53.451 34.3493 53.6922 35.2679 53.6922C36.1921 53.6922 37.1165 53.4477 37.9581 52.9593L51.4028 45.1578C53.0804 44.1843 54.082 42.443 54.082 40.5C54.082 38.5569 53.0804 36.8157 51.4028 35.8422L37.9581 28.0406ZM49.0109 41.0358L35.5663 48.8373C35.3205 48.9802 35.107 48.9165 34.9713 48.8385C34.8309 48.7577 34.6639 48.599 34.6639 48.3015V32.6984C34.6639 32.4009 34.8309 32.2422 34.9713 32.1614C35.0482 32.1171 35.1501 32.0777 35.2686 32.0777C35.3593 32.0777 35.4597 32.1008 35.5663 32.1626L49.0109 39.9642C49.2635 40.1106 49.3164 40.3364 49.3164 40.5C49.3164 40.6636 49.2635 40.8893 49.0109 41.0358Z" fill="#E90000"/>
</g>
<defs>
<filter id="filter0_d" x="0" y="0" width="81" height="81" filterUnits="userSpaceOnUse" color-interpolation-filters="sRGB">
<feFlood flood-opacity="0" result="BackgroundImageFix"/>
<feColorMatrix in="SourceAlpha" type="matrix" values="0 0 0 0 0 0 0 0 0 0 0 0 0 0 0 0 0 0 127 0" result="hardAlpha"/>
<feOffset/>
<feGaussianBlur stdDeviation="5"/>
<feColorMatrix type="matrix" values="0 0 0 0 0.741176 0 0 0 0 0 0 0 0 0 0 0 0 0 1 0"/>
<feBlend mode="normal" in2="BackgroundImageFix" result="effect1_dropShadow"/>
<feBlend mode="normal" in="SourceGraphic" in2="effect1_dropShadow" result="shape"/>
</filter>
</defs>
</svg>
