<svg width="23" height="23" viewBox="0 0 23 23" fill="none" xmlns="http://www.w3.org/2000/svg">
<path d="M11.5 0C5.16074 0 0 5.16074 0 11.5C0 17.8393 5.16074 23 11.5 23C17.8393 23 23 17.8393 23 11.5C23 5.16074 17.8393 0 11.5 0ZM11.5 20.6192C6.47231 20.6192 2.38078 16.5277 2.38078 11.5C2.38078 6.47231 6.47231 2.38078 11.5 2.38078C16.5277 2.38078 20.6192 6.47231 20.6192 11.5C20.6192 16.5277 16.5277 20.6192 11.5 20.6192Z" fill="#E90000"/>
<path d="M13.4626 10.8537C12.9066 10.5448 12.3173 10.3167 11.7328 10.0744C11.3954 9.93655 11.0723 9.77023 10.7872 9.54213C10.2264 9.09068 10.331 8.36362 10.9915 8.07374C11.1768 7.99295 11.3717 7.96444 11.5713 7.95494C12.3363 7.91217 13.0587 8.05473 13.7525 8.38738C14.0946 8.5537 14.2087 8.50143 14.3275 8.14502C14.451 7.76486 14.5556 7.37994 14.6649 6.99977C14.7409 6.74316 14.6458 6.57209 14.4035 6.46754C13.9615 6.27271 13.5054 6.13014 13.0254 6.05886C12.4029 5.95907 12.4029 5.95907 12.3981 5.3318C12.3934 4.44316 12.3934 4.44316 11.5095 4.44791C11.3812 4.44791 11.2529 4.44316 11.1246 4.44791C10.7111 4.46217 10.6399 4.53345 10.6304 4.94688C10.6256 5.13221 10.6304 5.32229 10.6304 5.50762C10.6256 6.06362 10.6256 6.05411 10.0934 6.24419C8.81031 6.7099 8.01671 7.58428 7.93118 8.98614C7.85514 10.2264 8.50143 11.0628 9.51837 11.6711C10.1456 12.0465 10.8394 12.2698 11.5047 12.5644C11.7661 12.6785 12.0132 12.8116 12.227 12.9921C12.8686 13.5196 12.7498 14.3987 11.9894 14.7314C11.5808 14.9072 11.1531 14.9547 10.7159 14.8977C10.0363 14.8122 9.38531 14.6363 8.77704 14.318C8.42064 14.1326 8.31609 14.1801 8.19254 14.5698C8.08799 14.9072 7.99295 15.2446 7.90266 15.582C7.77911 16.0382 7.82188 16.1475 8.25907 16.3566C8.81031 16.6227 9.40432 16.7605 10.0078 16.8603C10.4783 16.9363 10.4973 16.9554 10.502 17.4448C10.502 17.6682 10.5068 17.8915 10.5068 18.1101C10.5115 18.3905 10.6446 18.5521 10.9345 18.5568C11.2624 18.5616 11.5903 18.5616 11.9182 18.5568C12.1843 18.5521 12.3221 18.4047 12.3268 18.1339C12.3268 17.8297 12.3411 17.5256 12.3316 17.2215C12.3173 16.9126 12.4504 16.7558 12.7498 16.675C13.4341 16.4897 14.0186 16.119 14.47 15.5725C15.7056 14.0518 15.2303 11.8326 13.4626 10.8537Z" fill="#E90000"/>
</svg>
