<svg width="99" height="82" viewBox="0 0 99 82" fill="none" xmlns="http://www.w3.org/2000/svg">
<path d="M94.5488 0.176759L94.5488 5.54785C85.1087 9.61686 78.2728 14.9066 74.041 21.417C69.7279 27.846 67.5713 34.4378 67.5713 41.1924C67.5713 42.5758 67.8561 43.6338 68.4258 44.3662C68.9954 45.0173 69.5651 45.3428 70.1348 45.3428C70.623 45.3428 71.3555 45.0579 72.332 44.4883C74.692 43.1048 77.6217 42.4131 81.1211 42.4131C85.9225 42.4131 90.1136 44.2848 93.6943 48.0283C97.1937 51.7718 98.9434 56.1663 98.9434 61.2119C98.9434 66.583 96.9088 71.3031 92.8398 75.3721C88.7708 79.4411 83.8473 81.4756 78.0693 81.4756C71.0706 81.4756 65.0892 78.7494 60.125 73.2969C55.1608 67.9258 52.6787 60.5202 52.6787 51.0801C52.6787 39.4427 56.2187 29.1074 63.2988 20.0742C70.2975 11.041 80.7142 4.40853 94.5488 0.176759ZM42.0488 0.176763L42.0488 5.54786C32.6087 9.61687 25.7728 14.9066 21.541 21.417C17.2279 27.846 15.0713 34.4378 15.0713 41.1924C15.0713 42.5759 15.3561 43.6338 15.9258 44.3662C16.4954 45.0173 17.0651 45.3428 17.6348 45.3428C18.123 45.3428 18.8555 45.058 19.832 44.4883C22.192 43.1048 25.1217 42.4131 28.6211 42.4131C33.4225 42.4131 37.6136 44.2848 41.1943 48.0283C44.6937 51.7718 46.4434 56.1663 46.4434 61.2119C46.4434 66.583 44.4088 71.3031 40.3398 75.3721C36.2708 79.4411 31.3473 81.4756 25.5693 81.4756C18.5706 81.4756 12.5892 78.7494 7.62499 73.2969C2.6608 67.9258 0.178703 60.5202 0.178702 51.0801C0.178701 39.4427 3.71874 29.1074 10.7988 20.0742C17.7975 11.041 28.2142 4.40854 42.0488 0.176763Z" fill="#414248"/>
</svg>
