<svg width="23" height="23" viewBox="0 0 23 23" fill="none" xmlns="http://www.w3.org/2000/svg">
<path d="M11.5 0C5.1588 0 0 5.1588 0 11.5C0 17.8412 5.1588 23 11.5 23C17.8412 23 23 17.8412 23 11.5C23 5.1588 17.8412 0 11.5 0ZM11.5 20.4863C6.5448 20.4863 2.51366 16.4552 2.51366 11.5C2.51366 6.54505 6.5448 2.51366 11.5 2.51366C16.4552 2.51366 20.4863 6.54505 20.4863 11.5C20.4863 16.4552 16.4552 20.4863 11.5 20.4863Z" fill="#E90000"/>
<path d="M12.4954 11.5162V6.69627C12.4954 6.1581 12.0593 5.72198 11.5213 5.72198C10.9832 5.72198 10.5471 6.1581 10.5471 6.69627V11.8274C10.5471 11.8427 10.5508 11.8571 10.5516 11.8724C10.5388 12.1374 10.63 12.4063 10.8323 12.6087L14.4609 16.2369C14.8414 16.6175 15.4583 16.6175 15.8386 16.2369C16.2189 15.8563 16.2191 15.2395 15.8386 14.8592L12.4954 11.5162Z" fill="#E90000"/>
</svg>
