<svg width="15" height="10" fill="none" xmlns="http://www.w3.org/2000/svg"><path d="M13.75 0H1.25C.56 0 0 .498 0 1.111V8.89C0 9.502.56 10 1.25 10h12.5c.69 0 1.25-.498 1.25-1.111V1.11C15 .498 14.44 0 13.75 0zM1.25.556h12.5c.046 0 .087.014.13.023-1.082.88-4.67 3.798-5.926 4.804a.736.736 0 01-.454.173.737.737 0 01-.454-.173A1635.748 1635.748 0 011.12.579c.043-.008.084-.023.13-.023zM.625 8.889V1.11c0-.054.018-.104.035-.153.828.673 3.332 2.71 4.956 4.022C3.997 6.215 1.493 8.326.658 9.034.643 8.986.625 8.94.625 8.889zm13.125.555H1.25c-.05 0-.094-.015-.14-.025.862-.731 3.382-2.854 4.972-4.063l.546.44c.257.206.559.315.872.315.313 0 .615-.109.872-.315l.546-.44c1.59 1.21 4.11 3.332 4.973 4.063-.047.01-.091.025-.141.025zm.625-.555c0 .051-.018.097-.033.145-.835-.708-3.34-2.819-4.958-4.054 1.624-1.313 4.127-3.348 4.956-4.022.017.05.035.099.035.153V8.89z" fill="#BEBEBE"/></svg>