<svg width="30" height="31" fill="none" xmlns="http://www.w3.org/2000/svg"><g clip-path="url(#clip0)" opacity=".8"><path d="M30 .664H0v30h30v-30z" fill="#44678D"/><path d="M7.771 9.793c.72 1.776 1.63 3.45 2.83 4.953.16.2.36.377.572.522.309.212.6.138.726-.216.132-.37.254-1.121.261-1.51a32.662 32.662 0 00-.057-2.7c-.036-.65-.267-1.221-1.224-1.394-.295-.053-.323-.296-.133-.539.395-.505.946-.586 1.543-.617.968-.053 1.939-.01 2.908 0 .394.003.792.035 1.18.12.507.11.779.466.862.96.043.256.066.519.06.777-.026 1.11-.08 2.22-.092 3.329a5.8 5.8 0 00.12 1.306c.13.59.532.739.944.312.523-.543.983-1.153 1.416-1.773.785-1.127 1.372-2.364 1.877-3.64.262-.658.462-.801 1.17-.803 1.33-.003 2.662-.004 3.993 0 .236.001.483.023.706.094.361.115.505.41.42.785-.198.877-.671 1.622-1.179 2.339-.814 1.15-1.668 2.271-2.502 3.408-.106.144-.2.299-.287.455-.312.564-.29.88.165 1.349.724.747 1.498 1.445 2.2 2.212.509.558.98 1.164 1.384 1.8.51.807.195 1.566-.759 1.701-.6.085-3.53 0-3.682 0a2.87 2.87 0 01-2.035-.812c-.619-.596-1.181-1.25-1.775-1.87a4.967 4.967 0 00-.576-.525c-.486-.37-.963-.288-1.19.283-.194.49-.362 1.777-.37 1.887-.04.575-.406.941-1.05.976-1.86.101-3.66-.106-5.339-1.005-1.422-.762-2.558-1.838-3.542-3.095-1.563-1.994-2.797-4.187-3.924-6.444-.058-.116-1.2-2.545-1.23-2.66-.102-.384-.007-.75.318-.877.202-.079 3.966 0 4.028.003.601.033 1.01.286 1.263.91z" fill="#fff"/></g><defs><clipPath id="clip0"><path fill="#fff" d="M0 .664h30v30H0z"/></clipPath></defs></svg>