<svg xmlns="http://www.w3.org/2000/svg" width="135" height="34"><path fill="#393536" d="M52.643 32.601V.637h8.859v24.201h15.479v7.763z"/><path fill="#642281" d="M96.199 4.813c-3.27-3.21-7.36-4.82-12.26-4.82-4.9 0-9.01 1.62-12.31 4.84-3.3 3.23-4.95 7.16-4.95 11.79 0 .96.07 1.88.22 2.78h9.27c-.28-.87-.41-1.79-.41-2.78 0-2.41.76-4.45 2.26-6.12 1.51-1.68 3.45-2.51 5.83-2.51 2.37 0 4.33.84 5.89 2.53 1.55 1.69 2.33 3.72 2.33 6.1 0 2.4-.76 4.44-2.26 6.11-1.51 1.68-3.47 2.52-5.87 2.52-.38 0-.75-.02-1.11-.07v8.03c.34.02.68.03 1.02.03 4.9 0 9-1.62 12.3-4.84 3.31-3.23 4.96-7.16 4.96-11.78 0-4.66-1.64-8.6-4.91-11.81z"/><path fill="#393536" d="M13.418 32.83L.45.637h9.91l7.26 20.229L24.88.636h9.726L21.638 32.83zM37.893.637h8.904v31.964h-8.904zm67.824 31.964V.637h15.114c4.658 0 8.13 1.141 10.411 3.425 1.888 1.887 2.832 4.414 2.832 7.58 0 4.688-2.192 7.961-6.576 9.817l7.626 11.142h-10.229l-6.438-9.681h-3.882v9.681zm8.858-16.621h5.846c1.491 0 2.655-.343 3.493-1.027.837-.686 1.256-1.637 1.256-2.855 0-1.248-.419-2.191-1.256-2.831-.838-.64-2.018-.959-3.539-.959h-5.8z"/></svg>