<svg width="30" height="31" fill="none" xmlns="http://www.w3.org/2000/svg"><g clip-path="url(#clip0)" opacity=".8"><path d="M15 12.68a2.987 2.987 0 00-2.984 2.983A2.988 2.988 0 0015 18.647a2.987 2.987 0 002.983-2.984A2.987 2.987 0 0015 12.681zm0 0a2.987 2.987 0 00-2.984 2.983A2.988 2.988 0 0015 18.647a2.987 2.987 0 002.983-2.984A2.987 2.987 0 0015 12.681zm4.97-4.864h-9.94a2.88 2.88 0 00-2.877 2.878v9.94a2.88 2.88 0 002.877 2.877h9.94a2.88 2.88 0 002.877-2.878v-9.94a2.88 2.88 0 00-2.877-2.877zM15 20.83a5.173 5.173 0 01-5.167-5.167A5.172 5.172 0 0115 10.497a5.173 5.173 0 015.166 5.166A5.173 5.173 0 0115 20.83zm5.332-9.265a1.224 1.224 0 01-1.222-1.222 1.223 1.223 0 012.445 0c0 .674-.549 1.222-1.223 1.222zM15 12.681a2.987 2.987 0 00-2.984 2.982A2.988 2.988 0 0015 18.647a2.987 2.987 0 002.983-2.984A2.987 2.987 0 0015 12.681zm4.97-4.865h-9.94a2.88 2.88 0 00-2.877 2.878v9.94a2.88 2.88 0 002.877 2.877h9.94a2.88 2.88 0 002.877-2.878v-9.94a2.88 2.88 0 00-2.877-2.877zM15 20.83a5.173 5.173 0 01-5.167-5.167A5.172 5.172 0 0115 10.497a5.173 5.173 0 015.166 5.166A5.173 5.173 0 0115 20.83zm5.332-9.265a1.224 1.224 0 01-1.222-1.222 1.223 1.223 0 012.445 0c0 .674-.549 1.222-1.223 1.222zM15 12.681a2.987 2.987 0 00-2.984 2.982A2.988 2.988 0 0015 18.647a2.987 2.987 0 002.983-2.984A2.987 2.987 0 0015 12.681zM0 .664v30h30v-30H0zm25.03 19.97c0 2.79-2.27 5.06-5.06 5.06h-9.94c-2.79 0-5.06-2.27-5.06-5.06v-9.94c0-2.79 2.27-5.06 5.06-5.06h9.94c2.79 0 5.06 2.27 5.06 5.06v9.94zM19.97 7.815h-9.94a2.88 2.88 0 00-2.877 2.878v9.94a2.88 2.88 0 002.877 2.877h9.94a2.88 2.88 0 002.877-2.878v-9.94a2.88 2.88 0 00-2.877-2.877zM15 20.83a5.173 5.173 0 01-5.167-5.167A5.172 5.172 0 0115 10.497a5.173 5.173 0 015.166 5.166A5.173 5.173 0 0115 20.83zm5.332-9.265a1.224 1.224 0 01-1.222-1.222 1.223 1.223 0 012.445 0c0 .674-.549 1.222-1.223 1.222zM15 12.681a2.987 2.987 0 00-2.984 2.982A2.988 2.988 0 0015 18.647a2.987 2.987 0 002.983-2.984A2.987 2.987 0 0015 12.681zm0 0a2.987 2.987 0 00-2.984 2.982A2.988 2.988 0 0015 18.647a2.987 2.987 0 002.983-2.984A2.987 2.987 0 0015 12.681zm0 0a2.987 2.987 0 00-2.984 2.982A2.988 2.988 0 0015 18.647a2.987 2.987 0 002.983-2.984A2.987 2.987 0 0015 12.681zm4.97-4.865h-9.94a2.88 2.88 0 00-2.877 2.878v9.94a2.88 2.88 0 002.877 2.877h9.94a2.88 2.88 0 002.877-2.878v-9.94a2.88 2.88 0 00-2.877-2.877zM15 20.83a5.173 5.173 0 01-5.167-5.167A5.172 5.172 0 0115 10.497a5.173 5.173 0 015.166 5.166A5.173 5.173 0 0115 20.83zm5.332-9.265a1.224 1.224 0 01-1.222-1.222 1.223 1.223 0 012.445 0c0 .674-.549 1.222-1.223 1.222zM15 12.681a2.987 2.987 0 00-2.984 2.982A2.988 2.988 0 0015 18.647a2.987 2.987 0 002.983-2.984A2.987 2.987 0 0015 12.681zm0 0a2.987 2.987 0 00-2.984 2.982A2.988 2.988 0 0015 18.647a2.987 2.987 0 002.983-2.984A2.987 2.987 0 0015 12.681zm0 0a2.987 2.987 0 00-2.984 2.982A2.988 2.988 0 0015 18.647a2.987 2.987 0 002.983-2.984A2.987 2.987 0 0015 12.681zm4.97-4.865h-9.94a2.88 2.88 0 00-2.877 2.878v9.94a2.88 2.88 0 002.877 2.877h9.94a2.88 2.88 0 002.877-2.878v-9.94a2.88 2.88 0 00-2.877-2.877zM15 20.83a5.173 5.173 0 01-5.167-5.167A5.172 5.172 0 0115 10.497a5.173 5.173 0 015.166 5.166A5.173 5.173 0 0115 20.83zm5.332-9.265a1.224 1.224 0 01-1.222-1.222 1.223 1.223 0 012.445 0c0 .674-.549 1.222-1.223 1.222zM15 12.681a2.987 2.987 0 00-2.984 2.982A2.988 2.988 0 0015 18.647a2.987 2.987 0 002.983-2.984A2.987 2.987 0 0015 12.681z" fill="#C536A4"/></g><defs><clipPath id="clip0"><path fill="#fff" d="M0 .664h30v30H0z"/></clipPath></defs></svg>