<svg width="20" height="21" fill="none" xmlns="http://www.w3.org/2000/svg"><g clip-path="url(#clip0)" fill="#BEBEBE"><path d="M12.262 15.378c1.613-2.675 3.652-6.437 3.652-8.37A5.92 5.92 0 0010 1.092a5.92 5.92 0 00-5.914 5.914c0 1.934 2.039 5.696 3.652 8.371-1.914.145-6.27.665-6.27 2.387 0 1.695 4.423 2.469 8.536 2.469 4.11 0 8.535-.774 8.535-2.469-.004-1.723-4.363-2.242-6.277-2.387zm-7.36-8.37A5.107 5.107 0 0110 1.905a5.108 5.108 0 015.102 5.101c0 2.457-3.915 8.621-5.102 10.434-1.188-1.813-5.098-7.977-5.098-10.434zM10 19.417c-4.996 0-7.719-1.094-7.719-1.657 0-.433 1.797-1.367 5.938-1.605a61.017 61.017 0 001.445 2.246c.106.14.414.308.676 0 .082-.098.668-.992 1.445-2.246 4.14.238 5.938 1.168 5.938 1.605-.004.567-2.727 1.657-7.723 1.657z"/><path d="M12.574 7.007a2.574 2.574 0 10-5.148 0 2.574 2.574 0 005.148 0zm-4.336 0a1.762 1.762 0 113.525.001 1.762 1.762 0 01-3.525 0z"/></g><defs><clipPath id="clip0"><path fill="#fff" d="M0 .664h20v20H0z"/></clipPath></defs></svg>