<svg width="15" height="16" fill="none" xmlns="http://www.w3.org/2000/svg"><g clip-path="url(#clip0)" fill="#BEBEBE"><path d="M14.606 12.295l-3.036-2.024a.886.886 0 00-1.186.192L9.499 11.6a.378.378 0 01-.484.102l-.169-.092c-.557-.304-1.251-.683-2.65-2.081C4.8 8.13 4.42 7.436 4.117 6.879l-.093-.168a.378.378 0 01.1-.487L5.26 5.34a.887.887 0 00.193-1.186L3.428 1.118A.882.882 0 002.24.85l-1.27.763a1.79 1.79 0 00-.816 1.06c-.458 1.665-.114 4.54 4.121 8.776 3.369 3.368 5.877 4.274 7.6 4.274.397.002.792-.05 1.175-.154a1.789 1.789 0 001.06-.816l.764-1.269a.882.882 0 00-.268-1.189zm-.163.933l-.762 1.27a1.292 1.292 0 01-.762.59c-1.538.422-4.224.073-8.29-3.993C.563 7.029.214 4.343.636 2.805c.091-.321.303-.595.591-.763l1.27-.762a.382.382 0 01.516.116l1.1 1.651.923 1.385a.385.385 0 01-.084.515l-1.136.884a.875.875 0 00-.232 1.123l.09.164c.32.585.717 1.314 2.167 2.764 1.45 1.45 2.178 1.847 2.764 2.167l.164.09a.875.875 0 001.123-.232l.884-1.136a.385.385 0 01.515-.084l3.036 2.025c.17.113.222.34.116.516zM8.5 3.225a4.254 4.254 0 014.25 4.25.25.25 0 10.499 0 4.754 4.754 0 00-4.75-4.75.25.25 0 100 .5z"/><path d="M8.5 4.725a2.753 2.753 0 012.75 2.75.25.25 0 10.5 0 3.253 3.253 0 00-3.25-3.25.25.25 0 100 .5z"/><path d="M8.5 6.225c.69 0 1.249.56 1.25 1.25a.25.25 0 00.5 0 1.752 1.752 0 00-1.75-1.75.25.25 0 100 .5z"/></g><defs><clipPath id="clip0"><path fill="#fff" d="M0 .724h15v15H0z"/></clipPath></defs></svg>