<svg width="30" height="31" fill="none" xmlns="http://www.w3.org/2000/svg"><g clip-path="url(#clip0)" opacity=".8"><path d="M30 .664H0v30h30v-30z" fill="#1BD741"/><path d="M4.509 26.166l1.47-5.219a10.445 10.445 0 01-1.443-5.308c0-5.778 4.7-10.478 10.478-10.478 5.777 0 10.477 4.7 10.477 10.478 0 5.777-4.7 10.477-10.477 10.477-1.8 0-3.563-.46-5.123-1.335L4.51 26.166zm5.657-3.291l.321.195a8.683 8.683 0 004.527 1.27c4.797 0 8.7-3.904 8.7-8.701 0-4.797-3.903-8.7-8.7-8.7-4.798 0-8.7 3.902-8.7 8.7 0 1.671.474 3.295 1.373 4.694l.216.336-.846 3.006 3.11-.8z" fill="#fff"/><path d="M12.07 10.762l-.68-.037a.822.822 0 00-.584.2c-.33.286-.857.84-1.019 1.56-.241 1.076.132 2.393 1.097 3.71.966 1.316 2.765 3.422 5.947 4.322 1.025.29 1.832.094 2.454-.304.493-.315.833-.82.955-1.393l.109-.507a.352.352 0 00-.197-.394l-2.298-1.059a.352.352 0 00-.427.105l-.901 1.17a.258.258 0 01-.29.086c-.618-.217-2.688-1.084-3.823-3.271a.26.26 0 01.033-.29l.862-.998a.352.352 0 00.057-.369l-.99-2.317a.352.352 0 00-.305-.214z" fill="#fff"/></g><defs><clipPath id="clip0"><path fill="#fff" d="M0 .664h30v30H0z"/></clipPath></defs></svg>