<svg width="28" height="28" fill="none" xmlns="http://www.w3.org/2000/svg"><path fill="#E62117" d="M0 0h28v28H0z"/><path d="M17.714 14.5a.482.482 0 00-.25-.452l-4.286-2.679a.505.505 0 00-.545-.016.499.499 0 00-.276.468v5.357a.5.5 0 00.276.47.58.58 0 00.26.066.477.477 0 00.284-.083l4.286-2.679a.482.482 0 00.251-.452zm4.286 0c0 .536-.003.954-.008 1.255-.006.302-.03.683-.072 1.143a9.26 9.26 0 01-.188 1.235c-.09.407-.282.75-.577 1.03-.296.278-.642.44-1.038.485-1.24.14-3.111.21-5.617.21s-4.378-.07-5.617-.21a1.784 1.784 0 01-1.042-.486 1.947 1.947 0 01-.582-1.03 10.359 10.359 0 01-.18-1.234 16.42 16.42 0 01-.07-1.143c-.006-.3-.009-.72-.009-1.255 0-.536.003-.954.008-1.256.006-.301.03-.682.072-1.142.041-.46.104-.872.188-1.235.09-.407.282-.75.577-1.03.296-.278.642-.44 1.038-.485 1.24-.14 3.111-.21 5.617-.21s4.378.07 5.617.21c.396.045.743.207 1.042.486.298.279.492.622.582 1.03.078.362.138.773.18 1.234.041.46.065.841.07 1.142.006.302.009.72.009 1.256z" fill="#fff"/></svg>