<svg width="70" height="70" viewBox="0 0 70 70" fill="none" xmlns="http://www.w3.org/2000/svg">
<path d="M67.9489 0.00439453C66.8164 0.00439453 65.8982 0.925469 65.8982 2.0616V19.8313L55.87 26.6446V5.00242C55.87 3.86629 54.9518 2.94535 53.8192 2.94535C52.6866 2.94535 51.7684 3.86643 51.7684 5.00242V26.6446L41.7402 19.8312V2.0616C41.7402 0.925469 40.822 0.00439453 39.6895 0.00439453C38.5569 0.00439453 37.6387 0.925469 37.6387 2.0616V43.2078C37.6387 51.4607 43.8111 58.2946 51.7684 59.3086V67.9382C51.7684 69.0743 52.6866 69.9954 53.8192 69.9954C54.9518 69.9954 55.87 69.0743 55.87 67.9382V59.3086C63.8273 58.2946 69.9997 51.4607 69.9997 43.2078V2.0616C69.9997 0.925469 69.0815 0.00439453 67.9489 0.00439453ZM57.836 30.2782L65.8982 24.8004V32.174L55.87 38.9873V31.2174C56.5555 31.0104 57.2186 30.6975 57.836 30.2782ZM49.8025 30.2783C50.4198 30.6976 51.0829 31.0104 51.7684 31.2177V38.9876L41.7402 32.1742V24.8005L49.8025 30.2783ZM41.7404 43.2078V37.1434L49.8027 42.6211C50.42 43.0405 51.083 43.3533 51.7686 43.5605V55.1488C46.0816 54.169 41.7404 49.1877 41.7404 43.2078ZM55.87 55.1487V43.5604C56.5555 43.3533 57.2186 43.0403 57.8359 42.6209L65.8982 37.1432V43.2078C65.8982 49.1877 61.5569 54.169 55.87 55.1487Z" fill="white"/>
<path d="M30.3101 0.00439453C29.1776 0.00439453 28.2594 0.925469 28.2594 2.0616V19.8313L18.2312 26.6447V5.00242C18.2312 3.86629 17.313 2.94535 16.1804 2.94535C15.0478 2.94535 14.1296 3.86643 14.1296 5.00242V26.6446L4.10156 19.8313V2.0616C4.10156 0.925469 3.18336 0.00439453 2.05078 0.00439453C0.918203 0.00439453 0 0.925469 0 2.0616V43.2078C0 51.4607 6.17244 58.2946 14.1297 59.3086V67.9382C14.1297 69.0743 15.048 69.9954 16.1805 69.9954C17.3131 69.9954 18.2313 69.0743 18.2313 67.9382V59.3086C26.1886 58.2946 32.3611 51.4607 32.3611 43.2078V2.0616C32.3609 0.925469 31.4427 0.00439453 30.3101 0.00439453ZM20.1973 30.2782L28.2595 24.8005V32.1742L18.2313 38.9876V31.2177C18.9168 31.0104 19.5799 30.6975 20.1973 30.2782ZM12.1639 30.2783C12.7812 30.6976 13.4442 31.0104 14.1297 31.2177V38.9876L4.10156 32.1742V24.8005L12.1639 30.2783ZM4.10156 43.2078V37.1434L12.1639 42.6211C12.7812 43.0405 13.4442 43.3533 14.1297 43.5605V55.1488C8.44279 54.169 4.10156 49.1877 4.10156 43.2078ZM18.2313 55.1487V43.5604C18.9168 43.3531 19.5799 43.0403 20.1973 42.6209L28.2595 37.1432V43.2077C28.2594 49.1877 23.9183 54.169 18.2313 55.1487Z" fill="white"/>
</svg>
