<svg width="70" height="70" viewBox="0 0 70 70" fill="none" xmlns="http://www.w3.org/2000/svg">
<path d="M68.865 37.8117L66.7319 36.6191H67.421C68.6287 36.6191 69.6076 35.64 69.6076 34.4325C69.6076 34.4183 69.6072 20.3741 69.6072 20.3899C69.6055 19.6153 69.1912 18.8808 68.4911 18.4879L36.0691 0.29448C35.3716 -0.0969179 36.1575 0.0147344 20.9613 0.0147344C19.7572 0.0147344 18.776 0.990223 18.7749 2.1994C18.7747 2.41792 18.7747 13.8451 18.7747 14.0555H11.7692C10.5622 14.0555 9.58263 15.0346 9.58263 16.242V28.0963H2.20031C0.989495 28.0963 0.0148259 29.0788 0.0137326 30.2814C0.013596 30.4025 0.0137326 44.2379 0.0137326 44.3205C0.0137326 45.1124 0.441893 45.8425 1.13326 46.229L43.1241 69.7071C43.8194 70.0959 43.013 69.9852 58.2289 69.9852C59.4366 69.9852 60.4155 69.0062 60.4155 67.7986V55.9445H67.7978C69.0054 55.9445 69.9844 54.9655 69.9844 53.7579C69.9844 50.9711 69.9844 43.8463 69.9844 39.7202C69.9844 38.934 69.5606 38.2007 68.865 37.8117ZM34.4275 4.3879L59.0564 18.2082H53.9551L29.3262 4.3879H34.4275ZM65.2344 22.5814V32.2459H58.9105L55.57 30.3782V22.5814H65.2344ZM23.1479 5.93559L51.1968 21.6751V27.933C24.5734 13.0473 26.6209 14.0555 25.8069 14.0555H23.1479V5.93559ZM25.2372 18.4286L59.4066 37.5336H54.3299L20.1604 18.4286H25.2372ZM44.7612 51.5745C43.3633 50.7929 11.8056 33.1483 10.5917 32.4695H15.6684L49.8379 51.5745H44.7612ZM13.9558 19.9699C15.9812 21.1024 49.9275 40.0825 51.5736 41.0029V47.5346L17.3052 28.3744C16.6752 28.0221 16.3733 28.0963 13.9558 28.0963V19.9699ZM4.3869 43.0379V34.0106L42.0047 55.0436V64.0711L4.3869 43.0379ZM56.0424 65.6122H46.3779V55.9476H56.0424V65.6122ZM65.6112 51.5715H58.7934L55.9468 49.9798V41.9068H65.6113V51.5715H65.6112Z" fill="white"/>
</svg>
