<svg width="70" height="70" viewBox="0 0 70 70" fill="none" xmlns="http://www.w3.org/2000/svg">
<g clip-path="url(#clip0)">
<path fill-rule="evenodd" clip-rule="evenodd" d="M62.709 35C62.709 17.5 59.7909 7.29195 59.7909 7.29195H59.7438L62.709 0H35H7.29102L10.2562 7.29195H10.2092C10.2092 7.29195 7.29102 17.5 7.29102 35C7.29102 52.4999 10.2092 62.7068 10.2092 62.7068H10.2562L7.29102 70H35H62.709L59.7438 62.7068H59.7909C59.7909 62.7068 62.709 52.4999 62.709 35ZM18.9591 2.91705C18.9591 3.72247 19.6107 4.37503 20.416 4.37503C21.2213 4.37503 21.8751 3.72247 21.8751 2.91705H24.791C24.791 3.72247 25.4447 4.37503 26.2501 4.37503C27.0555 4.37503 27.7092 3.72247 27.7092 2.91705H30.625C30.625 3.72247 31.2786 4.37503 32.0841 4.37503C32.8895 4.37503 33.5409 3.72247 33.5409 2.91705H35H36.4591C36.4591 3.72247 37.1107 4.37503 37.916 4.37503C38.7213 4.37503 39.375 3.72247 39.375 2.91705H42.291C42.291 3.72247 42.9447 4.37503 43.7501 4.37503C44.5555 4.37503 45.2092 3.72247 45.2092 2.91705H48.125C48.125 3.72247 48.7786 4.37503 49.5841 4.37503C50.3895 4.37503 51.0409 3.72247 51.0409 2.91705H58.3746L56.5952 7.29195H35H13.4049L11.6254 2.91705H18.9591ZM11.6105 15.1715C11.931 13.0641 12.2557 11.3946 12.5099 10.2079H35H57.4902C57.7443 11.3957 58.069 13.0641 58.3895 15.1715C58.7078 17.264 59.0582 20.0144 59.3273 23.3329H48.1527C44.9293 19.7013 40.2274 17.4092 35 17.4092C29.7728 17.4092 25.0709 19.7015 21.8473 23.3329H10.6726C10.9418 20.0144 11.2923 17.2639 11.6105 15.1715ZM49.6737 35C49.6737 43.0919 43.0921 49.6758 35 49.6758C26.908 49.6758 20.3263 43.0919 20.3263 35C20.3263 26.9078 26.9081 20.3252 35 20.3252C43.0922 20.3252 49.6737 26.9078 49.6737 35ZM10.2092 35C10.2092 31.817 10.3095 28.8903 10.4677 26.2499H19.7432C18.2585 28.8283 17.4083 31.817 17.4083 35C17.4083 38.183 18.2585 41.1714 19.7432 43.7498H10.4676C10.3095 41.1095 10.2092 38.183 10.2092 35ZM51.0409 67.0819C51.0409 66.2786 50.3893 65.625 49.5841 65.625C48.7788 65.625 48.125 66.2786 48.125 67.0819H45.2092C45.2092 66.2786 44.5555 65.625 43.7501 65.625C42.9447 65.625 42.291 66.2786 42.291 67.0819H39.375C39.375 66.2786 38.7214 65.625 37.916 65.625C37.1106 65.625 36.4591 66.2786 36.4591 67.0819H35H33.5409C33.5409 66.2786 32.8893 65.625 32.0841 65.625C31.2788 65.625 30.625 66.2786 30.625 67.0819H27.7092C27.7092 66.2786 27.0555 65.625 26.2501 65.625C25.4447 65.625 24.791 66.2786 24.791 67.0819H21.8751C21.8751 66.2786 21.2214 65.625 20.416 65.625C19.6106 65.625 18.9591 66.2786 18.9591 67.0819H11.6254L13.4049 62.7068H35H56.5952L58.3746 67.0819H51.0409ZM58.3895 54.8283C58.069 56.9346 57.7443 58.6052 57.4902 59.7929H35H12.5099C12.2557 58.6051 11.931 56.9346 11.6105 54.8283C11.2923 52.7349 10.9418 49.9855 10.6728 46.6678H21.8473C25.0709 50.2994 29.7728 52.5894 35 52.5894C40.2274 52.5894 44.9293 50.2994 48.1527 46.6678H59.3273C59.0582 49.9855 58.7078 52.7349 58.3895 54.8283ZM59.5323 43.7498H50.2569C51.7415 41.1714 52.5918 38.183 52.5918 35C52.5918 31.817 51.7415 28.8283 50.2569 26.2499H59.5323C59.6905 28.8903 59.7909 31.817 59.7909 35C59.7909 38.183 59.6905 41.1095 59.5323 43.7498ZM43.7051 30.625H26.2948C25.4894 30.625 24.8379 31.2775 24.8379 32.083C24.8379 32.8884 25.4894 33.542 26.2948 33.542H43.7051C44.5105 33.542 45.162 32.8884 45.162 32.083C45.162 31.2775 44.5104 30.625 43.7051 30.625ZM30.6484 36.458H39.3514C40.1568 36.458 40.8105 37.1116 40.8105 37.9181C40.8105 38.7214 40.1568 39.375 39.3514 39.375H30.6484C29.8431 39.375 29.1895 38.7214 29.1895 37.9181C29.1895 37.1116 29.8431 36.458 30.6484 36.458Z" fill="white"/>
<path d="M59.7909 7.29195L60.2716 7.15452L60.168 6.79195H59.7909V7.29195ZM59.7438 7.29195L59.2807 7.10361L59.0008 7.79195H59.7438V7.29195ZM62.709 0L63.1722 0.188342L63.4521 -0.5H62.709V0ZM7.29102 0V-0.5H6.54794L6.82784 0.188342L7.29102 0ZM10.2562 7.29195V7.79195H10.9993L10.7194 7.10361L10.2562 7.29195ZM10.2092 7.29195V6.79195H9.83207L9.72842 7.15452L10.2092 7.29195ZM10.2092 62.7068L9.72842 62.8443L9.83208 63.2068H10.2092V62.7068ZM10.2562 62.7068L10.7194 62.8951L10.9992 62.2068H10.2562V62.7068ZM7.29102 70L6.82783 69.8117L6.54799 70.5H7.29102V70ZM62.709 70V70.5H63.4521L63.1722 69.8117L62.709 70ZM59.7438 62.7068V62.2068H59.0008L59.2807 62.8951L59.7438 62.7068ZM59.7909 62.7068V63.2068H60.168L60.2716 62.8443L59.7909 62.7068ZM18.9591 2.91705H19.4591V2.41705H18.9591V2.91705ZM21.8751 2.91705V2.41705H21.3751V2.91705H21.8751ZM24.791 2.91705H25.291V2.41705H24.791V2.91705ZM27.7092 2.91705V2.41705H27.2092V2.91705H27.7092ZM30.625 2.91705H31.125V2.41705H30.625V2.91705ZM33.5409 2.91705V2.41705H33.0409V2.91705H33.5409ZM36.4591 2.91705H36.9591V2.41705H36.4591V2.91705ZM39.375 2.91705V2.41705H38.875V2.91705H39.375ZM42.291 2.91705H42.791V2.41705H42.291V2.91705ZM45.2092 2.91705V2.41705H44.7092V2.91705H45.2092ZM48.125 2.91705H48.625V2.41705H48.125V2.91705ZM51.0409 2.91705V2.41705H50.5409V2.91705H51.0409ZM58.3746 2.91705L58.8377 3.10543L59.1177 2.41705H58.3746V2.91705ZM56.5952 7.29195V7.79195H56.9316L57.0583 7.48033L56.5952 7.29195ZM13.4049 7.29195L12.9417 7.48033L13.0684 7.79195H13.4049V7.29195ZM11.6254 2.91705V2.41705H10.8823L11.1623 3.10543L11.6254 2.91705ZM12.5099 10.2079V9.70791H12.1056L12.021 10.1032L12.5099 10.2079ZM11.6105 15.1715L12.1049 15.2467L12.1049 15.2467L11.6105 15.1715ZM57.4902 10.2079L57.9791 10.1033L57.8945 9.70791H57.4902V10.2079ZM58.3895 15.1715L57.8952 15.2467V15.2467L58.3895 15.1715ZM59.3273 23.3329V23.8329H59.8694L59.8256 23.2925L59.3273 23.3329ZM48.1527 23.3329L47.7788 23.6648L47.928 23.8329H48.1527V23.3329ZM21.8473 23.3329V23.8329H22.072L22.2212 23.6648L21.8473 23.3329ZM10.6726 23.3329L10.1743 23.2924L10.1304 23.8329H10.6726V23.3329ZM10.4677 26.2499V25.7499H9.99676L9.9686 26.22L10.4677 26.2499ZM19.7432 26.2499L20.1765 26.4994L20.608 25.7499H19.7432V26.2499ZM19.7432 43.7498V44.2498H20.608L20.1765 43.5003L19.7432 43.7498ZM10.4676 43.7498L9.96846 43.7797L9.9966 44.2498H10.4676V43.7498ZM51.0409 67.0819H50.5409V67.5819H51.0409V67.0819ZM48.125 67.0819V67.5819H48.625V67.0819H48.125ZM45.2092 67.0819H44.7092V67.5819H45.2092V67.0819ZM42.291 67.0819V67.5819H42.791V67.0819H42.291ZM39.375 67.0819H38.875V67.5819H39.375V67.0819ZM36.4591 67.0819V67.5819H36.9591V67.0819H36.4591ZM33.5409 67.0819H33.0409V67.5819H33.5409V67.0819ZM30.625 67.0819V67.5819H31.125V67.0819H30.625ZM27.7092 67.0819H27.2092V67.5819H27.7092V67.0819ZM24.791 67.0819V67.5819H25.291V67.0819H24.791ZM21.8751 67.0819H21.3751V67.5819H21.8751V67.0819ZM18.9591 67.0819V67.5819H19.4591V67.0819H18.9591ZM11.6254 67.0819L11.1623 66.8935L10.8823 67.5819H11.6254V67.0819ZM13.4049 62.7068V62.2068H13.0684L12.9417 62.5184L13.4049 62.7068ZM56.5952 62.7068L57.0583 62.5184L56.9316 62.2068H56.5952V62.7068ZM58.3746 67.0819V67.5819H59.1177L58.8377 66.8935L58.3746 67.0819ZM57.4902 59.7929V60.2929H57.8945L57.9791 59.8975L57.4902 59.7929ZM58.3895 54.8283L58.8838 54.9035L58.8838 54.9035L58.3895 54.8283ZM12.5099 59.7929L12.021 59.8975L12.1056 60.2929H12.5099V59.7929ZM11.6105 54.8283L11.1162 54.9035L11.1162 54.9036L11.6105 54.8283ZM10.6728 46.6678V46.1678H10.1306L10.1744 46.7082L10.6728 46.6678ZM21.8473 46.6678L22.2212 46.3359L22.072 46.1678H21.8473V46.6678ZM48.1527 46.6678V46.1678H47.928L47.7788 46.3359L48.1527 46.6678ZM59.3273 46.6678L59.8256 46.7082L59.8694 46.1678H59.3273V46.6678ZM50.2569 43.7498L49.8236 43.5003L49.392 44.2498H50.2569V43.7498ZM59.5323 43.7498V44.2498H60.0033L60.0314 43.7797L59.5323 43.7498ZM50.2569 26.2499V25.7499H49.392L49.8236 26.4994L50.2569 26.2499ZM59.5323 26.2499L60.0314 26.22L60.0033 25.7499H59.5323V26.2499ZM59.7909 7.29195C59.3101 7.42938 59.3101 7.42931 59.3101 7.42928C59.3101 7.42933 59.3101 7.42934 59.3101 7.42942C59.3102 7.42959 59.3103 7.42992 59.3104 7.4304C59.3107 7.43136 59.3111 7.43294 59.3118 7.43514C59.313 7.43954 59.3149 7.44642 59.3175 7.45577C59.3227 7.47447 59.3306 7.50303 59.341 7.54138C59.3617 7.61809 59.3924 7.73391 59.4317 7.88816C59.5103 8.19665 59.6231 8.6588 59.7588 9.26892C60.0301 10.4892 60.3928 12.3012 60.7558 14.6595C61.4818 19.3763 62.209 26.2778 62.209 35H63.209C63.209 26.2222 62.4772 19.2697 61.7441 14.5074C61.3776 12.1262 61.0108 10.2925 60.7349 9.05188C60.597 8.43155 60.4818 7.95948 60.4008 7.64136C60.3603 7.4823 60.3283 7.36172 60.3063 7.28035C60.2953 7.23966 60.2868 7.20877 60.281 7.18777C60.278 7.17727 60.2758 7.16924 60.2742 7.1637C60.2734 7.16092 60.2728 7.15877 60.2724 7.15724C60.2722 7.15648 60.272 7.15587 60.2719 7.15542C60.2718 7.15519 60.2717 7.15497 60.2717 7.15485C60.2717 7.15467 60.2716 7.15452 59.7909 7.29195ZM59.7438 7.79195H59.7909V6.79195H59.7438V7.79195ZM62.2459 -0.188342L59.2807 7.10361L60.207 7.48029L63.1722 0.188342L62.2459 -0.188342ZM35 0.5H62.709V-0.5H35V0.5ZM7.29102 0.5H35V-0.5H7.29102V0.5ZM10.7194 7.10361L7.75419 -0.188342L6.82784 0.188342L9.79302 7.48029L10.7194 7.10361ZM10.2092 7.79195H10.2562V6.79195H10.2092V7.79195ZM7.79102 35C7.79102 26.2778 8.51824 19.3763 9.24427 14.6595C9.60728 12.3012 9.96998 10.4892 10.2413 9.26892C10.3769 8.6588 10.4897 8.19665 10.5683 7.88816C10.6076 7.73391 10.6383 7.61809 10.6591 7.54138C10.6694 7.50303 10.6773 7.47447 10.6825 7.45577C10.6851 7.44642 10.687 7.43954 10.6883 7.43514C10.6889 7.43294 10.6893 7.43136 10.6896 7.4304C10.6898 7.42992 10.6898 7.42959 10.6899 7.42942C10.6899 7.42934 10.6899 7.42933 10.6899 7.42928C10.6899 7.42931 10.6899 7.42938 10.2092 7.29195C9.72842 7.15452 9.72838 7.15467 9.72833 7.15485C9.72829 7.15497 9.72823 7.15519 9.72817 7.15542C9.72804 7.15587 9.72786 7.15648 9.72765 7.15724C9.72721 7.15877 9.7266 7.16092 9.72582 7.1637C9.72426 7.16924 9.722 7.17727 9.71908 7.18777C9.71324 7.20877 9.70473 7.23966 9.69373 7.28035C9.67172 7.36172 9.63975 7.4823 9.59924 7.64136C9.51822 7.95948 9.40304 8.43155 9.26512 9.05188C8.98928 10.2925 8.62244 12.1262 8.25591 14.5074C7.52286 19.2697 6.79102 26.2222 6.79102 35H7.79102ZM10.2092 62.7068C10.6899 62.5694 10.6899 62.5694 10.6899 62.5695C10.6899 62.5694 10.6899 62.5694 10.6899 62.5693C10.6898 62.5692 10.6897 62.5688 10.6896 62.5684C10.6893 62.5674 10.6889 62.5658 10.6883 62.5636C10.687 62.5592 10.6851 62.5523 10.6825 62.543C10.6773 62.5243 10.6694 62.4957 10.6591 62.4574C10.6383 62.3807 10.6076 62.2649 10.5683 62.1106C10.4897 61.8022 10.3769 61.3401 10.2413 60.73C9.96997 59.5099 9.60728 57.698 9.24427 55.3398C8.51824 50.6234 7.79102 43.7222 7.79102 35H6.79102C6.79102 43.7777 7.52286 50.7299 8.25591 55.4919C8.62244 57.873 8.98928 59.7065 9.26512 60.9471C9.40305 61.5674 9.51822 62.0394 9.59924 62.3575C9.63975 62.5165 9.67172 62.6371 9.69373 62.7185C9.70473 62.7591 9.71324 62.79 9.71909 62.811C9.72201 62.8215 9.72426 62.8295 9.72582 62.8351C9.72661 62.8379 9.72722 62.84 9.72765 62.8415C9.72787 62.8423 9.72804 62.8429 9.72817 62.8434C9.72823 62.8436 9.7283 62.8438 9.72833 62.8439C9.72838 62.8441 9.72842 62.8443 10.2092 62.7068ZM10.2562 62.2068H10.2092V63.2068H10.2562V62.2068ZM7.7542 70.1883L10.7194 62.8951L9.79301 62.5185L6.82783 69.8117L7.7542 70.1883ZM35 69.5H7.29102V70.5H35V69.5ZM62.709 69.5H35V70.5H62.709V69.5ZM59.2807 62.8951L62.2458 70.1883L63.1722 69.8117L60.207 62.5185L59.2807 62.8951ZM59.7909 62.2068H59.7438V63.2068H59.7909V62.2068ZM62.209 35C62.209 43.7222 61.4818 50.6234 60.7558 55.3398C60.3928 57.698 60.0301 59.5099 59.7588 60.73C59.6231 61.3401 59.5103 61.8022 59.4317 62.1106C59.3925 62.2649 59.3617 62.3807 59.341 62.4574C59.3306 62.4957 59.3227 62.5243 59.3175 62.543C59.3149 62.5523 59.313 62.5592 59.3118 62.5636C59.3111 62.5658 59.3107 62.5674 59.3104 62.5684C59.3103 62.5688 59.3102 62.5692 59.3101 62.5693C59.3101 62.5694 59.3101 62.5694 59.3101 62.5695C59.3101 62.5694 59.3101 62.5694 59.7909 62.7068C60.2716 62.8443 60.2717 62.8441 60.2717 62.8439C60.2717 62.8438 60.2718 62.8436 60.2719 62.8434C60.272 62.8429 60.2722 62.8423 60.2724 62.8415C60.2728 62.84 60.2734 62.8379 60.2742 62.8351C60.2758 62.8295 60.278 62.8215 60.281 62.811C60.2868 62.79 60.2953 62.7591 60.3063 62.7185C60.3283 62.6371 60.3603 62.5165 60.4008 62.3575C60.4818 62.0394 60.597 61.5674 60.7349 60.9471C61.0108 59.7065 61.3776 57.873 61.7441 55.4919C62.4772 50.7299 63.209 43.7777 63.209 35H62.209ZM20.416 3.87503C19.8873 3.87503 19.4591 3.44679 19.4591 2.91705H18.4591C18.4591 3.99815 19.3341 4.87503 20.416 4.87503V3.87503ZM21.3751 2.91705C21.3751 3.44581 20.9456 3.87503 20.416 3.87503V4.87503C21.4969 4.87503 22.3751 3.99913 22.3751 2.91705H21.3751ZM24.791 2.41705H21.8751V3.41705H24.791V2.41705ZM26.2501 3.87503C25.7203 3.87503 25.291 3.44584 25.291 2.91705H24.291C24.291 3.9991 25.169 4.87503 26.2501 4.87503V3.87503ZM27.2092 2.91705C27.2092 3.44584 26.7799 3.87503 26.2501 3.87503V4.87503C27.3312 4.87503 28.2092 3.9991 28.2092 2.91705H27.2092ZM30.625 2.41705H27.7092V3.41705H30.625V2.41705ZM32.0841 3.87503C31.5543 3.87503 31.125 3.44584 31.125 2.91705H30.125C30.125 3.9991 31.003 4.87503 32.0841 4.87503V3.87503ZM33.0409 2.91705C33.0409 3.44682 32.6128 3.87503 32.0841 3.87503V4.87503C33.1661 4.87503 34.0409 3.99812 34.0409 2.91705H33.0409ZM35 2.41705H33.5409V3.41705H35V2.41705ZM36.4591 2.41705H35V3.41705H36.4591V2.41705ZM37.916 3.87503C37.3873 3.87503 36.9591 3.44679 36.9591 2.91705H35.9591C35.9591 3.99815 36.8341 4.87503 37.916 4.87503V3.87503ZM38.875 2.91705C38.875 3.44581 38.4456 3.87503 37.916 3.87503V4.87503C38.9969 4.87503 39.875 3.99913 39.875 2.91705H38.875ZM42.291 2.41705H39.375V3.41705H42.291V2.41705ZM43.7501 3.87503C43.2203 3.87503 42.791 3.44584 42.791 2.91705H41.791C41.791 3.9991 42.669 4.87503 43.7501 4.87503V3.87503ZM44.7092 2.91705C44.7092 3.44584 44.2799 3.87503 43.7501 3.87503V4.87503C44.8312 4.87503 45.7092 3.9991 45.7092 2.91705H44.7092ZM48.125 2.41705H45.2092V3.41705H48.125V2.41705ZM49.5841 3.87503C49.0543 3.87503 48.625 3.44584 48.625 2.91705H47.625C47.625 3.9991 48.503 4.87503 49.5841 4.87503V3.87503ZM50.5409 2.91705C50.5409 3.44682 50.1128 3.87503 49.5841 3.87503V4.87503C50.6661 4.87503 51.5409 3.99813 51.5409 2.91705H50.5409ZM58.3746 2.41705H51.0409V3.41705H58.3746V2.41705ZM57.0583 7.48033L58.8377 3.10543L57.9114 2.72867L56.132 7.10357L57.0583 7.48033ZM35 7.79195H56.5952V6.79195H35V7.79195ZM13.4049 7.79195H35V6.79195H13.4049V7.79195ZM11.1623 3.10543L12.9417 7.48033L13.868 7.10357L12.0886 2.72867L11.1623 3.10543ZM18.9591 2.41705H11.6254V3.41705H18.9591V2.41705ZM12.021 10.1032C11.7649 11.2987 11.4384 12.9781 11.1162 15.0964L12.1049 15.2467C12.4237 13.1502 12.7465 11.4906 12.9988 10.3126L12.021 10.1032ZM35 9.70791H12.5099V10.7079H35V9.70791ZM57.4902 9.70791H35V10.7079H57.4902V9.70791ZM58.8838 15.0964C58.5617 12.978 58.2351 11.2998 57.9791 10.1033L57.0012 10.3125C57.2535 11.4917 57.5764 13.1502 57.8952 15.2467L58.8838 15.0964ZM59.8256 23.2925C59.5555 19.9613 59.2037 17.1993 58.8838 15.0963L57.8952 15.2467C58.2119 17.3287 58.5609 20.0675 58.8289 23.3733L59.8256 23.2925ZM48.1527 23.8329H59.3273V22.8329H48.1527V23.8329ZM35 17.9092C40.078 17.9092 44.6459 20.1353 47.7788 23.6648L48.5267 23.001C45.2127 19.2674 40.3767 16.9092 35 16.9092V17.9092ZM22.2212 23.6648C25.3543 20.1354 29.9222 17.9092 35 17.9092V16.9092C29.6235 16.9092 24.7875 19.2675 21.4734 23.0009L22.2212 23.6648ZM10.6726 23.8329H21.8473V22.8329H10.6726V23.8329ZM11.1162 15.0963C10.7963 17.1992 10.4445 19.9613 10.1743 23.2924L11.171 23.3733C11.4392 20.0675 11.7882 17.3286 12.1049 15.2467L11.1162 15.0963ZM35 50.1758C43.3683 50.1758 50.1737 43.3679 50.1737 35H49.1737C49.1737 42.8159 42.8158 49.1758 35 49.1758V50.1758ZM19.8263 35C19.8263 43.3679 26.6317 50.1758 35 50.1758V49.1758C27.1842 49.1758 20.8263 42.8159 20.8263 35H19.8263ZM35 19.8252C26.6319 19.8252 19.8263 26.6317 19.8263 35H20.8263C20.8263 27.1839 27.1843 20.8252 35 20.8252V19.8252ZM50.1737 35C50.1737 26.6317 43.3684 19.8252 35 19.8252V20.8252C42.816 20.8252 49.1737 27.1839 49.1737 35H50.1737ZM9.9686 26.22C9.80985 28.8698 9.70916 31.8065 9.70916 35H10.7092C10.7092 31.8275 10.8092 28.9108 10.9668 26.2798L9.9686 26.22ZM19.7432 25.7499H10.4677V26.7499H19.7432V25.7499ZM17.9083 35C17.9083 31.9072 18.7342 29.0042 20.1765 26.4994L19.3099 26.0004C17.7828 28.6525 16.9083 31.7269 16.9083 35H17.9083ZM20.1765 43.5003C18.7342 40.9955 17.9083 38.0928 17.9083 35H16.9083C16.9083 38.2731 17.7828 41.3473 19.3099 43.9993L20.1765 43.5003ZM10.4676 44.2498H19.7432V43.2498H10.4676V44.2498ZM9.70916 35C9.70916 38.1935 9.80985 41.1299 9.96846 43.7797L10.9667 43.7199C10.8092 41.089 10.7092 38.1725 10.7092 35H9.70916ZM49.5841 66.125C50.1127 66.125 50.5409 66.5543 50.5409 67.0819H51.5409C51.5409 66.0029 50.6659 65.125 49.5841 65.125V66.125ZM48.625 67.0819C48.625 66.5553 49.0544 66.125 49.5841 66.125V65.125C48.5032 65.125 47.625 66.002 47.625 67.0819H48.625ZM45.2092 67.5819H48.125V66.5819H45.2092V67.5819ZM43.7501 66.125C44.2799 66.125 44.7092 66.5553 44.7092 67.0819H45.7092C45.7092 66.002 44.8312 65.125 43.7501 65.125V66.125ZM42.791 67.0819C42.791 66.5553 43.2203 66.125 43.7501 66.125V65.125C42.669 65.125 41.791 66.002 41.791 67.0819H42.791ZM39.375 67.5819H42.291V66.5819H39.375V67.5819ZM37.916 66.125C38.4457 66.125 38.875 66.5553 38.875 67.0819H39.875C39.875 66.002 38.997 65.125 37.916 65.125V66.125ZM36.9591 67.0819C36.9591 66.5543 37.3872 66.125 37.916 66.125V65.125C36.8339 65.125 35.9591 66.003 35.9591 67.0819H36.9591ZM35 67.5819H36.4591V66.5819H35V67.5819ZM33.5409 67.5819H35V66.5819H33.5409V67.5819ZM32.0841 66.125C32.6127 66.125 33.0409 66.5543 33.0409 67.0819H34.0409C34.0409 66.0029 33.1659 65.125 32.0841 65.125V66.125ZM31.125 67.0819C31.125 66.5553 31.5544 66.125 32.0841 66.125V65.125C31.0032 65.125 30.125 66.002 30.125 67.0819H31.125ZM27.7092 67.5819H30.625V66.5819H27.7092V67.5819ZM26.2501 66.125C26.7799 66.125 27.2092 66.5553 27.2092 67.0819H28.2092C28.2092 66.002 27.3312 65.125 26.2501 65.125V66.125ZM25.291 67.0819C25.291 66.5553 25.7203 66.125 26.2501 66.125V65.125C25.169 65.125 24.291 66.002 24.291 67.0819H25.291ZM21.8751 67.5819H24.791V66.5819H21.8751V67.5819ZM20.416 66.125C20.9457 66.125 21.3751 66.5553 21.3751 67.0819H22.3751C22.3751 66.002 21.497 65.125 20.416 65.125V66.125ZM19.4591 67.0819C19.4591 66.5543 19.8872 66.125 20.416 66.125V65.125C19.3339 65.125 18.4591 66.003 18.4591 67.0819H19.4591ZM11.6254 67.5819H18.9591V66.5819H11.6254V67.5819ZM12.9417 62.5184L11.1623 66.8935L12.0886 67.2702L13.868 62.8952L12.9417 62.5184ZM35 62.2068H13.4049V63.2068H35V62.2068ZM56.5952 62.2068H35V63.2068H56.5952V62.2068ZM58.8377 66.8935L57.0583 62.5184L56.132 62.8952L57.9114 67.2702L58.8377 66.8935ZM51.0409 67.5819H58.3746V66.5819H51.0409V67.5819ZM57.9791 59.8975C58.2351 58.7011 58.5617 57.0207 58.8838 54.9035L57.8952 54.7531C57.5764 56.8486 57.2535 58.5093 57.0012 59.6883L57.9791 59.8975ZM35 60.2929H57.4902V59.2929H35V60.2929ZM12.5099 60.2929H35V59.2929H12.5099V60.2929ZM11.1162 54.9036C11.4384 57.0207 11.7649 58.701 12.021 59.8975L12.9988 59.6883C12.7465 58.5092 12.4237 56.8486 12.1049 54.7531L11.1162 54.9036ZM10.1744 46.7082C10.4445 50.0385 10.7964 52.7996 11.1162 54.9035L12.1049 54.7532C11.7882 52.6702 11.4392 49.9324 11.1711 46.6274L10.1744 46.7082ZM21.8473 46.1678H10.6728V47.1678H21.8473V46.1678ZM35 52.0894C29.922 52.0894 25.3542 49.8653 22.2212 46.3359L21.4734 46.9997C24.7876 50.7334 29.6236 53.0894 35 53.0894V52.0894ZM47.7788 46.3359C44.646 49.8653 40.0782 52.0894 35 52.0894V53.0894C40.3766 53.0894 45.2126 50.7334 48.5267 46.9997L47.7788 46.3359ZM59.3273 46.1678H48.1527V47.1678H59.3273V46.1678ZM58.8838 54.9035C59.2037 52.7996 59.5555 50.0385 59.8256 46.7082L58.8289 46.6274C58.5609 49.9324 58.2119 52.6702 57.8952 54.7532L58.8838 54.9035ZM50.2569 44.2498H59.5323V43.2498H50.2569V44.2498ZM52.0918 35C52.0918 38.0928 51.2658 40.9955 49.8236 43.5003L50.6902 43.9993C52.2172 41.3473 53.0918 38.2731 53.0918 35H52.0918ZM49.8236 26.4994C51.2658 29.0042 52.0918 31.9072 52.0918 35H53.0918C53.0918 31.7269 52.2172 28.6525 50.6902 26.0004L49.8236 26.4994ZM59.5323 25.7499H50.2569V26.7499H59.5323V25.7499ZM60.2909 35C60.2909 31.8065 60.1902 28.8698 60.0314 26.22L59.0332 26.2798C59.1909 28.9108 59.2909 31.8275 59.2909 35H60.2909ZM60.0314 43.7797C60.1902 41.13 60.2909 38.1935 60.2909 35H59.2909C59.2909 38.1725 59.1909 41.089 59.0332 43.7199L60.0314 43.7797ZM26.2948 31.125H43.7051V30.125H26.2948V31.125ZM25.3379 32.083C25.3379 31.5532 25.766 31.125 26.2948 31.125V30.125C25.2127 30.125 24.3379 31.0019 24.3379 32.083H25.3379ZM26.2948 33.042C25.7665 33.042 25.3379 32.6132 25.3379 32.083H24.3379C24.3379 33.1635 25.2122 34.042 26.2948 34.042V33.042ZM43.7051 33.042H26.2948V34.042H43.7051V33.042ZM44.662 32.083C44.662 32.6132 44.2334 33.042 43.7051 33.042V34.042C44.7876 34.042 45.662 33.1635 45.662 32.083H44.662ZM43.7051 31.125C44.2338 31.125 44.662 31.5532 44.662 32.083H45.662C45.662 31.0019 44.787 30.125 43.7051 30.125V31.125ZM39.3514 35.958H30.6484V36.958H39.3514V35.958ZM41.3105 37.9181C41.3105 36.8357 40.4332 35.958 39.3514 35.958V36.958C39.8805 36.958 40.3105 37.3875 40.3105 37.9181H41.3105ZM39.3514 39.875C40.4325 39.875 41.3105 38.998 41.3105 37.9181H40.3105C40.3105 38.4447 39.8812 38.875 39.3514 38.875V39.875ZM30.6484 39.875H39.3514V38.875H30.6484V39.875ZM28.6895 37.9181C28.6895 38.998 29.5674 39.875 30.6484 39.875V38.875C30.1188 38.875 29.6895 38.4448 29.6895 37.9181H28.6895ZM30.6484 35.958C29.5667 35.958 28.6895 36.8358 28.6895 37.9181H29.6895C29.6895 37.3875 30.1195 36.958 30.6484 36.958V35.958Z" fill="white"/>
</g>
<defs>
<clipPath id="clip0">
<rect width="70" height="70" fill="white"/>
</clipPath>
</defs>
</svg>
