<svg width="70" height="70" viewBox="0 0 70 70" fill="none" xmlns="http://www.w3.org/2000/svg">
<g clip-path="url(#clip0)">
<path fill-rule="evenodd" clip-rule="evenodd" d="M55.5946 27.6225L58.5563 65.0144C58.6578 66.2952 58.2159 67.5712 57.344 68.5151C56.4719 69.4589 55.2348 70.0002 53.9498 70.0002H16.0522C14.7674 70.0002 13.5303 69.4589 12.6583 68.5151C11.7863 67.5712 11.3445 66.2952 11.4459 65.0144L13.6323 37.4078C13.677 36.8433 14.1708 36.4211 14.7354 36.4666C15.3001 36.5113 15.7215 37.0053 15.6768 37.5699L13.4902 65.1764C13.4329 65.8993 13.6723 66.5906 14.1644 67.1233C14.6566 67.6558 15.3269 67.9493 16.0521 67.9493H53.9496C54.6748 67.9493 55.3452 67.656 55.8375 67.1233C56.3296 66.5907 56.569 65.8993 56.5117 65.1764L53.5371 27.6229H16.465L16.033 33.0787C15.9903 33.6156 15.5414 34.0232 15.0117 34.0232C14.9845 34.0232 14.9572 34.0221 14.9297 34.0199C14.365 33.9752 13.9436 33.4812 13.9883 32.9167L14.4077 27.6229H14.2652C13.0389 27.6229 12.0411 26.6253 12.0411 25.399V20.2099C12.0411 18.9836 13.0389 17.986 14.2652 17.986H17.7169C18.3979 17.2456 19.1738 16.6013 20.0277 16.072C21.1899 15.3516 22.0594 14.3358 22.5419 13.1344C22.5625 13.0831 22.5834 13.032 22.6049 12.9808C23.3736 11.1463 24.6243 9.55411 26.2214 8.37713C26.6773 8.04132 27.3195 8.1384 27.6552 8.59426C27.9913 9.05012 27.894 9.69207 27.438 10.0281C26.1392 10.9853 25.1218 12.2806 24.4959 13.7744C24.4782 13.8164 24.4614 13.8576 24.4449 13.8987C23.7984 15.5084 22.6444 16.8627 21.1081 17.8151C21.0188 17.8704 20.9306 17.9275 20.8434 17.9858H40.2659C40.8324 17.9858 41.2914 18.445 41.2914 19.0113C41.2914 19.5777 40.8324 20.0368 40.2659 20.0368H14.2652C14.1696 20.0368 14.0921 20.1143 14.0921 20.2098V25.3988C14.0921 25.4943 14.1697 25.5718 14.2652 25.5718H55.7371C55.8325 25.5718 55.9101 25.4943 55.9101 25.3988V20.2098C55.9101 20.1143 55.8324 20.0368 55.7371 20.0368H44.7768C44.2103 20.0368 43.7513 19.5777 43.7513 19.0113C43.7513 18.445 44.2103 17.9858 44.7768 17.9858H49.8558C49.7907 15.5005 48.2781 13.3078 45.9631 12.3688C44.6576 11.8393 43.7237 10.6492 43.526 9.26301C43.4474 8.71103 43.238 8.20171 42.9042 7.7494C42.5134 7.22053 41.9826 6.82155 41.3691 6.59567C40.2493 6.1833 39.3766 5.31383 38.9748 4.21041C38.6778 3.39496 38.0822 2.73318 37.2977 2.34719C35.8733 1.64659 33.8693 2.20294 33.0082 3.53729C32.9026 3.70082 32.8109 3.87351 32.7354 4.0503C32.3044 5.0606 31.7274 6.0184 31.0209 6.89703C30.6661 7.33826 30.0206 7.40854 29.5791 7.05345C29.1377 6.69863 29.0676 6.05313 29.4226 5.61176C30.0116 4.8793 30.4915 4.08312 30.8489 3.24537C30.9698 2.96207 31.1165 2.68615 31.2848 2.42513C32.6981 0.235667 35.8662 -0.643098 38.203 0.506804C39.4646 1.12742 40.423 2.19351 40.9019 3.50844C41.0969 4.04374 41.5255 4.46747 42.0778 4.67079C43.0681 5.03545 43.9243 5.67876 44.5538 6.53086C45.0842 7.24938 45.4308 8.09383 45.5562 8.97328C45.6512 9.63915 46.1024 10.2119 46.7338 10.468C49.8263 11.7224 51.8411 14.6611 51.9066 17.9856H55.7371C56.9634 17.9856 57.961 18.9832 57.961 20.2095V25.3985C57.961 26.6249 56.9634 27.6225 55.7371 27.6225H55.5946ZM46.1053 45.7607C46.1053 51.8841 41.1234 56.866 34.9999 56.866C28.8764 56.866 23.8945 51.8841 23.8945 45.7607C23.8945 39.6372 28.8764 34.6553 34.9999 34.6553C41.1234 34.6553 46.1053 39.6372 46.1053 45.7607ZM36.0254 54.7553C40.5368 54.2442 44.0543 50.4064 44.0543 45.7607C44.0543 41.115 40.5368 37.2771 36.0254 36.766V44.7352H37.7587C38.3252 44.7352 38.7842 45.1943 38.7842 45.7607C38.7842 46.327 38.3252 46.7862 37.7587 46.7862H36.0254V54.7553ZM33.9744 44.7352V36.766C29.4631 37.2771 25.9455 41.115 25.9455 45.7607C25.9455 50.4064 29.463 54.2442 33.9744 54.7553V46.7862H32.2412C31.6748 46.7862 31.2158 46.327 31.2158 45.7607C31.2158 45.1943 31.6748 44.7352 32.2412 44.7352H33.9744Z" fill="white"/>
<path d="M58.5563 65.0144L59.0548 64.9749L58.5563 65.0144ZM55.5946 27.6225V27.1225H55.0535L55.0962 27.6619L55.5946 27.6225ZM57.344 68.5151L57.7112 68.8544L57.7112 68.8543L57.344 68.5151ZM12.6583 68.5151L13.0256 68.1758L13.0256 68.1757L12.6583 68.5151ZM11.4459 65.0144L11.9444 65.0538L11.9444 65.0538L11.4459 65.0144ZM13.6323 37.4078L13.1338 37.3684L13.6323 37.4078ZM14.7354 36.4666L14.6952 36.965L14.6959 36.965L14.7354 36.4666ZM15.6768 37.5699L16.1752 37.6093L16.1752 37.6093L15.6768 37.5699ZM13.4902 65.1764L13.9886 65.2159L13.9886 65.2159L13.4902 65.1764ZM14.1644 67.1233L13.7971 67.4625L13.7972 67.4626L14.1644 67.1233ZM55.8375 67.1233L56.2047 67.4626L55.8375 67.1233ZM56.5117 65.1764L56.0132 65.2159L56.0132 65.2159L56.5117 65.1764ZM53.5371 27.6229L54.0356 27.5834L53.9991 27.1229H53.5371V27.6229ZM16.465 27.6229V27.1229H16.0031L15.9666 27.5834L16.465 27.6229ZM16.033 33.0787L16.5314 33.1183L16.5314 33.1182L16.033 33.0787ZM14.9297 34.0199L14.9694 33.5215L14.9692 33.5215L14.9297 34.0199ZM13.9883 32.9167L13.4899 32.8772L13.4899 32.8772L13.9883 32.9167ZM14.4077 27.6229L14.9061 27.6624L14.9488 27.1229H14.4077V27.6229ZM17.7169 17.986V18.486H17.9364L18.085 18.3244L17.7169 17.986ZM20.0277 16.072L20.2911 16.497L20.2911 16.497L20.0277 16.072ZM22.5419 13.1344L22.0781 12.9476L22.0779 12.948L22.5419 13.1344ZM22.6049 12.9808L23.0659 13.1744L23.0661 13.1741L22.6049 12.9808ZM26.2214 8.37713L25.9249 7.97457L25.9248 7.97462L26.2214 8.37713ZM27.6552 8.59426L27.2526 8.89073L27.2527 8.89097L27.6552 8.59426ZM27.438 10.0281L27.7347 10.4307L27.7347 10.4306L27.438 10.0281ZM24.4959 13.7744L24.9568 13.9681L24.957 13.9677L24.4959 13.7744ZM24.4449 13.8987L23.981 13.7122L23.9809 13.7124L24.4449 13.8987ZM21.1081 17.8151L20.8447 17.3901L20.8446 17.3902L21.1081 17.8151ZM20.8434 17.9858L20.5653 17.5703L19.1974 18.4858H20.8434V17.9858ZM49.8558 17.9858V18.4858H50.3691L50.3556 17.9728L49.8558 17.9858ZM45.9631 12.3688L45.7751 12.8322L45.7752 12.8322L45.9631 12.3688ZM43.526 9.26301L43.031 9.33351L43.031 9.33361L43.526 9.26301ZM42.9042 7.7494L43.3064 7.45245L43.3063 7.45227L42.9042 7.7494ZM41.3691 6.59567L41.1963 7.06487L41.1963 7.06488L41.3691 6.59567ZM38.9748 4.21041L38.505 4.38151V4.38152L38.9748 4.21041ZM37.2977 2.34719L37.5184 1.89855L37.5184 1.89853L37.2977 2.34719ZM33.0082 3.53729L33.4283 3.80845L33.4283 3.80841L33.0082 3.53729ZM32.7354 4.0503L32.2755 3.85399L32.2755 3.85412L32.7354 4.0503ZM31.0209 6.89703L31.4106 7.21036L31.4106 7.21034L31.0209 6.89703ZM29.5791 7.05345L29.8925 6.66383L29.8924 6.66375L29.5791 7.05345ZM29.4226 5.61176L29.8122 5.92511L29.8122 5.9251L29.4226 5.61176ZM30.8489 3.24537L30.389 3.04916V3.04917L30.8489 3.24537ZM31.2848 2.42513L30.8647 2.15397L30.8646 2.15416L31.2848 2.42513ZM38.203 0.506804L37.9822 0.955426L37.9823 0.955457L38.203 0.506804ZM40.9019 3.50844L40.4321 3.67953L40.4321 3.67957L40.9019 3.50844ZM42.0778 4.67079L42.2505 4.20158L42.2505 4.20157L42.0778 4.67079ZM44.5538 6.53086L44.9561 6.23392L44.956 6.23376L44.5538 6.53086ZM45.5562 8.97328L45.0612 9.04385L45.0612 9.04391L45.5562 8.97328ZM46.7338 10.468L46.9218 10.0047L46.9217 10.0047L46.7338 10.468ZM51.9066 17.9856L51.4067 17.9954L51.4164 18.4856H51.9066V17.9856ZM36.0254 54.7553H35.5254V55.3152L36.0817 55.2522L36.0254 54.7553ZM36.0254 36.766L36.0817 36.2692L35.5254 36.2062V36.766H36.0254ZM36.0254 44.7352H35.5254V45.2352H36.0254V44.7352ZM36.0254 46.7862V46.2862H35.5254V46.7862H36.0254ZM33.9744 36.766H34.4744V36.2062L33.9181 36.2692L33.9744 36.766ZM33.9744 44.7352V45.2352H34.4744V44.7352H33.9744ZM33.9744 54.7553L33.9181 55.2522L34.4744 55.3152V54.7553H33.9744ZM33.9744 46.7862H34.4744V46.2862H33.9744V46.7862ZM59.0548 64.9749L56.0931 27.583L55.0962 27.6619L58.0579 65.0538L59.0548 64.9749ZM57.7112 68.8543C58.6778 67.8081 59.1672 66.3948 59.0548 64.9749L58.0579 65.0538C58.1483 66.1957 57.754 67.3344 56.9767 68.1758L57.7112 68.8543ZM53.9498 70.5002C55.3742 70.5002 56.7445 69.9007 57.7112 68.8544L56.9767 68.1757C56.1993 69.0172 55.0953 69.5002 53.9498 69.5002V70.5002ZM16.0522 70.5002H53.9498V69.5002H16.0522V70.5002ZM12.2911 68.8543C13.2576 69.9006 14.6279 70.5002 16.0522 70.5002V69.5002C14.9069 69.5002 13.8029 69.0172 13.0256 68.1758L12.2911 68.8543ZM10.9475 64.9749C10.835 66.3948 11.3244 67.8081 12.2911 68.8544L13.0256 68.1757C12.2482 67.3344 11.8539 66.1957 11.9444 65.0538L10.9475 64.9749ZM13.1338 37.3684L10.9475 64.9749L11.9444 65.0538L14.1307 37.4473L13.1338 37.3684ZM14.7756 35.9682C13.9345 35.9004 13.2003 36.5292 13.1338 37.3684L14.1307 37.4473C14.1537 37.1573 14.4071 36.9417 14.6952 36.965L14.7756 35.9682ZM16.1752 37.6093C16.2417 36.7695 15.6149 36.0346 14.7749 35.9681L14.6959 36.965C14.9853 36.9879 15.2013 37.2411 15.1783 37.5304L16.1752 37.6093ZM13.9886 65.2159L16.1752 37.6093L15.1783 37.5304L12.9918 65.1369L13.9886 65.2159ZM14.5317 66.784C14.1342 66.3537 13.9424 65.7997 13.9886 65.2159L12.9918 65.1369C12.9235 65.9988 13.2104 66.8274 13.7971 67.4625L14.5317 66.784ZM16.0521 67.4493C15.4664 67.4493 14.9293 67.2141 14.5316 66.7839L13.7972 67.4626C14.384 68.0975 15.1874 68.4493 16.0521 68.4493V67.4493ZM53.9496 67.4493H16.0521V68.4493H53.9496V67.4493ZM55.4702 66.7839C55.0726 67.2142 54.5354 67.4493 53.9496 67.4493V68.4493C54.8143 68.4493 55.6178 68.0977 56.2047 67.4626L55.4702 66.7839ZM56.0132 65.2159C56.0595 65.7998 55.8676 66.3539 55.4702 66.7839L56.2047 67.4626C56.7915 66.8276 57.0784 65.9988 57.0101 65.1369L56.0132 65.2159ZM53.0387 27.6623L56.0132 65.2159L57.0101 65.1369L54.0356 27.5834L53.0387 27.6623ZM16.465 28.1229H53.5371V27.1229H16.465V28.1229ZM16.5314 33.1182L16.9635 27.6623L15.9666 27.5834L15.5345 33.0392L16.5314 33.1182ZM15.0117 34.5232C15.8003 34.5232 16.4679 33.9171 16.5314 33.1183L15.5345 33.0391C15.5127 33.3141 15.2826 33.5232 15.0117 33.5232V34.5232ZM14.89 34.5183C14.9305 34.5216 14.9711 34.5232 15.0117 34.5232V33.5232C14.9979 33.5232 14.9838 33.5227 14.9694 33.5215L14.89 34.5183ZM13.4899 32.8772C13.4234 33.717 14.0502 34.4519 14.8902 34.5184L14.9692 33.5215C14.6798 33.4986 14.4638 33.2454 14.4867 32.9561L13.4899 32.8772ZM13.9092 27.5834L13.4899 32.8772L14.4867 32.9561L14.9061 27.6624L13.9092 27.5834ZM14.2652 28.1229H14.4077V27.1229H14.2652V28.1229ZM11.5411 25.399C11.5411 26.9015 12.7627 28.1229 14.2652 28.1229V27.1229C13.315 27.1229 12.5411 26.3491 12.5411 25.399H11.5411ZM11.5411 20.2099V25.399H12.5411V20.2099H11.5411ZM14.2652 17.486C12.7627 17.486 11.5411 18.7074 11.5411 20.2099H12.5411C12.5411 19.2598 13.315 18.486 14.2652 18.486V17.486ZM17.7169 17.486H14.2652V18.486H17.7169V17.486ZM19.7643 15.6471C18.8712 16.2006 18.0601 16.8742 17.3489 17.6475L18.085 18.3244C18.7356 17.617 19.4764 17.002 20.2911 16.497L19.7643 15.6471ZM22.0779 12.948C21.6374 14.0448 20.8413 14.9794 19.7642 15.6471L20.2911 16.497C21.5384 15.7238 22.4813 14.6268 23.0059 13.3207L22.0779 12.948ZM22.1439 12.7873C22.1213 12.8412 22.0994 12.8947 22.0781 12.9476L23.0057 13.3211C23.0257 13.2716 23.0456 13.2227 23.0659 13.1744L22.1439 12.7873ZM25.9248 7.97462C24.2547 9.20536 22.9473 10.87 22.1438 12.7876L23.0661 13.1741C23.7999 11.4227 24.9939 9.90285 26.518 8.77964L25.9248 7.97462ZM28.0578 8.29779C27.5582 7.61925 26.6028 7.47517 25.9249 7.97457L26.518 8.7797C26.7518 8.60748 27.0809 8.65755 27.2526 8.89073L28.0578 8.29779ZM27.7347 10.4306C28.4129 9.93077 28.5577 8.97579 28.0576 8.29755L27.2527 8.89097C27.4249 9.12445 27.3752 9.45336 27.1414 9.62566L27.7347 10.4306ZM24.957 13.9677C25.5482 12.5569 26.5089 11.334 27.7347 10.4307L27.1414 9.62564C25.7696 10.6366 24.6955 12.0044 24.0347 13.5812L24.957 13.9677ZM24.9088 14.0852C24.9246 14.0458 24.9405 14.0071 24.9568 13.9681L24.0349 13.5807C24.016 13.6257 23.9982 13.6693 23.981 13.7122L24.9088 14.0852ZM21.3716 18.24C22.9943 17.2341 24.2209 15.798 24.9089 14.085L23.9809 13.7124C23.3759 15.2188 22.2945 16.4914 20.8447 17.3901L21.3716 18.24ZM21.1215 18.4014C21.2044 18.3459 21.2877 18.2921 21.3717 18.24L20.8446 17.3902C20.75 17.4488 20.6569 17.509 20.5653 17.5703L21.1215 18.4014ZM40.2659 17.4858H20.8434V18.4858H40.2659V17.4858ZM41.7914 19.0113C41.7914 18.1689 41.1086 17.4858 40.2659 17.4858V18.4858C40.5562 18.4858 40.7914 18.7211 40.7914 19.0113H41.7914ZM40.2659 20.5368C41.1086 20.5368 41.7914 19.8538 41.7914 19.0113H40.7914C40.7914 19.3016 40.5562 19.5368 40.2659 19.5368V20.5368ZM14.2652 20.5368H40.2659V19.5368H14.2652V20.5368ZM14.5921 20.2098C14.5921 20.3907 14.4455 20.5368 14.2652 20.5368V19.5368C13.8937 19.5368 13.5921 19.8379 13.5921 20.2098H14.5921ZM14.5921 25.3988V20.2098H13.5921V25.3988H14.5921ZM14.2652 25.0718C14.4454 25.0718 14.5921 25.2176 14.5921 25.3988H13.5921C13.5921 25.7709 13.8941 26.0718 14.2652 26.0718V25.0718ZM55.7371 25.0718H14.2652V26.0718H55.7371V25.0718ZM55.4101 25.3988C55.4101 25.2181 55.5564 25.0718 55.7371 25.0718V26.0718C56.1087 26.0718 56.4101 25.7704 56.4101 25.3988H55.4101ZM55.4101 20.2098V25.3988H56.4101V20.2098H55.4101ZM55.7371 20.5368C55.5565 20.5368 55.4101 20.3907 55.4101 20.2098H56.4101C56.4101 19.8379 56.1083 19.5368 55.7371 19.5368V20.5368ZM44.7768 20.5368H55.7371V19.5368H44.7768V20.5368ZM43.2513 19.0113C43.2513 19.8538 43.9342 20.5368 44.7768 20.5368V19.5368C44.4865 19.5368 44.2513 19.3016 44.2513 19.0113H43.2513ZM44.7768 17.4858C43.9342 17.4858 43.2513 18.1689 43.2513 19.0113H44.2513C44.2513 18.7211 44.4865 18.4858 44.7768 18.4858V17.4858ZM49.8558 17.4858H44.7768V18.4858H49.8558V17.4858ZM45.7752 12.8322C47.9056 13.6963 49.2961 15.712 49.356 17.9989L50.3556 17.9728C50.2853 15.289 48.6505 12.9193 46.151 11.9055L45.7752 12.8322ZM43.031 9.33361C43.2541 10.8974 44.3059 12.2362 45.7751 12.8322L46.151 11.9055C45.0092 11.4423 44.1934 10.401 44.021 9.19241L43.031 9.33361ZM42.5019 8.04636C42.7871 8.43267 42.9642 8.86432 43.031 9.33351L44.021 9.1925C43.9306 8.55774 43.689 7.97075 43.3064 7.45245L42.5019 8.04636ZM41.1963 7.06488C41.7176 7.25681 42.1689 7.59567 42.502 8.04653L43.3063 7.45227C42.8579 6.84539 42.2476 6.3863 41.5418 6.12646L41.1963 7.06488ZM38.505 4.38152C38.9581 5.62567 39.941 6.60259 41.1963 7.06487L41.5419 6.12648C40.5576 5.764 39.7952 5.00199 39.4446 4.03931L38.505 4.38152ZM37.0769 2.79584C37.7467 3.12535 38.2525 3.68821 38.505 4.38151L39.4446 4.03932C39.1031 3.10171 38.4177 2.34101 37.5184 1.89855L37.0769 2.79584ZM33.4283 3.80841C33.7814 3.26122 34.3857 2.85233 35.0754 2.66093C35.7652 2.46952 36.4932 2.5087 37.077 2.79585L37.5184 1.89853C36.6778 1.48508 35.6916 1.45214 34.808 1.69734C33.9244 1.94255 33.096 2.47901 32.5881 3.26617L33.4283 3.80841ZM33.1952 4.24662C33.2595 4.09602 33.3379 3.94835 33.4283 3.80845L32.5881 3.26613C32.4673 3.45329 32.3622 3.651 32.2755 3.85399L33.1952 4.24662ZM31.4106 7.21034C32.1449 6.29707 32.7459 5.30003 33.1953 4.24649L32.2755 3.85412C31.863 4.82118 31.3099 5.73973 30.6313 6.58371L31.4106 7.21034ZM29.2657 7.44307C29.9225 7.97128 30.8828 7.86673 31.4106 7.21036L30.6313 6.58369C30.4495 6.80978 30.1187 6.84579 29.8925 6.66383L29.2657 7.44307ZM29.0329 5.29842C28.5049 5.955 28.6092 6.91529 29.2658 7.44314L29.8924 6.66375C29.6663 6.48198 29.6303 6.15126 29.8122 5.92511L29.0329 5.29842ZM30.389 3.04917C30.0501 3.8435 29.5942 4.60045 29.0329 5.29842L29.8122 5.9251C30.429 5.15815 30.9329 4.32274 31.3088 3.44158L30.389 3.04917ZM30.8646 2.15416C30.6812 2.43863 30.5211 2.73954 30.389 3.04916L31.3088 3.44158C31.4185 3.1846 31.5518 2.93366 31.705 2.6961L30.8646 2.15416ZM38.4237 0.0581813C35.859 -1.20392 32.4154 -0.248432 30.8647 2.15397L31.7049 2.69629C32.9807 0.719766 35.8735 -0.0822792 37.9822 0.955426L38.4237 0.0581813ZM41.3717 3.33736C40.8485 1.90062 39.8004 0.735411 38.4237 0.0581503L37.9823 0.955457C39.1287 1.51943 39.9976 2.48639 40.4321 3.67953L41.3717 3.33736ZM42.2505 4.20157C41.8311 4.04716 41.5144 3.72925 41.3717 3.33732L40.4321 3.67957C40.6793 4.35823 41.2199 4.88778 41.905 5.14L42.2505 4.20157ZM44.956 6.23376C44.2687 5.30348 43.3329 4.60014 42.2505 4.20158L41.905 5.13999C42.8033 5.47076 43.5799 6.05404 44.1516 6.82797L44.956 6.23376ZM46.0512 8.9027C45.914 7.94081 45.5353 7.01866 44.9561 6.23392L44.1515 6.82781C44.633 7.4801 44.9475 8.24685 45.0612 9.04385L46.0512 8.9027ZM46.9217 10.0047C46.4527 9.81442 46.1206 9.3895 46.0512 8.90264L45.0612 9.04391C45.1818 9.8888 45.7521 10.6094 46.5459 10.9314L46.9217 10.0047ZM52.4065 17.9757C52.3371 14.4516 50.1998 11.3343 46.9218 10.0047L46.5459 10.9313C49.4527 12.1104 51.3451 14.8706 51.4067 17.9954L52.4065 17.9757ZM55.7371 17.4856H51.9066V18.4856H55.7371V17.4856ZM58.461 20.2095C58.461 18.707 57.2396 17.4856 55.7371 17.4856V18.4856C56.6873 18.4856 57.461 19.2593 57.461 20.2095H58.461ZM58.461 25.3985V20.2095H57.461V25.3985H58.461ZM55.7371 28.1225C57.2396 28.1225 58.461 26.901 58.461 25.3985H57.461C57.461 26.3487 56.6873 27.1225 55.7371 27.1225V28.1225ZM55.5946 28.1225H55.7371V27.1225H55.5946V28.1225ZM34.9999 57.366C41.3995 57.366 46.6053 52.1603 46.6053 45.7607H45.6053C45.6053 51.608 40.8472 56.366 34.9999 56.366V57.366ZM23.3945 45.7607C23.3945 52.1603 28.6003 57.366 34.9999 57.366V56.366C29.1526 56.366 24.3945 51.608 24.3945 45.7607H23.3945ZM34.9999 34.1553C28.6003 34.1553 23.3945 39.3611 23.3945 45.7607H24.3945C24.3945 39.9134 29.1526 35.1553 34.9999 35.1553V34.1553ZM46.6053 45.7607C46.6053 39.3611 41.3995 34.1553 34.9999 34.1553V35.1553C40.8472 35.1553 45.6053 39.9134 45.6053 45.7607H46.6053ZM43.5543 45.7607C43.5543 50.1487 40.2311 53.7757 35.9691 54.2585L36.0817 55.2522C40.8425 54.7128 44.5543 50.664 44.5543 45.7607H43.5543ZM35.9691 37.2629C40.2311 37.7457 43.5543 41.3727 43.5543 45.7607H44.5543C44.5543 40.8573 40.8425 36.8086 36.0817 36.2692L35.9691 37.2629ZM36.5254 44.7352V36.766H35.5254V44.7352H36.5254ZM37.7587 44.2352H36.0254V45.2352H37.7587V44.2352ZM39.2842 45.7607C39.2842 44.9182 38.6014 44.2352 37.7587 44.2352V45.2352C38.049 45.2352 38.2842 45.4704 38.2842 45.7607H39.2842ZM37.7587 47.2862C38.6014 47.2862 39.2842 46.6031 39.2842 45.7607H38.2842C38.2842 46.0509 38.049 46.2862 37.7587 46.2862V47.2862ZM36.0254 47.2862H37.7587V46.2862H36.0254V47.2862ZM36.5254 54.7553V46.7862H35.5254V54.7553H36.5254ZM33.4744 36.766V44.7352H34.4744V36.766H33.4744ZM26.4455 45.7607C26.4455 41.3727 29.7689 37.7457 34.0307 37.2629L33.9181 36.2692C29.1574 36.8086 25.4455 40.8573 25.4455 45.7607H26.4455ZM34.0307 54.2585C29.7687 53.7757 26.4455 50.1487 26.4455 45.7607H25.4455C25.4455 50.664 29.1573 54.7128 33.9181 55.2522L34.0307 54.2585ZM33.4744 46.7862V54.7553H34.4744V46.7862H33.4744ZM32.2412 47.2862H33.9744V46.2862H32.2412V47.2862ZM30.7158 45.7607C30.7158 46.6031 31.3986 47.2862 32.2412 47.2862V46.2862C31.9509 46.2862 31.7158 46.0509 31.7158 45.7607H30.7158ZM32.2412 44.2352C31.3986 44.2352 30.7158 44.9182 30.7158 45.7607H31.7158C31.7158 45.4704 31.9509 45.2352 32.2412 45.2352V44.2352ZM33.9744 44.2352H32.2412V45.2352H33.9744V44.2352Z" fill="white"/>
</g>
<defs>
<clipPath id="clip0">
<rect width="70" height="70" fill="white"/>
</clipPath>
</defs>
</svg>
