<svg width="70" height="70" viewBox="0 0 70 70" fill="none" xmlns="http://www.w3.org/2000/svg">
<path d="M67.9492 49.4922H65.7617C65.7617 48.3253 65.7617 3.15082 65.7617 2.05078C65.7617 0.918203 64.8435 0 63.7109 0C62.0912 0 7.90877 0 6.28906 0C5.15648 0 4.23828 0.918203 4.23828 2.05078V26.6602V49.4922H2.05078C0.918203 49.4922 0 50.4104 0 51.543V67.9492C0 69.0818 0.918203 70 2.05078 70H10.2539C11.3865 70 12.3047 69.0818 12.3047 67.9492V61.7969H28.8477V67.9492C28.8477 69.0818 29.7659 70 30.8984 70H39.1016C40.2341 70 41.1523 69.0818 41.1523 67.9492V61.7969H57.6953V67.9492C57.6953 69.0818 58.6135 70 59.7461 70H67.9492C69.0818 70 70 69.0818 70 67.9492C70 65.9643 70 53.541 70 51.543C70 50.4104 69.0818 49.4922 67.9492 49.4922ZM37.0508 49.4922V28.7109H43.2031V34.8633C43.2031 35.9959 44.1213 36.9141 45.2539 36.9141H53.457C54.5896 36.9141 55.5078 35.9959 55.5078 34.8633V28.7109H61.6602V49.4922H37.0508ZM47.3047 28.7109H51.4062V32.8125H47.3047V28.7109ZM61.6602 24.6094H37.0508V4.10156H43.2031V10.2539C43.2031 11.3865 44.1213 12.3047 45.2539 12.3047H53.457C54.5896 12.3047 55.5078 11.3865 55.5078 10.2539V4.10156H61.6602V24.6094ZM47.3047 4.10156H51.4062V8.20312H47.3047V4.10156ZM18.5938 4.10156H22.6953V8.20312H18.5938V4.10156ZM14.4922 4.10156V10.2539C14.4922 11.3865 15.4104 12.3047 16.543 12.3047H24.7461C25.8787 12.3047 26.7969 11.3865 26.7969 10.2539V4.10156H32.9492V24.6094H8.33984V4.10156H14.4922ZM18.5938 28.7109H22.6953V32.8125H18.5938V28.7109ZM8.33984 28.7109H14.4922V34.8633C14.4922 35.9959 15.4104 36.9141 16.543 36.9141H24.7461C25.8787 36.9141 26.7969 35.9959 26.7969 34.8633V28.7109H32.9492V49.4922H8.33984V28.7109ZM4.10156 53.5938H65.8984V57.6953H4.10156V53.5938ZM8.20312 65.8984H4.10156V61.7969H8.20312V65.8984ZM37.0508 65.8984H32.9492V61.7969H37.0508V65.8984ZM61.7969 65.8984V61.7969H65.8984V65.8984H61.7969Z" fill="white"/>
</svg>
