<svg xmlns="http://www.w3.org/2000/svg" height="512" viewBox="0 0 511 511" width="512"><path d="M396.576 314.191a7.5 7.5 0 00-7.5 7.5v40.733C389.076 436.078 329.154 496 255.5 496s-133.576-59.922-133.576-133.576V214.209a7.5 7.5 0 00-15 0v148.215C106.924 444.349 173.575 511 255.5 511s148.576-66.651 148.576-148.576v-40.733a7.5 7.5 0 00-7.5-7.5zM255.5 0c-81.925 0-148.576 66.651-148.576 148.576v35.633a7.5 7.5 0 0015 0v-35.633c0-71.135 55.896-129.455 126.072-133.361v53.707c-12.794 3.333-22.266 14.984-22.266 28.807V141c0 13.823 9.472 25.474 22.266 28.807v53.09c0 4.142 3.357 7.5 7.5 7.5s7.5-3.358 7.5-7.5v-53.09c12.794-3.333 22.266-14.984 22.266-28.807V97.729c0-13.823-9.472-25.474-22.266-28.807V15.214c70.18 3.902 126.08 62.223 126.08 133.361V291.69c0 4.142 3.357 7.5 7.5 7.5s7.5-3.358 7.5-7.5V148.576C404.076 66.651 337.425 0 255.5 0zm14.762 97.729V141c0 8.142-6.624 14.766-14.766 14.766S240.73 149.142 240.73 141V97.729c0-8.142 6.624-14.766 14.766-14.766s14.766 6.624 14.766 14.766z" data-original="#000000" class="active-path" data-old_color="#000000" fill="#FFF"/></svg>