<svg xmlns="http://www.w3.org/2000/svg" height="512" width="512"><circle cx="256" cy="37.5" r="6" data-original="#000000" class="active-path" data-old_color="#000000" fill="#FFF"/><path d="M391 0H121c-20.678 0-37.5 16.822-37.5 37.5v437c0 20.678 16.822 37.5 37.5 37.5h270c20.678 0 37.5-16.822 37.5-37.5v-437C428.5 16.822 411.678 0 391 0zm22.5 474.5c0 12.407-10.094 22.5-22.5 22.5H121c-12.406 0-22.5-10.093-22.5-22.5v-437C98.5 25.093 108.594 15 121 15h270c12.406 0 22.5 10.093 22.5 22.5z" data-original="#000000" class="active-path" data-old_color="#000000" fill="#FFF"/><path d="M286 437h-60c-12.406 0-22.5 10.093-22.5 22.5S213.594 482 226 482h60c12.406 0 22.5-10.093 22.5-22.5S298.406 437 286 437zm0 30h-60c-4.136 0-7.5-3.364-7.5-7.5s3.364-7.5 7.5-7.5h60c4.136 0 7.5 3.364 7.5 7.5s-3.364 7.5-7.5 7.5zM391 30h-92.574c-1.989 0-3.896.79-5.304 2.197l-21.2 21.201C267.645 57.655 261.99 60 256 60c-5.993 0-11.637-2.341-15.893-6.593-.035-.036-13.158-13.139-21.229-21.21A7.501 7.501 0 00213.574 30H121a7.5 7.5 0 00-7.5 7.5V211c0 4.142 3.357 7.5 7.5 7.5s7.5-3.358 7.5-7.5V45h81.968s18.2 18.189 19.076 18.981l-.038.038C236.595 71.1 246.003 75 256 75c9.983 0 19.396-3.896 26.517-10.984L301.532 45H383.5v362h-255V241c0-4.142-3.357-7.5-7.5-7.5s-7.5 3.358-7.5 7.5v173.5a7.5 7.5 0 007.5 7.5h270a7.5 7.5 0 007.5-7.5v-377A7.5 7.5 0 00391 30z" data-original="#000000" class="active-path" data-old_color="#000000" fill="#FFF"/></svg>