<?xml version="1.0" standalone="no"?>
<!DOCTYPE svg PUBLIC "-//W3C//DTD SVG 20010904//EN"
 "http://www.w3.org/TR/2001/REC-SVG-20010904/DTD/svg10.dtd">
<svg version="1.0" xmlns="http://www.w3.org/2000/svg"
 width="1200.000000pt" height="713.000000pt" viewBox="0 0 1200.000000 713.000000"
 preserveAspectRatio="xMidYMid meet">
<metadata>
Created by potrace 1.16, written by Peter Selinger 2001-2019
</metadata>
<g transform="translate(0.000000,713.000000) scale(0.100000,-0.100000)"
fill="#000000" stroke="none">
<path d="M3490 4120 l0 -1030 481 0 c273 0 497 4 518 10 20 5 70 16 111 25 41
10 91 25 110 36 19 10 49 25 67 33 40 20 151 130 181 180 59 100 82 310 47
440 -40 153 -164 282 -318 331 l-68 22 62 27 c79 34 150 94 198 166 53 80 72
140 78 250 9 173 -35 290 -150 396 -53 50 -83 67 -192 114 -59 26 -152 30
-625 30 l-500 0 0 -1030z m1025 931 c163 -33 266 -107 327 -237 30 -65 32 -76
32 -179 0 -105 -1 -113 -33 -175 -30 -59 -90 -127 -152 -173 -13 -10 -66 -31
-117 -47 l-92 -30 -455 0 -455 0 0 423 c0 233 3 427 7 430 3 4 194 7 424 7
373 0 427 -2 514 -19z m60 -954 c152 -37 261 -120 322 -245 38 -76 38 -76 38
-201 0 -120 -2 -129 -32 -193 -64 -137 -209 -241 -374 -267 -37 -7 -251 -11
-511 -11 l-448 0 0 470 0 471 468 -4 c397 -3 478 -6 537 -20z"/>
<path d="M5900 5054 c-91 -33 -147 -96 -183 -209 -39 -123 -6 -297 71 -378 54
-57 108 -80 197 -85 67 -4 90 -1 128 16 75 33 115 70 147 136 93 188 41 410
-118 503 -57 34 -173 42 -242 17z m219 -99 c133 -92 144 -337 20 -449 -103
-94 -262 -60 -329 70 -22 42 -25 61 -25 149 0 110 15 153 72 207 50 48 82 59
154 56 54 -3 74 -9 108 -33z"/>
<path d="M7266 5055 c-22 -8 -52 -23 -67 -34 -36 -27 -37 -26 -41 7 -3 23 -8
27 -40 30 l-38 3 0 -335 0 -336 40 0 40 0 0 213 c0 117 5 229 11 250 13 47 63
106 106 123 18 8 53 14 78 14 l45 0 0 40 0 40 -47 0 c-27 -1 -66 -7 -87 -15z"/>
<path d="M5090 5053 c0 -4 22 -60 49 -123 27 -63 86 -203 132 -310 l82 -194
-18 -53 c-10 -29 -26 -67 -36 -83 -17 -27 -23 -30 -74 -30 l-55 0 0 -40 0 -40
50 0 c57 0 106 18 133 48 10 11 33 60 52 109 18 48 56 147 85 218 88 223 190
492 190 499 0 4 -18 6 -41 4 l-41 -3 -54 -145 c-30 -80 -76 -199 -102 -265
l-46 -119 -20 44 c-10 25 -61 144 -112 265 l-93 220 -41 3 c-22 2 -40 0 -40
-5z"/>
<path d="M6414 5045 c-3 -8 -4 -121 -2 -252 3 -217 5 -242 24 -283 42 -89 115
-130 233 -130 66 0 115 17 169 56 22 16 22 16 22 -15 0 -30 2 -31 40 -31 l40
0 -2 333 -3 332 -37 3 -38 3 0 -209 c0 -230 -9 -285 -56 -336 -88 -94 -246
-79 -294 27 -18 38 -20 67 -20 280 l0 237 -35 0 c-22 0 -38 -6 -41 -15z"/>
<path d="M6187 3936 c-72 -30 -94 -49 -118 -101 -47 -101 -1 -211 106 -253 17
-6 88 -26 159 -42 71 -17 143 -38 160 -47 79 -39 113 -101 101 -181 -5 -37
-15 -55 -49 -88 -53 -51 -114 -69 -223 -68 -151 2 -247 75 -260 197 -4 41 -10
57 -21 57 -12 0 -14 -10 -9 -54 9 -93 63 -169 143 -202 91 -38 252 -36 333 5
143 74 159 269 28 345 -23 13 -107 41 -187 61 -217 55 -260 84 -267 177 -6 75
18 115 92 153 54 27 67 30 154 29 108 -1 146 -13 198 -64 29 -29 44 -63 55
-124 2 -11 9 -21 17 -24 11 -4 13 4 8 42 -19 137 -116 206 -286 206 -57 0 -91
-7 -134 -24z"/>
<path d="M6962 3942 c-96 -35 -142 -98 -142 -194 0 -112 53 -153 274 -208 86
-21 172 -48 191 -60 38 -24 75 -91 75 -138 0 -72 -58 -146 -137 -173 -52 -19
-208 -17 -254 3 -81 35 -127 100 -144 201 -4 24 -11 37 -21 37 -12 0 -14 -9
-9 -47 19 -134 96 -210 236 -232 71 -12 182 0 233 24 100 48 146 149 116 256
-21 75 -85 111 -284 159 -149 36 -172 46 -215 95 -26 30 -31 44 -31 86 0 88
38 133 139 163 95 28 204 16 273 -29 42 -28 66 -68 76 -127 9 -49 32 -64 32
-21 0 78 -50 157 -123 195 -61 31 -212 36 -285 10z"/>
<path d="M5200 3540 l0 -400 245 0 c211 0 245 2 245 15 0 13 -32 15 -230 15
l-230 0 0 385 c0 336 -2 385 -15 385 -13 0 -15 -51 -15 -400z"/>
<path d="M5820 3540 c0 -349 2 -400 15 -400 13 0 15 51 15 400 0 349 -2 400
-15 400 -13 0 -15 -51 -15 -400z"/>
<path d="M3515 2908 c-3 -7 -4 -238 -3 -513 l3 -500 43 -3 42 -3 0 52 0 51 41
-37 c61 -55 120 -77 209 -77 139 0 224 52 286 178 35 70 38 83 42 184 4 90 1
120 -16 177 -49 160 -158 246 -312 247 -83 0 -161 -29 -212 -78 -15 -14 -30
-26 -33 -26 -3 0 -5 81 -5 180 l0 180 -40 0 c-23 0 -43 -5 -45 -12z m405 -338
c208 -58 241 -470 47 -581 -62 -35 -164 -34 -228 3 -48 28 -87 76 -115 143
-21 48 -25 200 -7 260 41 137 171 212 303 175z"/>
<path d="M7240 2739 l0 -182 -27 28 c-16 15 -53 39 -83 53 -72 34 -191 36
-260 5 -110 -50 -180 -152 -202 -296 -31 -201 51 -383 201 -450 97 -43 248
-20 330 49 l41 36 0 -46 0 -46 45 0 45 0 0 515 0 515 -45 0 -45 0 0 -181z
m-134 -187 c48 -24 74 -53 105 -112 21 -40 24 -58 24 -165 0 -111 -2 -124 -27
-171 -110 -209 -373 -185 -440 40 -19 63 -15 202 6 265 22 64 96 144 147 160
49 15 139 6 185 -17z"/>
<path d="M4670 2654 c-30 -8 -72 -26 -92 -39 -48 -32 -52 -31 -53 2 0 26 -4
28 -42 31 l-43 3 0 -381 0 -381 43 3 42 3 5 260 c4 221 8 265 23 295 40 81
115 129 200 130 l47 0 0 45 0 45 -37 -1 c-21 0 -63 -7 -93 -15z"/>
<path d="M5203 2660 c-125 -26 -205 -113 -220 -241 l-6 -50 43 3 44 3 11 57
c20 102 77 142 200 142 92 1 135 -17 160 -64 15 -29 20 -105 9 -134 -8 -22
-61 -33 -184 -41 -236 -14 -320 -76 -320 -235 0 -125 64 -196 196 -219 102
-18 248 19 293 73 18 21 31 20 31 -2 0 -35 37 -56 106 -60 l64 -4 0 47 c0 45
-1 46 -27 45 -68 -5 -63 -25 -63 248 0 141 -5 263 -11 285 -13 49 -64 106
-114 128 -49 21 -155 31 -212 19z m247 -453 c0 -147 -105 -248 -259 -247 -57
0 -124 30 -147 65 -23 36 -21 120 4 154 33 46 77 59 225 70 77 5 141 12 145
15 3 3 11 6 19 6 9 0 13 -17 13 -63z"/>
<path d="M6105 2665 c-5 -2 -27 -6 -47 -10 -20 -3 -60 -21 -87 -39 l-50 -34
-3 32 c-3 29 -6 31 -45 34 l-43 3 0 -380 0 -381 44 0 45 0 3 263 c3 247 4 264
25 303 60 113 180 153 290 98 40 -19 57 -35 72 -68 20 -40 21 -60 21 -319 l0
-277 45 0 45 0 0 278 c0 311 -4 339 -65 409 -19 22 -56 49 -82 61 -45 19 -146
36 -168 27z"/>
</g>
</svg>
