<svg width="180" height="40" viewBox="0 0 180 40" fill="none" xmlns="http://www.w3.org/2000/svg">
<path d="M108.223 8.96788H96.7684C88.7044 8.96788 83.6667 14.1396 83.6667 20.0009V30.3826C83.6667 30.7465 83.9541 31.0339 84.318 31.0339H108.223C108.587 31.0339 108.874 30.7465 108.874 30.3826V9.61913C108.874 9.27435 108.587 8.96788 108.223 8.96788ZM100.81 25.3833C100.81 25.7472 100.523 26.0345 100.159 26.0345H92.4012C92.0372 26.0345 91.7499 25.7472 91.7499 25.3833V20.02C91.7499 16.9936 93.8377 14.0055 97.8027 14.0055H100.178C100.542 14.0055 100.829 14.2928 100.829 14.6568V25.3833H100.81ZM24.5369 8.96788H13.1017C5.03763 8.96788 0 14.1396 0 20.0009C0 27.0306 5.03763 31.0339 13.1017 31.0339H24.5369C24.9008 31.0339 25.1881 30.7465 25.1881 30.3826V9.61913C25.2073 9.27435 24.9008 8.96788 24.5369 8.96788ZM17.1241 25.9962C17.1241 25.9962 16.1472 26.0345 14.0977 26.0345C10.1327 26.0345 8.04488 23.0273 8.04488 20.02C8.04488 16.9936 10.1327 14.0055 14.0977 14.0055H16.4728C16.8368 14.0055 17.1241 14.2928 17.1241 14.6568V25.9962ZM79.9891 8.96788H68.5347C60.4707 8.96788 55.433 14.1396 55.433 20.0009C55.433 27.0306 60.4707 31.0339 68.5347 31.0339H79.9891C80.353 31.0339 80.6403 30.7465 80.6403 30.3826V9.61913C80.6595 9.27435 80.353 8.96788 79.9891 8.96788ZM72.5763 25.9962C72.5763 25.9962 71.5994 26.0345 69.5499 26.0345C65.5849 26.0345 63.4971 23.0273 63.4971 20.02C63.4971 16.9936 65.5849 14.0055 69.5499 14.0055H71.925C72.289 14.0055 72.5763 14.2928 72.5763 14.6568V25.9962ZM52.7706 8.96788H41.3162C33.2522 8.96788 28.2145 14.1396 28.2145 20.0009V30.3826C28.2145 30.7465 28.5019 31.0339 28.8658 31.0339H35.6273C35.9913 31.0339 36.2786 30.7465 36.2786 30.3826V20.0009C36.2786 16.9745 38.3664 13.9864 42.3314 13.9864H44.7065C45.0705 13.9864 45.3578 14.2737 45.3578 14.6376V30.4018C45.3578 30.7657 45.6451 31.053 46.009 31.053H52.7706C53.1345 31.053 53.4218 30.7657 53.4218 30.4018V9.61913C53.4218 9.27435 53.1345 8.96788 52.7706 8.96788ZM136.456 8.96788H125.021C116.957 8.96788 111.92 14.1396 111.92 20.0009V30.3826C111.92 30.7465 112.207 31.0339 112.571 31.0339H136.476C136.84 31.0339 137.127 30.7465 137.127 30.3826V9.61913C137.108 9.27435 136.82 8.96788 136.456 8.96788ZM129.044 25.3833C129.044 25.7472 128.756 26.0345 128.392 26.0345H120.635C120.271 26.0345 119.984 25.7472 119.984 25.3833V20.02C119.984 16.9936 122.071 14.0055 126.036 14.0055H128.412C128.776 14.0055 129.063 14.2928 129.063 14.6568V25.3833H129.044ZM178.807 8.96788H171.394V16.8404C171.394 17.2043 171.107 17.4916 170.743 17.4916H162.985C162.621 17.4916 162.334 17.2043 162.334 16.8404V9.61913C162.334 9.2552 162.047 8.96788 161.683 8.96788H154.921C154.557 8.96788 154.27 9.2552 154.27 9.61913V30.4018C154.27 30.7657 154.557 31.053 154.921 31.053H161.683C162.047 31.053 162.334 30.7657 162.334 30.4018V23.1805C162.334 22.8166 162.621 22.5293 162.985 22.5293H170.743C171.107 22.5293 171.394 22.8166 171.394 23.1805V30.4018C171.394 30.7657 171.682 31.053 172.045 31.053H178.807C179.171 31.053 179.458 30.7657 179.458 30.4018V9.61913C179.458 9.27435 179.171 8.96788 178.807 8.96788ZM143.218 0.0801885C142.643 -0.226284 142.011 0.405816 142.337 0.961297C143.046 2.16803 143.659 4.04517 143.659 6.95665C143.659 12.9712 140.134 16.055 140.134 25.0193C140.134 34.1752 144.827 38.2168 148.122 39.9215C148.715 40.228 149.309 39.5768 148.983 39.0021C148.294 37.7954 147.719 35.9374 147.719 33.0642C147.719 27.0497 151.244 24.0616 151.244 15.0015C151.225 5.82654 146.513 1.78494 143.218 0.0801885Z" fill="#ED1C24"/>
</svg>
