<svg xmlns="http://www.w3.org/2000/svg" viewBox="0 0 217.109 217.109" width="16" height="16"><path d="M108.552 0C62.42 0 24.89 37.535 24.89 83.672c0 32.967 13.802 66.314 39.914 96.437 19.503 22.499 38.831 35.246 39.645 35.778a7.495 7.495 0 008.208 0c.813-.532 20.144-13.279 39.647-35.777 26.114-30.124 39.917-63.471 39.917-96.438C192.22 37.535 154.686 0 108.552 0zm0 200.4C93.165 188.934 39.89 144.806 39.89 83.672 39.89 45.806 70.691 15 108.552 15c37.864 0 68.668 30.806 68.668 68.672 0 61.134-53.28 105.262-68.668 116.728z" data-original="#000000" class="active-path" data-old_color="#000000" fill="#D1DA38"/><path d="M108.557 50.449c-18.31 0-33.206 14.897-33.206 33.209 0 18.307 14.896 33.201 33.206 33.201 18.31 0 33.205-14.894 33.205-33.201 0-18.311-14.896-33.209-33.205-33.209zm0 51.41c-10.039 0-18.206-8.165-18.206-18.201 0-10.041 8.167-18.209 18.206-18.209 10.038 0 18.205 8.168 18.205 18.209 0 10.036-8.167 18.201-18.205 18.201z" data-original="#000000" class="active-path" data-old_color="#000000" fill="#D1DA38"/></svg>