<svg id="Слой_1" data-name="Слой 1" xmlns="http://www.w3.org/2000/svg" viewBox="0 0 16 11.4"><title>email-icon</title><path d="M1.17-.2A1.05,1.05,0,0,0,.55,0L7.48,6.59a.74.74,0,0,0,1.06,0L15.45,0a1.05,1.05,0,0,0-.62-.21ZM.07.68A1.56,1.56,0,0,0,0,1.12V9.88a1.43,1.43,0,0,0,.19.72l5-5.08Zm15.86,0L10.87,5.51l4.94,5.09A1.43,1.43,0,0,0,16,9.88V1.12A1.56,1.56,0,0,0,15.93.68ZM10.27,6.09,9,7.26A1.47,1.47,0,0,1,7,7.26L5.74,6.1l-4.92,5a1,1,0,0,0,.35.06H14.83a1,1,0,0,0,.35-.06Z" transform="translate(0 0.2)" style="fill:#ff7c20"/></svg>