<svg width="350" height="36" viewBox="0 0 350 36" fill="none" xmlns="http://www.w3.org/2000/svg">
<path d="M4.16797 0.199707L6.55859 1.58838C5.55078 3.18213 5.0293 4.79932 4.99414 6.43994V9.37549H0.96875V6.73877C0.96875 5.63721 1.27344 4.46533 1.88281 3.22314C2.50391 1.96924 3.26562 0.961426 4.16797 0.199707ZM10.1973 0.199707L12.5879 1.58838C11.5801 3.18213 11.0586 4.79932 11.0234 6.43994V9.37549H6.99805V6.73877C6.99805 5.63721 7.30273 4.46533 7.91211 3.22314C8.5332 1.96924 9.29492 0.961426 10.1973 0.199707ZM39.6406 34.0903H34.7715V27.7974H19.3379V34.0728H14.3457L14.0645 23.561H15.998C17.041 22.6938 17.8438 21.4224 18.4062 19.7466C18.9805 18.0591 19.3672 15.9731 19.5664 13.4888L20.3047 2.20361H37.0742V23.561H40.0625L39.6406 34.0903ZM22.0449 23.561H31.8008V6.4751H25.3145L24.875 13.2075C24.5234 17.7192 23.5801 21.1704 22.0449 23.561ZM41.7148 18.1118C41.7148 16.2251 42.0781 14.5435 42.8047 13.0669C43.5312 11.5903 44.5742 10.4478 45.9336 9.63916C47.3047 8.83057 48.8926 8.42627 50.6973 8.42627C53.2637 8.42627 55.3555 9.21143 56.9727 10.7817C58.6016 12.3521 59.5098 14.4849 59.6973 17.1802L59.7324 18.481C59.7324 21.3989 58.918 23.7427 57.2891 25.5122C55.6602 27.27 53.4746 28.1489 50.7324 28.1489C47.9902 28.1489 45.7988 27.27 44.1582 25.5122C42.5293 23.7544 41.7148 21.3638 41.7148 18.3403V18.1118ZM46.7949 18.481C46.7949 20.2856 47.1348 21.6685 47.8145 22.6294C48.4941 23.5786 49.4668 24.0532 50.7324 24.0532C51.9629 24.0532 52.9238 23.5845 53.6152 22.647C54.3066 21.6978 54.6523 20.186 54.6523 18.1118C54.6523 16.3423 54.3066 14.9712 53.6152 13.9985C52.9238 13.0259 51.9512 12.5396 50.6973 12.5396C49.4551 12.5396 48.4941 13.0259 47.8145 13.9985C47.1348 14.9595 46.7949 16.4536 46.7949 18.481ZM79.3496 27.7974H74.252V20.4849H67.9414V27.7974H62.8613V8.77783H67.9414V16.4067H74.252V8.77783H79.3496V27.7974ZM92.7266 9.83252C95.1641 9.83252 97.1094 10.6411 98.5625 12.2583C100.016 13.8755 100.742 16.0728 100.742 18.8501V19.0962C100.742 21.8384 99.9336 24.0356 98.3164 25.688C96.6992 27.3403 94.5254 28.1665 91.7949 28.1665C89.0527 28.1665 86.8672 27.2759 85.2383 25.4946C83.6211 23.7017 82.8125 21.27 82.8125 18.1997V17.356C82.8359 13.0786 83.5566 9.73291 84.9746 7.31885C86.4043 4.89307 88.5488 3.36377 91.4082 2.73096C92.9082 2.40283 93.875 2.08057 94.3086 1.76416C94.7422 1.43604 94.959 0.984863 94.959 0.410645H99.0723C99.0723 2.25049 98.5742 3.6333 97.5781 4.55908C96.5938 5.48486 94.8359 6.19971 92.3047 6.70361C90.8047 7.0083 89.6211 7.6001 88.7539 8.479C87.8867 9.35791 87.3008 10.5942 86.9961 12.188C88.6133 10.6177 90.5234 9.83252 92.7266 9.83252ZM91.7598 13.9458C90.5527 13.9458 89.6035 14.3501 88.9121 15.1587C88.2324 15.9673 87.8926 17.2798 87.8926 19.0962C87.8926 20.7134 88.2266 21.9497 88.8945 22.8052C89.5625 23.6489 90.5293 24.0708 91.7949 24.0708C93.0254 24.0708 93.9746 23.6548 94.6426 22.8228C95.3105 21.9907 95.6504 20.7661 95.6621 19.1489V18.7271C95.6621 17.1685 95.3164 15.9849 94.625 15.1763C93.9453 14.356 92.9902 13.9458 91.7598 13.9458ZM114.805 27.7974C114.57 27.3403 114.4 26.772 114.295 26.0923C113.064 27.4634 111.465 28.1489 109.496 28.1489C107.633 28.1489 106.086 27.6099 104.855 26.5317C103.637 25.4536 103.027 24.0942 103.027 22.4536C103.027 20.438 103.771 18.8911 105.26 17.813C106.76 16.7349 108.922 16.1899 111.746 16.1782H114.084V15.0884C114.084 14.2095 113.855 13.5063 113.398 12.979C112.953 12.4517 112.244 12.188 111.271 12.188C110.416 12.188 109.742 12.3931 109.25 12.8032C108.77 13.2134 108.529 13.7759 108.529 14.4907H103.449C103.449 13.3892 103.789 12.3696 104.469 11.4321C105.148 10.4946 106.109 9.76221 107.352 9.23486C108.594 8.6958 109.988 8.42627 111.535 8.42627C113.879 8.42627 115.736 9.01807 117.107 10.2017C118.49 11.3735 119.182 13.0259 119.182 15.1587V23.4028C119.193 25.2075 119.445 26.5728 119.938 27.4985V27.7974H114.805ZM110.604 24.2642C111.354 24.2642 112.045 24.1001 112.678 23.772C113.311 23.4321 113.779 22.981 114.084 22.4185V19.1489H112.186C109.643 19.1489 108.289 20.0278 108.125 21.7856L108.107 22.0845C108.107 22.7173 108.33 23.2388 108.775 23.6489C109.221 24.0591 109.83 24.2642 110.604 24.2642ZM130.994 24.0532C131.932 24.0532 132.693 23.7954 133.279 23.2798C133.865 22.7642 134.17 22.0786 134.193 21.2231H138.957C138.945 22.5122 138.594 23.6958 137.902 24.7739C137.211 25.8403 136.262 26.6724 135.055 27.27C133.859 27.856 132.535 28.1489 131.082 28.1489C128.363 28.1489 126.219 27.2876 124.648 25.5649C123.078 23.8306 122.293 21.4399 122.293 18.3931V18.0591C122.293 15.1294 123.072 12.7915 124.631 11.0454C126.189 9.29932 128.328 8.42627 131.047 8.42627C133.426 8.42627 135.33 9.10596 136.76 10.4653C138.201 11.813 138.934 13.6118 138.957 15.8618H134.193C134.17 14.8774 133.865 14.0806 133.279 13.4712C132.693 12.8501 131.92 12.5396 130.959 12.5396C129.775 12.5396 128.879 12.9731 128.27 13.8403C127.672 14.6958 127.373 16.0903 127.373 18.0239V18.5513C127.373 20.5083 127.672 21.9146 128.27 22.77C128.867 23.6255 129.775 24.0532 130.994 24.0532ZM149.768 24.0532C150.705 24.0532 151.467 23.7954 152.053 23.2798C152.639 22.7642 152.943 22.0786 152.967 21.2231H157.73C157.719 22.5122 157.367 23.6958 156.676 24.7739C155.984 25.8403 155.035 26.6724 153.828 27.27C152.633 27.856 151.309 28.1489 149.855 28.1489C147.137 28.1489 144.992 27.2876 143.422 25.5649C141.852 23.8306 141.066 21.4399 141.066 18.3931V18.0591C141.066 15.1294 141.846 12.7915 143.404 11.0454C144.963 9.29932 147.102 8.42627 149.82 8.42627C152.199 8.42627 154.104 9.10596 155.533 10.4653C156.975 11.813 157.707 13.6118 157.73 15.8618H152.967C152.943 14.8774 152.639 14.0806 152.053 13.4712C151.467 12.8501 150.693 12.5396 149.732 12.5396C148.549 12.5396 147.652 12.9731 147.043 13.8403C146.445 14.6958 146.146 16.0903 146.146 18.0239V18.5513C146.146 20.5083 146.445 21.9146 147.043 22.77C147.641 23.6255 148.549 24.0532 149.768 24.0532ZM178.279 17.3384H175.238V27.7974H169.965V2.20361H175.238V12.4517H177.646L183.904 2.20361H190.338L182.445 14.3149L191.164 27.7974H184.871L178.279 17.3384ZM201.166 28.1489C198.377 28.1489 196.104 27.2935 194.346 25.5825C192.6 23.8716 191.727 21.5923 191.727 18.7446V18.2524C191.727 16.3423 192.096 14.6372 192.834 13.1372C193.572 11.6255 194.615 10.4653 195.963 9.65674C197.322 8.83643 198.869 8.42627 200.604 8.42627C203.205 8.42627 205.25 9.24658 206.738 10.8872C208.238 12.5278 208.988 14.854 208.988 17.8657V19.9399H196.877C197.041 21.1821 197.533 22.1782 198.354 22.9282C199.186 23.6782 200.234 24.0532 201.5 24.0532C203.457 24.0532 204.986 23.3442 206.088 21.9263L208.584 24.7212C207.822 25.7993 206.791 26.6431 205.49 27.2524C204.189 27.8501 202.748 28.1489 201.166 28.1489ZM200.586 12.5396C199.578 12.5396 198.758 12.8794 198.125 13.5591C197.504 14.2388 197.105 15.2114 196.93 16.4771H203.996V16.0728C203.973 14.9478 203.668 14.0806 203.082 13.4712C202.496 12.8501 201.664 12.5396 200.586 12.5396ZM229.01 18.4634C229.01 21.3931 228.342 23.7427 227.006 25.5122C225.682 27.27 223.889 28.1489 221.627 28.1489C219.705 28.1489 218.152 27.481 216.969 26.145V35.1099H211.889V8.77783H216.6L216.775 10.6411C218.006 9.16455 219.611 8.42627 221.592 8.42627C223.936 8.42627 225.758 9.29346 227.059 11.0278C228.359 12.7622 229.01 15.1528 229.01 18.1997V18.4634ZM223.93 18.0942C223.93 16.3247 223.613 14.9595 222.98 13.9985C222.359 13.0376 221.451 12.5571 220.256 12.5571C218.662 12.5571 217.566 13.1665 216.969 14.3853V22.1724C217.59 23.4263 218.697 24.0532 220.291 24.0532C222.717 24.0532 223.93 22.0669 223.93 18.0942ZM243.195 27.7974C242.961 27.3403 242.791 26.772 242.686 26.0923C241.455 27.4634 239.855 28.1489 237.887 28.1489C236.023 28.1489 234.477 27.6099 233.246 26.5317C232.027 25.4536 231.418 24.0942 231.418 22.4536C231.418 20.438 232.162 18.8911 233.65 17.813C235.15 16.7349 237.312 16.1899 240.137 16.1782H242.475V15.0884C242.475 14.2095 242.246 13.5063 241.789 12.979C241.344 12.4517 240.635 12.188 239.662 12.188C238.807 12.188 238.133 12.3931 237.641 12.8032C237.16 13.2134 236.92 13.7759 236.92 14.4907H231.84C231.84 13.3892 232.18 12.3696 232.859 11.4321C233.539 10.4946 234.5 9.76221 235.742 9.23486C236.984 8.6958 238.379 8.42627 239.926 8.42627C242.27 8.42627 244.127 9.01807 245.498 10.2017C246.881 11.3735 247.572 13.0259 247.572 15.1587V23.4028C247.584 25.2075 247.836 26.5728 248.328 27.4985V27.7974H243.195ZM238.994 24.2642C239.744 24.2642 240.436 24.1001 241.068 23.772C241.701 23.4321 242.17 22.981 242.475 22.4185V19.1489H240.576C238.033 19.1489 236.68 20.0278 236.516 21.7856L236.498 22.0845C236.498 22.7173 236.721 23.2388 237.166 23.6489C237.611 24.0591 238.221 24.2642 238.994 24.2642ZM263.059 21.8032L268.033 8.77783H274.396V27.7974H269.316V16.1255L264.764 27.7974H261.354L256.889 16.3188V27.7974H251.809V8.77783H258.119L263.059 21.8032ZM290.287 8.77783H295.367V27.7974H290.287V16.0552L283.924 27.7974H278.826V8.77783H283.924V20.5024L290.287 8.77783ZM306.705 20.7837H304.666V27.7974H299.586V8.77783H304.666V15.9321H306.477L310.625 8.77783H317.041L310.818 17.8306L317.621 27.7974H310.854L306.705 20.7837ZM330.559 27.7974C330.324 27.3403 330.154 26.772 330.049 26.0923C328.818 27.4634 327.219 28.1489 325.25 28.1489C323.387 28.1489 321.84 27.6099 320.609 26.5317C319.391 25.4536 318.781 24.0942 318.781 22.4536C318.781 20.438 319.525 18.8911 321.014 17.813C322.514 16.7349 324.676 16.1899 327.5 16.1782H329.838V15.0884C329.838 14.2095 329.609 13.5063 329.152 12.979C328.707 12.4517 327.998 12.188 327.025 12.188C326.17 12.188 325.496 12.3931 325.004 12.8032C324.523 13.2134 324.283 13.7759 324.283 14.4907H319.203C319.203 13.3892 319.543 12.3696 320.223 11.4321C320.902 10.4946 321.863 9.76221 323.105 9.23486C324.348 8.6958 325.742 8.42627 327.289 8.42627C329.633 8.42627 331.49 9.01807 332.861 10.2017C334.244 11.3735 334.936 13.0259 334.936 15.1587V23.4028C334.947 25.2075 335.199 26.5728 335.691 27.4985V27.7974H330.559ZM326.357 24.2642C327.107 24.2642 327.799 24.1001 328.432 23.772C329.064 23.4321 329.533 22.981 329.838 22.4185V19.1489H327.939C325.396 19.1489 324.043 20.0278 323.879 21.7856L323.861 22.0845C323.861 22.7173 324.084 23.2388 324.529 23.6489C324.975 24.0591 325.584 24.2642 326.357 24.2642ZM340.227 10.061L337.836 8.67236C338.844 7.09033 339.365 5.45557 339.4 3.76807V0.797363H343.443V3.52197C343.443 4.57666 343.15 5.71924 342.564 6.94971C341.979 8.18018 341.199 9.21729 340.227 10.061ZM346.326 10.061L343.936 8.67236C344.943 7.09033 345.465 5.45557 345.5 3.76807V0.797363H349.543V3.52197C349.543 4.57666 349.25 5.71924 348.664 6.94971C348.078 8.18018 347.299 9.21729 346.326 10.061Z" fill="#2D3F8B"/>
</svg>
