<svg width="347" height="89" viewBox="0 0 347 89" fill="none" xmlns="http://www.w3.org/2000/svg">
<g clip-path="url(#clip0_157:1058)">
<path d="M31.3934 53.4718C30.295 55.3404 31.6687 57.6743 33.8682 57.6743H46.0816H58.295C60.4945 57.6743 61.8682 55.3404 60.7698 53.4718L59.576 51.4454C58.9246 50.336 57.7172 49.6543 56.4116 49.6543H49.2651C47.0655 49.6543 45.6918 47.3204 46.7903 45.4518L50.2708 39.5383C50.9795 38.3327 50.9795 36.8463 50.2708 35.6406L48.551 32.7213C47.4526 30.8527 44.7025 30.8527 43.604 32.7213L37.496 43.0966L31.3934 53.4718Z" fill="#00A0D7"/>
<path d="M31.1644 24.2715C33.8437 19.9381 36.7328 14.955 37.7767 13.3162C38.8206 11.6774 39.4475 8.5737 39.1341 5.29618C38.9951 3.83387 38.7198 2.63354 38.4608 1.75133C38.1665 0.754179 37.1389 0.152677 36.1032 0.374564C33.5003 0.935966 28.2835 2.35818 22.6633 5.56886C18.5149 7.93744 13.6552 11.894 10.5071 15.8986C4.42907 23.6353 2.78826 28.7333 1.50723 33.3716C-0.163555 39.424 -0.0218243 47.7461 0.0217852 48.2273C0.256186 50.8445 0.0544924 52.887 1.69257 55.031C3.14804 56.9371 6.44874 56.643 9.1389 56.643C10.2182 56.643 12.445 53.7237 15.4377 49.0133C18.4305 44.3029 28.4852 28.605 31.1644 24.2715Z" fill="#00A0D7"/>
<path d="M91.9861 50.071C90.6505 49.6727 90.2117 49.1621 88.4946 46.978C86.7774 44.7938 84.2263 40.062 81.1654 34.4641C78.1046 28.8661 76.1095 25.2731 71.9802 18.0364C67.8509 10.8023 68.2679 8.38831 68.2679 5.61339C68.2679 2.83846 65.2289 2.35993 61.4839 0.993856C57.739 -0.372221 55.7629 -0.233207 55.5558 6.18281C55.3459 12.5988 56.5997 14.4408 59.7995 20.0387C62.9993 25.6367 71.9502 44.195 77.475 52.8005C81.3017 58.762 89.5467 58.2728 90.2444 57.8184C93.1281 55.9337 93.8149 50.6191 91.9861 50.071Z" fill="#00A0D7"/>
<path d="M79.4211 73.1421H14.3148C13.4181 73.1421 12.9656 74.2061 13.598 74.829C22.0936 83.2152 33.8628 88.4069 46.8666 88.4069C59.8704 88.4069 71.6395 83.2126 80.1352 74.829C80.7702 74.2061 80.3178 73.1421 79.4211 73.1421Z" fill="#00A0D7"/>
</g>
<path d="M112.307 32.7153L114.299 33.8726C113.459 35.2007 113.024 36.5483 112.995 37.9155V40.3618H109.641V38.1646C109.641 37.2466 109.895 36.27 110.402 35.2349C110.92 34.1899 111.555 33.3501 112.307 32.7153ZM117.331 32.7153L119.323 33.8726C118.483 35.2007 118.049 36.5483 118.02 37.9155V40.3618H114.665V38.1646C114.665 37.2466 114.919 36.27 115.427 35.2349C115.944 34.1899 116.579 33.3501 117.331 32.7153ZM122.092 55.7134V34.3853H129.562C132.15 34.3853 134.113 34.8833 135.451 35.8794C136.789 36.8657 137.458 38.3159 137.458 40.23C137.458 41.2749 137.189 42.1978 136.652 42.9985C136.115 43.7896 135.368 44.3706 134.411 44.7417C135.505 45.0151 136.364 45.5669 136.989 46.397C137.624 47.2271 137.941 48.2427 137.941 49.4438C137.941 51.4946 137.287 53.0474 135.979 54.1021C134.67 55.1567 132.805 55.6938 130.383 55.7134H122.092ZM126.486 46.4263V52.1831H130.251C131.286 52.1831 132.092 51.939 132.668 51.4507C133.254 50.9526 133.547 50.269 133.547 49.3999C133.547 47.4468 132.536 46.4556 130.515 46.4263H126.486ZM126.486 43.3208H129.738C131.955 43.2817 133.063 42.3979 133.063 40.6694C133.063 39.7026 132.78 39.0093 132.214 38.5894C131.657 38.1597 130.773 37.9448 129.562 37.9448H126.486V43.3208ZM140.314 47.6421C140.314 46.0698 140.617 44.6685 141.223 43.438C141.828 42.2075 142.697 41.2554 143.83 40.5815C144.973 39.9077 146.296 39.5708 147.8 39.5708C149.938 39.5708 151.682 40.2251 153.029 41.5337C154.387 42.8423 155.144 44.6196 155.3 46.8657L155.329 47.9497C155.329 50.3813 154.65 52.3345 153.293 53.8091C151.936 55.2739 150.114 56.0063 147.829 56.0063C145.544 56.0063 143.718 55.2739 142.351 53.8091C140.993 52.3442 140.314 50.3521 140.314 47.8325V47.6421ZM144.548 47.9497C144.548 49.4536 144.831 50.606 145.397 51.4067C145.964 52.1978 146.774 52.5933 147.829 52.5933C148.854 52.5933 149.655 52.2026 150.231 51.4214C150.808 50.6304 151.096 49.3706 151.096 47.6421C151.096 46.1675 150.808 45.0249 150.231 44.2144C149.655 43.4038 148.845 42.9985 147.8 42.9985C146.765 42.9985 145.964 43.4038 145.397 44.2144C144.831 45.0151 144.548 46.2603 144.548 47.9497ZM157.102 52.3003C158.059 51.2847 158.708 50.2788 159.05 49.2827C159.392 48.2866 159.582 46.8755 159.621 45.0493L159.738 39.8638H171.398V52.3003H173.684V60.4741H169.45V55.7134H160.061V60.4741H155.739V52.3003H157.102ZM162.097 52.3003H167.18V43.3647H163.884L163.854 45.269C163.767 48.1792 163.181 50.5229 162.097 52.3003ZM185.021 55.7134C184.826 55.3325 184.685 54.8589 184.597 54.2925C183.571 55.4351 182.238 56.0063 180.598 56.0063C179.045 56.0063 177.756 55.5571 176.73 54.6587C175.715 53.7603 175.207 52.6274 175.207 51.2603C175.207 49.5806 175.827 48.2915 177.067 47.3931C178.317 46.4946 180.119 46.0405 182.473 46.0308H184.421V45.1226C184.421 44.3901 184.23 43.8042 183.85 43.3647C183.479 42.9253 182.888 42.7056 182.077 42.7056C181.364 42.7056 180.803 42.8765 180.393 43.2183C179.992 43.5601 179.792 44.0288 179.792 44.6245H175.559C175.559 43.7065 175.842 42.8569 176.408 42.0757C176.975 41.2944 177.775 40.6841 178.811 40.2446C179.846 39.7954 181.008 39.5708 182.297 39.5708C184.25 39.5708 185.798 40.064 186.94 41.0503C188.093 42.0269 188.669 43.4038 188.669 45.1812V52.0513C188.679 53.5552 188.889 54.6929 189.299 55.4644V55.7134H185.021ZM181.521 52.769C182.146 52.769 182.722 52.6323 183.249 52.3589C183.776 52.0757 184.167 51.6997 184.421 51.231V48.5063H182.839C180.72 48.5063 179.592 49.2388 179.455 50.7036L179.44 50.9526C179.44 51.48 179.626 51.9146 179.997 52.2563C180.368 52.5981 180.876 52.769 181.521 52.769ZM219.445 60.9575H215.388V55.7134H202.526V60.9429H198.366L198.132 52.1831H199.743C200.612 51.4604 201.281 50.4009 201.75 49.0044C202.229 47.5981 202.551 45.8599 202.717 43.7896L203.332 34.3853H217.307V52.1831H219.797L219.445 60.9575ZM204.782 52.1831H212.912V37.9448H207.507L207.141 43.5552C206.848 47.3149 206.062 50.1909 204.782 52.1831ZM221.174 47.6421C221.174 46.0698 221.477 44.6685 222.082 43.438C222.688 42.2075 223.557 41.2554 224.689 40.5815C225.832 39.9077 227.155 39.5708 228.659 39.5708C230.798 39.5708 232.541 40.2251 233.889 41.5337C235.246 42.8423 236.003 44.6196 236.159 46.8657L236.188 47.9497C236.188 50.3813 235.51 52.3345 234.152 53.8091C232.795 55.2739 230.974 56.0063 228.688 56.0063C226.403 56.0063 224.577 55.2739 223.21 53.8091C221.853 52.3442 221.174 50.3521 221.174 47.8325V47.6421ZM225.407 47.9497C225.407 49.4536 225.69 50.606 226.257 51.4067C226.823 52.1978 227.634 52.5933 228.688 52.5933C229.714 52.5933 230.515 52.2026 231.091 51.4214C231.667 50.6304 231.955 49.3706 231.955 47.6421C231.955 46.1675 231.667 45.0249 231.091 44.2144C230.515 43.4038 229.704 42.9985 228.659 42.9985C227.624 42.9985 226.823 43.4038 226.257 44.2144C225.69 45.0151 225.407 46.2603 225.407 47.9497ZM252.536 55.7134H248.288V49.6196H243.029V55.7134H238.796V39.8638H243.029V46.2212H248.288V39.8638H252.536V55.7134ZM263.684 40.7427C265.715 40.7427 267.336 41.4165 268.547 42.7642C269.758 44.1118 270.363 45.9429 270.363 48.2573V48.4624C270.363 50.7476 269.689 52.5786 268.342 53.9556C266.994 55.3325 265.183 56.021 262.907 56.021C260.622 56.021 258.801 55.2788 257.443 53.7944C256.096 52.3003 255.422 50.2739 255.422 47.7153V47.0122C255.441 43.4478 256.042 40.6597 257.224 38.6479C258.415 36.6265 260.202 35.3521 262.585 34.8247C263.835 34.5513 264.641 34.2827 265.002 34.019C265.363 33.7456 265.544 33.3696 265.544 32.8911H268.972C268.972 34.4243 268.557 35.5767 267.727 36.3481C266.906 37.1196 265.441 37.7153 263.332 38.1353C262.082 38.3892 261.096 38.8823 260.373 39.6147C259.65 40.3472 259.162 41.3774 258.908 42.7056C260.256 41.397 261.848 40.7427 263.684 40.7427ZM262.878 44.1704C261.872 44.1704 261.081 44.5073 260.505 45.1812C259.938 45.855 259.655 46.9487 259.655 48.4624C259.655 49.8101 259.934 50.8403 260.49 51.5532C261.047 52.2563 261.853 52.6079 262.907 52.6079C263.933 52.6079 264.724 52.2612 265.28 51.5679C265.837 50.8745 266.12 49.854 266.13 48.5063V48.1548C266.13 46.856 265.842 45.8696 265.266 45.1958C264.699 44.5122 263.903 44.1704 262.878 44.1704ZM282.082 55.7134C281.887 55.3325 281.745 54.8589 281.657 54.2925C280.632 55.4351 279.299 56.0063 277.658 56.0063C276.105 56.0063 274.816 55.5571 273.791 54.6587C272.775 53.7603 272.268 52.6274 272.268 51.2603C272.268 49.5806 272.888 48.2915 274.128 47.3931C275.378 46.4946 277.18 46.0405 279.533 46.0308H281.481V45.1226C281.481 44.3901 281.291 43.8042 280.91 43.3647C280.539 42.9253 279.948 42.7056 279.138 42.7056C278.425 42.7056 277.863 42.8765 277.453 43.2183C277.053 43.5601 276.853 44.0288 276.853 44.6245H272.619C272.619 43.7065 272.902 42.8569 273.469 42.0757C274.035 41.2944 274.836 40.6841 275.871 40.2446C276.906 39.7954 278.068 39.5708 279.357 39.5708C281.311 39.5708 282.858 40.064 284.001 41.0503C285.153 42.0269 285.729 43.4038 285.729 45.1812V52.0513C285.739 53.5552 285.949 54.6929 286.359 55.4644V55.7134H282.082ZM278.581 52.769C279.206 52.769 279.782 52.6323 280.31 52.3589C280.837 52.0757 281.228 51.6997 281.481 51.231V48.5063H279.899C277.78 48.5063 276.652 49.2388 276.516 50.7036L276.501 50.9526C276.501 51.48 276.687 51.9146 277.058 52.2563C277.429 52.5981 277.937 52.769 278.581 52.769ZM295.573 52.5933C296.354 52.5933 296.989 52.3784 297.478 51.9487C297.966 51.519 298.22 50.9478 298.239 50.2349H302.209C302.199 51.3091 301.906 52.2954 301.33 53.1938C300.754 54.0825 299.963 54.7759 298.957 55.2739C297.961 55.7622 296.857 56.0063 295.646 56.0063C293.381 56.0063 291.594 55.2886 290.285 53.853C288.977 52.4077 288.322 50.4155 288.322 47.8765V47.5981C288.322 45.1567 288.972 43.2085 290.271 41.7534C291.569 40.2983 293.352 39.5708 295.617 39.5708C297.6 39.5708 299.187 40.1372 300.378 41.27C301.579 42.3931 302.189 43.8921 302.209 45.7671H298.239C298.22 44.9468 297.966 44.2827 297.478 43.7749C296.989 43.2573 296.345 42.9985 295.544 42.9985C294.558 42.9985 293.811 43.3599 293.303 44.0825C292.805 44.7954 292.556 45.9575 292.556 47.5688V48.0083C292.556 49.6392 292.805 50.811 293.303 51.5239C293.801 52.2368 294.558 52.5933 295.573 52.5933ZM311.218 52.5933C311.999 52.5933 312.634 52.3784 313.122 51.9487C313.61 51.519 313.864 50.9478 313.884 50.2349H317.854C317.844 51.3091 317.551 52.2954 316.975 53.1938C316.398 54.0825 315.607 54.7759 314.602 55.2739C313.605 55.7622 312.502 56.0063 311.291 56.0063C309.025 56.0063 307.238 55.2886 305.93 53.853C304.621 52.4077 303.967 50.4155 303.967 47.8765V47.5981C303.967 45.1567 304.616 43.2085 305.915 41.7534C307.214 40.2983 308.996 39.5708 311.262 39.5708C313.244 39.5708 314.831 40.1372 316.022 41.27C317.224 42.3931 317.834 43.8921 317.854 45.7671H313.884C313.864 44.9468 313.61 44.2827 313.122 43.7749C312.634 43.2573 311.989 42.9985 311.188 42.9985C310.202 42.9985 309.455 43.3599 308.947 44.0825C308.449 44.7954 308.2 45.9575 308.2 47.5688V48.0083C308.2 49.6392 308.449 50.811 308.947 51.5239C309.445 52.2368 310.202 52.5933 311.218 52.5933ZM329.455 55.7134C329.26 55.3325 329.118 54.8589 329.03 54.2925C328.005 55.4351 326.672 56.0063 325.031 56.0063C323.479 56.0063 322.189 55.5571 321.164 54.6587C320.148 53.7603 319.641 52.6274 319.641 51.2603C319.641 49.5806 320.261 48.2915 321.501 47.3931C322.751 46.4946 324.553 46.0405 326.906 46.0308H328.854V45.1226C328.854 44.3901 328.664 43.8042 328.283 43.3647C327.912 42.9253 327.321 42.7056 326.511 42.7056C325.798 42.7056 325.236 42.8765 324.826 43.2183C324.426 43.5601 324.226 44.0288 324.226 44.6245H319.992C319.992 43.7065 320.275 42.8569 320.842 42.0757C321.408 41.2944 322.209 40.6841 323.244 40.2446C324.279 39.7954 325.441 39.5708 326.73 39.5708C328.684 39.5708 330.231 40.064 331.374 41.0503C332.526 42.0269 333.103 43.4038 333.103 45.1812V52.0513C333.112 53.5552 333.322 54.6929 333.732 55.4644V55.7134H329.455ZM325.954 52.769C326.579 52.769 327.155 52.6323 327.683 52.3589C328.21 52.0757 328.601 51.6997 328.854 51.231V48.5063H327.272C325.153 48.5063 324.025 49.2388 323.889 50.7036L323.874 50.9526C323.874 51.48 324.06 51.9146 324.431 52.2563C324.802 52.5981 325.31 52.769 325.954 52.769ZM337.512 40.9331L335.52 39.7759C336.359 38.4575 336.794 37.0952 336.823 35.689V33.2134H340.192V35.4839C340.192 36.3628 339.948 37.3149 339.46 38.3403C338.972 39.3657 338.322 40.23 337.512 40.9331ZM342.595 40.9331L340.603 39.7759C341.442 38.4575 341.877 37.0952 341.906 35.689V33.2134H345.275V35.4839C345.275 36.3628 345.031 37.3149 344.543 38.3403C344.055 39.3657 343.405 40.23 342.595 40.9331Z" fill="#2D3F8B"/>
<defs>
<clipPath id="clip0_157:1058">
<rect width="93" height="88.1079" fill="white" transform="translate(0 0.301758)"/>
</clipPath>
</defs>
</svg>
