<svg xmlns="http://www.w3.org/2000/svg" viewBox="0 0 184 184" width="16" height="16"><path d="M160.746 24.61H23.254C10.432 24.61 0 35.042 0 47.864v88.271c0 12.822 10.432 23.254 23.254 23.254h137.492c12.822 0 23.254-10.432 23.254-23.254V47.864c0-12.822-10.432-23.254-23.254-23.254zm-3.633 15L92 89.909 26.887 39.61h130.226zm3.633 104.78H23.254c-4.551 0-8.254-3.703-8.254-8.254V49.382l72.415 55.94c1.35 1.043 2.968 1.564 4.585 1.564s3.235-.521 4.585-1.564L169 49.382v86.753c0 4.552-3.703 8.255-8.254 8.255z" data-original="#1D1D1B" class="active-path" data-old_color="#1D1D1B" fill="#D1DA38"/></svg>