<svg width="50" height="50" viewBox="0 0 50 50" fill="none" xmlns="http://www.w3.org/2000/svg">
<path d="M35.0237 17.6522C34.5018 17.7987 34.088 17.7804 34.088 17.7804L34.106 17.6705C34.5919 17.2675 35.8155 16.0584 35.9775 15.4905C36.0495 15.2524 35.9595 15.1607 35.9595 15.1607L34.3938 15.8386L33.0802 16.4431C32.1805 15.4722 30.8128 14.8494 29.2832 14.8494C26.5659 14.8494 24.3525 16.8095 24.3525 19.2277C24.3525 19.6673 24.4245 20.4734 24.5505 20.8764C24.5505 21.0046 24.5505 20.7482 24.5505 20.8764C22.8049 20.8214 20.5555 20.0887 18.558 19.0628C14.617 17.0294 14.3651 15.6187 14.3651 15.6187C13.7533 16.2965 13.4293 18.5132 14.0592 20.2536C14.4551 21.371 15.8408 22.3603 15.8408 22.3603C15.8408 22.3603 15.2289 22.3786 14.5811 22.1404C13.9333 21.9206 13.6813 21.7008 13.6813 21.7008C13.3034 22.6534 14.0772 24.357 15.4088 25.5844C16.1826 26.2988 17.6043 26.7386 17.6043 26.7386L15.3909 26.7935C15.2649 28.9918 19.9076 30.2925 19.9076 30.2925C18.54 31.355 16.9564 32.0145 15.2649 32.0145C14.3831 32.0145 13.5373 31.8862 12.7275 31.6297C14.959 33.5166 17.8383 34.7991 20.9694 34.6342C29.2653 34.1945 33.962 26.9217 34.1779 19.7772L34.196 19.7956C34.196 19.7956 34.5918 19.594 35.4196 18.7513C36.2474 17.9086 36.7693 16.9194 36.7693 16.9194C36.7693 16.9194 35.5455 17.5056 35.0237 17.6522ZM35.9595 15.1607C35.9595 15.1791 35.9775 15.289 35.9595 15.1607V15.1607Z" fill="white"/>
<circle cx="24.7488" cy="24.7488" r="24.2488" stroke="white"/>
</svg>
