<svg width="51" height="50" viewBox="0 0 51 50" fill="none" xmlns="http://www.w3.org/2000/svg">
<path d="M17.3848 12.7278C15.8448 12.7278 14.8354 13.7372 14.8354 15.0701C14.8354 16.3771 15.8189 17.4123 17.3201 17.4123H17.346C18.9119 17.4123 19.8954 16.3771 19.8954 15.0701C19.8695 13.7372 18.9248 12.7278 17.3848 12.7278Z" fill="white"/>
<path d="M15.0942 19.2637H19.5977V32.8129H15.0942V19.2637Z" fill="white"/>
<path d="M30.6621 18.9399C28.2292 18.9399 26.5987 21.2176 26.5987 21.2176V19.2505H22.0952V32.7998H26.5987V25.2293C26.5987 24.8281 26.6246 24.414 26.741 24.1293C27.0645 23.314 27.8022 22.4858 29.0574 22.4858C30.688 22.4858 31.3351 23.7281 31.3351 25.5528V32.7998H35.8385V25.0222C35.8515 20.8811 33.6256 18.9399 30.6621 18.9399Z" fill="white"/>
<circle cx="25.4427" cy="24.7488" r="24.2488" stroke="white"/>
</svg>
