<svg width="30" height="23" viewBox="0 0 30 23" fill="none" xmlns="http://www.w3.org/2000/svg">
<path d="M27.5 0H2.50002C1.12119 0 0 1.12119 0 2.50002V20C0 21.3788 1.12119 22.5 2.50002 22.5H27.5C28.8788 22.5 30 21.3788 30 20V2.50002C30 1.12119 28.8788 0 27.5 0ZM2.50002 1.24998H27.5C27.5921 1.24998 27.6733 1.28355 27.7597 1.30254C25.5953 3.28342 18.4185 9.84896 15.907 12.1118C15.7105 12.2888 15.3938 12.5 15.0001 12.5C14.6064 12.5 14.2896 12.2888 14.0924 12.1112C11.5812 9.84873 4.40396 3.28283 2.23992 1.30266C2.32652 1.28367 2.40785 1.24998 2.50002 1.24998ZM1.24998 20V2.50002C1.24998 2.37756 1.28689 2.26646 1.31994 2.15455C2.9765 3.67072 7.98416 8.25182 11.2312 11.2045C7.99471 13.9846 2.98576 18.7335 1.31602 20.3258C1.28654 20.2195 1.24998 20.1155 1.24998 20ZM27.5 21.25H2.50002C2.40018 21.25 2.31141 21.2152 2.21818 21.1929C3.94359 19.5481 8.98441 14.7719 12.164 12.0518C12.5785 12.4278 12.9571 12.7706 13.2556 13.0396C13.7708 13.5047 14.3737 13.75 15 13.75C15.6263 13.75 16.2292 13.5046 16.7438 13.0402C17.0423 12.7711 17.4213 12.428 17.836 12.0518C21.0158 14.7716 26.0559 19.5475 27.7818 21.1929C27.6886 21.2152 27.5999 21.25 27.5 21.25ZM28.75 20C28.75 20.1155 28.7135 20.2195 28.684 20.3258C27.0137 18.7327 22.0053 13.9843 18.7689 11.2046C22.016 8.25187 27.0229 3.67119 28.6801 2.15443C28.7131 2.26635 28.75 2.3775 28.75 2.49996V20Z" fill="white"/>
</svg>
