<svg width="30" height="30" viewBox="0 0 30 30" fill="none" xmlns="http://www.w3.org/2000/svg">
<path d="M25.7223 30C25.6612 30 25.6001 30 25.539 30C21.2009 29.5723 14.7855 27.6782 8.55328 21.446C2.32111 15.2138 0.488112 8.73726 -0.000685902 4.46027C-0.0617857 3.78818 0.304813 3.17718 0.854711 2.87168L6.53699 0.183289C7.27019 -0.18331 8.18669 0.0610893 8.61438 0.794287L12.1582 6.29327C12.5859 6.96537 12.4637 7.75966 11.9138 8.30956L9.77528 10.4481C9.71418 10.5092 9.65308 10.6314 9.65308 10.7536C9.77528 11.7311 10.3863 14.3584 13.0136 16.9857C15.6409 19.613 18.2682 20.224 19.2457 20.3462C19.3679 20.3462 19.4901 20.3462 19.5512 20.224L21.7508 18.0244C22.3007 17.4745 23.095 17.4134 23.706 17.78L29.205 21.3238C29.8771 21.7515 30.1215 22.668 29.7549 23.4012L27.0665 29.0835C26.8832 29.6334 26.3333 30 25.7223 30ZM7.27019 1.22199C7.20909 1.22199 7.14799 1.22199 7.08689 1.28309L1.40461 3.97148C1.28241 4.03258 1.22131 4.15478 1.22131 4.33807C1.64901 8.43176 3.4209 14.6028 9.40868 20.5906C15.3965 26.5784 21.5675 28.3503 25.6612 28.778C25.8445 28.778 25.9667 28.7169 26.0278 28.5947L28.7162 22.9124C28.8384 22.7291 28.7773 22.4847 28.594 22.4236L23.095 18.8798C22.9728 18.8187 22.7284 18.8187 22.6062 18.9409L20.4066 21.1405C20.04 21.5071 19.5512 21.6293 19.0624 21.5682C17.9627 21.446 15.0299 20.7739 12.0971 17.9022C9.22538 15.0305 8.55328 12.0977 8.43109 10.9369C8.36999 10.4481 8.55328 9.95926 8.91988 9.59266L11.1195 7.39306C11.2417 7.27086 11.2417 7.08757 11.1806 6.90427L7.63679 1.40528C7.57569 1.28309 7.39239 1.22199 7.27019 1.22199Z" fill="white"/>
</svg>
