<svg id="Twitter" xmlns="http://www.w3.org/2000/svg" width="52.5" height="52.5" viewBox="0 0 52.5 52.5">
  <defs>
    <style>
      .cls-1 {
        fill: #151515;
      }

      .cls-1, .cls-2 {
        fill-rule: evenodd;
      }

      .cls-2 {
        fill: #cbbdff;
      }
    </style>
  </defs>
  <path id="BG" class="cls-1" d="M1828.93,1004.74h0.03a26.245,26.245,0,0,1,26.24,26.25v0.02a26.245,26.245,0,0,1-26.24,26.25h-0.03a26.245,26.245,0,0,1-26.24-26.25v-0.02A26.245,26.245,0,0,1,1828.93,1004.74Z" transform="translate(-1802.69 -1004.75)"/>
  <path id="fa-twitter" class="cls-2" d="M1838.14,1025.01a4.926,4.926,0,0,0,2.2-2.79,9.625,9.625,0,0,1-3.18,1.22,5.012,5.012,0,0,0-8.67,3.46,5.763,5.763,0,0,0,.12,1.15,13.81,13.81,0,0,1-5.76-1.55,14.162,14.162,0,0,1-4.57-3.73,4.93,4.93,0,0,0-.69,2.55,5.05,5.05,0,0,0,2.24,4.2,4.91,4.91,0,0,1-2.27-.64v0.07a5.033,5.033,0,0,0,4.02,4.95,5.35,5.35,0,0,1-2.26.09,4.985,4.985,0,0,0,1.77,2.5,4.832,4.832,0,0,0,2.91,1,9.746,9.746,0,0,1-6.22,2.16,11.123,11.123,0,0,1-1.21-.06,13.857,13.857,0,0,0,7.7,2.27,14.569,14.569,0,0,0,5.01-.86,12.484,12.484,0,0,0,4-2.28,15.012,15.012,0,0,0,2.86-3.29,14.623,14.623,0,0,0,1.79-3.88,14.2,14.2,0,0,0,.59-4.06c0-.29,0-0.51-0.01-0.66a10.225,10.225,0,0,0,2.51-2.61,10,10,0,0,1-2.88.79h0Z" transform="translate(-1802.69 -1004.75)"/>
</svg>
