<svg width="64" height="64" viewBox="0 0 64 64" fill="none" xmlns="http://www.w3.org/2000/svg">
<g clip-path="url(#clip0)">
<path d="M36.8363 31.0265C37.163 30.3297 37.3327 29.5696 37.3333 28.8C37.3333 25.8545 34.9454 23.4667 31.9999 23.4667C29.0545 23.4667 26.6666 25.8545 26.6666 28.8C26.6671 29.5696 26.8367 30.3297 27.1635 31.0265C23.8019 31.588 21.3374 34.4949 21.3333 37.9031V48C21.3331 48.5889 21.8105 49.0665 22.3994 49.0667C22.3995 49.0667 22.3998 49.0667 22.3999 49.0667H25.5999V62.9333C25.5998 63.5223 26.0771 63.9999 26.6661 64C26.6662 64 26.6665 64 26.6666 64H37.3333C37.9222 64.0001 38.3998 63.5228 38.3999 62.9339C38.3999 62.9337 38.3999 62.9335 38.3999 62.9333V49.0667H41.5999C42.1889 49.0668 42.6665 48.5895 42.6666 48.0005C42.6666 48.0004 42.6666 48.0001 42.6666 48V37.9031C42.6626 34.4951 40.1979 31.5881 36.8363 31.0265ZM40.5333 46.9333H38.3999V36.2667H36.2666V61.8667H33.0666V46.9333H30.9333V61.8667H27.7333V36.2667H25.5999V46.9333H23.4666V37.9031C23.4697 35.2332 25.6333 33.0697 28.303 33.0667H29.2051C29.7942 33.0669 30.2719 32.5896 30.2722 32.0007C30.2723 31.6927 30.1393 31.3996 29.9073 31.1969C29.2053 30.5984 28.8006 29.7225 28.7999 28.8C28.7999 27.0327 30.2326 25.6 31.9999 25.6C33.7673 25.6 35.1999 27.0327 35.1999 28.8C35.1993 29.7225 34.7946 30.5984 34.0926 31.1969C33.649 31.5844 33.6034 32.2581 33.991 32.7017C34.1937 32.9337 34.4867 33.0668 34.7947 33.0667H35.6968C38.3667 33.0697 40.5302 35.2333 40.5333 37.9031V46.9333Z" fill="#FB770A"/>
<path d="M61.6874 26.0615C61.9133 25.3716 61.9238 24.6293 61.7177 23.9333C61.3405 22.7091 60.3523 21.7699 59.1103 21.4552C57.9603 21.1548 56.7361 21.4047 55.7958 22.1317C54.9171 22.8065 54.4015 23.8509 54.3999 24.9588C54.3995 25.3337 54.4589 25.7063 54.5759 26.0624C53.2238 26.4307 52.2807 27.6521 52.2666 29.0536V35.1953C52.2665 35.7843 52.7438 36.2619 53.3327 36.262C53.3329 36.262 53.3331 36.262 53.3333 36.262H54.3999V41.6C54.3998 42.1889 54.8771 42.6665 55.4661 42.6667C55.4662 42.6667 55.4665 42.6667 55.4666 42.6667H60.7999C61.3889 42.6668 61.8665 42.1895 61.8666 41.6005C61.8666 41.6004 61.8666 41.6001 61.8666 41.6V36.262H62.9333C63.5222 36.2621 63.9998 35.7848 63.9999 35.1959C63.9999 35.1957 63.9999 35.1955 63.9999 35.1953V29.0536C63.9861 27.6509 63.0413 26.4285 61.6874 26.0615ZM61.8666 34.1287H60.7999C60.211 34.1285 59.7334 34.6059 59.7333 35.1948C59.7333 35.1949 59.7333 35.1952 59.7333 35.1953V40.5333H56.5333V35.1953C56.5334 34.6064 56.0561 34.1288 55.4671 34.1287C55.467 34.1287 55.4667 34.1287 55.4666 34.1287H54.3999V29.0536C54.4251 28.4889 54.9018 28.0507 55.4666 28.0729H56.5478C57.1369 28.0729 57.6143 27.5955 57.6142 27.0064C57.6142 26.662 57.4478 26.3388 57.1675 26.1385C56.5139 25.7041 56.3363 24.8223 56.7707 24.1687C56.8618 24.0316 56.9759 23.9115 57.1082 23.8135C57.5314 23.4932 58.079 23.3867 58.5915 23.5249C59.0995 23.652 59.5067 24.0309 59.6697 24.5285C59.8578 25.1323 59.6254 25.7877 59.0989 26.1379C58.6194 26.4803 58.5083 27.1465 58.8507 27.626C59.051 27.9064 59.3742 28.0728 59.7187 28.0728H60.7999C61.3647 28.0507 61.8414 28.4888 61.8666 29.0535V34.1287Z" fill="#FB770A"/>
<path d="M9.4208 26.0614C9.64667 25.3715 9.6572 24.6293 9.45107 23.9333C9.07387 22.709 8.08573 21.7698 6.84373 21.4551C5.69373 21.1549 4.46947 21.4047 3.5292 22.1317C2.65053 22.8065 2.13493 23.8509 2.13333 24.9587C2.13293 25.3337 2.19227 25.7062 2.30933 26.0623C0.9572 26.4307 0.0141334 27.6522 2.79262e-08 29.0535V35.1953C-0.000133305 35.7842 0.4772 36.2618 1.06613 36.2619C1.06627 36.2619 1.06653 36.2619 1.06667 36.2619H2.13333V41.5999C2.1332 42.1889 2.61053 42.6665 3.19947 42.6666C3.1996 42.6666 3.19987 42.6666 3.2 42.6666H8.53333C9.12227 42.6667 9.59987 42.1894 9.6 41.6005C9.6 41.6003 9.6 41.6001 9.6 41.5999V36.2619H10.6667C11.2556 36.2621 11.7332 35.7847 11.7333 35.1958C11.7333 35.1957 11.7333 35.1954 11.7333 35.1953V29.0535C11.7195 27.6509 10.7747 26.4285 9.4208 26.0614ZM9.6 34.1286H8.53333C7.9444 34.1285 7.4668 34.6058 7.46667 35.1947C7.46667 35.1949 7.46667 35.1951 7.46667 35.1953V40.5333H4.26667V35.1953C4.2668 34.6063 3.78947 34.1287 3.20053 34.1286C3.2004 34.1286 3.20013 34.1286 3.2 34.1286H2.13333V29.0535C2.15853 28.4889 2.6352 28.0506 3.2 28.0729H4.2812C4.87027 28.0729 5.34773 27.5954 5.3476 27.0063C5.3476 26.6619 5.1812 26.3387 4.90093 26.1385C4.24733 25.7041 4.06973 24.8222 4.50413 24.1686C4.5952 24.0315 4.70933 23.9114 4.8416 23.8134C5.2648 23.4931 5.81253 23.3866 6.32493 23.5249C6.83293 23.6518 7.24013 24.0309 7.40307 24.5285C7.5912 25.1322 7.3588 25.7877 6.83227 26.1378C6.3528 26.4802 6.24173 27.1465 6.58413 27.6259C6.7844 27.9063 7.1076 28.0727 7.45213 28.0727H8.53333C9.09813 28.0506 9.5748 28.4887 9.6 29.0534V34.1286Z" fill="#FB770A"/>
<path d="M15.8779 1.32187C15.1188 0.482667 14.0408 0.00266667 12.9092 0H12.9081C11.7759 0.00226667 10.6972 0.482 9.93735 1.32133L8.53415 2.83907L7.13108 1.32133C6.37108 0.482133 5.29241 0.0024 4.16028 0H4.15921C3.02775 0.00266667 1.94988 0.4824 1.19054 1.32133C-0.385455 3.0788 -0.385455 5.74093 1.19054 7.4984L7.75095 14.5911C8.15161 15.0237 8.82721 15.0496 9.25988 14.6488C9.27988 14.6303 9.29908 14.6111 9.31761 14.5911L15.8769 7.4984C17.4537 5.7416 17.4541 3.0792 15.8779 1.32187ZM14.3112 6.04947L8.53415 12.2959L2.75601 6.04947C1.91934 5.11613 1.91975 3.70253 2.75708 2.76973C3.43588 1.99467 4.61441 1.91653 5.38961 2.59533C5.45175 2.64973 5.51015 2.70813 5.56441 2.77027L7.75081 5.1344C8.17801 5.56707 8.87508 5.57133 9.30775 5.14413C9.31095 5.14093 9.31428 5.1376 9.31748 5.1344L11.5039 2.7704C12.1824 1.99507 13.3609 1.91653 14.1363 2.59507C14.1984 2.64933 14.2568 2.70773 14.3111 2.76987V2.7704C15.1487 3.70293 15.1487 5.1168 14.3112 6.04947Z" fill="#FB770A"/>
<path d="M62.8104 1.32187C62.0513 0.482667 60.9733 0.00266667 59.8417 0H59.8407C58.7084 0.00226667 57.6297 0.482 56.8699 1.32133L55.4667 2.83907L54.0636 1.32133C53.3036 0.482133 52.2249 0.0024 51.0928 0H51.0917C49.9603 0.00266667 48.8823 0.4824 48.1229 1.32133C46.5469 3.0788 46.5469 5.74093 48.1229 7.4984L54.6833 14.5911C54.8855 14.8092 55.1693 14.9332 55.4667 14.9333C55.764 14.9332 56.0479 14.8092 56.25 14.5912L62.8093 7.49853C64.3863 5.74173 64.3867 3.0792 62.8104 1.32187ZM61.2437 6.04947L55.4667 12.2959L49.6885 6.04947C48.8519 5.11613 48.8524 3.70253 49.6896 2.76987C50.3684 1.9948 51.5469 1.91667 52.3221 2.59547C52.3843 2.64987 52.4427 2.70827 52.4969 2.7704L54.6833 5.1344C55.1105 5.56707 55.8076 5.57133 56.2403 5.14413C56.2436 5.14093 56.2468 5.1376 56.25 5.1344L58.4364 2.7704C59.1149 1.99507 60.2935 1.91653 61.0688 2.59507C61.1309 2.64933 61.1893 2.70773 61.2436 2.76987V2.7704C62.0812 3.70293 62.0812 5.1168 61.2437 6.04947Z" fill="#FB770A"/>
<path d="M59.3063 45.0137C58.9274 44.7293 58.4062 44.7293 58.0271 45.0137L53.7604 48.2137L55.0396 49.92L57.6 48V56.5335H44.8V58.6668H58.6667C59.2556 58.6669 59.7332 58.1896 59.7334 57.6007C59.7334 57.6005 59.7334 57.6003 59.7334 57.6001V48L62.2938 49.9199L63.573 48.2136L59.3063 45.0137Z" fill="#FB770A"/>
<path d="M6.39994 56.5334V47.9999L8.96033 49.9197L10.2395 48.2135L5.97287 45.0135C5.59394 44.7291 5.07273 44.7291 4.69367 45.0135L0.427002 48.2135L1.7062 49.9197L4.2666 47.9999V57.6C4.26647 58.189 4.7438 58.6666 5.33274 58.6667C5.33287 58.6667 5.33314 58.6667 5.33327 58.6667H19.1999V56.5334H6.39994Z" fill="#FB770A"/>
<path d="M23.4666 56.5333H21.3333V58.6667H23.4666V56.5333Z" fill="#FB770A"/>
<path d="M42.6665 56.5333H40.5332V58.6667H42.6665V56.5333Z" fill="#FB770A"/>
</g>
<defs>
<clipPath id="clip0">
<rect width="64" height="64" fill="white"/>
</clipPath>
</defs>
</svg>
