<svg width="84" height="84" viewBox="0 0 84 84" fill="none" xmlns="http://www.w3.org/2000/svg">
<path d="M30.9924 25.2741L30.9924 25.2741C31.5944 25.4871 31.9095 26.1478 31.6965 26.7499C29.7775 32.1697 24.663 35.5634 19.2151 35.5634C18.1322 35.5634 17.0366 35.4285 15.9501 35.1497L15.7634 35.1018L15.7087 35.2866C14.877 38.0931 14.4556 40.9956 14.4427 43.8997L14.8206 43.9921C14.8383 43.9576 14.8551 43.9244 14.8716 43.8918C14.9059 43.8241 14.9385 43.7595 14.9745 43.6938C16.6715 40.5944 19.473 38.3419 22.8646 37.3503C23.4779 37.1714 24.1196 37.523 24.2988 38.1356C26.2405 44.7765 22.7112 51.7387 16.3671 54.1838L16.1847 54.2541L16.2508 54.438C17.7282 58.5501 20.1094 62.4076 23.3981 65.6963L23.5395 65.5549L23.3981 65.6963C24.8685 67.1665 26.4854 68.4876 28.2041 69.6224C28.7369 69.9742 28.8836 70.6915 28.5319 71.2244C28.3096 71.5608 27.9417 71.7436 27.5658 71.7436C27.3471 71.7436 27.1261 71.6818 26.9298 71.5522L26.8196 71.719L26.9298 71.5521C25.1726 70.3919 23.5159 69.0488 21.9982 67.561L21.879 67.4441L21.7427 67.5405C19.507 69.1216 16.8749 69.9601 14.1466 69.9601C13.7035 69.9601 13.2583 69.9383 12.8113 69.8937C9.29502 69.5436 6.12662 67.8456 3.88796 65.1119C3.48333 64.6177 3.55602 63.8893 4.04996 63.4846C7.65049 60.5361 12.3529 59.8111 16.4872 61.1367L16.9892 61.2976L16.7203 60.8442C15.9993 59.6281 15.3635 58.3751 14.8123 57.0942L14.7544 56.9595L14.6085 56.9743C14.1574 57.0199 13.7076 57.0448 13.2607 57.0448C10.4648 57.0448 7.75103 56.1601 5.45505 54.4724C2.60783 52.3797 0.746673 49.3044 0.213436 45.8113L0.0157267 45.8415L0.213436 45.8113C0.117064 45.18 0.550511 44.5902 1.18186 44.4939C4.67581 43.9608 8.1656 44.8191 11.0128 46.9118C11.3509 47.1604 11.6742 47.4239 11.9844 47.6997L12.3705 48.0429L12.3162 47.5291C12.1657 46.1062 12.1053 44.6759 12.1392 43.247L12.1429 43.0922L11.994 43.0498C5.3051 41.1491 1.17135 34.3091 2.70957 27.44C2.77675 27.1407 2.95974 26.8803 3.21867 26.7161L3.21871 26.7161C3.4776 26.5519 3.79166 26.4972 4.09044 26.5642L4.09048 26.5642C7.53849 27.3364 10.4787 29.4043 12.3712 32.3884C12.7212 32.9407 13.0272 33.5122 13.2892 34.0983L13.5041 34.5789L13.6625 34.0768C13.9966 33.0184 14.3837 31.9736 14.8267 30.9474L14.887 30.8076L14.7683 30.7122C12.2402 28.6814 10.5637 25.8342 10.0203 22.6095C9.43322 19.1251 10.2381 15.6217 12.2868 12.7426L12.2868 12.7426C12.6569 12.2225 13.3787 12.1008 13.8992 12.471C17.377 14.9459 19.2942 18.8072 19.4405 22.7767L19.4597 23.2963L19.7937 22.8978C20.4136 22.1582 21.0684 21.4385 21.7629 20.744C22.2143 20.2925 22.9464 20.2925 23.3981 20.744C23.8496 21.1953 23.8496 21.9275 23.3981 22.379C22.4128 23.3642 21.5107 24.4014 20.688 25.48L20.9325 25.7821C24.1094 24.2823 27.6789 24.1008 30.9924 25.2741ZM11.8094 40.5598L12.0557 40.6512L12.0783 40.3895C12.2831 38.0229 11.7112 35.666 10.418 33.6264C9.12481 31.5868 7.23682 30.065 5.0088 29.2407L4.7624 29.1496L4.74013 29.4114C4.32629 34.2753 7.23351 38.86 11.8094 40.5598ZM3.00997 46.6552L2.74677 46.659L2.82092 46.9115C3.49005 49.1907 4.8788 51.1789 6.82464 52.6092C8.7706 54.0397 11.0825 54.7696 13.4577 54.7302L13.7207 54.7258L13.6462 54.4736C12.2814 49.848 7.99482 46.6537 3.18541 46.6537C3.12639 46.6537 3.06785 46.6544 3.00997 46.6552ZM6.72408 64.4132L6.50021 64.5507L6.69234 64.7299C8.42959 66.3501 10.6374 67.3533 13.0405 67.5926L13.0603 67.3935L13.0405 67.5926C15.4433 67.8315 17.806 67.2835 19.8286 66.0379L20.0523 65.9001L19.86 65.7211C16.2855 62.3963 10.8835 61.8587 6.72408 64.4132ZM22.3985 40.2335L22.3595 39.9736L22.1194 40.0804C19.9491 41.0461 18.1626 42.6859 17.0027 44.8042L17.1781 44.9002L17.0027 44.8042C15.8432 46.9225 15.4239 49.3112 15.7798 51.6597L15.8191 51.9195L16.0591 51.8124C20.5165 49.8226 23.1236 45.0606 22.3985 40.2335ZM21.8779 27.8913L21.8779 27.8914C19.6983 28.9314 17.9614 30.6235 16.8762 32.7368L16.7562 32.9705L17.0134 33.024C21.7934 34.0175 26.6926 31.6796 28.9281 27.3402L29.0484 27.1066L28.7912 27.0528C26.4663 26.5664 24.0578 26.8514 21.8779 27.8913ZM13.7065 15.2947L13.515 15.1149L13.3926 15.3474C12.2862 17.4495 11.899 19.8435 12.3004 22.2251C12.7015 24.6065 13.8518 26.7416 15.5859 28.3652L15.7777 28.5447L15.8997 28.3121C18.1671 23.9892 17.265 18.6358 13.7065 15.2947Z" fill="#FB770A" stroke="white" stroke-width="0.4"/>
<path d="M71.6829 47.538L71.6284 48.053L72.0149 47.7084C74.859 45.1731 78.7679 43.8753 82.8181 44.4938C83.4492 44.5903 83.8829 45.18 83.7865 45.8112C83.2534 49.3045 81.392 52.3796 78.5449 54.4725C76.2492 56.16 73.535 57.0449 70.7393 57.0449C70.2922 57.0449 69.8425 57.0202 69.392 56.9745L69.2461 56.9597L69.1881 57.0945C68.6387 58.3714 68.0051 59.6205 67.2869 60.8329L67.019 61.2852L67.5198 61.1253C68.4014 60.844 69.3174 60.6504 70.2595 60.5565C73.7754 60.2069 77.2166 61.2462 79.9505 63.4848C80.1877 63.6793 80.3381 63.9599 80.3684 64.2649C80.3988 64.5701 80.3067 64.8749 80.1125 65.1121C77.5009 68.3009 73.6991 69.9533 69.8663 69.9533C67.2155 69.9533 64.552 69.1596 62.2579 67.54L62.1217 67.4438L62.0026 67.5605C60.4849 69.0485 58.8281 70.3916 57.0701 71.5524L57.0701 71.5524C56.8738 71.682 56.6528 71.7439 56.4342 71.7439C56.0583 71.7439 55.6902 71.5611 55.4681 71.2247L55.3012 71.3349L55.4681 71.2247C55.1162 70.6918 55.263 69.9745 55.7958 69.6226C57.5148 68.4874 59.1321 67.1666 60.6019 65.6965C63.89 62.408 66.2712 58.551 67.7488 54.4393L67.815 54.2551L67.6323 54.185C64.7157 53.064 62.3126 50.9725 60.7948 48.2004C59.0978 45.101 58.7097 41.5273 59.7015 38.1357C59.8809 37.5227 60.5227 37.171 61.1357 37.3503L61.1357 37.3503C64.7551 38.4087 67.5774 40.8891 69.1795 44.0054L69.5574 43.9132C69.5455 41.0046 69.1243 38.0973 68.2913 35.2867L68.2365 35.1019L68.0498 35.1498C66.9632 35.4286 65.8672 35.5633 64.785 35.5633C59.3364 35.5633 54.2226 32.1701 52.3036 26.7498C52.0906 26.1478 52.4057 25.487 53.0077 25.274L53.0077 25.274C56.321 24.1006 59.8907 24.2823 63.0673 25.782L63.3117 25.4799C62.4893 24.4013 61.5871 23.3642 60.6019 22.379L60.6018 22.3789C60.1504 21.9276 60.1504 21.1954 60.6019 20.7439C61.0535 20.2923 61.7856 20.2924 62.2371 20.7439L62.2371 20.7439C62.9293 21.436 63.5819 22.153 64.1999 22.8901L64.5331 23.2874L64.553 22.7692C64.575 22.1969 64.6303 21.6232 64.7267 21.0505C65.314 17.5659 67.2222 14.5195 70.1012 12.4708L70.1012 12.4708C70.3513 12.2927 70.6611 12.2213 70.9635 12.2727L70.9639 12.2728C71.2662 12.3235 71.5358 12.4924 71.7136 12.7424L71.7136 12.7424C75.7891 18.4694 74.6401 26.3622 69.2319 30.712L69.1133 30.8074L69.1736 30.9471C69.6166 31.9735 70.0039 33.0183 70.3377 34.0767L70.4961 34.5788L70.711 34.0982C70.9733 33.512 71.2791 32.9404 71.6292 32.3882C73.5214 29.4041 76.4618 27.3359 79.9098 26.564C80.5331 26.4248 81.1513 26.8166 81.2905 27.4396L81.2905 27.4397C82.0625 30.8877 81.4459 34.4291 79.5536 37.4132C77.7971 40.1834 75.1365 42.1623 72.0061 43.0496L71.857 43.0918L71.8607 43.2467C71.8948 44.6785 71.834 46.112 71.6829 47.538ZM79.2611 29.4122L79.2385 29.1504L78.9922 29.2419C74.4163 30.9415 71.5091 35.5264 71.9229 40.3901L71.9452 40.6519L72.1916 40.5608C74.4194 39.7365 76.3074 38.2147 77.6008 36.1751L77.4319 36.068L77.6008 36.1751C78.894 34.1355 79.4655 31.7788 79.2611 29.4122ZM81.178 46.9117L81.2524 46.6595L80.9894 46.6551C76.108 46.5747 71.7362 49.7914 70.3544 54.4727L70.2798 54.7253L70.5431 54.7293C75.4214 54.8037 79.796 51.5933 81.178 46.9117ZM55.2088 27.0529L54.9517 27.1067L55.072 27.3403C57.3073 31.6797 62.2052 34.0164 66.9863 33.0239L67.2436 32.9705L67.1236 32.7368C66.0386 30.6236 64.3015 28.9312 62.1217 27.8914C59.942 26.8517 57.5338 26.5663 55.2088 27.0529ZM68.0996 28.3123L68.2219 28.5447L68.4134 28.3649C71.972 25.0238 72.8741 19.6703 70.6067 15.3475L70.4846 15.1149L70.2928 15.2944C68.5588 16.918 67.4087 19.0531 67.0073 21.4345L67.2046 21.4678L67.0073 21.4345C66.606 23.8161 66.993 26.2101 68.0996 28.3123ZM77.3076 64.7288L77.4999 64.5499L77.2763 64.4121C75.2537 63.1661 72.8923 62.618 70.4882 62.8573C68.085 63.0967 65.8772 64.0997 64.14 65.7201L63.9478 65.8993L64.1717 66.0368C68.331 68.5912 73.7333 68.0532 77.3076 64.7288ZM67.9401 51.8132L68.1802 51.92L68.2192 51.6602C68.9443 46.833 66.337 42.0711 61.8796 40.0813L61.6396 39.9742L61.6003 40.234C61.2446 42.5826 61.6635 44.9714 62.8234 47.0896C63.9833 49.2079 65.7696 50.8477 67.9401 51.8132Z" fill="#FB770A" stroke="white" stroke-width="0.4"/>
<path d="M37.948 56H34.2511V44.2313L30.6199 45.2922V42.4922L37.6089 40.075H37.948V56Z" fill="#FB770A"/>
<path d="M54.3101 56H43.1976V53.5938L48.3163 48.2125C49.5778 46.7761 50.2085 45.6349 50.2085 44.7891C50.2085 44.1037 50.059 43.5823 49.7601 43.225C49.4611 42.8677 49.0273 42.6891 48.4585 42.6891C47.897 42.6891 47.4413 42.9297 47.0913 43.411C46.7413 43.8849 46.5663 44.4792 46.5663 45.1938H42.8694C42.8694 44.2167 43.1137 43.3162 43.6022 42.4922C44.0908 41.661 44.7689 41.012 45.6366 40.5453C46.5043 40.0787 47.4741 39.8453 48.546 39.8453C50.2668 39.8453 51.5903 40.2427 52.5163 41.0375C53.4496 41.8323 53.9163 42.9735 53.9163 44.461C53.9163 45.088 53.7996 45.7005 53.5663 46.2985C53.333 46.8891 52.9684 47.5125 52.4726 48.1688C51.984 48.8177 51.1929 49.6891 50.0991 50.7828L48.0429 53.1563H54.3101V56Z" fill="#FB770A"/>
</svg>
