<svg width="66" height="66" viewBox="0 0 66 66" fill="none" xmlns="http://www.w3.org/2000/svg">
<g clip-path="url(#clip0)">
<path d="M48.5074 0.283594C48.327 0.103125 48.0782 0 47.8242 0H23.332C23.0768 0 22.828 0.103125 22.6488 0.283594C22.4684 0.462773 22.3652 0.711434 22.3652 0.966797V5.32898C22.3652 5.86266 22.7984 6.29707 23.332 6.29707C23.8644 6.29707 24.2988 5.86266 24.2988 5.32898V1.93359H46.8574V20.6263H34.9336C34.8111 20.6263 34.6874 20.6508 34.5752 20.6959L29.4551 22.7416V21.5931C29.4551 21.3391 29.352 21.0904 29.1715 20.9099C28.9923 20.7294 28.7422 20.6263 28.4883 20.6263H24.2988V9.19617C24.2988 8.66379 23.8644 8.23066 23.332 8.23066C22.7984 8.23066 22.3652 8.66379 22.3652 9.19617V21.5931C22.3652 21.8483 22.4684 22.0971 22.6488 22.2776C22.8279 22.4568 23.0768 22.5599 23.3319 22.5599H27.5214V24.1699C27.5214 24.4909 27.6799 24.79 27.9455 24.9704C28.1066 25.0787 28.2935 25.1367 28.4882 25.1367C28.6119 25.1367 28.7331 25.1134 28.8465 25.0671L35.1191 22.5599H47.8242C48.0782 22.5599 48.3268 22.4568 48.5074 22.2776C48.6879 22.0972 48.791 21.8484 48.791 21.5931V0.966797C48.791 0.711434 48.6879 0.462773 48.5074 0.283594Z" fill="#FB770A"/>
<path d="M59.4257 55.0433H56.5258L56.5268 52.9028C58.8943 50.8342 60.3924 47.795 60.3924 44.4123V40.7031C61.1478 36.9032 60.8013 34.0853 59.3609 32.3283C58.4531 31.2208 57.3277 30.7986 56.5253 30.6407V26.3618C56.5253 25.8277 56.0925 25.395 55.5585 25.395C55.1916 25.395 54.8157 25.3929 54.4331 25.391C54.0331 25.3888 53.6256 25.3867 53.2135 25.3867C48.5494 25.3867 43.3131 25.6818 40.2026 29.2052C37.9652 31.7396 37.1905 35.4825 37.8337 40.6475V44.4124C37.8337 47.796 39.3326 50.836 41.7012 52.9046V55.0435H38.8008C36.1353 55.0435 33.9668 57.212 33.9668 59.8775V65.0333C33.9668 65.5673 34.3995 66.0001 34.9336 66.0001H38.8008H45.2461H63.2928C63.8269 66.0001 64.2596 65.5673 64.2596 65.0333V59.8823C64.2596 59.8805 64.2598 59.8791 64.2598 59.8773C64.2598 57.2118 62.0912 55.0433 59.4257 55.0433ZM41.6524 30.4847C44.2302 27.5646 48.9717 27.3201 53.2138 27.3201C53.6224 27.3201 54.0264 27.3222 54.4231 27.3243C54.4795 27.3246 54.5357 27.3248 54.5919 27.3252V31.5179C54.5919 31.7847 54.6975 32.0401 54.892 32.2229C55.0867 32.4057 55.3436 32.5003 55.6096 32.4833C55.6977 32.4781 56.9723 32.4643 57.8659 33.5541C58.5258 34.3591 58.855 35.5943 58.8476 37.1957L58.4274 36.3555C58.2146 35.9294 57.7228 35.7218 57.2692 35.8667C57.2117 35.885 51.4834 37.6979 48.179 37.6979C45.0094 37.6979 42.1415 35.9795 42.1141 35.9628C41.6891 35.7027 41.1358 35.8089 40.8366 36.2076L39.5607 37.9089C39.4827 34.64 40.183 32.149 41.6524 30.4847ZM39.7676 44.4121V40.8557L41.8842 38.0336C43.0763 38.6264 45.4941 39.6315 48.179 39.6315C51.0425 39.6315 55.3057 38.4685 57.0631 37.9503L58.459 40.7423V44.4121C58.459 49.5634 54.2666 53.7542 49.1133 53.7542C43.96 53.7542 39.7676 49.5634 39.7676 44.4121ZM54.5926 54.2647L54.5919 55.4924L51.6231 57.4721L50.0799 56.7013V55.6459C51.7064 55.5072 53.2352 55.022 54.5926 54.2647ZM48.1465 55.6461V56.6446L46.0555 57.4809L43.635 55.5452V54.2653C44.992 55.0224 46.5205 55.5074 48.1465 55.6461ZM44.2793 64.0665H39.7677V62.1329H44.2793V64.0665ZM62.326 59.8773V64.0665H46.2129V61.1661C46.2129 60.632 45.7802 60.1993 45.2461 60.1993H38.801C38.267 60.1993 37.8342 60.632 37.8342 61.1661V64.0665H35.9007V59.8773C35.9007 58.2781 37.2018 56.9769 38.801 56.9769H42.3292L45.2879 59.3427C45.2964 59.3495 45.306 59.354 45.3147 59.3606C45.342 59.3809 45.37 59.3997 45.399 59.417C45.4165 59.4274 45.4339 59.4376 45.4517 59.4467C45.4794 59.4608 45.5079 59.4729 45.5365 59.4842C45.5557 59.4918 45.5747 59.5001 45.5941 59.5064C45.626 59.5167 45.6586 59.5241 45.6915 59.531C45.7078 59.5345 45.7238 59.5394 45.7402 59.5421C45.7901 59.5501 45.8406 59.5548 45.8918 59.5548C45.9256 59.5548 45.9592 59.5524 45.9932 59.5489C45.9992 59.5482 46.0051 59.547 46.0112 59.5462C46.0377 59.543 46.0641 59.5386 46.0907 59.5331C46.1015 59.5308 46.1122 59.5279 46.123 59.5252C46.1438 59.5201 46.1646 59.5144 46.1852 59.5077C46.1986 59.5034 46.212 59.4988 46.2254 59.4939C46.2336 59.4909 46.2423 59.4886 46.2505 59.4853L49.0692 58.3579L51.2607 59.4525C51.2756 59.46 51.2909 59.4653 51.3058 59.4719C51.3234 59.4795 51.3405 59.4877 51.3582 59.4943C51.3824 59.5032 51.4067 59.51 51.431 59.5169C51.4427 59.5201 51.4542 59.5245 51.466 59.5272C51.5002 59.5354 51.5344 59.5415 51.5689 59.546C51.5719 59.5462 51.5746 59.547 51.5775 59.5475C51.6156 59.552 51.6539 59.5546 51.6919 59.5546C51.7374 59.5546 51.7824 59.5513 51.8271 59.545C51.8466 59.5421 51.8659 59.5367 51.8854 59.5327C51.91 59.5277 51.9349 59.5234 51.959 59.5166C51.9786 59.5108 51.9979 59.5028 52.0173 59.496C52.0414 59.4873 52.0654 59.4791 52.0887 59.4688C52.1057 59.4609 52.1222 59.4515 52.139 59.4429C52.1641 59.4297 52.1891 59.4164 52.2131 59.4011C52.2182 59.3977 52.2239 59.3956 52.2291 59.3921L55.8512 56.9769H59.4258C61.024 56.9769 62.3244 58.2763 62.3262 59.8741C62.3262 59.8751 62.326 59.8762 62.326 59.8773Z" fill="#FB770A"/>
<path d="M27.1991 55.0433H23.0102L23.0108 53.8765C26.1109 51.8649 28.1659 48.374 28.1659 44.4121V42.2815L29.452 42.7408C29.5577 42.7786 29.6676 42.7972 29.7771 42.7972C29.9739 42.7972 30.169 42.737 30.3341 42.6207C30.5911 42.4396 30.744 42.1449 30.744 41.8304C30.744 36.0282 29.6269 31.7197 27.4236 29.0252C25.6137 26.8115 23.1257 25.6891 20.0286 25.6891C16.4185 25.6891 13.0355 27.24 11.8335 27.8565L9.56781 26.7778C9.28009 26.6408 8.94339 26.6543 8.66791 26.8139C8.28016 27.0383 4.90527 29.2572 5.60729 37.9991V44.4121C5.60729 48.3745 7.66283 51.8657 10.7635 53.8773V55.0433H6.57422C3.9087 55.0433 1.74023 57.2117 1.74023 59.8772V65.0332C1.74023 65.5673 2.1731 66 2.70703 66H31.0661C31.6001 66 32.0329 65.5673 32.0329 65.0332V59.8823C32.0329 59.8805 32.0332 59.8791 32.0332 59.8772C32.0331 57.2117 29.8646 55.0433 27.1991 55.0433ZM9.30974 28.7965L11.4438 29.8125C11.7301 29.9491 12.0658 29.9356 12.3408 29.778C12.3785 29.7563 16.1463 27.6227 20.0287 27.6227C25.5643 27.6227 28.5076 31.937 28.7884 40.4505L12.0556 34.4746C11.9501 34.4369 11.8402 34.4184 11.7305 34.4184C11.5818 34.4184 11.4337 34.4527 11.2981 34.5205L7.45684 36.441C7.31595 31.5975 8.65554 29.5173 9.30974 28.7965ZM7.54102 44.4121V38.5605L11.7939 36.4342L26.2324 41.5908V44.4121C26.2324 49.5633 22.04 53.7542 16.8867 53.7542C11.7334 53.7542 7.54102 49.5633 7.54102 44.4121ZM21.0767 54.8806L21.076 56.0095V56.0098V56.0099C21.076 58.3201 19.1966 60.1994 16.8866 60.1994C14.5766 60.1994 12.6971 58.3201 12.6971 56.0099V54.8808C13.9932 55.4008 15.407 55.6878 16.8866 55.6878C18.3666 55.6878 19.7805 55.4007 21.0767 54.8806ZM30.0994 59.8772V64.0664H30.0992H3.67383V59.8772C3.67383 58.278 4.97488 56.9769 6.57422 56.9769H10.8408C11.3059 59.8952 13.8395 62.133 16.8867 62.133C19.9339 62.133 22.4676 59.8952 22.9327 56.9769H27.1992C28.7974 56.9769 30.0977 58.2762 30.0995 59.874C30.0995 59.875 30.0994 59.8762 30.0994 59.8772Z" fill="#FB770A"/>
<path d="M38.5403 5.09303C37.7488 4.30284 36.6969 3.86713 35.5781 3.86584C34.4579 3.86713 33.4059 4.30284 32.6159 5.09303C31.8244 5.88452 31.3887 6.93639 31.3887 8.0553C31.3887 8.58897 31.8218 9.0221 32.3555 9.0221C32.8879 9.0221 33.3223 8.58897 33.3223 8.0553V8.05388C33.3236 7.45189 33.5582 6.88728 33.9836 6.46189C34.4089 6.0365 34.9747 5.8006 35.5781 5.79931C36.1801 5.8006 36.746 6.0365 37.1713 6.46189C37.598 6.88728 37.8327 7.45305 37.834 8.05517C37.8327 8.65845 37.5981 9.22422 37.1713 9.64961C36.7489 10.072 36.1877 10.3073 35.5904 10.3117C35.5862 10.3115 35.5821 10.311 35.578 10.311C35.0442 10.311 34.6112 10.7453 34.6112 11.2791V13.8572C34.6112 14.3896 35.0442 14.824 35.578 14.824C36.1104 14.824 36.5448 14.3896 36.5448 13.8572V12.1322H36.5449C37.2941 11.956 37.9821 11.5756 38.5403 11.0176C39.3305 10.2274 39.7663 9.17549 39.7676 8.0553C39.7663 6.93626 39.3305 5.88439 38.5403 5.09303Z" fill="#FB770A"/>
<path d="M35.5781 15.4688C35.0443 15.4688 34.6113 15.9017 34.6113 16.4355V17.7233C34.6113 18.257 35.0443 18.6901 35.5781 18.6901C36.1105 18.6901 36.5449 18.257 36.5449 17.7233V16.4355C36.5449 15.9017 36.1104 15.4688 35.5781 15.4688Z" fill="#FB770A"/>
</g>
<defs>
<clipPath id="clip0">
<rect width="66" height="66" fill="white"/>
</clipPath>
</defs>
</svg>
