<svg width="61" height="61" viewBox="0 0 61 61" fill="none" xmlns="http://www.w3.org/2000/svg">
<path d="M50.8333 10.7706V5.08333C50.8298 2.27733 48.556 0.00355833 45.75 0H5.08333C2.27733 0.00355833 0.00355833 2.27733 0 5.08333V27.45C0.00787918 30.0463 1.97589 32.2177 4.55873 32.481L8.38038 42.4014C9.38993 45.0208 12.3317 46.3257 14.9514 45.3174L38.8163 36.1242C37.1673 40.4316 37.6365 45.2635 40.0826 49.1734L40.6667 50.1074V59.9833C40.6667 60.545 41.1216 61 41.6833 61H59.9833C60.545 61 61 60.545 61 59.9833V26.4244C60.9903 22.9086 59.5906 19.5398 57.1049 17.0533L50.8333 10.7706ZM50.8333 16.8507L53.9189 24.8605C54.5236 26.4328 53.74 28.197 52.168 28.8022L50.4043 29.4833C50.6859 28.8423 50.8318 28.1495 50.8333 27.45V16.8507ZM2.03333 27.45V5.08333C2.03333 3.39922 3.39922 2.03333 5.08333 2.03333H45.75C47.4341 2.03333 48.8 3.39922 48.8 5.08333V11.5453H48.7911L48.8 11.5684V27.45C48.7921 27.6274 48.769 27.8033 48.7309 27.9766L39.4182 18.663C37.3249 16.6179 33.9877 16.6022 31.8755 18.6258C29.7629 20.6508 29.6361 23.9855 31.5899 26.1637L35.5599 30.5H5.08333C3.39922 30.5 2.03333 29.1341 2.03333 27.45ZM15.0578 32.5333L7.82833 35.3167L6.7588 32.5333H15.0578ZM14.2201 43.4195C12.6483 44.0255 10.8832 43.2419 10.2775 41.6701L8.56237 37.21L20.6983 32.5333V32.5272H37.4235L38.7449 33.9678L14.2201 43.4195ZM58.9667 58.9667H42.7V50.8333H58.9667V58.9667ZM58.9667 48.8H42.2476L41.8066 48.0954C39.3277 44.134 39.2291 39.1305 41.5491 35.075C41.7687 34.6912 41.7148 34.2093 41.416 33.8835L33.0846 24.7945C31.8423 23.4347 31.9121 21.3325 33.2422 20.0588C34.5728 18.785 36.676 18.8058 37.9804 20.1051L54.1812 36.3021L55.6188 34.8645L51.8571 31.1029L52.9002 30.6962C55.5176 29.6864 56.822 26.7472 55.815 24.1283L52.3738 15.1928L55.6673 18.4932C57.7718 20.5972 58.9585 23.4484 58.9667 26.4244V48.8Z" fill="#FB770A"/>
<path d="M11.59 14.2333C13.0499 14.2333 14.2333 13.0499 14.2333 11.59V6.70999C14.2333 5.25005 13.0499 4.06665 11.59 4.06665H6.70999C5.25005 4.06665 4.06665 5.25005 4.06665 6.70999V11.59C4.06665 13.0499 5.25005 14.2333 6.70999 14.2333H11.59ZM6.09998 11.59V10.1667H8.13332V8.13332H6.09998V6.70999C6.09998 6.37321 6.37321 6.09998 6.70999 6.09998H11.59C11.9268 6.09998 12.2 6.37321 12.2 6.70999V8.13332H10.1667V10.1667H12.2V11.59C12.2 11.9268 11.9268 12.2 11.59 12.2H6.70999C6.37321 12.2 6.09998 11.9268 6.09998 11.59Z" fill="#FB770A"/>
<path d="M5.08325 17.2833H9.14992V19.3167H5.08325V17.2833Z" fill="#FB770A"/>
<path d="M5.08325 23.3833H9.14992V25.4166H5.08325V23.3833Z" fill="#FB770A"/>
<path d="M23.3833 23.3833H27.45V25.4166H23.3833V23.3833Z" fill="#FB770A"/>
<path d="M11.1833 17.2833H15.25V19.3167H11.1833V17.2833Z" fill="#FB770A"/>
<path d="M17.2833 17.2833H21.35V19.3167H17.2833V17.2833Z" fill="#FB770A"/>
<path d="M23.3833 17.2833H27.45V19.3167H23.3833V17.2833Z" fill="#FB770A"/>
<path d="M42.7 5.08337H44.7333V8.13337H42.7V5.08337Z" fill="#FB770A"/>
<path d="M38.6333 5.08337H40.6666V8.13337H38.6333V5.08337Z" fill="#FB770A"/>
<path d="M34.5667 5.08337H36.6V8.13337H34.5667V5.08337Z" fill="#FB770A"/>
<path d="M30.5 5.08337H32.5333V8.13337H30.5V5.08337Z" fill="#FB770A"/>
<path d="M44.7334 52.8667H46.7667V54.9H44.7334V52.8667Z" fill="#FB770A"/>
</svg>
