<svg width="76" height="76" viewBox="0 0 76 76" fill="none" xmlns="http://www.w3.org/2000/svg">
<path d="M75.8036 43.5561L71.9567 37.6701C70.2579 35.0691 67.3719 33.516 64.2346 33.516H54.2856V27.7908C54.2856 24.2952 51.443 21.4526 47.9474 21.4526H29.323C28.278 15.9946 23.4736 11.8536 17.7153 11.8536C11.1949 11.8536 5.89084 17.1584 5.89084 23.6781C5.89084 27.7777 7.98997 31.394 11.168 33.516H1.20661C0.539798 33.516 0 34.0558 0 34.7226C0 35.3894 0.539798 35.9292 1.20661 35.9292H13.2699V38.3417H8.44418C7.77806 38.3417 7.23826 38.8815 7.23826 39.5483C7.23826 40.2151 7.77806 40.7542 8.44418 40.7542H13.2699V43.1667H1.20661C0.539798 43.1667 0 43.7065 0 44.3733C0 45.0402 0.539798 45.58 1.20661 45.58H13.2699V50.9227C11.1432 51.8608 9.65078 53.9827 9.65078 56.4525V57.6433C9.65078 58.3101 10.1913 58.8499 10.8574 58.8499H21.5567C22.2428 61.8015 24.8894 64.0104 28.0474 64.0104C31.2061 64.0104 33.852 61.8015 34.5381 58.8499H57.7473C58.4342 61.8015 61.0807 64.0104 64.238 64.0104C67.3953 64.0104 70.0426 61.8015 70.7287 58.8499H74.7937C75.4606 58.8499 75.9997 58.3101 75.9997 57.6433V44.216C75.9997 43.9813 75.9313 43.7514 75.8036 43.5561ZM8.30336 23.6781C8.30336 18.4886 12.5258 14.2662 17.7153 14.2662C22.9055 14.2662 27.1273 18.4886 27.1273 23.6781C27.1273 28.8676 22.9055 33.0901 17.7153 33.0901C12.5258 33.0901 8.30336 28.8676 8.30336 23.6781ZM15.6824 45.58H18.095C18.7618 45.58 19.3016 45.0402 19.3016 44.3733C19.3016 43.7065 18.7618 43.1667 18.095 43.1667H15.6824V40.7542H24.1273C24.7934 40.7542 25.3332 40.2151 25.3332 39.5483C25.3332 38.8815 24.7934 38.3417 24.1273 38.3417H15.6824V35.9292H31.3649C32.031 35.9292 32.5715 35.3894 32.5715 34.7226C32.5715 34.0558 32.031 33.516 31.3649 33.516H24.2626C27.3916 31.4265 29.4673 27.8867 29.5308 23.8652H47.9481C50.1122 23.8652 51.8731 25.6268 51.8731 27.7908V50.405H15.6976C15.6928 50.405 15.688 50.4064 15.6824 50.4064V45.58ZM51.8731 56.4366H34.6478C34.458 55.0492 33.8423 53.7984 32.9332 52.8175H51.8731V56.4366ZM15.6976 52.8175H23.1616C22.2532 53.7984 21.6368 55.0492 21.4476 56.4366H12.0633C12.0716 54.4404 13.6993 52.8175 15.6976 52.8175ZM28.0474 61.5979C25.7011 61.5979 23.7911 59.6886 23.7911 57.3416C23.7911 54.9953 25.7011 53.0854 28.0474 53.0854C30.3943 53.0854 32.3037 54.9953 32.3037 57.3416C32.3037 59.6886 30.3943 61.5979 28.0474 61.5979ZM64.238 61.5979C61.8918 61.5979 59.9818 59.6886 59.9818 57.3416C59.9818 54.9953 61.8918 53.0854 64.238 53.0854C66.585 53.0854 68.4943 54.9953 68.4943 57.3416C68.4943 59.6886 66.585 61.5979 64.238 61.5979ZM73.5871 56.4366H70.8385C70.3946 53.1875 67.6073 50.6728 64.238 50.6728C60.8688 50.6728 58.0821 53.1875 57.6376 56.4366H54.2856V35.9292H64.2346C66.5532 35.9292 68.6855 37.073 69.9376 38.9892L73.5871 44.5749V56.4366Z" fill="#FB770A"/>
<path d="M66.2114 57.3417C66.2114 58.4316 65.3278 59.3152 64.2379 59.3152C63.148 59.3152 62.2644 58.4316 62.2644 57.3417C62.2644 56.2517 63.148 55.3682 64.2379 55.3682C65.3278 55.3682 66.2114 56.2517 66.2114 57.3417Z" fill="#FB770A"/>
<path d="M30.021 57.3417C30.021 58.4316 29.1375 59.3152 28.0475 59.3152C26.9583 59.3152 26.0747 58.4316 26.0747 57.3417C26.0747 56.2517 26.9583 55.3682 28.0475 55.3682C29.1375 55.3682 30.021 56.2517 30.021 57.3417Z" fill="#FB770A"/>
<path d="M19.3015 23.6781V18.4003C19.3015 17.7334 18.7617 17.1943 18.0949 17.1943C17.4288 17.1943 16.889 17.7334 16.889 18.4003V23.2847L14.4267 26.6622C14.034 27.2006 14.152 27.9544 14.6904 28.3465C14.9058 28.5039 15.1543 28.5791 15.4007 28.5791C15.7728 28.5791 16.14 28.4072 16.3761 28.0828L19.0703 24.3884C19.22 24.1827 19.3015 23.9342 19.3015 23.6781Z" fill="#FB770A"/>
<path d="M63.8313 37.1351H61.5237C60.8569 37.1351 60.3171 37.6749 60.3171 38.3417V46.7859C60.3171 47.4527 60.8569 47.9925 61.5237 47.9925H69.6428C70.3993 47.9925 71.0765 47.6011 71.4562 46.9474C71.8358 46.2937 71.8365 45.511 71.4624 44.8586L68.6453 39.928C67.6617 38.2064 65.8166 37.1351 63.8313 37.1351ZM62.7304 45.58V39.5483H63.8313C64.953 39.5483 65.9947 40.1523 66.5504 41.1256L69.0954 45.58H62.7304Z" fill="#FB770A"/>
</svg>
