<svg width="70" height="70" viewBox="0 0 70 70" fill="none" xmlns="http://www.w3.org/2000/svg">
<path d="M66.8132 46.5399V7.08875H21.9376V25.6679H24.0814V9.2325H39.4004V16.9443H43.8039V19.0937H45.9476V16.9443H50.2998V9.2325H64.6696V46.5398H59.0959V34.5286H37.2296V46.5398H29.5121V26.8112H3.3585V46.5398H0V62.9114H70V46.5399H66.8132ZM48.156 14.8006H41.5442V9.2325H48.156V14.8006ZM44.8042 36.6724H51.3784V38.8161H44.8042V36.6724ZM39.3734 45.3902H41.66V43.2465H39.3734V36.6724H42.6605V40.9599H53.5221V36.6724H56.9521V46.5398H39.3734V45.3902ZM5.50225 33.3852H14.2201V35.529H5.50225V33.3852ZM5.50225 37.6727H16.3639V31.2415H5.50225V28.9549H27.3684V32.3849H17.5071V34.5286H27.3684V46.5398H5.50225V37.6727ZM2.14375 55.2515H3.21563V56.2519H5.50225V54.1081H3.21563V53.1077H2.14375V51.9644H8.78938V53.1077H7.646V55.2515H8.78938V57.3952H2.14375V55.2515ZM67.8563 60.7677H2.14375V59.6819H67.8563V60.7677ZM10.9331 57.3952V51.9645H29.5121V57.3952H10.9331ZM31.6559 53.1077V51.9644H38.3729V54.1081H37.2295V56.2519H38.3729V57.3952H34.9429V56.2519H32.7991V57.3952H31.6557V55.2515H32.7991V53.1077H31.6559ZM40.5167 57.3952V51.9645H59.0959V57.3952H40.5167ZM67.8563 53.1077H66.6703V55.2515H67.8563V57.3952H65.67V56.2519H63.5262V57.3952H61.2396V56.2519H62.383V54.1081H61.2396V51.9644H62.383V53.1077H64.5267V51.9644H67.8564V53.1077H67.8563ZM67.8563 49.8207H2.14375V48.6835H67.8563V49.8207Z" fill="#FB770A"/>
<path d="M16.3943 40.6234L13.4475 43.5704L14.9634 45.0863L16.3943 43.6553L17.8254 45.0863L19.3412 43.5704L16.3943 40.6234Z" fill="#FB770A"/>
<path d="M22.961 40.6234L20.0142 43.5704L21.53 45.0863L22.961 43.6553L24.3918 45.0863L25.9077 43.5704L22.961 40.6234Z" fill="#FB770A"/>
<path d="M52.5113 26.3955L49.5645 29.3425L51.0803 30.8583L52.5113 29.4272L53.9421 30.8583L55.4581 29.3425L52.5113 26.3955Z" fill="#FB770A"/>
<path d="M59.0782 26.3955L56.1313 29.3425L57.6471 30.8583L59.0782 29.4272L60.5091 30.8583L62.0249 29.3425L59.0782 26.3955Z" fill="#FB770A"/>
<path d="M45.9475 43.2465H42.6604V45.3902H45.9475V43.2465Z" fill="#FB770A"/>
<path d="M43.8038 22.3807H29.5122V24.5245H43.8038V22.3807Z" fill="#FB770A"/>
<path d="M43.8039 25.8108H33.9426V27.9545H43.8039V25.8108Z" fill="#FB770A"/>
<path d="M43.8039 29.0978H36.0864V31.2415H43.8039V29.0978Z" fill="#FB770A"/>
</svg>
