<svg width="70" height="70" viewBox="0 0 70 70" fill="none" xmlns="http://www.w3.org/2000/svg">
<path d="M63 40.8333H54.8334V1.16667C54.8334 0.522375 54.311 0 53.6667 0H16.3334C15.6891 0 15.1667 0.522375 15.1667 1.16667V40.8333H7.00006C6.68199 40.8333 6.37764 40.9631 6.15758 41.1928C5.71177 41.658 5.72752 42.3965 6.19272 42.8423L34.1927 69.6757C34.41 69.8838 34.6992 70 35 70C35.3009 70 35.5902 69.8838 35.8074 69.6757L63.8074 42.8423C64.0371 42.6223 64.1669 42.3179 64.1669 41.9999C64.1667 41.3556 63.6443 40.8333 63 40.8333ZM35 67.2175L9.90272 43.1667H16.3334C16.9777 43.1667 17.5001 42.6443 17.5001 42V2.33333H52.5V42C52.5 42.6443 53.0224 43.1667 53.6667 43.1667H60.0974L35 67.2175Z" fill="#FB770A"/>
<path d="M22.1667 4.66663H19.8334V6.99996H22.1667V4.66663Z" fill="#FB770A"/>
<path d="M26.8333 4.66663H24.5V6.99996H26.8333V4.66663Z" fill="#FB770A"/>
<path d="M31.5 4.66663H29.1666V6.99996H31.5V4.66663Z" fill="#FB770A"/>
<path d="M36.1667 4.66663H33.8334V6.99996H36.1667V4.66663Z" fill="#FB770A"/>
<path d="M40.8335 4.66663H38.5001V6.99996H40.8335V4.66663Z" fill="#FB770A"/>
<path d="M45.5001 4.66663H43.1667V6.99996H45.5001V4.66663Z" fill="#FB770A"/>
<path d="M50.1667 4.66663H47.8334V6.99996H50.1667V4.66663Z" fill="#FB770A"/>
<path d="M29.8439 30.5211V42.2917H25.879V12.225H36.9682C40.2585 12.225 42.8329 13.0648 44.6914 14.7443C46.5637 16.4239 47.4998 18.6472 47.4998 21.4143C47.4998 24.3329 46.5843 26.5838 44.7533 28.167C42.9361 29.7364 40.3273 30.5211 36.9269 30.5211H29.8439ZM29.8439 27.279H36.9682C39.0883 27.279 40.7128 26.7834 41.8417 25.7922C42.9705 24.7872 43.535 23.3417 43.535 21.4556C43.535 19.6659 42.9705 18.2342 41.8417 17.1604C40.7128 16.0866 39.164 15.529 37.1954 15.4877H29.8439V27.279Z" fill="#FB770A"/>
<line x1="21.875" y1="36.9166" x2="35" y2="36.9166" stroke="#FB770A" stroke-width="2"/>
</svg>
