<svg width="61" height="61" viewBox="0 0 61 61" fill="none" xmlns="http://www.w3.org/2000/svg">
<g clip-path="url(#clip0)">
<path d="M18.0681 26.4651L18.0659 26.5039C17.9156 29.1363 19.3901 31.6024 21.8235 32.7847L21.8484 32.7969C22.7063 33.2072 23.4095 33.8838 23.8531 34.725L23.8631 34.7433C25.0892 37.0779 27.6251 38.4931 30.3285 38.3512L30.3695 38.3489C31.35 38.294 32.3232 38.5469 33.1528 39.0726C35.4419 40.5044 38.3477 40.5044 40.6369 39.0726C41.4665 38.5469 42.4397 38.294 43.4201 38.3489L43.4612 38.3512C46.1601 38.4942 48.6994 37.0779 49.9282 34.7394L49.9343 34.7267C50.3796 33.8832 51.0844 33.2056 51.9451 32.7947L51.9651 32.7847C54.3984 31.6018 55.8735 29.1363 55.7226 26.5034L55.7204 26.4668C55.6705 25.5396 55.9278 24.6218 56.4535 23.856C57.9669 21.6489 57.9669 18.7387 56.4541 16.531C55.9289 15.7658 55.6705 14.8486 55.7204 13.9214L55.7226 13.8826C55.8735 11.2496 54.3984 8.7841 51.9628 7.6007L51.9407 7.58961C51.0844 7.18036 50.3829 6.50715 49.9388 5.66812L49.926 5.64317C48.6994 3.30855 46.1601 1.89391 43.4612 2.03532L43.4196 2.03754C42.4397 2.09244 41.4665 1.83957 40.6374 1.31386H40.6363C38.3472 -0.117967 35.4414 -0.117967 33.1522 1.31386C32.3226 1.83901 31.3494 2.09188 30.369 2.03698L30.3279 2.03477C27.6284 1.89169 25.0897 3.30799 23.8636 5.64206L23.8542 5.65925C23.41 6.50216 22.7063 7.17925 21.8473 7.59017L21.824 7.60126C19.3907 8.78354 17.9156 11.2496 18.0665 13.8826L18.0687 13.9192C18.1186 14.8463 17.8613 15.7641 17.3356 16.5294C15.8222 18.737 15.8222 21.6478 17.3356 23.8549C17.8607 24.6201 18.1186 25.5379 18.0681 26.4651ZM19.2049 17.8192C20.0162 16.6381 20.4138 15.2218 20.3362 13.7911L20.334 13.7522C20.2541 12.0076 21.2334 10.3873 22.8144 9.64585L22.8339 9.63643C24.1309 9.01534 25.1929 7.99276 25.8628 6.72064L25.8739 6.69957C26.6885 5.14796 28.3948 4.20746 30.207 4.30395L30.247 4.30561C31.6971 4.38713 33.1361 4.01337 34.3628 3.2359C35.9116 2.26712 37.8769 2.26712 39.4258 3.2359C40.6524 4.01226 42.0914 4.38658 43.541 4.30617L43.5809 4.30395C45.4021 4.20857 47.1001 5.14796 47.9125 6.69514L47.9274 6.72342C48.5973 7.99387 49.6582 9.01478 50.9536 9.63532L50.9724 9.64474C52.5784 10.4255 53.5533 12.0376 53.4551 13.7528L53.4529 13.7933C53.3753 15.224 53.7734 16.6397 54.5847 17.8209C55.5651 19.2511 55.5646 21.1365 54.5836 22.5661C53.7729 23.7479 53.3753 25.1642 53.4529 26.5949L53.4551 26.6331C53.5533 28.3483 52.5784 29.9609 50.9719 30.7423L50.9552 30.7501C49.6571 31.3723 48.594 32.3959 47.9236 33.6703L47.9152 33.6869C47.1001 35.2385 45.3965 36.1796 43.5815 36.0825L43.5421 36.0803C42.092 35.9994 40.6524 36.3737 39.4252 37.1506C37.8769 38.1188 35.9116 38.1188 34.3633 37.1506C33.2476 36.4435 31.9533 36.0687 30.6324 36.0698C30.5043 36.0698 30.3756 36.0731 30.247 36.0803L30.207 36.082C28.4186 36.1957 26.7267 35.2596 25.8722 33.6841L25.8605 33.6625C25.1918 32.3926 24.1315 31.3723 22.8366 30.7517L22.8156 30.7412C21.209 29.9604 20.2342 28.3478 20.3329 26.6331L20.3351 26.5927C20.4122 25.1619 20.014 23.7456 19.2033 22.565C18.2234 21.1349 18.2239 19.2494 19.2049 17.8204V17.8192Z" fill="#FB770A"/>
<path d="M29.5665 31.9341C30.0983 32.2663 30.7987 32.1038 31.1308 31.572L44.5846 10.0191C44.8042 9.67478 44.8225 9.23891 44.6317 8.8779C44.441 8.51634 44.0705 8.28565 43.6624 8.27289C43.2542 8.26014 42.8705 8.46754 42.6576 8.81635L29.2044 30.3692C28.8722 30.9015 29.0341 31.6019 29.5665 31.9341Z" fill="#FB770A"/>
<path d="M30.7721 20.2493C33.5376 20.2493 35.7879 17.6835 35.7879 14.5298C35.7879 11.3761 33.5376 8.81079 30.7721 8.81079C28.0066 8.81079 25.7568 11.3761 25.7568 14.5298C25.7568 17.6835 28.0066 20.2493 30.7721 20.2493ZM30.7721 11.0822C32.2855 11.0822 33.5165 12.6288 33.5165 14.5298C33.5165 16.4308 32.2855 17.9779 30.7721 17.9779C29.2593 17.9779 28.0282 16.4302 28.0282 14.5298C28.0282 12.6294 29.2593 11.0822 30.7721 11.0822Z" fill="#FB770A"/>
<path d="M38.0011 25.8579C38.0011 29.0116 40.2509 31.5769 43.0164 31.5769C45.7819 31.5769 48.0322 29.011 48.0322 25.8579C48.0322 22.7053 45.7824 20.1389 43.0169 20.1389C40.2509 20.1389 38.0011 22.7037 38.0011 25.8579ZM45.7608 25.8579C45.7608 27.7589 44.5297 29.3055 43.0164 29.3055C41.5036 29.3055 40.2725 27.7589 40.2725 25.8579C40.2725 23.9569 41.5036 22.4103 43.0164 22.4103C44.5297 22.4103 45.7608 23.9558 45.7608 25.8579Z" fill="#FB770A"/>
<path d="M60.8528 44.7167C59.3488 42.0477 56.0138 41.0313 53.2772 42.4076L44.3807 46.6111C43.1523 44.3269 40.7961 42.8729 38.2031 42.7997L29.9903 42.5734C28.6899 42.5363 27.4139 42.2063 26.2577 41.6096L25.422 41.1766C21.1431 38.9462 16.043 38.9517 11.7686 41.191L11.8207 39.2978C11.8379 38.6706 11.3438 38.1482 10.7166 38.131L1.71089 37.8831C1.0837 37.8659 0.561876 38.36 0.544685 38.9872L0.000679457 58.7505C-0.0165114 59.3777 0.477585 59.9001 1.10477 59.9173L10.1105 60.1652H10.1421C10.7571 60.1646 11.2601 59.675 11.2773 59.0605L11.3028 58.115L13.6424 56.8623C14.5607 56.3682 15.6349 56.2507 16.638 56.5346L30.6086 60.4558C30.633 60.463 30.6574 60.4685 30.6824 60.4741C31.6922 60.6853 32.7214 60.7913 33.7534 60.7907C35.9383 60.7918 38.0977 60.321 40.0835 59.4093C40.1323 59.3872 40.1794 59.3617 40.2244 59.3328L60.4807 46.2295C60.9859 45.9035 61.1489 45.2397 60.8528 44.7167ZM2.30258 57.6775L2.78392 40.1856L9.51939 40.3708L9.03749 57.8633L2.30258 57.6775ZM39.0598 57.3797C36.5927 58.4932 33.8372 58.8005 31.1853 58.2581L17.2519 54.348C15.6842 53.9044 14.0051 54.0885 12.5705 54.8599L11.3749 55.4998L11.6954 43.8694C15.4835 41.3496 20.3424 41.0906 24.3772 43.1929L25.2129 43.626C26.6736 44.3801 28.2851 44.7966 29.9282 44.8437L38.1409 45.07C40.4478 45.136 42.407 46.7785 42.8751 49.0389L30.6419 48.7022C30.0147 48.6851 29.4929 49.1791 29.4757 49.8063C29.4585 50.4335 29.9526 50.9559 30.5798 50.9731L44.0801 51.3446H44.1123C44.7267 51.3441 45.2297 50.8544 45.2468 50.24C45.2607 49.7464 45.2236 49.2523 45.1371 48.7666L54.2604 44.455L54.287 44.4423C55.5813 43.7868 57.1468 44.0058 58.2109 44.9912L39.0598 57.3797Z" fill="#FB770A"/>
</g>
<defs>
<clipPath id="clip0">
<rect width="61" height="61" fill="white"/>
</clipPath>
</defs>
</svg>
