<svg width="66" height="66" viewBox="0 0 66 66" fill="none" xmlns="http://www.w3.org/2000/svg">
<path d="M46.87 40.5398C46.2789 40.0103 45.3706 40.062 44.8441 40.6517C41.8511 43.9962 37.5353 45.913 32.9999 45.913C28.466 45.913 24.1488 43.9962 21.1558 40.6517C20.6264 40.062 19.721 40.0103 19.1299 40.5398C18.5388 41.0678 18.49 41.9746 19.018 42.5657C22.5547 46.5171 27.6511 48.7826 32.9999 48.7826C38.3502 48.7826 43.4466 46.5157 46.9819 42.5657C47.5099 41.9746 47.4597 41.0678 46.87 40.5398Z" fill="#FB770A"/>
<path d="M33 0C14.8041 0 0 14.8041 0 33C0 51.1959 14.8041 66 33 66C51.1959 66 66 51.1959 66 33C66 14.8041 51.1959 0 33 0ZM33 63.1304C16.3852 63.1304 2.86957 49.6148 2.86957 33C2.86957 16.3852 16.3852 2.86957 33 2.86957C49.6148 2.86957 63.1304 16.3852 63.1304 33C63.1304 49.6148 49.6148 63.1304 33 63.1304Z" fill="#FB770A"/>
<path d="M44.4784 22.9565C40.5227 22.9565 37.3044 26.1748 37.3044 30.1305C37.3044 30.9225 37.9472 31.5652 38.7392 31.5652C39.5312 31.5652 40.174 30.9225 40.174 30.1305C40.174 27.7573 42.1052 25.8261 44.4784 25.8261C46.8515 25.8261 48.7827 27.7573 48.7827 30.1305C48.7827 30.9225 49.4255 31.5652 50.2175 31.5652C51.0095 31.5652 51.6523 30.9225 51.6523 30.1305C51.6523 26.1748 48.4341 22.9565 44.4784 22.9565Z" fill="#FB770A"/>
<path d="M25.8262 30.1305C25.8262 30.9225 26.4689 31.5652 27.2609 31.5652C28.0529 31.5652 28.6957 30.9225 28.6957 30.1305C28.6957 26.1748 25.4775 22.9565 21.5218 22.9565C17.5661 22.9565 14.3479 26.1748 14.3479 30.1305C14.3479 30.9225 14.9907 31.5652 15.7827 31.5652C16.5747 31.5652 17.2175 30.9225 17.2175 30.1305C17.2175 27.7573 19.1487 25.8261 21.5218 25.8261C23.8949 25.8261 25.8262 27.7573 25.8262 30.1305Z" fill="#FB770A"/>
</svg>
