<svg width="65" height="65" viewBox="0 0 65 65" fill="none" xmlns="http://www.w3.org/2000/svg">
<g clip-path="url(#clip0)">
<path d="M34.1074 30.8941C33.611 30.3977 32.8074 30.3977 32.311 30.8941C31.8159 31.3892 31.8159 32.1928 32.311 32.6892C32.8074 33.1843 33.611 33.1843 34.1074 32.6892C34.6025 32.1928 34.6025 31.3892 34.1074 30.8941Z" fill="#FB770A"/>
<path d="M50.2649 14.7354C47.7842 12.2549 43.7684 12.2548 41.2876 14.7354C38.8135 17.2096 38.8133 21.2366 41.288 23.7128C43.7631 26.1863 47.79 26.1874 50.2649 23.7125C52.7453 21.2321 52.7458 17.2162 50.2649 14.7354ZM48.4695 21.917C46.985 23.4016 44.5686 23.4016 43.0834 21.9173C41.5987 20.4317 41.5986 18.0153 43.0831 16.5308C44.5714 15.0425 46.981 15.0423 48.4695 16.5308C49.9578 18.019 49.958 20.4287 48.4695 21.917Z" fill="#FB770A"/>
<path d="M64.628 0.371857C64.3786 0.122649 64.0384 -0.0124289 63.6847 0.000901112C63.3977 0.0111843 56.5632 0.28591 48.4388 3.15746C41.9287 5.45607 36.5023 8.74707 32.3105 12.9391C31.3711 13.8784 30.4571 14.8744 29.5825 15.9092C25.4377 13.4695 22.1164 14.2345 20.0167 15.3581C15.1822 17.9454 12.1898 24.9705 12.1898 29.9953C12.1902 30.5087 12.4996 30.9717 12.9739 31.1681C13.1309 31.2332 13.296 31.2648 13.4595 31.2648C13.7899 31.2648 14.1146 31.1357 14.3574 30.893C16.907 28.3434 20.0518 28.5028 21.0791 28.6379L21.5237 29.0825C20.6487 31.1645 19.9438 33.2349 19.4269 35.2485C19.2403 35.9772 19.3032 36.7483 19.5806 37.4537C18.3583 38.0169 17.1791 38.844 16.1523 39.8708C12.8844 43.1389 12.2208 51.1031 12.1941 51.4406C12.1649 51.8109 12.2993 52.1755 12.5619 52.4382C12.801 52.6771 13.1243 52.81 13.4595 52.81C13.4927 52.81 13.5261 52.8087 13.5595 52.8061C13.897 52.7795 21.8615 52.116 25.1294 48.8481C26.1558 47.8216 26.9828 46.6425 27.546 45.4205C28.2928 45.7141 29.0614 45.7503 29.7525 45.5732C31.7652 45.0564 33.8353 44.3518 35.9176 43.4767L36.3622 43.9213C36.4971 44.9487 36.6566 48.0934 34.1071 50.6428C33.7441 51.0059 33.6355 51.5519 33.832 52.0262C34.0284 52.5006 34.4913 52.8099 35.0048 52.8099C40.0296 52.8099 47.0545 49.8175 49.6418 44.983C50.7655 42.8836 51.5305 39.5622 49.0907 35.4173C50.125 34.5431 51.1212 33.6291 52.0609 32.6894C56.2529 28.4974 59.5438 23.071 61.8424 16.5614C64.714 8.43667 64.9886 1.60203 64.9989 1.31512C65.0116 0.962823 64.8772 0.621193 64.628 0.371857ZM15.0282 27.2647C15.8169 23.4481 18.1075 19.26 21.2153 17.5967C23.2921 16.4854 25.5622 16.5943 27.9758 17.9155C25.9195 20.6198 24.1319 23.5334 22.6419 26.6101C22.6229 26.5984 22.3944 26.3111 21.9699 26.2154C21.7953 26.1759 18.4363 25.4534 15.0282 27.2647ZM23.334 47.0526C21.5884 48.7982 17.4935 49.7188 14.9053 50.0947C15.2814 47.5064 16.2022 43.4117 17.9476 41.6662C18.9252 40.6887 20.0586 39.9475 21.1979 39.5301L25.4701 43.8023C25.0527 44.9416 24.3117 46.075 23.334 47.0526ZM29.1218 43.1136C28.7544 43.2077 28.3288 43.0695 28.0125 42.7537C26.3701 41.1113 25.7276 40.4688 25.526 40.2673C25.1563 39.8976 24.2497 38.9911 22.2473 36.9885C21.9307 36.6712 21.7925 36.2458 21.8864 35.8791C22.293 34.2954 22.8248 32.6707 23.4715 31.0303L33.9699 41.5287C32.3292 42.1755 30.7048 42.7072 29.1218 43.1136ZM47.4035 43.7849C45.7402 46.8926 41.5522 49.1833 37.7358 49.9718C38.9526 47.682 39.2209 44.767 38.7763 42.9995C38.6731 42.5889 38.4052 42.3825 38.3902 42.3582C41.4667 40.8682 44.3801 39.0806 47.0847 37.0243C48.4059 39.4382 48.5147 41.7085 47.4035 43.7849ZM50.2658 30.894C49.1218 32.0378 47.89 33.143 46.6045 34.1785C43.5142 36.6668 40.1129 38.7745 36.484 40.4523L24.5479 28.5164C26.2257 24.8873 28.3334 21.486 30.8214 18.3961C31.8579 17.1097 32.9629 15.8778 34.1063 14.7344C37.8673 10.9733 42.7212 7.98002 48.5372 5.82537L59.1748 16.463C57.0204 22.2788 54.0271 27.1328 50.2658 30.894ZM60.0883 13.7854L51.2148 4.91195C56.0493 3.41035 60.2551 2.84807 62.3544 2.64596C62.1521 4.74564 61.5897 8.95146 60.0883 13.7854Z" fill="#FB770A"/>
<path d="M30.5158 52.4378C30.0198 51.942 29.2159 51.9423 28.7203 52.438L25.1301 56.0295C24.6344 56.5254 24.6346 57.3293 25.1303 57.8249C25.6263 58.3205 26.4302 58.3205 26.9258 57.8246L30.516 54.2332C31.0117 53.7373 31.0115 52.9334 30.5158 52.4378Z" fill="#FB770A"/>
<path d="M12.5625 34.4843C12.0668 33.9884 11.2631 33.9884 10.7671 34.4841L7.17559 38.0743C6.67971 38.5699 6.67959 39.3738 7.17521 39.8696C7.67071 40.3653 8.47445 40.3658 8.97058 39.8699L12.5621 36.2797C13.058 35.784 13.0581 34.9802 12.5625 34.4843Z" fill="#FB770A"/>
<path d="M21.5393 54.2343C21.0438 53.7385 20.2398 53.7385 19.7439 54.2341L11.1441 62.8326C10.6483 63.3284 10.6483 64.1323 11.144 64.628C11.6395 65.1238 12.4435 65.124 12.9394 64.6281L21.5392 56.0296C22.035 55.5339 22.035 54.73 21.5393 54.2343Z" fill="#FB770A"/>
<path d="M11.383 54.2343C10.8874 53.7385 10.0834 53.7385 9.58768 54.2341L0.987891 62.8326C0.492013 63.3284 0.492013 64.1323 0.987764 64.628C1.48326 65.1238 2.28725 65.124 2.78313 64.6281L11.3829 56.0296C11.8788 55.5339 11.8788 54.73 11.383 54.2343Z" fill="#FB770A"/>
<path d="M10.7659 43.4608C10.2703 42.9651 9.46631 42.9651 8.97056 43.4609L0.372041 52.0606C-0.123709 52.5565 -0.123709 53.3603 0.372168 53.8561C0.867919 54.3519 1.67178 54.3519 2.16754 53.856L10.7661 45.2562C11.2618 44.7604 11.2618 43.9566 10.7659 43.4608Z" fill="#FB770A"/>
<path d="M39.4929 25.5073C38.997 25.0115 38.1934 25.0115 37.6974 25.5073L35.9023 27.3024C35.4066 27.7981 35.4066 28.602 35.9023 29.0979C36.3982 29.5936 37.2019 29.5936 37.6978 29.0979L39.4929 27.3027C39.9887 26.807 39.9887 26.0031 39.4929 25.5073Z" fill="#FB770A"/>
</g>
<defs>
<clipPath id="clip0">
<rect width="65" height="65" fill="white"/>
</clipPath>
</defs>
</svg>
