<svg width="71" height="71" viewBox="0 0 71 71" fill="none" xmlns="http://www.w3.org/2000/svg">
<g clip-path="url(#clip0)">
<path d="M71.0003 56.8201V48.2175L67.8882 47.4462C67.655 46.7503 67.379 46.0767 67.0602 45.4331L68.7118 42.6926L62.6282 36.6101L59.8876 38.26C59.2435 37.9417 58.5704 37.6652 57.8757 37.4314L57.1043 34.3216H48.5018L47.7304 37.4325C47.0357 37.6652 46.3626 37.9417 45.719 38.2616L42.9779 36.6112L36.8943 42.6937L37.4996 43.6977L30.0571 42.4571V42.1633C32.6238 40.9805 34.7607 39.028 36.1713 36.5962H38.0183C39.8992 36.5962 41.4302 35.0657 41.4302 33.1843C43.3111 33.1843 44.8421 31.6538 44.8421 29.7723V25.2231C44.8421 23.7426 43.8875 22.4914 42.5675 22.0205V18.2287C42.5675 8.28894 34.4808 0.202271 24.5421 0.202271C19.7269 0.202271 15.2004 2.0765 11.7963 5.48288L11.2687 6.00822C8.25217 6.90896 6.17358 9.67837 6.17358 12.8526V22.0205C4.85301 22.4914 3.89895 23.7426 3.89895 25.2231V29.7723C3.89895 31.6538 5.42944 33.1843 7.31089 33.1843H11.1721C12.2055 37.1798 15.0011 40.4657 18.684 42.1633V42.4571L9.91648 43.9182C7.08765 44.3902 4.72306 46.3577 3.74291 49.0511L0 59.3424H38.4276C38.4686 59.429 38.5036 59.519 38.5458 59.6028L36.8943 62.3439L42.9779 68.4264L45.719 66.776C46.3626 67.0942 47.0357 67.3708 47.7304 67.6051L48.5018 70.7155H57.1043L57.8757 67.6051C58.5704 67.3719 59.2435 67.0953 59.8876 66.776L62.6282 68.4264L68.7118 62.3439L67.0602 59.6028C67.379 58.9603 67.655 58.2873 67.8882 57.5898L71.0003 56.8201ZM35.6059 57.0678H25.5079V50.129C28.0346 49.6142 29.941 47.4134 30.0366 44.7589L38.2332 46.1245C38.0455 46.556 37.8689 46.9936 37.7178 47.4462L34.6063 48.2175V56.8201L35.6059 57.0678ZM20.9586 42.9708C22.0515 43.254 23.191 43.4201 24.3705 43.4201C25.5495 43.4201 26.689 43.254 27.7825 42.9708V44.5574C27.7825 46.4388 26.2514 47.9693 24.3705 47.9693C22.4891 47.9693 20.9586 46.4388 20.9586 44.5574V42.9708ZM38.0183 34.3216H37.2219C37.3541 33.9501 37.4685 33.5713 37.569 33.1843H39.1556C39.1556 33.8123 38.6447 34.3216 38.0183 34.3216ZM42.5675 29.7723C42.5675 30.4004 42.0566 30.9096 41.4302 30.9096V26.3604H39.1556V30.9096H37.96C37.9916 30.5331 38.0183 30.1566 38.0183 29.7723V24.0858H41.4302C42.0566 24.0858 42.5675 24.5956 42.5675 25.2231V29.7723ZM7.31089 30.9096C6.68392 30.9096 6.17358 30.4004 6.17358 29.7723V25.2231C6.17358 24.5956 6.68392 24.0858 7.31089 24.0858H10.7228V29.7723C10.7228 30.1566 10.7489 30.5331 10.7806 30.9096H7.31089ZM10.7228 19.5365V21.8112H8.4482V12.8526C8.4482 10.6147 9.96424 8.67212 12.1361 8.12957L12.4421 8.0546L13.4056 7.0911C16.3794 4.11455 20.3339 2.47689 24.5421 2.47689C33.2264 2.47689 40.2929 9.54287 40.2929 18.2287V21.8112H38.0183V19.5365H36.881C32.7843 19.5365 28.9331 17.9422 26.0365 15.0456L24.3705 13.378L22.7051 15.0456C19.8074 17.9422 15.9562 19.5365 11.8601 19.5365H10.7228ZM12.9974 29.7723V21.7762C17.2735 21.5052 21.2563 19.7109 24.3133 16.6538L24.3705 16.5966L24.4272 16.6538C27.4843 19.7109 31.4671 21.5052 35.7437 21.7762V29.7723C35.7437 31.39 35.3988 32.9271 34.7868 34.3216H28.7104C28.2395 33.0016 26.9884 32.047 25.5079 32.047H23.2332C21.3518 32.047 19.8213 33.578 19.8213 35.4589C19.8213 37.3403 21.3518 38.8708 23.2332 38.8708H25.5079C26.9884 38.8708 28.2395 37.9168 28.7104 36.5962H33.4474C31.3693 39.3523 28.0801 41.1454 24.3705 41.1454C18.0992 41.1454 12.9974 36.0436 12.9974 29.7723ZM26.6452 35.4589C26.6452 36.087 26.1343 36.5962 25.5079 36.5962H23.2332C22.6063 36.5962 22.0959 36.087 22.0959 35.4589C22.0959 34.8314 22.6063 34.3216 23.2332 34.3216H25.5079C26.1343 34.3216 26.6452 34.8314 26.6452 35.4589ZM5.88092 49.828C6.58063 47.9049 8.27049 46.4988 10.2902 46.1611L18.704 44.7589C18.7995 47.4134 20.7059 49.6142 23.2332 50.129V57.0678H11.0421L11.8257 53.9313L9.61938 53.381L8.69698 57.0678H3.24811L5.88092 49.828ZM66.0845 55.695L65.9013 56.3253C65.6169 57.3055 65.2338 58.2384 64.7606 59.0958L64.4446 59.67L65.8457 61.9946L62.2789 65.5626L59.9543 64.1615L59.3801 64.4775C58.5204 64.9506 57.5875 65.3349 56.6095 65.6193L55.9798 65.8014L55.3256 68.4409H50.2805L49.6263 65.8003L48.9965 65.6181C48.0186 65.3338 47.0868 64.9495 46.226 64.4764L45.6518 64.1604L43.3272 65.5615L39.7603 61.9935L41.1614 59.6689L40.8454 59.0947C40.3723 58.2373 39.9891 57.3055 39.7048 56.3242L39.5215 55.6939L36.881 55.0414V49.9962L39.5215 49.3421L39.7048 48.7123C39.9891 47.7316 40.3723 46.7992 40.8454 45.9418L41.1614 45.367L39.7603 43.0424L43.3272 39.475L45.6518 40.8761L46.226 40.5601C47.0857 40.087 48.0186 39.7021 48.9965 39.4178L49.6263 39.2362L50.2805 36.5962H55.3256L55.9798 39.2373L56.6095 39.4189C57.5875 39.7032 58.5193 40.0881 59.3801 40.5612L59.9543 40.8772L62.2789 39.4761L65.8457 43.0435L64.4446 45.3681L64.7606 45.9429C65.2338 46.8003 65.6169 47.7316 65.9013 48.7134L66.0845 49.3432L68.7257 49.9962V55.0414L66.0845 55.695Z" fill="#FB770A"/>
<path d="M52.8033 41.1454C46.532 41.1454 41.4302 46.2478 41.4302 52.5185C41.4302 58.7899 46.532 63.8916 52.8033 63.8916C59.074 63.8916 64.1764 58.7899 64.1764 52.5185C64.1764 46.2478 59.074 41.1454 52.8033 41.1454ZM52.8033 61.617C47.7865 61.617 43.7048 57.5354 43.7048 52.5185C43.7048 47.5023 47.7865 43.4201 52.8033 43.4201C57.8195 43.4201 61.9018 47.5023 61.9018 52.5185C61.9018 57.5354 57.8195 61.617 52.8033 61.617Z" fill="#FB770A"/>
<path d="M52.8034 45.6947C49.0399 45.6947 45.9795 48.7551 45.9795 52.5186C45.9795 56.282 49.0399 59.3424 52.8034 59.3424V57.0678C50.2944 57.0678 48.2541 55.0275 48.2541 52.5186C48.2541 50.0096 50.2944 47.9693 52.8034 47.9693C55.3118 47.9693 57.3526 50.0096 57.3526 52.5186H59.6272C59.6272 48.7551 56.5663 45.6947 52.8034 45.6947Z" fill="#FB770A"/>
<path d="M18.684 25.2231C18.684 25.8511 18.1748 26.3604 17.5467 26.3604C16.9181 26.3604 16.4094 25.8511 16.4094 25.2231C16.4094 24.595 16.9181 24.0858 17.5467 24.0858C18.1748 24.0858 18.684 24.595 18.684 25.2231Z" fill="#FB770A"/>
<path d="M32.3317 25.2231C32.3317 25.8511 31.8225 26.3604 31.1944 26.3604C30.5658 26.3604 30.0571 25.8511 30.0571 25.2231C30.0571 24.595 30.5658 24.0858 31.1944 24.0858C31.8225 24.0858 32.3317 24.595 32.3317 25.2231Z" fill="#FB770A"/>
</g>
<defs>
<clipPath id="clip0">
<rect width="71" height="71" fill="white"/>
</clipPath>
</defs>
</svg>
