<svg width="66" height="66" viewBox="0 0 66 66" fill="none" xmlns="http://www.w3.org/2000/svg">
<g clip-path="url(#clip0)">
<path d="M11.2859 56.9766C11.2859 54.9545 12.9311 53.3094 14.9531 53.3094C16.9752 53.3094 18.6203 54.9545 18.6203 56.9766C18.6203 58.9986 16.9752 60.6438 14.9531 60.6438C12.9311 60.6438 11.2859 58.9986 11.2859 56.9766ZM13.4641 56.9766C13.4641 57.798 14.1317 58.4656 14.9531 58.4656C15.7746 58.4656 16.4422 57.798 16.4422 56.9766C16.4422 56.1551 15.7746 55.4875 14.9531 55.4875C14.1317 55.4875 13.4641 56.1551 13.4641 56.9766Z" fill="#FB770A" stroke="white" stroke-width="0.4"/>
<path d="M59.8703 53.1094V53.3094H60.0703H62.1328C64.1548 53.3094 65.8 54.9545 65.8 56.9766C65.8 58.9986 64.1548 60.6437 62.1328 60.6437H23.1069H22.9805L22.9263 60.758C21.4787 63.8068 18.3803 65.8 14.9531 65.8C10.0881 65.8 6.12969 61.8416 6.12969 56.9766C6.12969 53.5494 8.1229 50.451 11.1717 49.0034L11.2859 48.9492V48.8227V7.73438V7.53438H11.0859H3.86719C1.84515 7.53438 0.2 5.88922 0.2 3.86719C0.2 1.84515 1.84515 0.2 3.86719 0.2H14.9531C16.9752 0.2 18.6203 1.84515 18.6203 3.86719V48.8227V48.9494L18.7348 49.0035C20.5803 49.876 22.0542 51.3499 22.9261 53.1948L22.9803 53.3094H23.1069H23.9766H24.1766V53.1094V6.44531C24.1766 5.84376 24.6641 5.35625 25.2656 5.35625H25.2953H25.3252H25.3553H25.3856H25.4162H25.447H25.4781H25.5094H25.5409H25.5726H25.6045H25.6367H25.6691H25.7018H25.7346H25.7677H25.801H25.8345H25.8682H25.9022H25.9363H25.9707H26.0053H26.0401H26.0751H26.1104H26.1458H26.1815H26.2174H26.2534H26.2897H26.3262H26.3629H26.3998H26.4369H26.4742H26.5118H26.5495H26.5874H26.6255H26.6638H26.7023H26.741H26.78H26.8191H26.8584H26.8978H26.9375H26.9774H27.0175H27.0577H27.0982H27.1388H27.1796H27.2206H27.2618H27.3032H27.3448H27.3865H27.4284H27.4706H27.5128H27.5553H27.5979H27.6408H27.6838H27.7269H27.7703H27.8138H27.8575H27.9014H27.9454H27.9896H28.034H28.0786H28.1233H28.1681H28.2132H28.2584H28.3038H28.3493H28.395H28.4409H28.4869H28.5331H28.5794H28.6259H28.6726H28.7194H28.7663H28.8135H28.8607H28.9082H28.9557H29.0035H29.0513H29.0993H29.1475H29.1958H29.2443H29.2929H29.3417H29.3906H29.4396H29.4888H29.5381H29.5876H29.6371H29.6869H29.7368H29.7868H29.8369H29.8872H29.9376H29.9881H30.0388H30.0896H30.1406H30.1916H30.2428H30.2941H30.3456H30.3971H30.4488H30.5007H30.5526H30.6047H30.6568H30.7091H30.7616H30.8141H30.8667H30.9195H30.9724H31.0254H31.0785H31.1317H31.1851H31.2385H31.2921H31.3458H31.3995H31.4534H31.5074H31.5615H31.6157H31.67H31.7244H31.7789H31.8335H31.8882H31.943H31.9979H32.0529H32.108H32.1632H32.2185H32.2739H32.3294H32.385H32.4406H32.4964H32.5522H32.6081H32.6641H32.7202H32.7764H32.8327H32.889H32.9455H33.002H33.0586H33.1153H33.172H33.2289H33.2858H33.3428H33.3998H33.457H33.5142H33.5715H33.6288H33.6863H33.7438H33.8013H33.859H33.9167H33.9744H34.0323H34.0902H34.1482H34.2062H34.2643H34.3224H34.3806H34.4389H34.4972H34.5556H34.6141H34.6726H34.7311H34.7897H34.8484H34.9071H34.9659H35.0247H35.0836H35.1425H35.2015H35.2605H35.3195H35.3786H35.4378H35.4969H35.5562H35.6154H35.6748H35.7341H35.7935H35.8529H35.9124H35.9719H36.0314H36.091H36.1506H36.2102H36.2699H36.3296H36.3893H36.4491H36.5089H36.5687H36.6285H36.6884H36.7483H36.8082H36.8681H36.9281H36.988H37.048H37.1081H37.1681H37.2281H37.2882H37.3483H37.4084H37.4685H37.5286H37.5887H37.6489H37.709H37.7692H37.8294H37.8895H37.9497H38.0099H38.0701H38.1303H38.1905H38.2507H38.3109H38.3711H38.4313H38.4915H38.5517H38.6119H38.6721H38.7323H38.7924H38.8526H38.9128H38.9729H39.0331H39.0932H39.1533H39.2134H39.2735H39.3336H39.3937H39.4537H39.5137H39.5737H39.6337H39.6937H39.7537H39.8136H39.8735H39.9334H39.9932H40.0531H40.1129H40.1727H40.2324H40.2922H40.3518H40.4115H40.4711H40.5307H40.5903H40.6498H40.7093H40.7688H40.8282H40.8876H40.947H41.0063H41.0655H41.1248H41.184H41.2431H41.3022H41.3612H41.4203H41.4792H41.5381H41.597H41.6558H41.7146H41.7733H41.8319H41.8905H41.9491H42.0076H42.066H42.1244H42.1827H42.241H42.2992H42.3574H42.4154H42.4735H42.5314H42.5893H42.6472H42.7049H42.7626H42.8203H42.8778H42.9353H42.9927H43.0501H43.1074H43.1646H43.2217H43.2788H43.3358H43.3927H43.4495H43.5062H43.5629H43.6195H43.676H43.7325H43.7888H43.8451H43.9012H43.9573H44.0133H44.0693H44.1251H44.1808H44.2365H44.292H44.3475H44.4029H44.4582H44.5133H44.5684H44.6234H44.6783H44.7331H44.7878H44.8424H44.8969H44.9513H45.0056H45.0598H45.1139H45.1679H45.2217H45.2755H45.3292H45.3827H45.4362H45.4895H45.5427H45.5958H45.6488H45.7017H45.7544H45.8071H45.8596H45.912H45.9643H46.0165H46.0685H46.1205H46.1723H46.224H46.2755H46.327H46.3783H46.4294H46.4805H46.5314H46.5822H46.6329H46.6834H46.7338H46.7841H46.8342H46.8842H46.9341H46.9838H47.0334H47.0828H47.1321H47.1813H47.2303H47.2792H47.3279H47.3765H47.425H47.4733H47.5215H47.5695H47.6173H47.665H47.7126H47.76H47.8073H47.8544H47.9013H47.9481H47.9948H48.0412H48.0876H48.1337H48.1798H48.2256H48.2713H48.3168H48.3622H48.4074H48.4524H48.4973H48.542H48.5865H48.6309H48.6751H48.7191H48.7629H48.8066H48.8501H48.8935H48.9366H48.9796H49.0224H49.065H49.1075H49.1498H49.1919H49.2338H49.2755H49.317H49.3584H49.3996H49.4406H49.4814H49.522H49.5624H49.6027H49.6427H49.6826H49.7223H49.7617H49.801H49.8401H49.879H49.9177H49.9562H49.9945H50.0326H50.0705H50.1082H50.1457H50.183H50.2201H50.257H50.2936H50.3301H50.3664H50.4025H50.4383H50.4739H50.5094H50.5446H50.5796H50.6144H50.649H50.6833H50.7175H50.7514H50.7851H50.8186H50.8519H50.885H50.9178H50.9504H50.9828H51.0149H51.0469C51.6484 5.35625 52.1359 5.84376 52.1359 6.44531V23.9766V24.1766H52.3359H58.7812C59.3828 24.1766 59.8703 24.6641 59.8703 25.2656V53.1094ZM57.4922 53.3094H57.6922V53.1094V26.5547V26.3547H57.4922H48.4688H48.2687V26.5547V40.2188C48.2687 40.6314 48.0357 41.0083 47.6668 41.193C47.2984 41.3772 46.8568 41.338 46.5263 41.09L46.5262 41.09L42.1434 37.8029L42.0234 37.7129L41.9034 37.8029L37.5206 41.09C37.1904 41.3377 36.7488 41.3776 36.3802 41.193C36.0112 41.0083 35.7781 40.6314 35.7781 40.2188V26.5547V26.3547H35.5781H26.5547H26.3547V26.5547V53.1094V53.3094H26.5547H57.4922ZM38.1562 26.3547H37.9562V26.5547V37.6406V38.0406L38.2762 37.8006L41.3699 35.4804C41.5636 35.3352 41.7937 35.2625 42.0234 35.2625C42.2532 35.2625 42.4833 35.3352 42.6769 35.4804L45.7706 37.8006L46.0906 38.0406V37.6406V26.5547V26.3547H45.8906H38.1562ZM35.5781 7.53438H35.3781V7.73438V15.1223V15.496L35.689 15.2887L37.5521 14.047L37.5523 14.0469C37.7351 13.9249 37.9455 13.8641 38.1562 13.8641C38.367 13.8641 38.5774 13.9249 38.7602 14.0469L38.7604 14.047L40.6235 15.2887L40.9344 15.496V15.1223V7.73438V7.53438H40.7344H35.5781ZM33.2 7.73438V7.53438H33H26.5547H26.3547V7.73438V23.9766V24.1766H26.5547H26.5959H26.6371H26.6784H26.7198H26.7611H26.8026H26.844H26.8855H26.9271H26.9687H27.0104H27.0521H27.0938H27.1356H27.1774H27.2193H27.2612H27.3032H27.3452H27.3872H27.4293H27.4714H27.5136H27.5558H27.5981H27.6404H27.6827H27.7251H27.7676H27.81H27.8525H27.8951H27.9377H27.9803H28.023H28.0657H28.1084H28.1512H28.1941H28.2369H28.2799H28.3228H28.3658H28.4088H28.4519H28.495H28.5381H28.5813H28.6245H28.6678H28.7111H28.7544H28.7978H28.8412H28.8847H28.9281H28.9717H29.0152H29.0588H29.1024H29.1461H29.1898H29.2335H29.2773H29.3211H29.3649H29.4088H29.4527H29.4967H29.5406H29.5847H29.6287H29.6728H29.7169H29.761H29.8052H29.8494H29.8937H29.938H29.9823H30.0266H30.071H30.1154H30.1598H30.2043H30.2488H30.2933H30.3379H30.3825H30.4271H30.4718H30.5165H30.5612H30.6059H30.6507H30.6955H30.7403H30.7852H30.8301H30.875H30.92H30.965H31.01H31.055H31.1001H31.1452H31.1903H31.2354H31.2806H31.3258H31.371H31.4163H31.4616H31.5069H31.5522H31.5976H31.643H31.6884H31.7338H31.7793H31.8248H31.8703H31.9158H31.9614H32.007H32.0526H32.0982H32.1439H32.1896H32.2353H32.281H32.3268H32.3725H32.4183H32.4642H32.51H32.5559H32.6018H32.6477H32.6936H32.7396H32.7856H32.8316H32.8776H32.9236H32.9697H33.0158H33.0619H33.108H33.1541H33.2003H33.2465H33.2927H33.3389H33.3851H33.4314H33.4777H33.524H33.5703H33.6166H33.663H33.7093H33.7557H33.8021H33.8485H33.895H33.9414H33.9879H34.0344H34.0809H34.1274H34.174H34.2205H34.2671H34.3137H34.3603H34.4069H34.4535H34.5002H34.5468H34.5935H34.6402H34.6869H34.7336H34.7804H34.8271H34.8739H34.9206H34.9674H35.0142H35.061H35.1079H35.1547H35.2015H35.2484H35.2953H35.3422H35.3891H35.436H35.4829H35.5298H35.5768H35.6237H35.6707H35.7176H35.7646H35.8116H35.8586H35.9056H35.9526H35.9997H36.0467H36.0938H36.1408H36.1879H36.235H36.282H36.3291H36.3762H36.4233H36.4704H36.5176H36.5647H36.6118H36.659H36.7061H36.7533H36.8004H36.8476H36.8947H36.9419H36.9891H37.0363H37.0835H37.1307H37.1779H37.2251H37.2723H37.3195H37.3667H37.414H37.4612H37.5084H37.5556H37.6029H37.6501H37.6974H37.7446H37.7919H37.8391H37.8864H37.9336H37.9809H38.0281H38.0754H38.1226H38.1699H38.2172H38.2644H38.3117H38.3589H38.4062H38.4535H38.5007H38.548H38.5953H38.6425H38.6898H38.737H38.7843H38.8316H38.8788H38.9261H38.9733H39.0206H39.0678H39.1151H39.1623H39.2095H39.2568H39.304H39.3512H39.3984H39.4457H39.4929H39.5401H39.5873H39.6345H39.6817H39.7289H39.7761H39.8233H39.8705H39.9176H39.9648H40.012H40.0591H40.1063H40.1534H40.2005H40.2477H40.2948H40.3419H40.389H40.4361H40.4832H40.5303H40.5774H40.6244H40.6715H40.7186H40.7656H40.8126H40.8597H40.9067H40.9537H41.0007H41.0477H41.0946H41.1416H41.1886H41.2355H41.2825H41.3294H41.3763H41.4232H41.4701H41.517H41.5638H41.6107H41.6575H41.7044H41.7512H41.798H41.8448H41.8916H41.9383H41.9851H42.0318H42.0785H42.1253H42.1719H42.2186H42.2653H42.312H42.3586H42.4052H42.4518H42.4984H42.545H42.5916H42.6381H42.6846H42.7312H42.7777H42.8241H42.8706H42.9171H42.9635H43.0099H43.0563H43.1027H43.149H43.1954H43.2417H43.288H43.3343H43.3806H43.4268H43.4731H43.5193H43.5655H43.6116H43.6578H43.7039H43.75H43.7961H43.8422H43.8883H43.9343H43.9803H44.0263H44.0723H44.1182H44.1641H44.21H44.2559H44.3018H44.3476H44.3934H44.4392H44.485H44.5307H44.5764H44.6221H44.6678H44.7135H44.7591H44.8047H44.8503H44.8958H44.9413H44.9868H45.0323H45.0778H45.1232H45.1686H45.214H45.2593H45.3046H45.3499H45.3952H45.4405H45.4857H45.5309H45.576H45.6212H45.6663H45.7114H45.7564H45.8014H45.8464H45.8914H45.9363H45.9812H46.0261H46.071H46.1158H46.1606H46.2053H46.2501H46.2948H46.3395H46.3841H46.4287H46.4733H46.5178H46.5624H46.6068H46.6513H46.6957H46.7401H46.7845H46.8288H46.8731H46.9174H46.9616H47.0058H47.05H47.0941H47.1382H47.1823H47.2263H47.2703H47.3142H47.3582H47.4021H47.4459H47.4897H47.5335H47.5773H47.621H47.6647H47.7083H47.7519H47.7955H47.8391H47.8826H47.926H47.9694H48.0128H48.0562H48.0995H48.1428H48.186H48.2292H48.2724H48.3155H48.3586H48.4017H48.4447H48.4876H48.5306H48.5735H48.6163H48.6591H48.7019H48.7447H48.7873H48.83H48.8726H48.9152H48.9577H49.0002H49.0427H49.0851H49.1274H49.1698H49.212H49.2543H49.2965H49.3386H49.3807H49.4228H49.4648H49.5068H49.5488H49.5907H49.6325H49.6743H49.7161H49.7578H49.9578V23.9766V7.73438V7.53438H49.7578H43.3125H43.1125V7.73438V17.5312C43.1125 17.9328 42.8912 18.3021 42.5374 18.4914L42.5373 18.4914C42.1839 18.6807 41.7537 18.6603 41.4193 18.4374L38.2672 16.3361L38.1562 16.2622L38.0453 16.3361L34.8932 18.4373C34.8932 18.4374 34.8932 18.4374 34.8932 18.4374C34.5591 18.6599 34.1295 18.6811 33.7753 18.4915C33.4212 18.3016 33.2 17.9327 33.2 17.5312V7.73438ZM16.2138 48.2443L16.4422 48.277V48.0463V3.86719C16.4422 3.04573 15.7746 2.37812 14.9531 2.37812H3.86719C3.04573 2.37812 2.37812 3.04573 2.37812 3.86719C2.37812 4.68864 3.04573 5.35625 3.86719 5.35625H12.375C12.9765 5.35625 13.4641 5.84376 13.4641 6.44531V48.0463V48.277L13.6924 48.2443C14.1085 48.1846 14.529 48.1531 14.9531 48.1531C15.3773 48.1531 15.7978 48.1846 16.2138 48.2443ZM23.6854 58.2372L23.6527 58.4656H23.8834H62.1328C62.9543 58.4656 63.6219 57.798 63.6219 56.9766C63.6219 56.1551 62.9543 55.4875 62.1328 55.4875H23.8834H23.653L23.6854 55.7157C23.7446 56.132 23.7766 56.5526 23.7766 56.9766C23.7766 57.4007 23.7451 57.8212 23.6854 58.2372ZM8.30781 56.9766C8.30781 60.641 11.2887 63.6219 14.9531 63.6219C18.5776 63.6219 21.5984 60.6901 21.5984 56.9766C21.5984 53.3552 18.6657 50.3312 14.9531 50.3312C11.2396 50.3312 8.30781 53.3521 8.30781 56.9766Z" fill="#FB770A" stroke="white" stroke-width="0.4"/>
<path d="M54.7141 49.2422C54.7141 49.8437 54.2265 50.3313 53.625 50.3313C53.0235 50.3313 52.5359 49.8437 52.5359 49.2422V46.6641C52.5359 46.0625 53.0235 45.575 53.625 45.575C54.2265 45.575 54.7141 46.0625 54.7141 46.6641V49.2422Z" fill="#FB770A" stroke="white" stroke-width="0.4"/>
<path d="M53.625 40.4188C54.226 40.4188 54.7141 40.9068 54.7141 41.5078C54.7141 42.1089 54.226 42.5969 53.625 42.5969C53.024 42.5969 52.5359 42.1089 52.5359 41.5078C52.5359 40.9068 53.024 40.4188 53.625 40.4188Z" fill="#FB770A" stroke="white" stroke-width="0.4"/>
<path d="M47.3797 46.6641C47.3797 46.0625 47.8672 45.575 48.4688 45.575C49.0703 45.575 49.5578 46.0625 49.5578 46.6641V49.2422C49.5578 49.8437 49.0703 50.3313 48.4688 50.3313C47.8672 50.3313 47.3797 49.8437 47.3797 49.2422V46.6641Z" fill="#FB770A" stroke="white" stroke-width="0.4"/>
</g>
<defs>
<clipPath id="clip0">
<rect width="66" height="66" fill="white"/>
</clipPath>
</defs>
</svg>
