<svg width="56" height="56" fill="none" xmlns="http://www.w3.org/2000/svg"><path opacity=".7" d="M50.154 12.246H42.23A23.117 23.117 0 0028 7.323a23.117 23.117 0 00-14.23 4.923H5.846A5.853 5.853 0 000 18.092v24.739a5.853 5.853 0 005.846 5.846h44.308A5.853 5.853 0 0056 42.83V18.092a5.853 5.853 0 00-5.846-5.846zm4 30.585c0 2.205-1.795 4-4 4H5.846c-2.205 0-4-1.795-4-4V18.092c0-2.205 1.795-4 4-4h8.247a.923.923 0 00.58-.205A21.263 21.263 0 0128 9.169c4.832 0 9.565 1.676 13.327 4.718.164.133.37.205.58.205h8.247c2.205 0 4 1.795 4 4v24.739z" fill="#151515"/><path opacity=".7" d="M28 15.938c-7.974 0-14.461 6.488-14.461 14.462 0 7.974 6.487 14.462 14.461 14.462S42.462 38.374 42.462 30.4c0-7.974-6.488-14.461-14.462-14.461zm0 27.077c-6.956 0-12.615-5.659-12.615-12.615S21.044 17.785 28 17.785 40.615 23.444 40.615 30.4 34.956 43.015 28 43.015z" fill="#151515"/><path opacity=".7" d="M28 20.862c-5.26 0-9.539 4.279-9.539 9.538 0 5.26 4.28 9.538 9.539 9.538 5.26 0 9.538-4.278 9.538-9.538 0-5.26-4.279-9.538-9.538-9.538zm0 17.23c-4.242 0-7.692-3.45-7.692-7.692 0-4.241 3.45-7.692 7.692-7.692s7.692 3.45 7.692 7.692-3.45 7.692-7.692 7.692zM7.385 10.4h5.169a.923.923 0 000-1.846h-5.17a.923.923 0 000 1.846zm40.307 6.77a3.388 3.388 0 00-3.384 3.384 3.388 3.388 0 003.384 3.385 3.388 3.388 0 003.385-3.385 3.388 3.388 0 00-3.385-3.385zm0 4.922a1.54 1.54 0 01-1.538-1.538c0-.848.69-1.539 1.538-1.539.849 0 1.539.69 1.539 1.539a1.54 1.54 0 01-1.539 1.538z" fill="#151515"/></svg>