<svg width="45" height="45" fill="none" xmlns="http://www.w3.org/2000/svg"><path d="M38.41 6.59C34.16 2.34 28.51 0 22.5 0 16.986 0 11.775 1.972 7.67 5.58l-.011.01c-.365.32-.722.653-1.069 1C2.34 10.84 0 16.49 0 22.5s2.34 11.66 6.59 15.91S16.49 45 22.5 45s11.66-2.34 15.91-6.59S45 28.51 45 22.5s-2.34-11.66-6.59-15.91zm4.597 11.306L30.25 25.26V2.964c6.377 2.54 11.227 8.115 12.757 14.932zm-26.773 8.222v-7.236l6.266-3.617 6.266 3.617v7.236L22.5 29.735l-6.266-3.617zm12.532-23.68v14.731L9.466 6.026A20.914 20.914 0 0122.5 1.484c2.181 0 4.286.334 6.266.954zM8.27 7.048l12.747 7.36-19.31 11.149a21.097 21.097 0 01-.223-3.057c0-6.104 2.616-11.608 6.786-15.451zM1.993 27.105l12.758-7.365v22.296c-6.378-2.538-11.228-8.114-12.758-14.93zm14.241 15.459V27.83l5.899 3.405.003.002 13.399 7.736A20.914 20.914 0 0122.5 43.517c-2.181 0-4.286-.335-6.266-.955zM36.73 37.95l-12.746-7.36 19.31-11.148c.146.998.223 2.019.223 3.057 0 6.104-2.617 11.608-6.787 15.451z" fill="#151515" opacity=".7"/></svg>