<svg width="45" height="45" fill="none" xmlns="http://www.w3.org/2000/svg"><g clip-path="url(#clip0)" fill="#151515" opacity=".7"><path d="M24.38 43.434a21.28 21.28 0 01-1.88.083c-11.589 0-21.016-9.428-21.016-21.016 0-11.589 9.427-21.017 21.016-21.017 11.588 0 21.016 9.428 21.016 21.017a20.82 20.82 0 01-2.072 9.11.742.742 0 001.337.644A22.292 22.292 0 0045 22.5c0-6.01-2.34-11.66-6.59-15.91S28.51.001 22.5.001s-11.66 2.34-15.91 6.59S0 16.491 0 22.501s2.34 11.66 6.59 15.91S16.49 45 22.5 45c.668 0 1.345-.03 2.011-.09a.742.742 0 10-.131-1.477z"/><path d="M36.971 31.538a.742.742 0 101.258.787 18.491 18.491 0 002.815-9.825c0-10.225-8.319-18.544-18.544-18.544S3.956 12.275 3.956 22.5 12.275 41.044 22.5 41.044c.67 0 1.35-.037 2.026-.11a.742.742 0 10-.16-1.476 17.33 17.33 0 01-1.866.102c-9.407 0-17.06-7.653-17.06-17.06S13.093 5.44 22.5 5.44s17.06 7.653 17.06 17.06a17.01 17.01 0 01-2.589 9.038z"/><path d="M27.673 8.935a.742.742 0 00-1.049 0l-17.69 17.69a.742.742 0 101.05 1.048l17.689-17.69a.74.74 0 000-1.048zm-6.695 15.829a.74.74 0 00.525-.218l11.312-11.312a.742.742 0 10-1.049-1.05L20.454 23.498a.742.742 0 00.524 1.267zm-2.763.971l-6.03 6.031a.742.742 0 001.049 1.05l6.03-6.032a.742.742 0 10-1.049-1.049zm26.327 8.478a.742.742 0 00-.97.402l-3.187 7.703-3.188-7.703a.742.742 0 10-1.37.567l3.873 9.36a.742.742 0 001.37 0l3.873-9.36a.742.742 0 00-.401-.97zm-10.997-.056a.742.742 0 00-.742.741v6.294a2.327 2.327 0 01-2.324 2.324 2.327 2.327 0 01-2.325-2.324v-6.294a.742.742 0 10-1.483 0v6.294c0 2.1 1.708 3.808 3.808 3.808 2.1 0 3.807-1.708 3.807-3.808v-6.294a.742.742 0 00-.741-.741z"/></g><defs><clipPath id="clip0"><path fill="#fff" d="M0 0h45v45H0z"/></clipPath></defs></svg>