<svg xmlns="http://www.w3.org/2000/svg" width="47" height="49"><path fill="#642281" d="M17.231 18.545a2.006 2.006 0 110 4.012 2.006 2.006 0 010-4.012zm12.747 8.144a2.006 2.006 0 110 4.012 2.006 2.006 0 010-4.012z"/><path fill="#642281" d="M46.521 27.28a3.117 3.117 0 01-1.003 4.572l-1.072.6a3.119 3.119 0 00-1.554 3.296l.226 1.21a3.122 3.122 0 01-2.891 3.688l-1.23.069a3.105 3.105 0 00-2.832 2.292l-.325 1.19a3.132 3.132 0 01-4.21 2.065l-1.141-.472a3.127 3.127 0 00-3.55.836l-.807.925c-1.229 1.425-3.422 1.435-4.681.038l-.817-.914a3.117 3.117 0 00-3.56-.787l-1.131.482a3.117 3.117 0 01-4.239-1.996l-.345-1.182a3.134 3.134 0 00-2.872-2.251l-1.229-.05a3.125 3.125 0 01-2.951-3.638l.207-1.21a3.117 3.117 0 00-1.603-3.276l-1.082-.58a3.13 3.13 0 01-1.082-4.564l.708-1.003a3.133 3.133 0 00-.029-3.649l-.728-.994a3.12 3.12 0 011.003-4.573l1.072-.6a3.119 3.119 0 001.554-3.295l-.226-1.21a3.122 3.122 0 012.891-3.688l1.23-.069a3.105 3.105 0 002.832-2.292l.325-1.19a3.131 3.131 0 014.21-2.065l1.141.472a3.127 3.127 0 003.55-.836l.807-.925a3.117 3.117 0 014.681-.039l.817.915a3.116 3.116 0 003.56.786l1.131-.482a3.118 3.118 0 014.239 1.997l.345 1.18a3.134 3.134 0 002.872 2.253l1.229.05a3.124 3.124 0 012.951 3.638l-.207 1.21a3.117 3.117 0 001.603 3.275l1.082.58a3.131 3.131 0 011.082 4.564l-.708 1.003a3.131 3.131 0 00.03 3.65zm-34.139-6.73a4.842 4.842 0 004.839 4.84 4.835 4.835 0 004.839-4.84 4.835 4.835 0 00-4.839-4.838 4.836 4.836 0 00-4.839 4.839zm18.471-2.813a1.183 1.183 0 00-.157-1.662 1.184 1.184 0 00-1.662.157L16.336 31.529a1.183 1.183 0 00.158 1.663 1.183 1.183 0 001.662-.159zm-.875 15.797a4.836 4.836 0 004.839-4.84 4.836 4.836 0 00-4.839-4.838 4.836 4.836 0 00-4.839 4.839 4.836 4.836 0 004.839 4.839z"/></svg>