<?xml version="1.0" encoding="iso-8859-1"?>
<!-- Generator: Adobe Illustrator 19.0.0, SVG Export Plug-In . SVG Version: 6.00 Build 0)  -->
<svg version="1.1" id="Capa_1" xmlns="http://www.w3.org/2000/svg" xmlns:xlink="http://www.w3.org/1999/xlink" x="0px" y="0px"
	 viewBox="0 0 512.002 512.002" style="enable-background:new 0 0 512.002 512.002;" xml:space="preserve">
<path style="fill:#E53935;" d="M443.734,80.336L330.86,70.437c-49.812-4.334-99.906-4.334-149.717,0L68.268,80.336
	c-38.702,3.124-68.459,35.541-68.267,74.368V357.37c-0.204,38.835,29.557,71.265,68.267,74.389l112.939,9.813
	c24.832,2.133,49.835,3.243,74.859,3.243c25.024,0,50.027-1.067,74.859-3.243l112.939-9.813c38.659-3.187,68.348-35.6,68.139-74.389
	V154.704C512.194,115.877,482.436,83.459,443.734,80.336z"/>
<path style="fill:#FAFAFA;" d="M357.782,247.077l-149.333-96c-4.951-3.193-11.552-1.768-14.745,3.183
	c-1.111,1.722-1.702,3.728-1.703,5.777v192c0.002,5.891,4.78,10.665,10.671,10.663c2.049-0.001,4.055-0.592,5.777-1.703l149.333-96
	c4.954-3.187,6.387-9.787,3.2-14.742c-0.825-1.283-1.917-2.374-3.2-3.2V247.077z"/>
<g>
</g>
<g>
</g>
<g>
</g>
<g>
</g>
<g>
</g>
<g>
</g>
<g>
</g>
<g>
</g>
<g>
</g>
<g>
</g>
<g>
</g>
<g>
</g>
<g>
</g>
<g>
</g>
<g>
</g>
</svg>
