<?xml version="1.0" standalone="no"?>
<!DOCTYPE svg PUBLIC "-//W3C//DTD SVG 20010904//EN"
 "http://www.w3.org/TR/2001/REC-SVG-20010904/DTD/svg10.dtd">
<svg version="1.0" xmlns="http://www.w3.org/2000/svg"
 width="700.000000pt" height="700.000000pt" viewBox="0 0 700.000000 700.000000"
 preserveAspectRatio="xMidYMid meet">
<metadata>
Created by potrace 1.11, written by Peter Selinger 2001-2013
</metadata>
<g transform="translate(0.000000,700.000000) scale(0.100000,-0.100000)"
fill="#000000" stroke="none">
<path d="M3278 6996 c-1 -2 -41 -6 -88 -10 -47 -4 -96 -8 -110 -10 -14 -3 -47
-7 -75 -10 -27 -3 -61 -8 -75 -11 -14 -3 -41 -8 -60 -11 -455 -79 -989 -300
-1352 -559 -31 -22 -66 -47 -78 -55 -13 -8 -59 -44 -104 -79 -662 -524 -1111
-1259 -1271 -2081 -47 -244 -60 -386 -60 -675 1 -194 7 -329 20 -406 2 -13 6
-46 9 -74 9 -78 23 -156 51 -285 71 -330 253 -781 418 -1038 26 -40 47 -75 47
-78 0 -2 4 -10 10 -17 5 -7 46 -64 91 -127 189 -268 406 -496 683 -718 89 -72
367 -262 382 -262 4 0 15 -6 23 -14 25 -22 277 -148 400 -200 147 -62 377
-141 471 -161 8 -1 35 -8 60 -15 53 -14 61 -16 160 -35 97 -18 125 -23 180
-30 25 -3 56 -7 69 -10 161 -31 697 -25 908 9 21 4 54 9 73 11 19 3 46 7 60
10 14 3 41 8 60 11 19 3 62 13 95 21 33 8 67 16 75 18 75 15 304 89 440 142
131 51 399 181 463 224 23 16 46 29 50 29 4 0 13 5 20 10 7 6 64 45 129 88
109 72 279 202 358 272 83 75 258 251 313 315 33 39 63 72 67 75 3 3 44 55 90
115 107 141 211 300 289 444 54 99 141 276 141 287 0 2 11 27 24 56 57 127
151 421 182 573 17 81 54 301 59 350 4 33 9 71 11 85 9 47 11 525 4 605 -15
157 -21 210 -25 225 -2 8 -7 35 -10 60 -15 117 -78 375 -125 520 -295 893
-921 1623 -1754 2044 -317 161 -692 283 -1021 332 -27 4 -57 9 -65 10 -8 2
-42 6 -76 9 -33 4 -74 9 -90 11 -33 5 -540 14 -546 10z m422 -770 c832 -65
1568 -489 2049 -1179 33 -48 61 -90 61 -92 0 -3 16 -29 35 -59 110 -173 266
-550 300 -727 2 -12 7 -29 10 -39 3 -10 8 -29 11 -42 12 -59 23 -116 28 -153
4 -23 8 -52 11 -65 26 -134 26 -666 0 -743 -2 -7 -7 -30 -10 -52 -40 -291
-179 -687 -324 -925 -11 -19 -24 -42 -28 -50 -6 -14 -90 -145 -105 -165 -4 -5
-33 -44 -64 -85 -413 -550 -1054 -938 -1724 -1045 -58 -9 -116 -18 -130 -21
-45 -7 -253 -18 -340 -17 -494 2 -976 139 -1410 401 -113 67 -146 91 -295 210
-145 116 -257 229 -428 432 -137 162 -296 441 -396 692 -44 111 -111 326 -125
403 -3 17 -12 64 -20 105 -32 172 -44 321 -40 540 1 102 5 202 8 223 3 20 8
54 11 75 12 88 17 122 36 213 11 53 28 127 39 165 11 38 22 76 24 84 10 39 53
155 93 250 126 302 319 594 552 835 429 444 995 733 1586 811 22 3 51 7 65 9
14 3 72 8 130 11 58 4 106 7 107 8 4 3 217 -3 283 -8z"/>
</g>
</svg>
