<svg width="28" height="28" fill="none" xmlns="http://www.w3.org/2000/svg"><path fill="#000" d="M0 0h28v28H0z"/><path d="M19.848 8.496a.564.564 0 00-.53-.067 1.966 1.966 0 01-2.739-1.849.564.564 0 00-.563-.58h-2.254a.564.564 0 00-.564.563v9.647a1.409 1.409 0 11-1.408-1.408.563.563 0 00.563-.564v-2.254a.563.563 0 00-.563-.563A4.795 4.795 0 007 16.21a4.739 4.739 0 00.902 2.817.563.563 0 00.456.236.563.563 0 00.333-.13.564.564 0 00.13-.788 3.629 3.629 0 01-.694-2.136 3.674 3.674 0 013.1-3.623v1.127a2.536 2.536 0 103.098 2.496V7.127h1.167a3.105 3.105 0 003.482 2.575v1.093a4.012 4.012 0 01-2.67-.467.563.563 0 00-.846.49v5.392a3.668 3.668 0 01-5.071 3.381.564.564 0 00-.434 1.037A4.712 4.712 0 0011.8 21a4.8 4.8 0 004.778-4.418.425.425 0 000-.09v-4.8c1.003.35 2.09.381 3.11.09a.563.563 0 00.407-.564V8.992a.563.563 0 00-.248-.496z" fill="#fff"/></svg>