<?xml version="1.0" encoding="utf-8"?><svg xmlns="http://www.w3.org/2000/svg" xmlns:xlink="http://www.w3.org/1999/xlink"><symbol viewBox="0 -66 512.001 512" id="icon-360-degrees" xmlns="http://www.w3.org/2000/svg"><path d="M322.285 335.645c-7.441 0-13.898-5.532-14.863-13.106-1.043-8.219 4.77-15.727 12.984-16.773 47.399-6.04 89.844-18.883 119.516-36.172C467.059 253.785 482 235.199 482 217.262c0-19.77-17.484-35.946-32.156-46.04-6.824-4.695-8.551-14.03-3.856-20.859 4.696-6.824 14.035-8.55 20.86-3.855C496.387 166.828 512 191.293 512 217.266c0 29.476-19.7 56.535-56.973 78.25-33.55 19.546-78.789 33.382-130.828 40.011-.644.078-1.285.118-1.914.118zm-69.941-21.489l-40-40c-5.86-5.86-15.356-5.86-21.215 0-5.856 5.856-5.856 15.356 0 21.211l11.687 11.688c-44.812-4.63-85.523-15.063-117.046-30.223C50.328 259.789 30 238.074 30 217.262c0-17.653 14.555-36 40.98-51.664 7.13-4.223 9.48-13.426 5.258-20.551-4.226-7.129-13.43-9.48-20.554-5.258C9.66 167.07 0 196.977 0 217.262c0 33.281 25.844 64.039 72.77 86.61 36.421 17.51 83.535 29.241 134.863 33.78l-16.504 16.504c-5.856 5.856-5.856 15.356 0 21.215a14.97 14.97 0 0010.61 4.39c3.835 0 7.675-1.464 10.605-4.39l40-40c5.855-5.86 5.855-15.36 0-21.215zm0 0"/><path d="M157.098 187.223v-3.61c0-12.73-7.793-15.199-18.243-15.199-6.46 0-8.55-5.7-8.55-11.398 0-5.703 2.09-11.403 8.55-11.403 7.22 0 14.82-.949 14.82-16.34 0-11.02-6.269-13.68-14.062-13.68-9.308 0-14.058 2.282-14.058 9.692 0 6.457-2.852 10.828-13.871 10.828-13.68 0-15.387-2.851-15.387-11.972 0-14.817 10.637-34.008 43.316-34.008 24.133 0 42.371 8.738 42.371 34.39 0 13.868-5.129 26.79-14.629 31.16 11.211 4.18 19.38 12.54 19.38 27.93v3.61c0 31.16-21.47 42.941-48.07 42.941-32.68 0-45.22-19.95-45.22-35.91 0-8.55 3.61-10.832 14.059-10.832 12.16 0 15.2 2.66 15.2 9.883 0 8.93 8.362 11.02 16.91 11.02 12.921 0 17.484-4.75 17.484-17.102zm144.968-3.61v1.711c0 32.68-20.332 44.84-46.55 44.84s-46.743-12.16-46.743-44.84v-50.351c0-32.68 21.09-44.84 48.454-44.84 32.109 0 44.84 19.949 44.84 35.719 0 9.12-4.372 11.968-13.872 11.968-8.168 0-15.39-2.09-15.39-10.828 0-7.219-7.598-11.02-16.528-11.02-11.21 0-17.863 5.891-17.863 19v17.098c6.082-6.648 14.633-8.36 23.754-8.36 21.656 0 39.898 9.5 39.898 39.903zm-63.652 3.801c0 13.11 6.461 18.809 17.102 18.809s16.91-5.7 16.91-18.809v-1.71c0-13.872-6.27-19.192-17.102-19.192-10.258 0-16.91 4.941-16.91 17.48zm86.641-2.09v-50.351c0-32.68 20.328-44.84 46.55-44.84 26.22 0 46.739 12.16 46.739 44.84v50.351c0 32.68-20.52 44.84-46.739 44.84-26.222 0-46.55-12.16-46.55-44.84zm63.648-50.351c0-13.11-6.457-19-17.098-19s-16.91 5.89-16.91 19v50.351c0 13.11 6.27 19 16.91 19s17.098-5.89 17.098-19zM454.352 90c-24.817 0-45-20.188-45-45s20.183-45 45-45c24.812 0 45 20.188 45 45s-20.188 45-45 45zm0-60c-8.274 0-15 6.73-15 15 0 8.273 6.726 15 15 15 8.27 0 15-6.727 15-15 0-8.27-6.73-15-15-15zm0 0"/></symbol><symbol viewBox="0 0 512.002 512.002" id="icon-arrow-next" xmlns="http://www.w3.org/2000/svg"><path d="M388.425 241.951L151.609 5.79c-7.759-7.733-20.321-7.72-28.067.04-7.74 7.759-7.72 20.328.04 28.067l222.72 222.105-222.728 222.104c-7.759 7.74-7.779 20.301-.04 28.061a19.8 19.8 0 0014.057 5.835 19.79 19.79 0 0014.017-5.795l236.817-236.155c3.737-3.718 5.834-8.778 5.834-14.05s-2.103-10.326-5.834-14.051z"/></symbol><symbol viewBox="0 0 492.004 492.004" id="icon-arrow-prev" xmlns="http://www.w3.org/2000/svg"><path d="M382.678 226.804L163.73 7.86C158.666 2.792 151.906 0 144.698 0s-13.968 2.792-19.032 7.86l-16.124 16.12c-10.492 10.504-10.492 27.576 0 38.064L293.398 245.9l-184.06 184.06c-5.064 5.068-7.86 11.824-7.86 19.028 0 7.212 2.796 13.968 7.86 19.04l16.124 16.116c5.068 5.068 11.824 7.86 19.032 7.86s13.968-2.792 19.032-7.86L382.678 265c5.076-5.084 7.864-11.872 7.848-19.088.016-7.244-2.772-14.028-7.848-19.108z"/></symbol><symbol viewBox="0 0 376.4 376.4" id="icon-balance" xmlns="http://www.w3.org/2000/svg"><path d="M375.76 191.32l-.32.16-54-134.4h24.64a8 8 0 000-16H195.52V17.96a8 8 0 00-16 0V41H29.04a8 8 0 000 16h25.68L.64 191.32a8 8 0 00-.64 2.96c0 36.738 29.782 66.52 66.52 66.52s66.52-29.782 66.52-66.52a8 8 0 00-.64-2.96l-54-134.4h101.12v247.36c-38.16 2.88-68 26.08-68 54.16a8 8 0 008 8h136a8 8 0 008-8c0-28.08-29.84-51.28-68-54.16V56.92h102.16L244 191.32a8 8 0 00-.64 2.96c0 36.738 29.782 66.52 66.52 66.52s66.52-29.782 66.52-66.52a8 8 0 00-.64-2.96zm-309.28 53.6c-24.778-.034-45.88-18.02-49.84-42.48H116c-3.94 24.341-24.863 42.29-49.52 42.48zm46.64-58.48H20L66.64 70.36l46.48 116.08zm132.96 164h-117.2c5.92-17.2 30.32-30.48 58.56-30.48s52.72 13.28 58.64 30.48zm63.44-280l46.48 116h-93.12l46.64-116zm0 174.48v.08c-24.683-.197-45.615-18.187-49.52-42.56h99.36c-3.96 24.46-25.062 42.446-49.84 42.48z"/></symbol><symbol viewBox="0 0 284.929 284.929" id="icon-chevron-up" xmlns="http://www.w3.org/2000/svg"><path d="M17.128 167.872c1.903 1.902 4.093 2.854 6.567 2.854s4.664-.952 6.567-2.854L142.466 55.666l112.208 112.206c1.902 1.902 4.093 2.854 6.563 2.854 2.478 0 4.668-.952 6.57-2.854l14.274-14.277c1.902-1.902 2.847-4.093 2.847-6.563 0-2.475-.951-4.665-2.847-6.567L149.028 7.419c-1.901-1.906-4.088-2.853-6.562-2.853s-4.665.95-6.567 2.853L2.856 140.464C.95 142.367 0 144.554 0 147.034c0 2.468.953 4.658 2.856 6.561l14.272 14.277z"/><path d="M149.028 117.055c-1.901-1.906-4.088-2.856-6.562-2.856s-4.665.953-6.567 2.856L2.856 250.1C.95 252.003 0 254.192 0 256.67c0 2.472.953 4.661 2.856 6.564l14.272 14.276c1.903 1.903 4.093 2.848 6.567 2.848s4.664-.951 6.567-2.848l112.204-112.209L254.674 277.51c1.902 1.903 4.093 2.852 6.563 2.852 2.478 0 4.668-.948 6.57-2.852l14.274-14.276c1.902-1.903 2.847-4.093 2.847-6.564 0-2.478-.951-4.667-2.847-6.57L149.028 117.055z"/></symbol><symbol viewBox="0 0 512 512" id="icon-coupon" xmlns="http://www.w3.org/2000/svg"><path d="M501.333 202.667A10.66 10.66 0 00512 192v-85.333C512 83.135 492.865 64 469.333 64H42.667C19.135 64 0 83.135 0 106.667V192a10.66 10.66 0 0010.667 10.667C40.073 202.667 64 226.594 64 256s-23.927 53.333-53.333 53.333A10.66 10.66 0 000 320v85.333C0 428.865 19.135 448 42.667 448h426.667C492.865 448 512 428.865 512 405.333V320a10.66 10.66 0 00-10.667-10.667C471.927 309.333 448 285.406 448 256s23.927-53.333 53.333-53.333zM426.667 256c0 37.552 27.865 68.719 64 73.906v75.427c0 11.76-9.573 21.333-21.333 21.333H42.667c-11.76 0-21.333-9.573-21.333-21.333v-75.427c36.135-5.188 64-36.354 64-73.906s-27.865-68.719-64-73.906v-75.427c0-11.76 9.573-21.333 21.333-21.333h426.667c11.76 0 21.333 9.573 21.333 21.333v75.427c-36.136 5.187-64 36.354-64 73.906z"/><path d="M138.667 104A10.66 10.66 0 00128 114.667v24a10.66 10.66 0 0010.667 10.667 10.66 10.66 0 0010.667-10.667v-24A10.662 10.662 0 00138.667 104zm0 88A10.66 10.66 0 00128 202.667V224a10.66 10.66 0 0010.667 10.667A10.66 10.66 0 00149.334 224v-21.333A10.662 10.662 0 00138.667 192zm0 85.333A10.66 10.66 0 00128 288v21.333A10.66 10.66 0 00138.667 320a10.66 10.66 0 0010.667-10.667V288a10.662 10.662 0 00-10.667-10.667zm0 85.334A10.66 10.66 0 00128 373.334v21.333a10.66 10.66 0 0010.667 10.667 10.66 10.66 0 0010.667-10.667v-21.333a10.662 10.662 0 00-10.667-10.667zm219.25-211.542c-4.938-3.271-11.531-1.948-14.792 2.958l-128 192a10.66 10.66 0 002.958 14.792 10.664 10.664 0 005.906 1.792 10.65 10.65 0 008.885-4.75l128-192a10.658 10.658 0 00-2.957-14.792zm-80.584 51.542c0-29.406-19.135-53.333-42.667-53.333S192 173.26 192 202.667 211.135 256 234.667 256s42.666-23.927 42.666-53.333zm-64 0c0-17.344 9.771-32 21.333-32s21.333 14.656 21.333 32-9.771 32-21.333 32-21.333-14.657-21.333-32zm128 53.333c-23.531 0-42.667 23.927-42.667 53.333s19.135 53.333 42.667 53.333c23.531 0 42.667-23.927 42.667-53.333S364.865 256 341.333 256zm0 85.333c-11.563 0-21.333-14.656-21.333-32s9.771-32 21.333-32c11.563 0 21.333 14.656 21.333 32s-9.77 32-21.333 32z"/></symbol><symbol viewBox="0 0 490.688 490.688" id="icon-down-arrows" xmlns="http://www.w3.org/2000/svg"><path d="M472.328 216.529L245.213 443.665 18.098 216.529c-4.237-4.093-10.99-3.975-15.083.262-3.992 4.134-3.992 10.687 0 14.82l234.667 234.667c4.165 4.164 10.917 4.164 15.083 0l234.667-234.667c4.093-4.237 3.975-10.99-.262-15.083a10.666 10.666 0 00-14.821 0l-.021.001z"/><path d="M472.328 24.529L245.213 251.665 18.098 24.529A10.668 10.668 0 003.015 39.612l234.667 234.667c4.165 4.164 10.917 4.164 15.083 0L487.432 39.612c4.237-4.093 4.354-10.845.262-15.083-4.093-4.237-10.845-4.354-15.083-.262-.089.086-.176.173-.262.262h-.021z"/><path d="M245.213 469.415a10.663 10.663 0 01-7.552-3.115L2.994 231.633c-4.093-4.237-3.975-10.99.262-15.083 4.134-3.992 10.687-3.992 14.82 0l227.136 227.115 227.115-227.136c4.237-4.093 10.99-3.975 15.083.262a10.666 10.666 0 010 14.821L252.744 466.279a10.674 10.674 0 01-7.531 3.136z"/><path d="M245.213 277.415a10.663 10.663 0 01-7.552-3.115L2.994 39.633A10.668 10.668 0 0118.077 24.55l227.136 227.115L472.328 24.529c4.093-4.237 10.845-4.354 15.083-.262s4.354 10.845.262 15.083c-.086.089-.173.176-.262.262L252.744 274.279a10.674 10.674 0 01-7.531 3.136z"/></symbol><symbol viewBox="0 -28 512 512" id="icon-heart" xmlns="http://www.w3.org/2000/svg"><path d="M471.383 44.578C444.879 15.832 408.512 0 368.973 0c-29.555 0-56.621 9.344-80.45 27.77C276.5 37.07 265.605 48.45 256 61.73c-9.602-13.277-20.5-24.66-32.527-33.96C199.648 9.344 172.582 0 143.027 0c-39.539 0-75.91 15.832-102.414 44.578C14.426 72.988 0 111.801 0 153.871c0 43.3 16.137 82.938 50.781 124.742 30.992 37.395 75.535 75.356 127.117 119.313 17.614 15.012 37.579 32.027 58.309 50.152A30.023 30.023 0 00256 455.516a30.03 30.03 0 0019.785-7.43c20.73-18.129 40.707-35.152 58.328-50.172 51.575-43.95 96.117-81.906 127.11-119.305C495.867 236.81 512 197.172 512 153.867c0-42.066-14.426-80.879-40.617-109.289zm0 0"/></symbol><symbol viewBox="0 0 330 330" id="icon-menu" xmlns="http://www.w3.org/2000/svg"><path d="M15 120h300c8.284 0 15-6.716 15-15s-6.716-15-15-15H15c-8.284 0-15 6.716-15 15s6.716 15 15 15zm300 30H15c-8.284 0-15 6.716-15 15s6.716 15 15 15h300c8.284 0 15-6.716 15-15s-6.716-15-15-15zm0 60H15c-8.284 0-15 6.716-15 15s6.716 15 15 15h300c8.284 0 15-6.716 15-15s-6.716-15-15-15z"/></symbol><symbol viewBox="0 0 512 512" id="icon-percentage" xmlns="http://www.w3.org/2000/svg"><path d="M465.408 96H46.592C20.912 96 0 116.912 0 142.592v226.816C0 395.088 20.912 416 46.592 416h418.816c25.68 0 46.592-20.912 46.592-46.592V142.592C512 116.912 491.088 96 465.408 96zM480 369.408c0 8.048-6.544 14.592-14.592 14.592H46.592C38.544 384 32 377.456 32 369.408V142.592C32 134.544 38.544 128 46.592 128h418.816c8.048 0 14.592 6.544 14.592 14.592v226.816z"/><path d="M343.008 162.208c-6.256-6.256-16.368-6.256-22.624 0L157.408 325.184c-6.256 6.256-6.256 16.368 0 22.624a15.956 15.956 0 0011.312 4.688c4.096 0 8.192-1.552 11.312-4.688l162.976-162.976c6.256-6.256 6.256-16.368 0-22.624zM186.72 144.16c-26 0-47.152 21.152-47.152 47.152s21.152 47.152 47.152 47.152 47.152-21.152 47.152-47.152-21.152-47.152-47.152-47.152zm0 62.304c-8.352 0-15.152-6.8-15.152-15.152s6.8-15.152 15.152-15.152 15.152 6.8 15.152 15.152-6.8 15.152-15.152 15.152zm127.408 64.16c-26.416 0-47.904 21.488-47.904 47.904 0 26.416 21.488 47.904 47.904 47.904s47.904-21.488 47.904-47.904c0-26.416-21.488-47.904-47.904-47.904zm0 63.808c-8.768 0-15.904-7.136-15.904-15.904s7.136-15.904 15.904-15.904 15.904 7.136 15.904 15.904-7.136 15.904-15.904 15.904z"/></symbol><symbol viewBox="0 0 469.333 469.333" id="icon-shopping-cart" xmlns="http://www.w3.org/2000/svg"><path d="M434.979 42.667H85.333c-1.053 0-2.014.396-3.001.693l-8.594-28.241A21.329 21.329 0 0053.333 0H10.667C4.776 0 0 4.776 0 10.667V32c0 5.891 4.776 10.667 10.667 10.667h26.865l66.646 219.01-24.891 29.039c-9.838 11.477-14.268 27.291-9.74 41.713 5.791 18.445 22.07 30.237 40.839 30.237H416c5.891 0 10.667-4.776 10.667-10.667v-21.333c0-5.891-4.776-10.667-10.667-10.667H110.385l33.813-39.448c.85-.992 1.475-2.112 2.12-3.219h206.703a42.68 42.68 0 0038.618-24.507l74.434-158.17a34.636 34.636 0 003.26-14.615v-3.021c0-18.971-15.381-34.352-34.354-34.352z"/><circle cx="128" cy="426.667" r="42.667"/><circle cx="384" cy="426.667" r="42.667"/></symbol><symbol viewBox="0 -77 512.002 512" id="icon-youtube" xmlns="http://www.w3.org/2000/svg"><path d="M501.453 56.094c-5.902-21.934-23.195-39.223-45.125-45.13C416.262 0 255.996 0 255.996 0S95.734 0 55.668 10.547C34.16 16.449 16.445 34.164 10.543 56.094 0 96.156 0 179.242 0 179.242s0 83.504 10.543 123.149c5.906 21.93 23.195 39.222 45.129 45.129C96.156 358.484 256 358.484 256 358.484s160.262 0 200.328-10.546c21.934-5.903 39.223-23.196 45.129-45.125C512 262.745 512 179.663 512 179.663s.422-83.508-10.547-123.57zm0 0"/><path d="M204.969 256l133.27-76.758-133.27-76.758zm0 0"/></symbol></svg>