<svg xmlns="http://www.w3.org/2000/svg" width="48" height="65"><path fill="#7b7979" d="M47.17 61.658s0-18.02-.006-19.814c.006-1.636-.046-40.91-.046-40.91l-.895-.005s-7.312 4.126-7.31 34.721c5.616 1.543 3.252 7.681 2.826 8.46 0 1.558.12 17.556.12 17.556l.018-.003c-.006.017-.012.03-.01.052a2.634 2.634 0 002.65 2.65 2.65 2.65 0 002.65-2.65c.005-.015.005-.036-.005-.046zM34.204 2.06l-1.59-.001.471 16.646-1.909-.004V2.057l-1.394.004v16.748h-1.584V2.059l-1.537.002-.004 16.748h-1.872l.535-16.754h-1.449l-1.763 14.17s-.043.533-.043.735a6.925 6.925 0 002.597 5.41c5.221 5.893 1.657 11.904 1.657 13.333.004 1.58.004 25.91.004 25.91h.004c0 .02-.006.034-.008.057a2.704 2.704 0 002.7 2.699 2.704 2.704 0 002.703-2.697c-.002-.025-.01-.041-.01-.052h.004l.004-25.867c-.004-1.655-3.015-8.571 2.02-13.708.003-.007.015-.021.022-.032a6.935 6.935 0 002.161-4.57c.008-.126.004-.445.004-.445zM10.122.651c5.847.095 9.142 5.692 9.142 11.777-.002 6.134-3.688 10.512-6.906 11.484-1.76 2.47-.6 8.305.645 11.671v26.275h-.006a.247.247 0 01.006.056 2.734 2.734 0 01-2.734 2.733h-.446a2.734 2.734 0 01-2.734-2.733c0-.02.004-.039.006-.056h-.006V35.583c1.245-3.366 2.407-9.202.644-11.67C4.517 22.94.828 18.562.83 12.427.83 6.343 4.123.746 9.969.651V.647h.153zM7.07 21.536c.357.292.634.352.63.333-.014.015-.2-.149-.404-.533-.214-.375-.49-.933-.8-1.599-.304-.67-.66-1.45-.99-2.29a13.805 13.805 0 01-.464-1.29c-.143-.423-.29-.892-.341-1.306-.274-1.77-.153-3.763-.135-5.229.022-.743.044-1.366.058-1.799.017-.433.053-.694.053-.694s-.17.194-.375.605c-.212.403-.467.995-.69 1.73a13.933 13.933 0 00-.54 2.572c-.113.963-.147 2.01.055 3.104.11.57.273 1.05.469 1.55.207.478.428.93.663 1.354.484.843.997 1.576 1.492 2.168.488.592.954 1.042 1.319 1.324z"/></svg>