<svg xmlns="http://www.w3.org/2000/svg" width="64" height="43"><path fill="#7b7979" d="M62.667 32.314H1.334C.597 32.314 0 32.91 0 33.647v1.336c0 2.007.589 3.951 1.703 5.623a5.322 5.322 0 004.438 2.375H57.86a5.325 5.325 0 004.438-2.376A10.105 10.105 0 0064 34.983v-1.336c0-.737-.596-1.333-1.333-1.333zM5.868 29.648a1.335 1.335 0 01-1.307-1.599C6.951 16.281 16.665 7.466 28.34 5.916A3.984 3.984 0 0128 4.314c0-2.205 1.794-4 4-4 2.205 0 4 1.795 4 4 0 .57-.124 1.11-.34 1.602 11.675 1.55 21.388 10.365 23.778 22.133a1.336 1.336 0 01-1.307 1.599zm6.5-7.335a1.333 1.333 0 102.306 1.336 20.005 20.005 0 018.568-7.987 1.334 1.334 0 00-1.169-2.396 22.63 22.63 0 00-9.706 9.047z"/></svg>