<svg xmlns="http://www.w3.org/2000/svg" width="47" height="65"><path fill="#7b7979" d="M11.451 1.339a1 1 0 00-.95-.691h-9a1 1 0 000 2h8.272l3.25 10h2.1zM28.56 12.648h5.766l-3.9-4.548a8.94 8.94 0 00-1.867 4.548zm15.978-4.593l-6.614 5.687 5.748 6.438a8.958 8.958 0 00.866-12.126zM28.56 14.648a9.016 9.016 0 004.675 6.922l1.945-6.922zm8.047-2.411l6.517-5.6a8.965 8.965 0 00-11.292.033zm.363 3.438l-1.87 6.639c2.35.664 4.87.329 6.965-.926z"/><path fill="#7b7979" d="M29.86 49.06a13.826 13.826 0 01-8.36 3.545v10.043h8a1 1 0 010 2h-18a1 1 0 010-2h8V52.595c-.176-.012-.35-.01-.527-.028a14.013 14.013 0 01-4.236-1.155C7.695 48.235 4.562 39.95 7.74 32.909a4.822 4.822 0 00.208-3.29l-4.41-15.7a1 1 0 01.963-1.271h8.523l9.53 29.309a1 1 0 101.9-.618l-9.326-28.691H26.55c-.029.33-.05.662-.05 1a11 11 0 008.063 10.592l-1.51 5.374a4.765 4.765 0 00.193 3.258 13.836 13.836 0 011.254 5.776 14.026 14.026 0 01-4.64 10.412zM28.5 25.648a1 1 0 000 2h1a1 1 0 000-2zm-8-5a1 1 0 001 1h2a1 1 0 000-2h-2a1 1 0 00-1 1zm3 6a1 1 0 001 1h1a1 1 0 000-2h-1a1 1 0 00-1 1zm-11 10a1 1 0 001 1h2a1 1 0 000-2h-2a1 1 0 00-1 1zm5 7a1 1 0 000-2h-2a1 1 0 000 2z"/></svg>