<svg width="267" height="267" viewBox="0 0 267 267" fill="none" xmlns="http://www.w3.org/2000/svg">
<circle cx="133.152" cy="133.152" r="133.152" fill="#033387"/>
<path d="M133 59.3402C119.223 59.3402 105.755 63.4257 94.2991 71.08C82.8436 78.7343 73.9151 89.6137 68.6427 102.342C63.3704 115.071 61.9909 129.077 64.6787 142.59C67.3665 156.103 74.001 168.515 83.7431 178.257C93.4852 187.999 105.897 194.633 119.41 197.321C132.923 200.009 146.929 198.63 159.658 193.357C172.386 188.085 183.266 179.156 190.92 167.701C198.574 156.245 202.66 142.777 202.66 129C202.639 110.531 195.293 92.8253 182.234 79.7661C169.175 66.7068 151.469 59.361 133 59.3402ZM133 194.558C120.034 194.558 107.359 190.713 96.5778 183.51C85.7968 176.306 77.394 166.067 72.4321 154.088C67.4701 142.109 66.1719 128.927 68.7015 116.21C71.231 103.493 77.4748 91.8118 86.6433 82.6434C95.8118 73.4749 107.493 67.2311 120.21 64.7015C132.927 62.1719 146.109 63.4702 158.088 68.4321C170.067 73.3941 180.306 81.7968 187.51 92.5778C194.713 103.359 198.558 116.034 198.558 129C198.539 146.381 191.626 163.045 179.335 175.335C167.045 187.626 150.381 194.539 133 194.558Z" fill="white"/>
<path d="M133 71.9016C121.707 71.9016 110.668 75.2503 101.278 81.5244C91.888 87.7984 84.5696 96.716 80.2479 107.149C75.9263 117.583 74.7955 129.063 76.9987 140.139C79.2018 151.215 84.6399 161.389 92.6253 169.375C100.611 177.36 110.785 182.798 121.861 185.001C132.937 187.204 144.417 186.074 154.851 181.752C165.284 177.43 174.202 170.112 180.476 160.722C186.75 151.332 190.098 140.293 190.098 129C190.081 113.862 184.06 99.3488 173.355 88.6445C162.651 77.9402 148.138 71.9189 133 71.9016ZM135.051 181.941V174.956C135.051 174.412 134.835 173.891 134.45 173.506C134.066 173.122 133.544 172.905 133 172.905C132.456 172.905 131.934 173.122 131.55 173.506C131.165 173.891 130.949 174.412 130.949 174.956V181.941C117.622 181.41 104.984 175.878 95.5521 166.447C86.1205 157.016 80.5877 144.378 80.0558 131.051H87.0402C87.5841 131.051 88.1057 130.835 88.4903 130.45C88.8749 130.066 89.091 129.544 89.091 129C89.091 128.456 88.8749 127.934 88.4903 127.55C88.1057 127.165 87.5841 126.949 87.0402 126.949H80.0558C80.5869 113.621 86.1193 100.983 95.551 91.551C104.983 82.1193 117.621 76.5869 130.949 76.0559V83.0402C130.949 83.5841 131.165 84.1058 131.55 84.4904C131.934 84.875 132.456 85.091 133 85.091C133.544 85.091 134.066 84.875 134.45 84.4904C134.835 84.1058 135.051 83.5841 135.051 83.0402V76.0559C148.379 76.5869 161.017 82.1193 170.449 91.551C179.881 100.983 185.413 113.621 185.944 126.949H178.96C178.416 126.949 177.894 127.165 177.51 127.55C177.125 127.934 176.909 128.456 176.909 129C176.909 129.544 177.125 130.066 177.51 130.45C177.894 130.835 178.416 131.051 178.96 131.051H185.944C185.413 144.379 179.881 157.017 170.449 166.449C161.017 175.881 148.379 181.413 135.051 181.944V181.941Z" fill="white"/>
<path d="M144.94 101.528C147.565 102.671 150.012 104.185 152.206 106.024C152.624 106.366 153.16 106.529 153.697 106.478C154.234 106.427 154.73 106.166 155.076 105.752C155.423 105.339 155.592 104.805 155.547 104.267C155.503 103.729 155.248 103.23 154.838 102.879C152.342 100.788 149.558 99.067 146.573 97.7672C146.074 97.5496 145.509 97.5391 145.003 97.7379C144.496 97.9366 144.09 98.3285 143.872 98.8271C143.655 99.3258 143.644 99.8905 143.843 100.397C144.042 100.903 144.433 101.31 144.932 101.528H144.94Z" fill="white"/>
<path d="M161.724 120.498C161.8 120.756 161.927 120.997 162.096 121.207C162.265 121.416 162.474 121.59 162.711 121.719C162.948 121.847 163.207 121.928 163.475 121.957C163.743 121.985 164.014 121.96 164.272 121.884C164.53 121.807 164.771 121.681 164.981 121.512C165.19 121.342 165.364 121.133 165.493 120.897C165.621 120.66 165.702 120.4 165.73 120.133C165.759 119.865 165.734 119.594 165.658 119.336C164.676 116.015 163.191 112.864 161.254 109.993C160.943 109.56 160.475 109.265 159.95 109.17C159.424 109.076 158.883 109.191 158.441 109.489C157.998 109.788 157.69 110.247 157.58 110.769C157.471 111.292 157.57 111.836 157.855 112.287C159.557 114.81 160.861 117.579 161.724 120.498Z" fill="white"/>
<path d="M164.998 126.949C164.729 126.949 164.462 127.002 164.213 127.105C163.964 127.208 163.738 127.359 163.548 127.55C163.357 127.74 163.206 127.966 163.103 128.215C163 128.464 162.947 128.731 162.947 129C162.949 134.899 161.209 140.667 157.945 145.581C154.68 150.495 150.038 154.335 144.599 156.62C139.16 158.904 133.168 159.532 127.374 158.424C121.58 157.316 116.242 154.521 112.031 150.39C107.819 146.26 104.921 140.977 103.701 135.206C102.48 129.435 102.991 123.431 105.17 117.949C107.349 112.467 111.098 107.751 115.947 104.392C120.797 101.033 126.53 99.1806 132.428 99.068L128.611 102.884C128.421 103.074 128.27 103.3 128.167 103.549C128.064 103.797 128.011 104.064 128.011 104.333C128.011 104.602 128.064 104.869 128.167 105.118C128.27 105.366 128.421 105.592 128.611 105.783C128.802 105.973 129.028 106.124 129.276 106.227C129.525 106.33 129.792 106.383 130.061 106.383C130.33 106.383 130.597 106.33 130.845 106.227C131.094 106.124 131.32 105.973 131.511 105.783L138.582 98.7141C138.599 98.6965 138.612 98.6731 138.631 98.6543C138.666 98.6168 138.696 98.5758 138.729 98.5371C138.782 98.4718 138.831 98.4033 138.876 98.332C138.897 98.2981 138.914 98.2617 138.933 98.2254C138.978 98.1398 139.017 98.0514 139.05 97.9606C139.06 97.9336 139.067 97.9067 139.075 97.8785C139.109 97.7726 139.134 97.664 139.15 97.5539V97.5305C139.15 97.5152 139.15 97.5 139.15 97.4848C139.161 97.4126 139.168 97.3398 139.171 97.2668C139.171 97.2258 139.162 97.1859 139.159 97.1496C139.157 97.1133 139.159 97.0945 139.151 97.0676C139.142 96.9624 139.124 96.8582 139.097 96.7559C139.089 96.7266 139.08 96.6984 139.071 96.6703C139.041 96.5726 139.005 96.477 138.961 96.3844C138.947 96.3563 138.932 96.3293 138.917 96.3024C138.87 96.2139 138.817 96.1293 138.757 96.0492C138.737 96.0223 138.714 95.9965 138.693 95.9707C138.656 95.9192 138.617 95.8695 138.576 95.8219L131.505 88.752C131.118 88.3785 130.6 88.1719 130.062 88.1767C129.524 88.1814 129.01 88.3972 128.63 88.7775C128.25 89.1578 128.034 89.6722 128.03 90.21C128.025 90.7477 128.232 91.2657 128.605 91.6524L131.945 94.9781C125.26 95.1863 118.784 97.359 113.326 101.225C107.869 105.091 103.67 110.479 101.256 116.717C98.8416 122.954 98.318 129.765 99.7506 136.298C101.183 142.831 104.509 148.797 109.311 153.452C114.114 158.107 120.182 161.244 126.757 162.472C133.331 163.699 140.122 162.963 146.281 160.354C152.44 157.746 157.694 153.381 161.387 147.805C165.081 142.229 167.05 135.688 167.049 129C167.049 128.456 166.833 127.934 166.448 127.55C166.064 127.165 165.542 126.949 164.998 126.949Z" fill="white"/>
<path d="M121.695 129.586L114.378 135.06V139.064H129.789V134.658H121.925L125.037 132.438C128.493 130.076 129.587 128.031 129.587 125.407C129.587 121.632 126.476 118.925 122.041 118.925C120.509 118.912 118.995 119.257 117.62 119.932C116.244 120.607 115.046 121.594 114.119 122.814L117.201 125.868C117.761 125.136 118.474 124.536 119.289 124.108C120.105 123.68 121.004 123.435 121.925 123.39C122.244 123.355 122.567 123.385 122.875 123.479C123.182 123.573 123.467 123.728 123.713 123.936C123.958 124.143 124.159 124.399 124.302 124.686C124.446 124.974 124.529 125.288 124.547 125.609C124.547 126.825 123.913 127.92 121.695 129.586Z" fill="white"/>
<path d="M134.855 135.294H144.448V139.068H149.37V135.294H151.877V131.203H149.375V119.306H143.383L134.423 131.549L134.855 135.294ZM144.448 124.406V131.203H139.526L144.448 124.406Z" fill="white"/>
</svg>
