<svg width="267" height="267" viewBox="0 0 267 267" fill="none" xmlns="http://www.w3.org/2000/svg">
<circle cx="133.152" cy="133.152" r="133.152" fill="#033387"/>
<path d="M200.139 158.566C200.112 158.482 200.056 158.399 200.028 158.315L182.189 131.557C181.771 130.943 181.074 130.553 180.321 130.553H158.023C156.796 130.553 155.793 131.557 155.793 132.783C155.793 134.01 156.796 135.013 158.023 135.013H179.123L193.979 157.312H173.632C169.925 157.312 166.942 154.329 166.942 150.622V141.703C166.942 140.476 165.939 139.473 164.712 139.473C163.486 139.473 162.482 140.476 162.482 141.703V150.622C162.482 156.782 167.472 161.772 173.632 161.772H195.931V175.151H191.889C190.662 175.151 189.659 176.154 189.659 177.381C189.659 178.607 190.662 179.611 191.889 179.611H198.16C199.387 179.611 200.39 178.607 200.39 177.381V159.542C200.39 159.263 200.335 159.012 200.223 158.761C200.195 158.733 200.167 158.65 200.139 158.566Z" fill="white"/>
<path d="M105.23 134.01C105.844 134.01 106.317 133.508 106.317 132.923C106.317 132.309 105.816 131.835 105.23 131.835H100.854C100.241 131.835 99.7671 132.337 99.7671 132.923V141.647C99.7671 142.26 100.269 142.734 100.854 142.734H105.23C105.844 142.734 106.317 142.232 106.317 141.647C106.317 141.062 105.816 140.56 105.23 140.56H101.969V138.386H104.143C104.756 138.386 105.23 137.884 105.23 137.299C105.23 136.713 104.729 136.212 104.143 136.212H101.969V134.037H105.23V134.01Z" fill="white"/>
<path d="M98.4571 135.32V134.874C98.4571 133.173 97.0913 131.808 95.391 131.808H92.9939C92.3806 131.808 91.9068 132.309 91.9068 132.895V141.619C91.9068 142.232 92.4085 142.706 92.9939 142.706C93.5792 142.706 94.0809 142.204 94.0809 141.619V138.525C95.391 138.999 96.2551 140.225 96.2551 141.619C96.2551 142.232 96.7568 142.706 97.3421 142.706C97.9553 142.706 98.4292 142.204 98.4292 141.619C98.4292 140.225 97.8996 138.915 96.9519 137.912C97.8996 137.382 98.4571 136.379 98.4571 135.32ZM94.0809 134.01H95.391C95.8648 134.01 96.2551 134.4 96.2551 134.874V135.32C96.2551 135.793 95.8648 136.184 95.391 136.184H94.0809V134.01Z" fill="white"/>
<path d="M171.402 190.788C175.109 190.788 178.092 187.805 178.092 184.098C178.092 180.391 175.109 177.409 171.402 177.409C167.695 177.409 164.712 180.391 164.712 184.098C164.712 187.805 167.695 190.788 171.402 190.788ZM171.402 181.868C172.628 181.868 173.632 182.872 173.632 184.098C173.632 185.325 172.628 186.328 171.402 186.328C170.175 186.328 169.172 185.325 169.172 184.098C169.172 182.872 170.175 181.868 171.402 181.868Z" fill="white"/>
<path d="M91.1263 190.788C94.8335 190.788 97.816 187.805 97.816 184.098C97.816 180.391 94.8335 177.409 91.1263 177.409C87.4192 177.409 84.4367 180.391 84.4367 184.098C84.4367 187.805 87.4192 190.788 91.1263 190.788ZM91.1263 181.868C92.3528 181.868 93.3562 182.872 93.3562 184.098C93.3562 185.325 92.3528 186.328 91.1263 186.328C89.8999 186.328 88.8965 185.325 88.8965 184.098C88.8965 182.872 89.8999 181.868 91.1263 181.868Z" fill="white"/>
<path d="M198.16 88.2135C199.387 88.2135 200.39 87.21 200.39 85.9836V77.0641C200.39 70.9041 195.401 65.9147 189.241 65.9147H97.816C96.5895 65.9147 95.5861 66.9181 95.5861 68.1446C95.5861 69.371 96.5895 70.3745 97.816 70.3745H149.159C147.682 72.2977 146.873 74.6391 146.873 77.0641V81.5238H124.575C123.348 81.5238 122.345 82.5273 122.345 83.7537C122.345 84.9802 123.348 85.9836 124.575 85.9836H146.873V94.9031H135.724C134.497 94.9031 133.494 95.9066 133.494 97.133C133.494 98.3594 134.497 99.3629 135.724 99.3629H146.873V103.823C146.873 106.248 147.682 108.617 149.159 110.512C149.131 110.512 149.103 110.512 149.103 110.512H100.046C98.8194 110.512 97.816 111.516 97.816 112.742C97.816 113.969 98.8194 114.972 100.046 114.972H146.873V159.57H71.0574V114.972H91.1263C92.3528 114.972 93.3562 113.969 93.3562 112.742C93.3562 111.516 92.3528 110.512 91.1263 110.512H68.8276C67.6011 110.512 66.5977 111.516 66.5977 112.742V177.409C66.5977 178.635 67.6011 179.638 68.8276 179.638H76.1862C73.7054 187.917 78.3882 196.669 86.6666 199.15C94.945 201.631 103.697 196.948 106.178 188.669C108.659 180.391 103.976 171.639 95.6976 169.158C89.2309 167.207 82.2347 169.632 78.3603 175.179H71.0574V164.029H146.873V175.179H111.613C110.387 175.179 109.383 176.182 109.383 177.409C109.383 178.635 110.387 179.638 111.613 179.638H156.462C153.981 187.917 158.664 196.669 166.942 199.15C175.221 201.631 183.973 196.948 186.454 188.669C188.934 180.391 184.252 171.639 175.973 169.158C169.507 167.207 162.51 169.632 158.636 175.179H151.333V112.742C151.333 112.714 151.333 112.686 151.333 112.686C153.256 114.164 155.598 114.972 158.023 114.972H169.172V123.892C169.172 125.118 170.175 126.121 171.402 126.121C171.987 126.121 172.573 125.898 172.991 125.48L183.499 114.972H187.011C194.398 114.972 200.39 108.979 200.39 101.593V94.9031C200.39 93.6767 199.387 92.6732 198.16 92.6732C196.934 92.6732 195.931 93.6767 195.931 94.9031V101.593C195.931 106.526 191.945 110.512 187.011 110.512H182.551C181.966 110.512 181.381 110.735 180.963 111.153L173.632 118.512V112.742C173.632 111.516 172.628 110.512 171.402 110.512H158.023C154.315 110.512 151.333 107.53 151.333 103.823V77.0641C151.333 73.3569 154.315 70.3745 158.023 70.3745H189.241C192.948 70.3745 195.931 73.3569 195.931 77.0641V85.9836C195.931 87.21 196.934 88.2135 198.16 88.2135ZM91.1263 172.949C97.2864 172.949 102.276 177.938 102.276 184.098C102.276 190.258 97.2864 195.248 91.1263 195.248C84.9663 195.248 79.977 190.258 79.977 184.098C79.977 177.938 84.9663 172.949 91.1263 172.949ZM171.402 172.949C177.562 172.949 182.551 177.938 182.551 184.098C182.551 190.258 177.562 195.248 171.402 195.248C165.242 195.248 160.253 190.258 160.253 184.098C160.253 177.938 165.242 172.949 171.402 172.949Z" fill="white"/>
<path d="M124.575 103.823C124.575 102.596 123.571 101.593 122.345 101.593H88.8965C87.67 101.593 86.6666 102.596 86.6666 103.823C86.6666 105.049 87.67 106.052 88.8965 106.052H122.345C123.571 106.052 124.575 105.049 124.575 103.823Z" fill="white"/>
<path d="M104.506 94.9031C105.732 94.9031 106.735 93.8997 106.735 92.6732C106.735 91.4468 105.732 90.4434 104.506 90.4434H97.816C96.5895 90.4434 95.5861 91.4468 95.5861 92.6732C95.5861 93.8997 96.5895 94.9031 97.816 94.9031H104.506Z" fill="white"/>
<path d="M82.2068 81.5238H104.506C105.732 81.5238 106.735 80.5204 106.735 79.294C106.735 78.0675 105.732 77.0641 104.506 77.0641H82.2068C80.9804 77.0641 79.977 78.0675 79.977 79.294C79.977 80.5204 80.9804 81.5238 82.2068 81.5238Z" fill="white"/>
<path d="M184.698 94.6522H187.652C188.126 94.6522 188.488 94.2899 188.488 93.816V82.4158C188.488 81.9419 188.126 81.5796 187.652 81.5796H184.698C184.698 80.5483 183.861 79.7121 182.83 79.7121H166.022C164.991 79.7121 164.155 80.5483 164.155 81.5796H161.256C160.782 81.5796 160.42 81.9419 160.42 82.4158V85.3146H157.465C156.991 85.3146 156.629 85.677 156.629 86.1508V90.081C156.629 90.5548 156.991 90.9172 157.465 90.9172H160.42V93.816C160.42 94.2899 160.782 94.6522 161.256 94.6522H164.155C164.155 95.5721 164.796 96.3246 165.66 96.4919L164.155 101.035C163.96 101.593 164.378 102.15 164.963 102.15H168.865C169.088 102.15 169.311 102.067 169.451 101.899L171.067 100.283H177.757L179.374 101.899C179.541 102.067 179.736 102.15 179.959 102.15H183.861C184.447 102.15 184.837 101.593 184.67 101.035L183.165 96.5198C184.029 96.3247 184.698 95.5721 184.698 94.6522ZM186.621 83.4471V92.7847H184.698V83.4471H186.621ZM166.022 81.5796H182.83V94.6522H166.022V81.5796ZM158.496 89.0497V87.1822H160.42V89.0497H158.496ZM162.287 92.7847V83.4471H164.155V92.7847H162.287ZM180.405 100.255L178.538 98.3873H170.287L168.419 100.255H166.385L167.639 96.5198H181.241L182.496 100.255H180.405Z" fill="white"/>
<path d="M167.89 83.4471H180.962V85.3146H167.89V83.4471Z" fill="white"/>
<path d="M167.89 87.1822H180.962V89.0497H167.89V87.1822Z" fill="white"/>
<path d="M167.89 90.9172H180.962V92.7847H167.89V90.9172Z" fill="white"/>
<path d="M108.38 142.734C108.965 142.734 109.467 142.26 109.467 141.647V132.895C109.467 132.309 108.993 131.808 108.38 131.808C107.795 131.808 107.293 132.281 107.293 132.895V141.647C107.293 142.26 107.795 142.734 108.38 142.734Z" fill="white"/>
<path d="M116.491 131.808C115.906 131.808 115.404 132.281 115.404 132.895V137.131L113.063 132.421C112.868 132.003 112.422 131.78 112.004 131.835C111.976 131.835 111.948 131.835 111.92 131.835H111.892C111.864 131.835 111.836 131.835 111.836 131.863C111.808 131.863 111.808 131.863 111.781 131.891C111.753 131.891 111.753 131.891 111.725 131.919C111.697 131.919 111.669 131.947 111.669 131.947C111.669 131.947 111.669 131.947 111.641 131.947C111.613 131.947 111.585 131.975 111.585 131.975C111.585 131.975 111.558 131.975 111.558 132.003C111.53 132.031 111.502 132.031 111.502 132.058C111.502 132.058 111.502 132.058 111.474 132.086C111.446 132.114 111.418 132.114 111.418 132.142C111.223 132.337 111.084 132.616 111.084 132.922V141.675C111.084 142.26 111.558 142.762 112.171 142.762C112.756 142.762 113.258 142.288 113.258 141.675V137.494L115.571 142.149C115.739 142.483 116.073 142.706 116.435 142.734C116.463 142.734 116.463 142.734 116.491 142.734H116.519C116.547 142.734 116.547 142.734 116.575 142.734C117.16 142.734 117.662 142.26 117.662 141.647V132.895C117.578 132.309 117.104 131.808 116.491 131.808Z" fill="white"/>
<path d="M126.498 141.312L123.571 132.532C123.571 132.504 123.543 132.477 123.543 132.449V132.421C123.543 132.393 123.515 132.365 123.515 132.365C123.515 132.365 123.515 132.337 123.487 132.337C123.487 132.309 123.46 132.309 123.46 132.281L123.432 132.254C123.432 132.226 123.404 132.226 123.376 132.198L123.348 132.17C123.32 132.142 123.32 132.142 123.292 132.114L123.264 132.086C123.237 132.058 123.237 132.058 123.209 132.031C123.209 132.031 123.181 132.031 123.181 132.003C123.153 131.975 123.153 131.975 123.125 131.947C123.125 131.947 123.097 131.947 123.097 131.919C123.069 131.919 123.069 131.891 123.041 131.891C123.041 131.891 123.014 131.891 123.014 131.863C122.986 131.863 122.986 131.835 122.958 131.835C122.93 131.835 122.93 131.835 122.902 131.808H122.874H122.846C122.818 131.808 122.818 131.808 122.791 131.78C122.763 131.78 122.763 131.78 122.735 131.78C122.707 131.78 122.707 131.78 122.679 131.78C122.651 131.78 122.651 131.78 122.623 131.78C122.595 131.78 122.595 131.78 122.568 131.78C122.54 131.78 122.54 131.78 122.512 131.78C122.484 131.78 122.484 131.78 122.456 131.78C122.428 131.78 122.428 131.78 122.4 131.78C122.373 131.78 122.373 131.78 122.345 131.78C122.317 131.78 122.317 131.78 122.289 131.78C122.261 131.78 122.261 131.78 122.233 131.78C122.205 131.78 122.205 131.78 122.177 131.808H122.15H122.122C122.094 131.808 122.094 131.808 122.066 131.835C122.038 131.835 122.038 131.863 122.01 131.863C122.01 131.863 121.982 131.863 121.982 131.891C121.954 131.891 121.954 131.919 121.927 131.919C121.927 131.919 121.899 131.919 121.899 131.947C121.871 131.947 121.871 131.975 121.843 132.003C121.843 132.003 121.815 132.003 121.815 132.031C121.787 132.058 121.787 132.058 121.759 132.086L121.731 132.114C121.704 132.142 121.704 132.142 121.676 132.17L121.648 132.198C121.62 132.226 121.62 132.226 121.592 132.254L121.564 132.281C121.564 132.309 121.536 132.309 121.536 132.337C121.536 132.337 121.536 132.365 121.508 132.365C121.508 132.393 121.481 132.421 121.481 132.421V132.449C121.481 132.477 121.453 132.504 121.453 132.532L118.526 141.312C118.331 141.87 118.637 142.483 119.195 142.678C119.752 142.873 120.366 142.567 120.561 142.009L121.007 140.699H121.035H124.017C124.017 140.699 124.017 140.699 124.045 140.699L124.491 142.009C124.686 142.567 125.299 142.873 125.857 142.678C126.386 142.483 126.693 141.898 126.498 141.312ZM121.787 138.553L122.54 136.267L123.292 138.553H121.787Z" fill="white"/>
</svg>
