<svg width="267" height="267" viewBox="0 0 267 267" fill="none" xmlns="http://www.w3.org/2000/svg">
<circle cx="133.152" cy="133.324" r="133.152" fill="#033387"/>
<g clip-path="url(#clip0_255:2)">
<path d="M212.456 83.9783C214.763 81.7293 215.578 78.4285 214.582 75.3643C213.587 72.3001 210.988 70.1088 207.799 69.6455L194.939 67.7768C193.635 67.5871 192.508 66.7681 191.924 65.5862L186.173 53.9332C184.747 51.0438 181.86 49.2489 178.638 49.2489C175.416 49.2489 172.529 51.0438 171.103 53.9332L165.352 65.5862C164.769 66.7681 163.641 67.5871 162.337 67.7768L149.477 69.6455C146.289 70.1088 143.689 72.3001 142.694 75.3646C141.698 78.4287 142.513 81.7296 144.82 83.9783L154.125 93.0489C155.07 93.969 155.5 95.2941 155.277 96.5936L153.081 109.401C152.536 112.577 153.817 115.726 156.423 117.62C157.896 118.69 159.619 119.234 161.355 119.234C162.69 119.234 164.033 118.912 165.273 118.26L176.775 112.213C177.942 111.599 179.335 111.599 180.502 112.213L192.004 118.26C194.856 119.759 198.246 119.514 200.853 117.62C203.46 115.727 204.741 112.577 204.196 109.402L203.776 106.951C203.571 105.753 202.433 104.948 201.237 105.155C200.04 105.36 199.236 106.496 199.441 107.694L199.861 110.145C200.125 111.682 199.529 113.146 198.268 114.062C197.007 114.978 195.43 115.092 194.051 114.367L182.548 108.32C180.1 107.032 177.177 107.032 174.728 108.32L163.226 114.367C161.846 115.093 160.27 114.979 159.008 114.062C157.747 113.146 157.151 111.682 157.415 110.145L159.611 97.3378C160.079 94.6114 159.176 91.8308 157.195 89.8999L147.89 80.8294C146.773 79.7415 146.395 78.2068 146.876 76.7242C147.358 75.2417 148.567 74.2228 150.109 73.9987L162.968 72.13C165.706 71.7324 168.071 70.0138 169.296 67.5335L175.047 55.8805C175.737 54.4827 177.079 53.6482 178.638 53.6482C180.196 53.6482 181.539 54.4827 182.229 55.8805L187.979 67.5335C189.204 70.0138 191.569 71.7324 194.307 72.13L207.166 73.9987C208.709 74.223 209.917 75.2417 210.399 76.7239C210.881 78.2065 210.502 79.7412 209.385 80.8291L200.08 89.8996C198.099 91.8305 197.196 94.6111 197.663 97.3372L197.736 97.7633C197.942 98.9605 199.079 99.7648 200.276 99.5593C201.473 99.354 202.277 98.2172 202.072 97.0203L201.998 96.5939C201.776 95.2946 202.206 93.9696 203.15 93.0494L212.456 83.9783Z" fill="white"/>
<path d="M185.869 144.198C187.428 142.39 188.374 140.04 188.374 137.471C188.374 131.782 183.746 127.153 178.056 127.153L144.585 127.113C144.58 127.1 144.21 126.025 143.975 125.523C143.973 125.52 143.972 125.517 143.971 125.514C143.462 124.428 143.273 123.243 143.425 122.085C143.915 118.33 144.037 114.431 144.134 111.299C144.385 103.264 142.782 97.395 139.231 93.357C135.664 89.2997 130.534 86.98 125.14 86.98C125.1 86.98 125.059 86.98 125.018 86.9803C121.988 86.9999 119.523 89.507 119.523 92.5691V102.337C119.523 108.553 118.516 117.201 113.723 123.106C108.637 129.37 104.246 129.316 96.9733 129.227C96.7238 129.224 96.4719 129.221 96.2177 129.218V126.579C96.2177 122.202 92.6565 118.641 88.2799 118.641H72.9378C68.5612 118.64 65 122.201 65 126.578V148.662C65 149.876 65.9843 150.861 67.1992 150.861C68.414 150.861 69.3983 149.876 69.3983 148.662V126.578C69.3983 124.627 70.9861 123.039 72.9378 123.039H88.2796C90.2313 123.039 91.8191 124.627 91.8191 126.578V190.813C91.8191 192.765 90.2313 194.352 88.2796 194.352H72.9378C70.9861 194.352 69.3983 192.765 69.3983 190.813V158.696C69.3983 157.481 68.414 156.496 67.1992 156.496C65.9843 156.496 65 157.481 65 158.696V190.813C65 195.19 68.5612 198.751 72.9378 198.751H88.2796C92.6565 198.751 96.2174 195.19 96.2174 190.813V187.492H99.1907C100.629 187.492 102.053 187.994 103.2 188.907C103.496 189.143 103.841 189.438 104.242 189.78C106.992 192.127 112.11 196.498 119.437 196.498L173.42 196.498C179.109 196.498 183.737 191.87 183.737 186.181C183.737 183.724 182.873 181.466 181.433 179.692C185.469 178.29 188.374 174.451 188.374 169.945C188.374 167.376 187.429 165.026 185.87 163.218C189.578 161.653 192.187 157.98 192.187 153.708C192.187 149.437 189.578 145.764 185.869 144.198ZM159.286 131.552H178.057C181.32 131.552 183.976 134.207 183.976 137.471C183.976 140.735 181.32 143.39 178.057 143.39H159.286C156.022 143.39 153.367 140.735 153.367 137.471C153.367 134.207 156.022 131.552 159.286 131.552ZM146.206 192.1H119.438C113.733 192.1 109.74 188.691 107.098 186.435C106.685 186.082 106.295 185.749 105.939 185.466C104.017 183.936 101.62 183.094 99.191 183.094H96.2177V133.616C96.4537 133.619 96.6877 133.622 96.9194 133.625C104.624 133.718 110.711 133.795 117.138 125.878C120.233 122.066 123.921 114.888 123.921 102.337V92.5694C123.921 91.917 124.427 91.383 125.047 91.3789C125.077 91.3786 125.106 91.3786 125.136 91.3786C129.207 91.3786 133.236 93.1998 135.929 96.2617C138.707 99.4214 139.953 104.295 139.738 111.162C139.644 114.198 139.526 117.977 139.064 121.516C138.804 123.506 139.123 125.534 139.988 127.38C139.992 127.389 139.997 127.401 140.002 127.412C140.009 127.428 140.016 127.443 140.025 127.464C140.026 127.467 140.028 127.471 140.03 127.475C140.733 129.125 141.268 130.921 141.351 132.728C141.455 134.979 141.002 137.245 139.998 139.476C139.978 139.522 137.897 144.108 132.166 146.651C131.056 147.144 130.555 148.443 131.047 149.553C132.75 153.394 139.074 147.621 140.634 146.003C141.958 144.632 143.237 143.027 144.015 141.268C145.299 138.414 145.881 135.473 145.745 132.526C145.73 132.198 145.7 131.858 145.66 131.512H150.872C149.675 133.196 148.969 135.252 148.969 137.471C148.969 141.743 151.578 145.416 155.286 146.981C153.727 148.789 152.782 151.14 152.782 153.708C152.782 156.277 153.727 158.627 155.285 160.435C151.577 162.001 148.969 165.674 148.969 169.945C148.969 172.402 149.833 174.66 151.273 176.434C147.237 177.836 144.332 181.675 144.332 186.181C144.332 188.382 145.027 190.423 146.206 192.1ZM173.42 192.1L154.638 192.1C151.379 192.093 148.73 189.441 148.73 186.181C148.73 182.917 151.386 180.262 154.649 180.262H173.42C176.684 180.262 179.339 182.917 179.339 186.181C179.339 189.445 176.684 192.1 173.42 192.1ZM178.056 175.864H159.286C156.022 175.864 153.367 173.208 153.367 169.944C153.367 166.681 156.022 164.025 159.286 164.025H178.057C181.32 164.025 183.976 166.681 183.976 169.944C183.976 173.208 181.32 175.864 178.056 175.864ZM181.869 159.627H163.099C159.835 159.627 157.179 156.972 157.179 153.708C157.179 150.444 159.835 147.789 163.099 147.789H181.869C185.133 147.789 187.789 150.444 187.789 153.708C187.789 156.972 185.133 159.627 181.869 159.627Z" fill="white"/>
</g>
<defs>
<clipPath id="clip0_255:2">
<rect width="150" height="150" fill="white" transform="translate(65 49)"/>
</clipPath>
</defs>
</svg>
