<svg width="267" height="267" viewBox="0 0 267 267" fill="none" xmlns="http://www.w3.org/2000/svg">
<circle cx="133.152" cy="133.152" r="133.152" fill="#033387"/>
<g clip-path="url(#clip0_255:6)">
<path d="M89.7665 184.398C89.2908 183.922 88.6307 183.649 87.9578 183.649C87.2849 183.649 86.6248 183.922 86.1489 184.398C85.673 184.875 85.3992 185.534 85.3992 186.207C85.3992 186.88 85.6727 187.54 86.1489 188.016C86.6248 188.492 87.2849 188.766 87.9578 188.766C88.6307 188.766 89.2908 188.492 89.7665 188.016C90.2424 187.54 90.5164 186.88 90.5164 186.207C90.5164 185.534 90.2426 184.874 89.7665 184.398Z" fill="white"/>
<path d="M188.132 114.806C187.656 114.33 186.999 114.057 186.323 114.057C185.65 114.057 184.99 114.33 184.514 114.806C184.039 115.282 183.765 115.942 183.765 116.615C183.765 117.288 184.038 117.948 184.514 118.424C184.99 118.9 185.65 119.174 186.323 119.174C186.999 119.174 187.656 118.9 188.132 118.424C188.61 117.948 188.884 117.288 188.884 116.615C188.884 115.942 188.61 115.282 188.132 114.806Z" fill="white"/>
<path d="M198.249 68.7494C197.769 68.2697 197.118 68 196.439 68L133.499 68.0033C132.086 68.0033 130.941 69.1491 130.941 70.5619V77.8787L106.688 84.3773C105.323 84.7432 104.513 86.1461 104.879 87.5108L117.448 134.421L106.575 145.294C105.191 143.274 102.867 141.945 100.239 141.945H75.6769C71.4445 141.945 68.0014 145.388 68.0014 149.62V191.324C68.0014 195.557 71.4445 199 75.6769 199H100.239C103.834 199 106.859 196.514 107.688 193.172L110.73 195.825C113.079 197.872 116.088 199 119.204 199H196.439C197.852 199 198.998 197.855 198.998 196.442V70.5586C198.998 69.8801 198.728 69.2291 198.249 68.7494ZM102.797 191.324C102.797 192.735 101.649 193.883 100.238 193.883H75.6766C74.2658 193.883 73.118 192.735 73.118 191.324V149.62C73.118 148.21 74.2658 147.062 75.6766 147.062H85.399V176.536C85.399 177.948 86.5448 179.094 87.9576 179.094C89.3705 179.094 90.5162 177.948 90.5162 176.536V147.062H100.239C101.649 147.062 102.797 148.21 102.797 149.62V191.324H102.797ZM110.484 88.6578L130.941 83.1763V92.6572L129.226 93.1167C128.57 93.2925 128.012 93.721 127.672 94.3087C127.333 94.8964 127.241 95.5947 127.417 96.2502C128.4 99.9195 126.215 103.704 122.545 104.688C121.889 104.864 121.33 105.293 120.991 105.882C120.652 106.471 120.56 107.17 120.738 107.826L130.711 144.757H125.576L122.929 134.403C122.845 134.074 122.698 133.77 122.5 133.506L110.484 88.6578ZM130.941 104.391V125.98L126.274 108.701C128.224 107.694 129.819 106.188 130.941 104.391ZM167.699 193.883H119.203C117.324 193.883 115.509 193.203 114.093 191.968L107.914 186.579V151.192L119.084 140.022L121.11 147.948C121.4 149.081 122.42 149.873 123.589 149.873L173.892 149.876C175.867 149.876 177.474 151.483 177.474 153.458C177.474 155.433 175.867 157.04 173.892 157.04H148.117C146.704 157.04 145.558 158.186 145.558 159.599C145.558 161.012 146.704 162.157 148.117 162.157H181.901C183.876 162.157 185.483 163.764 185.483 165.739C185.483 167.715 183.876 169.321 181.901 169.321H148.117C146.704 169.321 145.558 170.467 145.558 171.88C145.558 173.293 146.704 174.439 148.117 174.439H176.426C178.401 174.439 180.008 176.045 180.008 178.021C180.008 179.996 178.401 181.603 176.426 181.603H148.117C146.704 181.603 145.558 182.748 145.558 184.161C145.558 185.574 146.704 186.72 148.117 186.72H167.699C169.674 186.72 171.281 188.327 171.281 190.302C171.28 192.276 169.674 193.883 167.699 193.883ZM193.881 193.883H193.881H175.623C176.119 192.79 176.397 191.578 176.397 190.301C176.397 189.024 176.119 187.812 175.623 186.719H176.426C181.222 186.719 185.125 182.816 185.125 178.02C185.125 176.621 184.791 175.299 184.201 174.126C187.885 173.115 190.599 169.739 190.599 165.739C190.599 163.798 189.96 162.005 188.882 160.556V128.129C188.882 126.716 187.736 125.57 186.324 125.57C184.911 125.57 183.765 126.716 183.765 128.129V157.243C183.164 157.112 182.54 157.04 181.9 157.04H181.816C182.312 155.947 182.591 154.735 182.591 153.458C182.591 148.661 178.688 144.759 173.892 144.759H169.779C174.146 142.886 177.213 138.545 177.213 133.5C177.213 126.748 171.721 121.255 164.969 121.255C158.217 121.255 152.724 126.748 152.724 133.5C152.724 138.545 155.792 142.886 160.159 144.759H146.173V96.1095C150.743 95.1134 154.35 91.5071 155.346 86.9362H174.592C175.587 91.5071 179.194 95.1134 183.765 96.1095V104.064C183.765 105.477 184.91 106.623 186.323 106.623C187.736 106.623 188.882 105.477 188.882 104.064V93.8252C188.882 92.4123 187.736 91.2666 186.323 91.2666C182.525 91.2666 179.435 88.176 179.435 84.3776C179.435 82.9647 178.289 81.819 176.876 81.819H153.062C151.649 81.819 150.503 82.9647 150.503 84.3776C150.503 88.1763 147.413 91.2666 143.614 91.2666C142.201 91.2666 141.056 92.4123 141.056 93.8252V144.759H136.058V73.12L193.881 73.1172V193.883ZM164.969 140.628C161.039 140.628 157.842 137.43 157.842 133.5C157.842 129.57 161.039 126.373 164.969 126.373C168.899 126.373 172.097 129.57 172.097 133.5C172.097 137.43 168.9 140.628 164.969 140.628Z" fill="white"/>
</g>
<defs>
<clipPath id="clip0_255:6">
<rect width="131" height="131" fill="white" transform="translate(68 68)"/>
</clipPath>
</defs>
</svg>
