<svg width="267" height="267" viewBox="0 0 267 267" fill="none" xmlns="http://www.w3.org/2000/svg">
<circle cx="133.152" cy="133.152" r="133.152" fill="#033387"/>
<path fill-rule="evenodd" clip-rule="evenodd" d="M133.81 66C136.939 66 139.099 68.4812 141.238 70.9389C142.505 72.3947 143.761 73.8372 144.529 73.9773C145.316 74.1215 147.006 73.1778 148.685 72.2393C151.464 70.6864 154.227 69.1437 157.057 70.2028C159.918 71.2742 160.989 74.2901 162.057 77.2958C162.689 79.0747 163.319 80.8474 163.921 81.2022C164.523 81.5569 166.377 81.2308 168.227 80.9057C171.334 80.3587 174.437 79.8128 176.741 81.7665C179.033 83.711 179.018 86.8854 179.004 90.0597C178.996 91.9337 178.987 93.8076 179.437 94.3443C179.888 94.8821 181.724 95.1929 183.561 95.5037C186.679 96.0322 189.803 96.5608 191.331 99.1831C192.855 101.799 191.803 104.783 190.748 107.778C190.115 109.574 189.479 111.377 189.735 112.069C189.992 112.759 191.617 113.709 193.251 114.665C196.021 116.285 198.806 117.913 199.358 120.971C199.901 123.977 197.926 126.476 195.933 129C194.711 130.547 193.478 132.109 193.478 133C193.478 133.893 194.711 135.454 195.933 137.001C197.926 139.524 199.901 142.023 199.358 145.029C198.806 148.087 196.021 149.716 193.251 151.336C191.617 152.291 189.992 153.241 189.735 153.932C189.479 154.625 190.115 156.427 190.748 158.223C191.803 161.218 192.855 164.202 191.331 166.817C189.803 169.44 186.679 169.969 183.561 170.496C181.724 170.808 179.888 171.119 179.437 171.656C178.987 172.193 178.996 174.067 179.004 175.941C179.018 179.116 179.033 182.29 176.741 184.235C174.437 186.188 171.334 185.642 168.227 185.095C166.377 184.77 164.523 184.444 163.921 184.799C163.319 185.154 162.689 186.926 162.057 188.705C160.989 191.711 159.918 194.727 157.057 195.798C154.227 196.857 151.464 195.314 148.685 193.762C147.006 192.823 145.317 191.88 144.529 192.024C143.761 192.164 142.505 193.606 141.238 195.061C139.099 197.519 136.939 200 133.81 200C130.682 200 128.522 197.519 126.382 195.061C125.116 193.605 123.861 192.163 123.091 192.023C122.304 191.879 120.615 192.822 118.935 193.761C116.156 195.314 113.394 196.856 110.564 195.797C107.702 194.726 106.632 191.71 105.563 188.704C104.932 186.926 104.302 185.153 103.7 184.798C103.098 184.443 101.244 184.769 99.3929 185.095C96.2859 185.641 93.183 186.187 90.8791 184.233C88.5875 182.289 88.6017 179.115 88.616 175.94C88.6251 174.066 88.6333 172.192 88.1829 171.656C87.7325 171.118 85.8973 170.807 84.0591 170.496C80.9409 169.969 77.8176 169.439 76.2896 166.817C74.7665 164.201 75.8178 161.217 76.8731 158.222C77.5065 156.426 78.141 154.623 77.8847 153.931C77.6296 153.241 76.0039 152.291 74.369 151.335C71.6006 149.715 68.8138 148.087 68.2627 145.029C67.7198 142.023 69.6942 139.523 71.687 137C72.9101 135.453 74.1433 133.891 74.1433 132.999C74.1433 132.107 72.9101 130.546 71.687 128.999C69.6942 126.475 67.7198 123.977 68.2627 120.97C68.8138 117.912 71.6006 116.284 74.369 114.664C76.0039 113.708 77.6296 112.758 77.8847 112.068C78.141 111.375 77.5065 109.573 76.8731 107.777C75.8178 104.782 74.7655 101.798 76.2896 99.1831C77.8176 96.5598 80.9409 96.0312 84.0591 95.5037C85.8973 95.1919 87.7325 94.8811 88.1829 94.3443C88.6333 93.8066 88.6251 91.9326 88.616 90.0587C88.6017 86.8843 88.5875 83.709 90.8791 81.7665C93.183 79.8128 96.2859 80.3577 99.3929 80.9047C101.244 81.2298 103.098 81.5559 103.7 81.2012C104.302 80.8474 104.932 79.0737 105.563 77.2948C106.631 74.2901 107.703 71.2732 110.564 70.2018C113.394 69.1427 116.156 70.6864 118.935 72.2383C120.615 73.1768 122.304 74.1204 123.091 73.9763C123.861 73.8362 125.116 72.3937 126.382 70.9389C128.522 68.4812 130.682 66 133.81 66V66ZM166.064 99.8077C164.626 99.8077 163.461 100.979 163.461 102.425C163.461 103.069 163.693 103.659 164.077 104.115V104.116L164.076 104.115L164.084 104.124C164.137 104.186 164.193 104.246 164.251 104.302C171.251 111.806 175.537 121.899 175.537 133C175.537 144.587 170.868 155.076 163.317 162.669C155.766 170.263 145.333 174.959 133.81 174.959C128.877 174.959 124.144 174.098 119.752 172.517C119.674 172.485 119.593 172.456 119.51 172.431L119.504 172.428V172.429C119.265 172.356 119.011 172.316 118.749 172.316C117.312 172.316 116.146 173.488 116.146 174.933C116.146 176.119 116.931 177.12 118.006 177.442C122.944 179.218 128.265 180.186 133.81 180.186C146.768 180.186 158.5 174.904 166.991 166.365C175.483 157.825 180.736 146.03 180.736 133C180.736 120.532 175.926 109.194 168.072 100.758C167.594 100.178 166.872 99.8077 166.064 99.8077ZM158.209 93.1646C156.772 93.1646 155.606 94.3362 155.606 95.7818C155.606 97.2263 156.772 98.3989 158.209 98.3989C159.646 98.3989 160.812 97.2263 160.812 95.7818C160.812 94.3362 159.646 93.1646 158.209 93.1646ZM149.761 88.6111C144.781 86.8015 139.411 85.8139 133.81 85.8139C120.852 85.8139 109.122 91.0954 100.629 99.6349C92.1378 108.174 86.8845 119.97 86.8845 133C86.8845 145.442 91.6742 156.758 99.4987 165.188C99.9765 165.763 100.694 166.129 101.497 166.129C102.935 166.129 104.1 164.957 104.1 163.512C104.1 162.87 103.87 162.282 103.488 161.827V161.825L103.478 161.814C103.427 161.753 103.373 161.696 103.317 161.642C96.349 154.143 92.0829 144.073 92.0829 133C92.0829 121.413 96.7536 110.923 104.305 103.331C111.856 95.7368 122.288 91.0412 133.81 91.0412C138.79 91.0412 143.565 91.9183 147.993 93.5275H147.994C148.307 93.6614 148.651 93.735 149.013 93.735C150.45 93.735 151.615 92.5634 151.615 91.1178C151.615 89.934 150.834 88.9341 149.761 88.6111ZM109.411 167.601C107.975 167.601 106.809 168.773 106.809 170.218C106.809 171.664 107.975 172.835 109.411 172.835C110.849 172.835 112.014 171.664 112.014 170.218C112.014 168.773 110.849 167.601 109.411 167.601ZM118.657 107.278C115.673 107.278 112.972 108.494 111.016 110.46C109.061 112.427 107.851 115.144 107.851 118.144C107.851 121.144 109.061 123.861 111.016 125.827C112.972 127.794 115.673 129.011 118.657 129.011C121.641 129.011 124.343 127.794 126.299 125.827C128.254 123.861 129.464 121.144 129.464 118.144C129.464 115.144 128.254 112.427 126.299 110.46C124.343 108.494 121.641 107.278 118.657 107.278ZM122.623 114.156C121.609 113.136 120.207 112.504 118.657 112.504C117.109 112.504 115.706 113.136 114.691 114.156C113.676 115.177 113.049 116.586 113.049 118.144C113.049 119.701 113.676 121.112 114.691 122.133C115.706 123.152 117.109 123.784 118.657 123.784C120.207 123.784 121.609 123.153 122.623 122.133C123.638 121.112 124.265 119.701 124.265 118.144C124.265 116.586 123.638 115.177 122.623 114.156ZM146.801 108.462L116.495 154.68C115.71 155.881 116.041 157.494 117.236 158.283C118.431 159.073 120.035 158.739 120.82 157.538L151.126 111.32C151.911 110.119 151.58 108.506 150.385 107.717C149.191 106.927 147.586 107.261 146.801 108.462ZM148.964 136.989C145.98 136.989 143.278 138.206 141.322 140.172C139.367 142.139 138.158 144.856 138.158 147.856C138.158 150.856 139.367 153.573 141.322 155.54C143.279 157.505 145.98 158.722 148.964 158.722C151.948 158.722 154.649 157.505 156.604 155.54C158.561 153.573 159.77 150.856 159.77 147.856C159.77 144.855 158.561 142.139 156.604 140.172C154.649 138.206 151.948 136.989 148.964 136.989ZM152.929 143.867C151.915 142.848 150.512 142.216 148.964 142.216C147.415 142.216 146.012 142.847 144.998 143.867C143.983 144.888 143.355 146.299 143.355 147.856C143.355 149.414 143.983 150.823 144.998 151.844C146.012 152.864 147.415 153.495 148.964 153.495C150.512 153.495 151.915 152.864 152.929 151.844C153.945 150.823 154.572 149.414 154.572 147.856C154.572 146.299 153.945 144.889 152.929 143.867ZM137.34 74.3699C135.979 72.8057 134.605 71.2272 133.811 71.2272C133.016 71.2272 131.643 72.8057 130.281 74.3699C128.418 76.5107 126.569 78.6341 124.005 79.1023C121.402 79.5777 118.903 78.1812 116.418 76.7918C114.685 75.8237 112.962 74.8616 112.372 75.0825C111.791 75.3002 111.123 77.1793 110.458 79.0512C109.511 81.7144 108.569 84.3694 106.32 85.6933C104.056 87.0275 101.276 86.5388 98.5003 86.0501C96.5838 85.7138 94.6684 85.3764 94.2312 85.7485C93.7777 86.1329 93.7859 88.0866 93.795 90.0393C93.8082 92.8763 93.8204 95.7133 92.1429 97.714C90.4704 99.7086 87.6928 100.179 84.9121 100.649C82.9875 100.975 81.0579 101.301 80.7579 101.818C80.459 102.33 81.1117 104.183 81.7675 106.042C82.711 108.719 83.6575 111.405 82.7385 113.885C81.8316 116.334 79.4067 117.752 76.9687 119.178C75.2302 120.194 73.4804 121.218 73.3594 121.89C73.2364 122.572 74.487 124.155 75.7487 125.753C77.5381 128.017 79.3427 130.301 79.3427 133C79.3427 135.7 77.5381 137.983 75.7487 140.248C74.487 141.845 73.2364 143.428 73.3594 144.111C73.4804 144.783 75.2302 145.806 76.9687 146.823C79.4067 148.248 81.8316 149.666 82.7385 152.115C83.6575 154.596 82.711 157.282 81.7675 159.959C81.1117 161.818 80.459 163.67 80.7579 164.183C81.0579 164.699 82.9865 165.026 84.9121 165.351C87.6938 165.822 90.4704 166.291 92.1429 168.287C93.8204 170.287 93.8082 173.124 93.795 175.962C93.7859 177.914 93.7777 179.867 94.2312 180.253C94.6694 180.624 96.5838 180.287 98.5003 179.95C101.276 179.462 104.056 178.973 106.32 180.307C108.569 181.631 109.512 184.286 110.458 186.949C111.123 188.821 111.791 190.701 112.372 190.918C112.962 191.138 114.685 190.176 116.418 189.208C118.903 187.82 121.402 186.423 124.005 186.899C126.57 187.366 128.418 189.489 130.281 191.631C131.643 193.195 133.016 194.774 133.811 194.774C134.605 194.774 135.979 193.195 137.34 191.631C139.204 189.489 141.052 187.366 143.615 186.899C146.218 186.423 148.718 187.82 151.204 189.208C152.936 190.176 154.659 191.138 155.249 190.918C155.831 190.701 156.499 188.821 157.164 186.949C158.11 184.286 159.053 181.632 161.301 180.307C163.566 178.973 166.344 179.461 169.12 179.95C171.037 180.287 172.952 180.625 173.391 180.253C173.844 179.867 173.835 177.914 173.826 175.962C173.813 173.125 173.801 170.287 175.478 168.287C177.151 166.291 179.927 165.822 182.708 165.351C184.634 165.026 186.563 164.699 186.863 164.183C187.162 163.67 186.509 161.818 185.854 159.959C184.91 157.282 183.964 154.596 184.883 152.115C185.789 149.666 188.215 148.248 190.652 146.823C192.391 145.806 194.14 144.783 194.262 144.111C194.385 143.428 193.134 141.845 191.873 140.248C190.083 137.983 188.279 135.7 188.279 133C188.279 130.301 190.083 128.017 191.873 125.753C193.134 124.155 194.385 122.572 194.262 121.89C194.14 121.218 192.391 120.194 190.652 119.178C188.215 117.752 185.789 116.334 184.883 113.885C183.964 111.405 184.91 108.719 185.854 106.042C186.509 104.183 187.162 102.33 186.863 101.818C186.563 101.301 184.634 100.975 182.708 100.649C179.927 100.179 177.151 99.7086 175.478 97.714C173.801 95.7133 173.813 92.8763 173.826 90.0393C173.835 88.0866 173.844 86.1329 173.391 85.7485C172.952 85.3764 171.037 85.7138 169.12 86.0501C166.344 86.5388 163.566 87.0275 161.302 85.6933C159.053 84.3694 158.109 81.7144 157.164 79.0512C156.499 77.1793 155.831 75.3002 155.249 75.0825C154.659 74.8616 152.936 75.8237 151.204 76.7918C148.717 78.1812 146.218 79.5777 143.615 79.1023C141.051 78.6341 139.204 76.5107 137.34 74.3699Z" fill="white"/>
</svg>
