<svg width="35" height="35" viewBox="0 0 35 35" fill="none" xmlns="http://www.w3.org/2000/svg">
<path d="M32.1915 22.9735C30.0487 22.9735 27.9447 22.6383 25.9509 21.9795C24.9739 21.6462 23.7729 21.9519 23.1766 22.5643L19.2412 25.5351C14.6773 23.0989 11.866 20.2885 9.46301 15.7588L12.3464 11.926C13.0955 11.1779 13.3642 10.085 13.0423 9.05962C12.3806 7.05533 12.0444 4.95232 12.0444 2.80857C12.0445 1.25991 10.7846 0 9.23606 0H2.80847C1.25991 0 0 1.25991 0 2.80848C0 20.5591 14.4409 35 32.1915 35C33.7401 35 35 33.7401 35 32.1915V25.7819C34.9999 24.2334 33.74 22.9735 32.1915 22.9735Z" fill="#0E3175"/>
</svg>
