<svg width="267" height="267" viewBox="0 0 267 267" fill="none" xmlns="http://www.w3.org/2000/svg">
<circle cx="133.152" cy="133.152" r="133.152" fill="#033387"/>
<g clip-path="url(#clip0_255:3)">
<path d="M211.007 177.287L178.373 122.132L210.654 96.4686C212.922 94.6657 213.634 91.473 212.348 88.8774L198.734 61.4055C198.001 59.9269 196.581 58.9646 194.936 58.8317C193.29 58.6997 191.735 59.4204 190.78 60.7547L163.996 97.8339L145.481 66.5424C142.941 62.2492 138.462 59.6859 133.5 59.6859C128.538 59.6859 124.059 62.2489 121.519 66.5424L55.9923 177.287C53.3762 181.709 53.334 187.013 55.8795 191.477C58.3969 195.892 62.918 198.527 67.9735 198.527H199.026C204.082 198.527 208.603 195.892 211.12 191.477C213.666 187.013 213.623 181.709 211.007 177.287ZM207.074 189.17C205.396 192.113 202.388 193.87 199.027 193.87H67.9735C60.6112 193.872 56.4034 185.732 60.0007 179.659L125.527 68.9141C129.118 62.8386 137.838 62.7727 141.473 68.9141L161.021 101.952L158.038 106.081L154.021 99.2911C154.018 99.2871 154.016 99.2827 154.014 99.2787L137.462 71.3063C137.452 71.2883 137.441 71.2703 137.43 71.2526C136.532 69.8335 135.067 68.9809 133.502 68.9809C131.945 68.9809 130.478 69.8245 129.575 71.2395C129.561 71.2616 129.547 71.2836 129.534 71.306C129.497 71.3693 64.0042 182.055 63.9716 182.114C62.219 185.283 64.1917 189.104 67.8918 189.23C67.9654 189.233 150.991 189.232 151.072 189.232C152.359 189.232 153.401 188.189 153.401 186.903C153.401 185.617 152.359 184.574 151.072 184.574C151.023 184.574 68.0107 184.577 67.9651 184.567C67.9937 184.482 133.44 73.8646 133.498 73.7528L148.022 98.299C147.715 98.6328 131.393 123.079 131.121 123.485C130.406 124.554 130.692 126 131.761 126.715C132.83 127.431 134.276 127.144 134.992 126.076L150.632 102.711L154.874 109.881C155.49 110.921 156.578 111.574 157.785 111.629C158.991 111.685 160.135 111.133 160.842 110.153L194.56 63.4739L208.175 90.9457C208.493 91.5876 208.317 92.3769 207.756 92.8228L153.124 136.254L151.616 131.514C151.24 130.333 150.3 129.445 149.099 129.137C147.899 128.83 146.648 129.157 145.751 130.011L108.808 165.193L129.976 133.567C130.692 132.499 130.406 131.052 129.336 130.337C128.268 129.621 126.821 129.908 126.106 130.977L103.458 164.812C102.197 166.695 102.541 169.119 104.273 170.578C105.103 171.277 106.097 171.624 107.088 171.624C108.166 171.624 109.239 171.214 110.094 170.4L147.704 134.582L149.164 139.169C149.52 140.288 150.403 141.161 151.526 141.503C152.65 141.845 153.87 141.612 154.789 140.881L167.321 130.918C167.395 131.049 199.001 184.418 199.032 184.568C198.99 184.585 160.439 184.575 160.387 184.575C159.101 184.575 158.058 185.617 158.058 186.903C158.058 188.19 159.101 189.232 160.387 189.232H199.024C199.051 189.232 199.078 189.232 199.105 189.231C200.824 189.171 202.325 188.301 203.118 186.903C203.927 185.48 203.891 183.69 203.024 182.114C203.023 182.112 171.016 128.012 171.002 127.992L174.692 125.058L206.999 179.659C208.752 182.622 208.78 186.178 207.074 189.17Z" fill="white"/>
</g>
<defs>
<clipPath id="clip0_255:3">
<rect width="159" height="159" fill="white" transform="translate(54 49.1719)"/>
</clipPath>
</defs>
</svg>
