<svg xmlns="http://www.w3.org/2000/svg" viewBox="0 0 512 512" fill="#0260c9"><path d="M501.333 202.667A10.66 10.66 0 00512 192v-85.333C512 83.135 492.865 64 469.333 64H42.667C19.135 64 0 83.135 0 106.667V192a10.66 10.66 0 0010.667 10.667C40.073 202.667 64 226.594 64 256s-23.927 53.333-53.333 53.333A10.66 10.66 0 000 320v85.333C0 428.865 19.135 448 42.667 448h426.667C492.865 448 512 428.865 512 405.333V320a10.66 10.66 0 00-10.667-10.667C471.927 309.333 448 285.406 448 256s23.927-53.333 53.333-53.333zM426.667 256c0 37.552 27.865 68.719 64 73.906v75.427c0 11.76-9.573 21.333-21.333 21.333H42.667c-11.76 0-21.333-9.573-21.333-21.333v-75.427c36.135-5.188 64-36.354 64-73.906s-27.865-68.719-64-73.906v-75.427c0-11.76 9.573-21.333 21.333-21.333h426.667c11.76 0 21.333 9.573 21.333 21.333v75.427c-36.136 5.187-64 36.354-64 73.906z"/><path d="M138.667 104A10.66 10.66 0 00128 114.667v24a10.66 10.66 0 0010.667 10.667 10.66 10.66 0 0010.667-10.667v-24A10.662 10.662 0 00138.667 104zm0 88A10.66 10.66 0 00128 202.667V224a10.66 10.66 0 0010.667 10.667A10.66 10.66 0 00149.334 224v-21.333A10.662 10.662 0 00138.667 192zm0 85.333A10.66 10.66 0 00128 288v21.333A10.66 10.66 0 00138.667 320a10.66 10.66 0 0010.667-10.667V288a10.662 10.662 0 00-10.667-10.667zm0 85.334A10.66 10.66 0 00128 373.334v21.333a10.66 10.66 0 0010.667 10.667 10.66 10.66 0 0010.667-10.667v-21.333a10.662 10.662 0 00-10.667-10.667zm219.25-211.542c-4.938-3.271-11.531-1.948-14.792 2.958l-128 192a10.66 10.66 0 002.958 14.792 10.664 10.664 0 005.906 1.792 10.65 10.65 0 008.885-4.75l128-192a10.658 10.658 0 00-2.957-14.792zm-80.584 51.542c0-29.406-19.135-53.333-42.667-53.333S192 173.26 192 202.667 211.135 256 234.667 256s42.666-23.927 42.666-53.333zm-64 0c0-17.344 9.771-32 21.333-32s21.333 14.656 21.333 32-9.771 32-21.333 32-21.333-14.657-21.333-32zm128 53.333c-23.531 0-42.667 23.927-42.667 53.333s19.135 53.333 42.667 53.333c23.531 0 42.667-23.927 42.667-53.333S364.865 256 341.333 256zm0 85.333c-11.563 0-21.333-14.656-21.333-32s9.771-32 21.333-32c11.563 0 21.333 14.656 21.333 32s-9.77 32-21.333 32z"/></svg>