<svg xmlns="http://www.w3.org/2000/svg" width="75" height="75"><g fill-rule="evenodd" clip-rule="evenodd"><path d="M10.1 0H65c5.5 0 10 4.5 10 10.1V65c0 5.5-4.5 10-10.1 10H10.1C4.5 75 0 70.5 0 64.9V10.1C0 4.5 4.5 0 10.1 0z" fill="#ed2524"/><path d="M46 37l-13.8 7.5V29.4l6.2 3.4L46 37zm16.6-10.2s-.5-3.7-2-5.3c-1.9-2.1-4.1-2.1-5.1-2.3-7.1-.5-17.9-.5-17.9-.5s-10.7 0-17.9.5c-1 .1-3.2.1-5.1 2.3-1.5 1.6-2 5.3-2 5.3s-.5 4.3-.5 8.6v4.1c0 4.3.5 8.6.5 8.6s.5 3.7 2 5.3c2 2.1 4.5 2.1 5.6 2.3 4.1.4 17.4.5 17.4.5s10.7 0 17.9-.5c1-.1 3.2-.1 5.1-2.3 1.5-1.6 2-5.3 2-5.3s.5-4.3.5-8.6v-4.1c0-4.2-.5-8.6-.5-8.6z" fill="#fefefe"/></g></svg>