<svg version="1.1" id="Слой_1" xmlns="http://www.w3.org/2000/svg" x="0" y="0" width="64" height="64" xml:space="preserve"><style>.st0{fill:#fff}</style><g id="_19-telegram"><path class="st0" d="M11.2 0H53c6.1 0 11 4.9 11 11v41.8C64 59 59 64 52.8 64H11.2C5 64 0 59 0 52.8V11.2C0 5 5 0 11.2 0z"/><circle cx="32" cy="32" r="28" fill="#04acde"/><path fill="#a8cae1" d="M26.4 46.2l6.7-5.6-5.8-2.9z"/><path class="st0" d="M45.4 20.6L14.8 32c-.4.2-.6.6-.5 1 .1.2.3.4.5.5l11 3.2c.1 0 .2.1.3.1l13.8 10.6c.4.3.9.2 1.1-.1.1-.1.1-.2.1-.3l5.3-25.4c.1-.4-.1-.9-.5-1-.1-.1-.3-.1-.5 0z"/><path fill="#c1d8e9" d="M23.2 35.9l3.2 10.3.9-8.5 14.5-13z"/></g></svg>