<svg width="135" height="122" viewBox="0 0 135 122" fill="none" xmlns="http://www.w3.org/2000/svg">
<ellipse cx="56" cy="56.5" rx="56" ry="56.5" fill="white"/>
<g clip-path="url(#clip0)">
<path d="M123.567 48.5023V32.1695C123.567 31.2676 122.836 30.5363 121.934 30.5363H115.401V33.8028H120.3V48.5023H123.567Z" fill="#3EB6D0"/>
<path d="M48.436 73.0016V113.834C48.436 114.736 49.1673 115.467 50.0693 115.467H115.401C116.302 115.467 117.034 114.736 117.034 113.834V102.401H113.767V112.2H51.7026V73.0016H48.436Z" fill="#3EB6D0"/>
<path d="M101.377 24.1668C101.326 24.1437 101.278 24.1309 101.225 24.1126C101.089 24.0655 100.947 24.0376 100.802 24.028C100.766 24.0216 100.735 24.0033 100.701 24.0033H50.0693C49.1673 24.0033 48.436 24.7346 48.436 25.6366V28.9031H51.7026V27.2699H99.0677V40.3361C99.0677 41.2381 99.799 41.9694 100.701 41.9694H113.767V50.1358H117.034V40.3361C117.034 40.3018 117.016 40.2707 117.014 40.2348C117.005 40.0905 116.976 39.9485 116.929 39.8121C116.911 39.7595 116.898 39.7109 116.875 39.6598C116.796 39.482 116.685 39.3201 116.549 39.1813L101.849 24.4818C101.711 24.3502 101.552 24.2433 101.377 24.1668ZM111.458 38.7028H102.334V29.5794L111.458 38.7028Z" fill="#3EB6D0"/>
<path d="M74.5686 92.6009V105.667C74.5686 106.569 75.2999 107.3 76.2019 107.3H97.4345V104.034H77.8352V94.2342H86.0016V90.9677H76.2019C75.2999 90.9677 74.5686 91.699 74.5686 92.6009Z" fill="#3EB6D0"/>
<path d="M81.1018 97.5007H90.9015V100.767H81.1018V97.5007Z" fill="#3EB6D0"/>
<path d="M123.567 51.7689C117.256 51.7769 112.142 56.8913 112.134 63.2019V63.3654L103.804 72.1586L98.5893 66.9437C97.9513 66.3057 96.9178 66.3057 96.2798 66.9437L81.5802 81.6433C80.943 82.2813 80.943 83.3148 81.5802 83.9528L104.446 106.819C105.084 107.456 106.118 107.456 106.756 106.819L111.656 101.919L120.3 93.2772V118.733H56.6025V122H121.934C122.836 122 123.567 121.269 123.567 120.367V81.168H120.3V88.6581L114.607 82.9647L123.404 74.6348H123.567C129.882 74.6348 135 69.5165 135 63.2019C135 56.8873 129.882 51.7689 123.567 51.7689ZM105.601 103.358L85.0446 82.8012L87.6349 80.211L108.191 100.767L105.601 103.358ZM117.991 90.9676L110.501 98.4578L89.9444 77.9014L97.4345 70.4113L101.557 74.5336L97.8819 78.411C97.2679 79.0546 97.2822 80.0706 97.913 80.6974L106.079 88.8638C106.705 89.4891 107.714 89.5026 108.356 88.8949L112.235 85.2201L117.991 90.9676ZM123.567 71.3683H122.75C122.332 71.3683 121.931 71.5286 121.627 71.8157L107.265 85.4146L101.354 79.5036L114.96 65.1422C115.245 64.8376 115.402 64.4356 115.401 64.0185V63.2019C115.401 58.692 119.057 55.0355 123.567 55.0355C128.077 55.0355 131.733 58.692 131.733 63.2019C131.733 67.7117 128.077 71.3683 123.567 71.3683Z" fill="#3EB6D0"/>
<path d="M68.0354 71.3683H84.3682V74.6348H68.0354V71.3683Z" fill="#3EB6D0"/>
<path d="M58.2358 77.9015H77.8352V81.1681H58.2358V77.9015Z" fill="#3EB6D0"/>
<path d="M72.9353 64.8352H92.5347V68.1018H72.9353V64.8352Z" fill="#3EB6D0"/>
<path d="M58.2358 84.4346H68.0355V87.7011H58.2358V84.4346Z" fill="#3EB6D0"/>
<path d="M58.2358 90.9677H71.3021V94.2342H58.2358V90.9677Z" fill="#3EB6D0"/>
<path d="M58.2358 97.5007H71.3021V100.767H58.2358V97.5007Z" fill="#3EB6D0"/>
<path d="M58.2358 104.034H71.3021V107.301H58.2358V104.034Z" fill="#3EB6D0"/>
<path d="M58.2358 71.3683H64.769V74.6348H58.2358V71.3683Z" fill="#3EB6D0"/>
<path d="M71.302 84.4346H77.8351V87.7011H71.302V84.4346Z" fill="#3EB6D0"/>
<path d="M77.8352 56.6687H94.168V59.9353H77.8352V56.6687Z" fill="#3EB6D0"/>
<path d="M56.6027 69.735C67.1512 69.723 75.7985 61.3637 76.1677 50.8215C77.0498 51.56 78.1894 51.9165 79.3346 51.8112C80.176 52.8192 81.4217 53.4022 82.7352 53.4022C84.0486 53.4022 85.2943 52.8192 86.1357 51.8112C87.4436 51.9284 88.7355 51.4595 89.6638 50.5312C90.5921 49.6029 91.0611 48.311 90.9438 47.0031C91.9527 46.1617 92.5348 44.916 92.5348 43.6025C92.5348 42.2891 91.9527 41.0434 90.9438 40.202C91.0611 38.8941 90.5921 37.6021 89.6638 36.6739C88.7355 35.7456 87.4436 35.2766 86.1357 35.3939C85.2943 34.3858 84.0486 33.8029 82.7352 33.8029C81.4217 33.8029 80.176 34.3858 79.3346 35.3939C78.0267 35.2766 76.7348 35.7456 75.8065 36.6739C74.8782 37.6021 74.4093 38.8941 74.5265 40.202C74.2848 40.4014 74.0655 40.6271 73.8733 40.8751C69.3419 32.4232 59.3612 28.4915 50.2833 31.5818C41.2053 34.6729 35.6962 43.8777 37.2633 53.3384C38.8304 62.7992 47.0135 69.7366 56.6027 69.735ZM76.9628 42.5243C77.3983 42.3696 77.7476 42.0378 77.9246 41.6112C78.1009 41.1845 78.0889 40.7028 77.8911 40.2857C77.679 39.8471 77.7675 39.3231 78.1112 38.9786C78.4558 38.6349 78.9797 38.5464 79.4184 38.7585C79.8354 38.9563 80.3171 38.9683 80.7438 38.792C81.1705 38.615 81.5022 38.2657 81.6569 37.8302C81.8188 37.3733 82.2503 37.0678 82.7352 37.0678C83.22 37.0678 83.6515 37.3733 83.8134 37.8302C83.9681 38.2657 84.2998 38.615 84.7265 38.792C85.1532 38.9683 85.6349 38.9563 86.0528 38.7585C86.4906 38.5464 87.0145 38.6349 87.3591 38.9786C87.7028 39.3231 87.7913 39.8471 87.5792 40.2857C87.3814 40.7028 87.3694 41.1845 87.5457 41.6112C87.7227 42.0378 88.072 42.3696 88.5075 42.5243C88.9644 42.6862 89.2699 43.1177 89.2699 43.6025C89.2699 44.0874 88.9644 44.5189 88.5075 44.6808C88.072 44.8355 87.7227 45.1672 87.5457 45.5939C87.3694 46.0206 87.3814 46.5022 87.5792 46.9201C87.8049 47.3564 87.7131 47.8899 87.3543 48.2264C87.0161 48.5821 86.485 48.673 86.0472 48.4521C85.6301 48.2536 85.1484 48.2416 84.7217 48.4186C84.2951 48.5949 83.9633 48.9442 83.8086 49.3796C83.6467 49.8366 83.2145 50.142 82.7304 50.142C82.2455 50.142 81.814 49.8366 81.6521 49.3796C81.4974 48.9434 81.1649 48.5941 80.7374 48.4178C80.5388 48.3365 80.3267 48.2942 80.1122 48.2934C79.8697 48.2942 79.6305 48.3501 79.4128 48.4569C78.9749 48.6683 78.451 48.5797 78.1065 48.236C77.7627 47.8915 77.6742 47.3675 77.8864 46.9297C78.0841 46.5126 78.0961 46.0309 77.9198 45.6043C77.7428 45.1768 77.3935 44.845 76.9581 44.6903C76.5011 44.5292 76.1957 44.097 76.1957 43.6121C76.1957 43.128 76.5011 42.6958 76.9581 42.5347L76.9628 42.5243ZM56.6027 33.8029C65.6232 33.8029 72.9355 41.1151 72.9355 50.1357C72.9355 59.1562 65.6232 66.4685 56.6027 66.4685C47.5822 66.4685 40.2699 59.1562 40.2699 50.1357C40.2794 41.1191 47.5861 33.8124 56.6027 33.8029Z" fill="#3EB6D0"/>
<path d="M48.9147 59.4569C49.5527 60.0941 50.5863 60.0941 51.2243 59.4569L67.5571 43.1241L65.2475 40.8146L50.0695 55.9926L46.3245 52.2475L44.0149 54.5571L48.9147 59.4569Z" fill="#3EB6D0"/>
</g>
<defs>
<clipPath id="clip0">
<rect width="98" height="98" fill="white" transform="translate(37 24)"/>
</clipPath>
</defs>
</svg>
