<svg width="135" height="124" viewBox="0 0 135 124" fill="none" xmlns="http://www.w3.org/2000/svg">
<circle cx="56" cy="56" r="56" fill="white"/>
<path d="M117.639 119.359C112.112 119.359 109.108 117.011 106.911 115.296C105.162 113.925 104.197 113.172 101.809 113.172C99.4229 113.172 98.4598 113.925 96.7111 115.294C94.5183 117.01 91.5156 119.359 85.9893 119.359C80.4615 119.359 77.4587 117.01 75.2629 115.293C73.5142 113.925 72.5495 113.172 70.1638 113.172C67.7797 113.172 66.8165 113.925 65.0678 115.294C62.8751 117.01 59.8723 119.359 54.346 119.359C48.8197 119.359 45.8185 117.01 43.6257 115.294C41.8786 113.925 40.9154 113.172 38.5312 113.172V116.266C39.868 116.266 40.1559 116.491 41.7515 117.74C44.0024 119.502 47.7739 122.453 54.346 122.453C60.9181 122.453 64.6896 119.503 66.9451 117.74C68.5407 116.491 68.8286 116.266 70.1638 116.266C71.5037 116.266 71.7915 116.491 73.3902 117.741C75.6442 119.503 79.4141 122.453 85.9893 122.453C92.5614 122.453 96.3329 119.503 98.5884 117.74C100.184 116.491 100.472 116.266 101.809 116.266C103.15 116.266 103.436 116.491 105.038 117.743C107.294 119.505 111.067 122.453 117.639 122.453C124.211 122.453 127.984 119.505 130.239 117.741C131.841 116.491 132.127 116.266 133.469 116.266V113.172C131.08 113.172 130.117 113.925 128.365 115.296C126.169 117.011 123.165 119.359 117.639 119.359Z" fill="#3EB6D0"/>
<path d="M53.8438 85.3281C51.3111 85.3281 49.25 87.4102 49.25 89.9688C49.25 92.5273 51.3111 94.6094 53.8438 94.6094C56.3764 94.6094 58.4375 92.5273 58.4375 89.9688C58.4375 87.4102 56.3764 85.3281 53.8438 85.3281ZM53.8438 91.5156C52.9985 91.5156 52.3125 90.8211 52.3125 89.9688C52.3125 89.1164 52.9985 88.4219 53.8438 88.4219C54.689 88.4219 55.375 89.1164 55.375 89.9688C55.375 90.8211 54.689 91.5156 53.8438 91.5156Z" fill="#3EB6D0"/>
<path d="M66.0938 85.3281C63.5611 85.3281 61.5 87.4102 61.5 89.9688C61.5 92.5273 63.5611 94.6094 66.0938 94.6094C68.6264 94.6094 70.6875 92.5273 70.6875 89.9688C70.6875 87.4102 68.6264 85.3281 66.0938 85.3281ZM66.0938 91.5156C65.2485 91.5156 64.5625 90.8211 64.5625 89.9688C64.5625 89.1164 65.2485 88.4219 66.0938 88.4219C66.939 88.4219 67.625 89.1164 67.625 89.9688C67.625 90.8211 66.939 91.5156 66.0938 91.5156Z" fill="#3EB6D0"/>
<path d="M133.469 42.3126V38.9219H123.696L120.634 32.7344H100.366L97.3037 38.9219H87.5312V39.6706L58.2292 26.9831C57.5616 26.6938 56.8527 26.5469 56.1238 26.5469C53.1777 26.5469 50.7812 28.9677 50.7812 31.9439V35.2047L55.375 37.7029V42.3003C53.5972 42.9407 52.3125 44.6422 52.3125 46.6562C52.3125 48.6703 53.5972 50.3718 55.375 51.0123V57.4844H49.25C46.7173 57.4844 44.6562 59.5665 44.6562 62.125V72.9531H41.5938V79.1406H38.5312V80.6875C38.5312 88.5379 41.1175 96.0727 45.7082 102.191C43.7834 101.391 41.4452 100.797 38.5312 100.797V103.891C44.056 103.891 47.0588 106.24 49.2515 107.956C51.0002 109.325 51.9618 110.078 54.346 110.078C56.7302 110.078 57.6933 109.325 59.442 107.956C61.6348 106.24 64.6391 103.891 70.1638 103.891C75.6901 103.891 78.6944 106.24 80.8918 107.957C82.642 109.325 83.6067 110.078 85.9893 110.078C88.3719 110.078 89.3366 109.325 91.0853 107.956C93.278 106.24 96.2823 103.891 101.809 103.891C102.371 103.891 102.905 103.954 103.446 104.005C102.518 104.902 101.701 105.92 100.988 107.026C97.0541 107.238 94.8751 108.904 92.9595 110.401C91.0608 111.888 89.4193 113.172 85.9893 113.172C82.5578 113.172 80.9162 111.888 79.0144 110.401C76.9672 108.8 74.6443 106.984 70.1638 106.984C65.6849 106.984 63.3651 108.8 61.3178 110.401C59.419 111.888 57.776 113.172 54.346 113.172C50.916 113.172 49.2745 111.888 47.3757 110.401C45.3285 108.8 43.0086 106.984 38.5312 106.984V110.078C41.9613 110.078 43.6027 111.362 45.5015 112.849C47.5488 114.45 49.8686 116.266 54.346 116.266C58.8249 116.266 61.1447 114.45 63.192 112.849C65.0923 111.362 66.7338 110.078 70.1638 110.078C73.5969 110.078 75.2384 111.362 77.1402 112.849C79.189 114.45 81.5104 116.266 85.9893 116.266C90.4667 116.266 92.788 114.45 94.8353 112.849C96.7371 111.362 98.3771 110.078 101.809 110.078C105.243 110.078 106.885 111.362 108.787 112.849C110.837 114.45 113.158 116.266 117.639 116.266C122.119 116.266 124.44 114.45 126.491 112.849C128.393 111.362 130.034 110.078 133.469 110.078V106.984C131.918 106.984 130.637 107.212 129.524 107.563C128.973 106.627 128.367 105.739 127.668 104.944C129.452 104.242 131.365 103.891 133.469 103.891V100.797C130.876 100.797 128.517 101.249 126.312 102.157C130.935 95.9954 133.469 88.4776 133.469 80.6875V79.1406H130.406V50.047L133.469 42.3126ZM102.259 35.8281H118.741L120.272 38.9219H100.728L102.259 35.8281ZM130.288 42.0156L127.838 48.2031H93.1617L90.7117 42.0156H130.288ZM127.344 60.5781H93.6562V51.2969H127.344V60.5781ZM108.969 69.8594H112.031V72.9531H108.969V69.8594ZM115.094 76.0469V69.8594H116.625C117.47 69.8594 118.156 70.5539 118.156 71.4062V79.1406H111.266L106.672 85.3281H104.375C103.53 85.3281 102.844 84.6336 102.844 83.7812V71.4062C102.844 70.5539 103.53 69.8594 104.375 69.8594H105.906V76.0469H115.094ZM99.7812 83.7812C99.7812 84.6336 99.0952 85.3281 98.25 85.3281H86C85.1548 85.3281 84.4688 84.6336 84.4688 83.7812V71.4062C84.4688 70.5539 85.1548 69.8594 86 69.8594H87.5312V76.0469H96.7188V69.8594H98.25C99.0952 69.8594 99.7812 70.5539 99.7812 71.4062V83.7812ZM90.5938 69.8594H93.6562V72.9531H90.5938V69.8594ZM53.8438 31.9439C53.8438 30.6739 54.8666 29.6406 56.1238 29.6406C56.4346 29.6406 56.7363 29.704 57.0226 29.8262L87.8758 43.1835L90.5938 50.047V53.348L53.8438 33.3578V31.9439ZM56.9062 45.1094C57.7515 45.1094 58.4375 45.8039 58.4375 46.6562C58.4375 47.5086 57.7515 48.2031 56.9062 48.2031C56.061 48.2031 55.375 47.5086 55.375 46.6562C55.375 45.8039 56.061 45.1094 56.9062 45.1094ZM58.4375 51.0123C60.2153 50.3718 61.5 48.6703 61.5 46.6562C61.5 44.6422 60.2153 42.9407 58.4375 42.3003V39.3689L90.5938 56.8594V66.7656H86C83.4673 66.7656 81.4062 68.8477 81.4062 71.4062V83.7812C81.4062 84.3257 81.5165 84.8424 81.688 85.3281H79.1094L74.5156 79.1406H72.2188V72.9531H69.1562V62.125C69.1562 59.5665 67.0952 57.4844 64.5625 57.4844H58.4375V51.0123ZM53.8438 60.5781H59.9688V63.6719H53.8438V60.5781ZM47.7188 62.125C47.7188 61.2727 48.4047 60.5781 49.25 60.5781H50.7812V66.7656H63.0312V60.5781H64.5625C65.4077 60.5781 66.0938 61.2727 66.0938 62.125V72.9531H47.7188V62.125ZM44.6562 76.0469H69.1562V79.1406H44.6562V76.0469ZM110.661 110.401C110.566 110.327 110.468 110.253 110.373 110.179C111.708 109.119 113.36 108.531 115.094 108.531C117.822 108.531 120.328 110.027 121.687 112.35C120.614 112.853 119.349 113.172 117.639 113.172C114.204 113.172 112.563 111.888 110.661 110.401ZM124.617 110.401C124.494 110.497 124.375 110.589 124.255 110.681C122.337 107.489 118.87 105.438 115.094 105.438C112.33 105.438 109.714 106.508 107.733 108.401C106.842 107.92 105.83 107.515 104.617 107.264C107.212 104.194 111.03 102.344 115.094 102.344C119.9 102.344 124.231 104.82 126.743 108.868C125.969 109.359 125.274 109.888 124.617 110.401ZM123.065 101.301C120.664 99.9987 117.956 99.25 115.094 99.25C112.163 99.25 109.333 100.039 106.851 101.45C105.265 101.024 103.577 100.797 101.809 100.797C95.235 100.797 91.4635 103.747 89.208 105.51C87.6139 106.759 87.3245 106.984 85.9893 106.984C84.651 106.984 84.3631 106.759 82.7645 105.509C80.5105 103.747 76.7375 100.797 70.1638 100.797C63.5917 100.797 59.8202 103.747 57.5647 105.51C56.1988 106.579 55.7869 106.896 54.859 106.966C46.9638 101.16 42.0945 92.04 41.629 82.2344H72.9844L77.5781 88.4219H86H98.25H108.203L112.797 82.2344H130.371C130.042 89.2262 127.469 95.8948 123.065 101.301ZM121.219 79.1406V71.4062C121.219 68.8477 119.158 66.7656 116.625 66.7656H104.375C103.194 66.7656 102.127 67.2312 101.312 67.9722C100.498 67.2297 99.4306 66.7656 98.25 66.7656H93.6562V63.6719H127.344V79.1406H121.219Z" fill="#3EB6D0"/>
<path d="M115.094 54.3906H118.156V57.4844H115.094V54.3906Z" fill="#3EB6D0"/>
<path d="M121.219 54.3906H124.281V57.4844H121.219V54.3906Z" fill="#3EB6D0"/>
<path d="M108.969 54.3906H112.031V57.4844H108.969V54.3906Z" fill="#3EB6D0"/>
<path d="M96.7188 54.3906H99.7812V57.4844H96.7188V54.3906Z" fill="#3EB6D0"/>
<path d="M102.844 54.3906H105.906V57.4844H102.844V54.3906Z" fill="#3EB6D0"/>
<path d="M124.281 85.3281H127.344V88.4219H124.281V85.3281Z" fill="#3EB6D0"/>
<path d="M118.156 85.3281H121.219V88.4219H118.156V85.3281Z" fill="#3EB6D0"/>
<path d="M112.031 85.3281H115.094V88.4219H112.031V85.3281Z" fill="#3EB6D0"/>
</svg>
