<svg width="110" height="102" viewBox="0 0 110 102" fill="none" xmlns="http://www.w3.org/2000/svg">
<circle cx="45" cy="45" r="45" fill="#F3F3F3"/>
<path d="M95.8539 97.2558C91.351 97.2558 88.903 95.3425 87.1126 93.9447C85.6878 92.8279 84.9017 92.2141 82.9553 92.2141C81.0114 92.2141 80.2266 92.8279 78.8018 93.9434C77.0151 95.3412 74.5684 97.2558 70.0655 97.2558C65.5614 97.2558 63.1146 95.3412 61.3255 93.9421C59.9006 92.8279 59.1146 92.2141 57.1707 92.2141C55.228 92.2141 54.4432 92.8279 53.0184 93.9434C51.2317 95.3412 48.785 97.2558 44.2821 97.2558C39.7792 97.2558 37.3337 95.3412 35.547 93.9434C34.1234 92.8279 33.3386 92.2141 31.396 92.2141V94.7349C32.4852 94.7349 32.7198 94.919 34.0199 95.9361C35.854 97.3717 38.927 99.7766 44.2821 99.7766C49.6372 99.7766 52.7102 97.373 54.548 95.9361C55.8481 94.919 56.0827 94.7349 57.1707 94.7349C58.2624 94.7349 58.497 94.919 59.7995 95.9374C61.6361 97.373 64.7079 99.7766 70.0655 99.7766C75.4206 99.7766 78.4936 97.373 80.3315 95.9361C81.6315 94.919 81.8661 94.7349 82.9553 94.7349C84.0483 94.7349 84.2816 94.919 85.5867 95.9386C87.4245 97.3743 90.4988 99.7766 95.8539 99.7766C101.209 99.7766 104.283 97.3743 106.121 95.9374C107.426 94.919 107.66 94.7349 108.752 94.7349V92.2141C106.806 92.2141 106.021 92.8279 104.594 93.9447C102.805 95.3425 100.357 97.2558 95.8539 97.2558Z" fill="#3EB6D0"/>
<path d="M43.8729 69.5266C41.8093 69.5266 40.1299 71.2231 40.1299 73.3079C40.1299 75.3926 41.8093 77.0891 43.8729 77.0891C45.9366 77.0891 47.616 75.3926 47.616 73.3079C47.616 71.2231 45.9366 69.5266 43.8729 69.5266ZM43.8729 74.5683C43.1842 74.5683 42.6253 74.0024 42.6253 73.3079C42.6253 72.6134 43.1842 72.0474 43.8729 72.0474C44.5617 72.0474 45.1206 72.6134 45.1206 73.3079C45.1206 74.0024 44.5617 74.5683 43.8729 74.5683Z" fill="#3EB6D0"/>
<path d="M53.8544 69.5266C51.7907 69.5266 50.1113 71.2231 50.1113 73.3079C50.1113 75.3926 51.7907 77.0891 53.8544 77.0891C55.9181 77.0891 57.5974 75.3926 57.5974 73.3079C57.5974 71.2231 55.9181 69.5266 53.8544 69.5266ZM53.8544 74.5683C53.1657 74.5683 52.6067 74.0024 52.6067 73.3079C52.6067 72.6134 53.1657 72.0474 53.8544 72.0474C54.5431 72.0474 55.1021 72.6134 55.1021 73.3079C55.1021 74.0024 54.5431 74.5683 53.8544 74.5683Z" fill="#3EB6D0"/>
<path d="M108.752 34.4769V31.7141H100.79L98.2944 26.6724H81.78L79.2846 31.7141H71.3219V32.3241L47.4462 21.9862C46.9022 21.7505 46.3245 21.6307 45.7306 21.6307C43.3301 21.6307 41.3775 23.6033 41.3775 26.0283V28.6853L45.1205 30.7209V34.4668C43.672 34.9886 42.6252 36.3751 42.6252 38.0162C42.6252 39.6572 43.672 41.0437 45.1205 41.5655V46.8391H40.1298C38.0661 46.8391 36.3867 48.5356 36.3867 50.6203V59.4432H33.8914V64.4849H31.396V65.7453C31.396 72.1419 33.5033 78.2814 37.2439 83.2664C35.6756 82.6147 33.7703 82.1307 31.396 82.1307V84.6516C35.8976 84.6516 38.3444 86.5661 40.131 87.9639C41.5559 89.0794 42.3394 89.6932 44.2821 89.6932C46.2247 89.6932 47.0095 89.0794 48.4344 87.9639C50.2211 86.5661 52.669 84.6516 57.1707 84.6516C61.6736 84.6516 64.1215 86.5661 65.912 87.9652C67.3381 89.0794 68.1241 89.6932 70.0655 89.6932C72.0069 89.6932 72.7929 89.0794 74.2178 87.9639C76.0045 86.5661 78.4524 84.6516 82.9553 84.6516C83.4132 84.6516 83.8487 84.7032 84.2891 84.7448C83.533 85.4759 82.868 86.3052 82.2866 87.2064C79.0813 87.3791 77.3058 88.7366 75.745 89.9567C74.1978 91.1679 72.8603 92.2141 70.0655 92.2141C67.2694 92.2141 65.9319 91.1679 64.3823 89.9567C62.7141 88.6521 60.8214 87.1724 57.1707 87.1724C53.5212 87.1724 51.631 88.6521 49.9628 89.9567C48.4157 91.1679 47.0769 92.2141 44.2821 92.2141C41.4873 92.2141 40.1498 91.1679 38.6026 89.9567C36.9345 88.6521 35.0442 87.1724 31.396 87.1724V89.6932C34.1908 89.6932 35.5283 90.7394 37.0755 91.9506C38.7436 93.2552 40.6339 94.7349 44.2821 94.7349C47.9316 94.7349 49.8218 93.2552 51.49 91.9506C53.0383 90.7394 54.3759 89.6932 57.1707 89.6932C59.968 89.6932 61.3055 90.7394 62.8551 91.9506C64.5245 93.2552 66.416 94.7349 70.0655 94.7349C73.7137 94.7349 75.6052 93.2552 77.2734 91.9506C78.823 90.7394 80.1593 89.6932 82.9553 89.6932C85.7539 89.6932 87.0914 90.7394 88.641 91.9506C90.3117 93.2552 92.2032 94.7349 95.8539 94.7349C99.5046 94.7349 101.396 93.2552 103.067 91.9506C104.616 90.7394 105.954 89.6932 108.752 89.6932V87.1724C107.489 87.1724 106.446 87.3577 105.538 87.6438C105.089 86.8812 104.595 86.1578 104.026 85.5099C105.48 84.9377 107.038 84.6516 108.752 84.6516V82.1307C106.64 82.1307 104.717 82.4988 102.921 83.2386C106.688 78.2184 108.752 72.0928 108.752 65.7453V64.4849H106.257V40.779L108.752 34.4769ZM83.3222 29.1932H96.7522L97.9999 31.7141H82.0745L83.3222 29.1932ZM106.161 34.2349L104.165 39.2766H75.9097L73.9134 34.2349H106.161ZM103.762 49.3599H76.3127V41.7974H103.762V49.3599ZM88.7895 56.9224H91.2849V59.4432H88.7895V56.9224ZM93.7803 61.9641V56.9224H95.0279C95.7167 56.9224 96.2756 57.4883 96.2756 58.1828V64.4849H90.661L86.918 69.5266H85.0465C84.3577 69.5266 83.7988 68.9606 83.7988 68.2662V58.1828C83.7988 57.4883 84.3577 56.9224 85.0465 56.9224H86.2941V61.9641H93.7803ZM81.3034 68.2662C81.3034 68.9606 80.7444 69.5266 80.0557 69.5266H70.0742C69.3855 69.5266 68.8265 68.9606 68.8265 68.2662V58.1828C68.8265 57.4883 69.3855 56.9224 70.0742 56.9224H71.3219V61.9641H78.808V56.9224H80.0557C80.7444 56.9224 81.3034 57.4883 81.3034 58.1828V68.2662ZM73.8173 56.9224H76.3127V59.4432H73.8173V56.9224ZM43.8728 26.0283C43.8728 24.9935 44.7063 24.1516 45.7306 24.1516C45.9839 24.1516 46.2297 24.2032 46.463 24.3028L71.6026 35.1865L73.8173 40.779V43.4687L43.8728 27.1804V26.0283ZM46.3682 36.7557C47.0569 36.7557 47.6159 37.3217 47.6159 38.0162C47.6159 38.7106 47.0569 39.2766 46.3682 39.2766C45.6795 39.2766 45.1205 38.7106 45.1205 38.0162C45.1205 37.3217 45.6795 36.7557 46.3682 36.7557ZM47.6159 41.5655C49.0645 41.0437 50.1113 39.6572 50.1113 38.0162C50.1113 36.3751 49.0645 34.9886 47.6159 34.4668V32.0783L73.8173 46.3299V54.4016H70.0742C68.0106 54.4016 66.3312 56.0981 66.3312 58.1828V68.2662C66.3312 68.7098 66.421 69.1308 66.5608 69.5266H64.4597L60.7166 64.4849H58.8451V59.4432H56.3497V50.6203C56.3497 48.5356 54.6703 46.8391 52.6066 46.8391H47.6159V41.5655ZM43.8728 49.3599H48.8636V51.8807H43.8728V49.3599ZM38.8821 50.6203C38.8821 49.9258 39.4411 49.3599 40.1298 49.3599H41.3775V54.4016H51.359V49.3599H52.6066C53.2954 49.3599 53.8543 49.9258 53.8543 50.6203V59.4432H38.8821V50.6203ZM36.3867 61.9641H56.3497V64.4849H36.3867V61.9641ZM90.1682 89.9567C90.0908 89.8962 90.011 89.8357 89.9336 89.7752C91.0216 88.9118 92.3679 88.4328 93.7803 88.4328C96.0036 88.4328 98.0448 89.6516 99.1528 91.5448C98.2782 91.9544 97.2476 92.2141 95.8539 92.2141C93.0553 92.2141 91.7178 91.1679 90.1682 89.9567ZM101.54 89.9567C101.44 90.0348 101.342 90.1092 101.245 90.1848C99.6818 87.5833 96.857 85.912 93.7803 85.912C91.5282 85.912 89.3971 86.7842 87.7826 88.3269C87.0565 87.935 86.2318 87.6047 85.2436 87.4005C87.3584 84.8986 90.4689 83.3912 93.7803 83.3912C97.6967 83.3912 101.225 85.4091 103.273 88.7076C102.641 89.1071 102.075 89.5382 101.54 89.9567ZM100.276 82.5416C98.3193 81.4804 96.1122 80.8703 93.7803 80.8703C91.3922 80.8703 89.0865 81.5131 87.064 82.6626C85.7714 82.316 84.3964 82.1307 82.9553 82.1307C77.599 82.1307 74.526 84.5344 72.6881 85.9712C71.3893 86.9884 71.1535 87.1724 70.0655 87.1724C68.975 87.1724 68.7405 86.9884 67.4379 85.97C65.6013 84.5344 62.527 82.1307 57.1707 82.1307C51.8156 82.1307 48.7426 84.5344 46.9047 85.9712C45.7918 86.8422 45.4562 87.1006 44.7001 87.1573C38.267 82.4269 34.2994 74.9955 33.9201 67.0057H59.4689L63.212 72.0474H70.0742H80.0557H88.1657L91.9087 67.0057H106.228C105.96 72.7028 103.864 78.1365 100.276 82.5416ZM98.771 64.4849V58.1828C98.771 56.0981 97.0916 54.4016 95.0279 54.4016H85.0465C84.0845 54.4016 83.2149 54.781 82.5511 55.3847C81.8873 54.7797 81.0177 54.4016 80.0557 54.4016H76.3127V51.8807H103.762V64.4849H98.771Z" fill="#3EB6D0"/>
<path d="M93.7803 44.3182H96.2756V46.8391H93.7803V44.3182Z" fill="#3EB6D0"/>
<path d="M98.771 44.3182H101.266V46.8391H98.771V44.3182Z" fill="#3EB6D0"/>
<path d="M88.7896 44.3182H91.2849V46.8391H88.7896V44.3182Z" fill="#3EB6D0"/>
<path d="M78.8081 44.3182H81.3035V46.8391H78.8081V44.3182Z" fill="#3EB6D0"/>
<path d="M83.7988 44.3182H86.2942V46.8391H83.7988V44.3182Z" fill="#3EB6D0"/>
<path d="M101.266 69.5266H103.762V72.0474H101.266V69.5266Z" fill="#3EB6D0"/>
<path d="M96.2756 69.5266H98.771V72.0474H96.2756V69.5266Z" fill="#3EB6D0"/>
<path d="M91.2849 69.5266H93.7803V72.0474H91.2849V69.5266Z" fill="#3EB6D0"/>
</svg>
