<svg width="137" height="122" viewBox="0 0 137 122" fill="none" xmlns="http://www.w3.org/2000/svg">
<ellipse cx="56" cy="56.5" rx="56" ry="56.5" fill="white"/>
<g clip-path="url(#clip0)">
<path d="M88.0001 49.5033L99.6365 39.8065H114.871V24H76.9355V39.8065H88.0001V49.5033ZM80.0968 36.6452V27.1613H111.71V36.6452H98.4927L91.1614 42.7547V36.6452H80.0968Z" fill="#3EB6D0"/>
<path d="M83.2581 30.3226H86.4193V33.4839H83.2581V30.3226Z" fill="#3EB6D0"/>
<path d="M89.5806 30.3226H102.226V33.4839H89.5806V30.3226Z" fill="#3EB6D0"/>
<path d="M105.387 30.3226H108.548V33.4839H105.387V30.3226Z" fill="#3EB6D0"/>
<path d="M119.462 118.839L118.184 106.043C123.462 105.209 127.516 100.639 127.516 95.129V74.5806H121.194V72.3964C121.194 70.2477 120.013 68.3182 118.114 67.3288C120.002 65.5946 121.194 63.1148 121.194 60.3548V57.1935C121.194 51.963 116.94 47.7097 111.71 47.7097C106.479 47.7097 102.226 51.963 102.226 57.1935V60.3548C102.226 64.4469 104.835 67.9308 108.474 69.2583L99.9907 77.7419H91.1266C90.9498 75.107 89.1399 72.8101 86.576 72.0769L80.0968 70.2277V67.4044C82.0317 65.6671 83.2581 63.1557 83.2581 60.3548V57.1935C83.2581 51.963 79.0047 47.7097 73.7742 47.7097C68.5437 47.7097 64.2903 51.963 64.2903 57.1935V60.3548C64.2903 63.1541 65.5167 65.6656 67.4516 67.4044V70.2292L60.9724 72.0784C58.2726 72.8479 56.3871 75.3486 56.3871 78.1579V84.0645H50.0645V93.5484H53.2258V118.839H39V122H137V118.839H119.462ZM105.387 93.5484V86.2996L116.587 75.0993C117.397 74.2897 117.879 73.2022 117.987 72.0676C118.001 72.178 118.032 72.2822 118.032 72.3964V91.9677C118.032 94.5818 115.904 96.7097 113.29 96.7097H100.645V93.5484H105.387ZM100.645 106.194H108.699L109.963 118.839H100.645V106.194ZM111.876 106.194H115.021L116.286 118.839H113.14L111.876 106.194ZM121.194 91.9677V77.7419H124.355V95.129C124.355 99.4866 120.809 103.032 116.452 103.032H100.645V99.8709H113.29C117.648 99.8709 121.194 96.3253 121.194 91.9677ZM105.387 60.3548V57.1935C105.387 53.7065 108.223 50.8709 111.71 50.8709C115.197 50.8709 118.032 53.7065 118.032 57.1935V60.3548C118.032 63.8418 115.197 66.6774 111.71 66.6774C108.223 66.6774 105.387 63.8418 105.387 60.3548ZM101.3 80.9032L111.846 70.3573C112.176 70.027 112.633 69.8387 113.099 69.8387C114.076 69.8387 114.871 70.6336 114.871 71.6107C114.871 72.0769 114.683 72.5338 114.352 72.8641L103.152 84.0645H86.4194C85.5472 84.0645 84.8387 83.356 84.8387 82.4838C84.8387 81.6117 85.5472 80.9032 86.4194 80.9032H101.3ZM67.4516 57.1935C67.4516 53.7065 70.2872 50.8709 73.7742 50.8709C77.2612 50.8709 80.0968 53.7065 80.0968 57.1935V60.3548C80.0968 63.8418 77.2612 66.6774 73.7742 66.6774C70.2872 66.6774 67.4516 63.8418 67.4516 60.3548V57.1935ZM73.7742 69.8387C74.884 69.8387 75.9445 69.6365 76.9355 69.2853V70.9833C76.5434 71.5884 75.4544 73 73.7742 73C72.094 73 71.005 71.5884 70.6129 70.9833V69.2853C71.6039 69.6365 72.6643 69.8387 73.7742 69.8387ZM59.5484 78.1579C59.5484 76.7525 60.4923 75.5037 61.8406 75.1178L68.3523 73.2578C69.2692 74.4525 71.0536 76.1613 73.7742 76.1613C76.4948 76.1613 78.2792 74.4525 79.1961 73.2562L85.7078 75.1163C86.9187 75.4628 87.7631 76.5155 87.9321 77.7404H86.4194C83.8053 77.7404 81.6774 79.8682 81.6774 82.4823C81.6774 83.0388 81.7909 83.5667 81.9684 84.063H59.5484V78.1579ZM53.2258 87.2258H102.226V90.3871H53.2258V87.2258ZM56.3871 99.8709H61.129V96.7097H56.3871V93.5484H97.4839V96.7097H64.2903V99.8709H97.4839V118.839H93.719L90.5577 112.516H63.3132L60.1519 118.839H56.3871V99.8709ZM90.1842 118.839H63.6868L65.2674 115.677H88.6035L90.1842 118.839Z" fill="#3EB6D0"/>
</g>
<defs>
<clipPath id="clip0">
<rect width="98" height="98" fill="white" transform="translate(39 24)"/>
</clipPath>
</defs>
</svg>
