<svg width="133" height="125" viewBox="0 0 133 125" fill="none" xmlns="http://www.w3.org/2000/svg">
<circle cx="56" cy="56" r="56" fill="white"/>
<path d="M110.031 62.0733C110.031 59.2558 108.065 56.9007 105.438 56.2714V53.0312H102.375V56.2729C99.7474 56.9023 97.7812 59.2558 97.7812 62.0748C97.7812 64.6534 99.4243 66.9335 101.871 67.7481L104.972 68.7832C106.168 69.1813 106.969 70.293 106.969 71.5517C106.969 73.1611 105.661 74.4688 104.052 74.4688H103.762C102.151 74.4688 100.844 73.1611 100.844 71.5517V69.875H97.7812V71.5517C97.7812 74.3692 99.7474 76.7243 102.375 77.3536V80.5938H105.438V77.3521C108.065 76.7227 110.031 74.3692 110.031 71.5502C110.031 68.9716 108.388 66.6915 105.941 65.8769L102.841 64.8418C101.645 64.4437 100.844 63.332 100.844 62.0733C100.844 60.4639 102.151 59.1562 103.761 59.1562H104.05C105.661 59.1562 106.969 60.4639 106.969 62.0733V62.2188L110.031 62.0733Z" fill="#3EB6D0"/>
<path d="M129.971 50.964L107.601 29.992C105.591 28.1086 102.22 28.1086 100.211 29.992L78.3252 50.5108C75.5934 46.4913 70.9859 43.8437 65.772 43.8437H59.3545C50.9908 43.8437 44.1875 50.6471 44.1875 59.0092C44.1875 60.2511 44.3406 61.4868 44.6407 62.6873L45.5013 66.128C44.6913 67.1677 44.1875 68.4571 44.1875 69.875C44.1875 73.2529 46.9346 76 50.3125 76H50.7152C51.5176 79.1023 53.5036 81.7269 56.168 83.3653L55.2156 86.901L50.1165 87.7523C47.8349 88.1321 45.6988 88.9758 43.7695 90.2605C39.2385 93.2832 36.5312 98.3409 36.5312 103.786V123.469H80.9375H82.4688H114.625C117.158 123.469 119.219 121.408 119.219 118.875V100.5C119.219 97.9673 117.158 95.9062 114.625 95.9062H110.031V94.375C110.031 92.6447 109.433 91.0644 108.46 89.7812H125.344V59.1562H126.733C129.343 59.1562 131.469 57.0309 131.469 54.4201C131.469 53.1155 130.924 51.8552 129.971 50.964ZM81.0799 59.1562H82.4688V89.7812H87.1023C86.1361 91.0583 85.5404 92.6278 85.5343 94.3474C84.3951 92.7549 82.997 91.3554 81.354 90.2605C79.4262 88.9758 77.2916 88.1321 75.0085 87.7523L69.9094 86.901L68.957 83.3653C71.6198 81.7253 73.6059 79.1023 74.4098 76H74.9289C78.3068 76 81.0539 73.2529 81.0539 69.875C81.0539 68.4081 80.5149 67.0774 79.6512 66.0224L80.4858 62.6888C80.7752 61.5312 80.9191 60.3414 80.9298 59.1455C80.9804 59.147 81.0294 59.1562 81.0799 59.1562ZM76.3438 100.5V118.875C76.3438 119.414 76.454 119.925 76.6255 120.406H68.4532L65.6863 103.803L67.905 99.3669L71.1436 101.31L74.1694 90.7168L74.5062 90.7735C76.3575 91.0828 78.0924 91.7673 79.6558 92.8085C80.9115 93.6461 81.9864 94.7073 82.8822 95.9062H80.9375C78.4048 95.9062 76.3438 97.9673 76.3438 100.5ZM69.2127 89.89L71.1283 90.21L69.2954 96.629L65.0324 94.0718L69.2127 89.89ZM62.5625 96.1604L65.2697 97.7851L63.1474 102.031H61.9776L59.8553 97.7851L62.5625 96.1604ZM62.3282 105.094H62.7968L65.3494 120.406H59.7756L62.3282 105.094ZM74.8125 66.8125H74.9273C76.6163 66.8125 77.9898 68.186 77.9898 69.875C77.9898 71.564 76.6163 72.9375 74.9273 72.9375H74.8125V66.8125ZM59.353 46.9062H65.7705C72.4452 46.9062 77.875 52.336 77.875 59.0092C77.875 59.9984 77.754 60.9876 77.5152 61.9431L76.9685 64.1251C76.3269 63.897 75.647 63.75 74.9273 63.75H74.6242C74.1265 61.9676 72.6044 60.6125 70.6766 60.4195L65.7398 59.9249C62.1828 59.5697 59.5 56.6067 59.5 53.0312H56.4375C56.4375 54.4461 56.7284 55.7936 57.2567 57.0155C54.2447 58.2252 51.8514 60.6844 50.7244 63.75H50.3125C49.5545 63.75 48.8348 63.9062 48.1642 64.1588L47.6098 61.9431C47.371 60.9876 47.25 60 47.25 59.0092C47.25 52.336 52.6798 46.9062 59.353 46.9062ZM47.25 69.875C47.25 68.186 48.6235 66.8125 50.3125 66.8125H50.3477L50.3125 72.9375C48.6235 72.9375 47.25 71.564 47.25 69.875ZM53.375 72.9375V65.4772C54.1268 62.724 56.2492 60.5298 58.9396 59.66C60.5535 61.4822 62.832 62.7118 65.4351 62.9721L70.3734 63.4667C71.1574 63.5448 71.75 64.2002 71.75 64.9903V72.9375C71.75 78.0044 67.6294 82.125 62.5625 82.125C57.4956 82.125 53.375 78.0044 53.375 72.9375ZM62.5625 85.1875C63.8043 85.1875 65.0018 84.9991 66.1318 84.6531L66.9786 87.7921L62.5625 92.2098L58.1464 87.7937L58.9932 84.6546C60.1232 84.9991 61.3207 85.1875 62.5625 85.1875ZM55.9123 89.89L60.0926 94.0703L55.8296 96.6275L53.9967 90.2085L55.9123 89.89ZM45.4676 92.8085C47.0326 91.7673 48.7675 91.0828 50.6187 90.7735L50.9556 90.7168L53.9814 101.31L57.22 99.3669L59.4387 103.803L56.6718 120.406H48.7812V102.031H45.7188V111.219H39.5938V103.786C39.5938 99.3669 41.7911 95.2616 45.4676 92.8085ZM39.5938 114.281H45.7188V120.406H39.5938V114.281ZM116.156 118.875C116.156 119.72 115.47 120.406 114.625 120.406H82.4688H80.9375C80.0923 120.406 79.4062 119.72 79.4062 118.875V107.986C81.354 109.978 84.0643 111.219 87.0625 111.219H91.6562V114.281H103.906V111.219H108.5C111.498 111.219 114.209 109.978 116.156 107.986V118.875ZM94.7188 111.219V108.156H100.844V111.219H94.7188ZM116.156 100.5C116.156 104.722 112.722 108.156 108.5 108.156H103.906V105.094H91.6562V108.156H87.0625C82.8408 108.156 79.4062 104.722 79.4062 100.5C79.4062 99.6547 80.0923 98.9687 80.9375 98.9687H114.625C115.47 98.9687 116.156 99.6547 116.156 100.5ZM106.969 94.375V95.9062H88.5938V94.375C88.5938 91.8423 90.6548 89.7812 93.1875 89.7812H102.375C104.908 89.7812 106.969 91.8423 106.969 94.375ZM126.733 56.0937H122.281V86.7187H102.375H93.1875H85.5312V56.0937H81.0799C80.9283 56.0937 80.7828 56.0662 80.6404 56.0279C80.4552 55.1 80.178 54.2057 79.8304 53.3467C79.8702 53.3007 79.8901 53.241 79.9345 53.1981L102.305 32.2261C103.174 31.41 104.637 31.41 105.508 32.2261L127.878 53.1981C128.213 53.5136 128.406 53.9576 128.406 54.4201C128.406 55.3434 127.656 56.0937 126.733 56.0937Z" fill="#3EB6D0"/>
<path d="M68.3644 75.4763L68.5252 75.1532L65.7858 73.7827L65.625 74.1073C65.0416 75.2742 63.8687 76 62.5625 76C61.2564 76 60.0834 75.2742 59.5 74.1073L59.3393 73.7842L56.5999 75.1547L56.7606 75.4778C57.8662 77.6889 60.0896 79.0625 62.5625 79.0625C65.0355 79.0625 67.2589 77.6889 68.3644 75.4763Z" fill="#3EB6D0"/>
<path d="M67.1562 69.875C68.0019 69.875 68.6875 69.1894 68.6875 68.3438C68.6875 67.4981 68.0019 66.8125 67.1562 66.8125C66.3106 66.8125 65.625 67.4981 65.625 68.3438C65.625 69.1894 66.3106 69.875 67.1562 69.875Z" fill="#3EB6D0"/>
<path d="M57.9688 69.875C58.8144 69.875 59.5 69.1894 59.5 68.3438C59.5 67.4981 58.8144 66.8125 57.9688 66.8125C57.1231 66.8125 56.4375 67.4981 56.4375 68.3438C56.4375 69.1894 57.1231 69.875 57.9688 69.875Z" fill="#3EB6D0"/>
</svg>
