<svg width="110" height="98" viewBox="0 0 110 98" fill="none" xmlns="http://www.w3.org/2000/svg">
<ellipse cx="44.6018" cy="45" rx="44.6018" ry="45" fill="#F3F3F3"/>
<g clip-path="url(#clip0)">
<path d="M70.6571 39.7472L80.0002 31.9614H92.2323V19.2701H61.7732V31.9614H70.6571V39.7472ZM64.3115 29.4231V21.8083H89.6941V29.4231H79.0818L73.1954 34.3286V29.4231H64.3115Z" fill="#3EB6D0"/>
<path d="M66.8496 24.3466H69.3879V26.8849H66.8496V24.3466Z" fill="#3EB6D0"/>
<path d="M71.9263 24.3466H82.0793V26.8849H71.9263V24.3466Z" fill="#3EB6D0"/>
<path d="M84.6174 24.3466H87.1557V26.8849H84.6174V24.3466Z" fill="#3EB6D0"/>
<path d="M95.9188 95.4179L94.8926 85.1441C99.1301 84.4742 102.385 80.805 102.385 76.381V59.8823H97.3088V58.1285C97.3088 56.4033 96.3606 54.8541 94.8362 54.0596C96.352 52.6672 97.3088 50.6761 97.3088 48.4601V45.9218C97.3088 41.7222 93.8937 38.307 89.694 38.307C85.4943 38.307 82.0792 41.7222 82.0792 45.9218V48.4601C82.0792 51.7457 84.1744 54.543 87.0962 55.6089L80.2846 62.4205H73.1674C73.0255 60.3049 71.5723 58.4607 69.5137 57.872L64.3114 56.3872V54.1204C65.8649 52.7254 66.8496 50.709 66.8496 48.4601V45.9218C66.8496 41.7222 63.4345 38.307 59.2348 38.307C55.0352 38.307 51.6201 41.7222 51.6201 45.9218V48.4601C51.6201 50.7077 52.6048 52.7242 54.1583 54.1204V56.3884L48.956 57.8732C46.7883 58.4911 45.2744 60.4989 45.2744 62.7545V67.4971H40.1979V75.1118H42.7361V95.4179H31.314V97.9562H110V95.4179H95.9188ZM84.6175 75.1118V69.2917L93.6105 60.2987C94.2605 59.6486 94.6472 58.7755 94.734 57.8646C94.7451 57.9532 94.7705 58.0368 94.7705 58.1285V73.8427C94.7705 75.9416 93.062 77.6501 90.9631 77.6501H80.8101V75.1118H84.6175ZM80.8101 85.2649H87.2766L88.2916 95.4179H80.8101V85.2649ZM89.8272 85.2649H92.3531L93.3682 95.4179H90.8423L89.8272 85.2649ZM97.3088 73.8427V62.4205H99.847V76.381C99.847 79.8798 97.0002 82.7266 93.5014 82.7266H80.8101V80.1884H90.9631C94.4619 80.1884 97.3088 77.3415 97.3088 73.8427ZM84.6175 48.4601V45.9218C84.6175 43.1221 86.8942 40.8453 89.694 40.8453C92.4938 40.8453 94.7705 43.1221 94.7705 45.9218V48.4601C94.7705 51.2599 92.4938 53.5366 89.694 53.5366C86.8942 53.5366 84.6175 51.2599 84.6175 48.4601ZM81.3356 64.9588L89.8031 56.4913C90.0683 56.2261 90.4351 56.0749 90.8094 56.0749C91.594 56.0749 92.2323 56.7132 92.2323 57.4977C92.2323 57.872 92.0811 58.2388 91.8158 58.5041L82.8228 67.4971H69.3879C68.6876 67.4971 68.1188 66.9282 68.1188 66.2279C68.1188 65.5277 68.6876 64.9588 69.3879 64.9588H81.3356ZM54.1583 45.9218C54.1583 43.1221 56.4351 40.8453 59.2348 40.8453C62.0346 40.8453 64.3114 43.1221 64.3114 45.9218V48.4601C64.3114 51.2599 62.0346 53.5366 59.2348 53.5366C56.4351 53.5366 54.1583 51.2599 54.1583 48.4601V45.9218ZM59.2348 56.0749C60.126 56.0749 60.9774 55.9125 61.7731 55.6306V56.9939C61.4583 57.4797 60.5839 58.6131 59.2348 58.6131C57.8858 58.6131 57.0114 57.4797 56.6966 56.9939V55.6306C57.4923 55.9125 58.3437 56.0749 59.2348 56.0749ZM47.8127 62.7545C47.8127 61.6261 48.5706 60.6234 49.6532 60.3136L54.8815 58.8201C55.6177 59.7794 57.0504 61.1514 59.2348 61.1514C61.4193 61.1514 62.852 59.7794 63.5882 58.8189L68.8165 60.3123C69.7888 60.5906 70.4668 61.4358 70.6025 62.4193H69.3879C67.289 62.4193 65.5805 64.1278 65.5805 66.2267C65.5805 66.6735 65.6716 67.0974 65.8141 67.4958H47.8127V62.7545ZM42.7361 70.0353H82.0792V72.5736H42.7361V70.0353ZM45.2744 80.1884H49.0818V77.6501H45.2744V75.1118H78.2718V77.6501H51.6201V80.1884H78.2718V95.4179H75.249L72.7107 90.3414H50.8355L48.2973 95.4179H45.2744V80.1884ZM72.4108 95.4179H51.1355L52.4046 92.8797H71.1416L72.4108 95.4179Z" fill="#3EB6D0"/>
</g>
<defs>
<clipPath id="clip0">
<rect width="78.6861" height="78.6861" fill="white" transform="translate(31.314 19.2701)"/>
</clipPath>
</defs>
</svg>
