<svg width="110" height="99" viewBox="0 0 110 99" fill="none" xmlns="http://www.w3.org/2000/svg">
<circle cx="45" cy="45" r="45" fill="#F3F3F3"/>
<g clip-path="url(#clip0)">
<path d="M51.9767 60.3975C49.5618 57.6883 45.4873 57.3867 42.7013 59.7127C42.3376 60.0161 42.0153 60.3524 41.7333 60.7131C41.7266 60.5577 41.7223 60.4024 41.7223 60.247V39.2867C41.7223 36.0963 39.1264 33.5004 35.9359 33.5004C32.7448 33.4998 30.1489 36.0963 30.1489 39.2867V58.7879C30.1489 65.1695 31.9297 71.4073 35.2975 76.8276L44.4723 91.5902V97.033C44.4723 97.8944 45.1705 98.5926 46.0319 98.5926C46.8928 98.5926 47.5915 97.8944 47.5915 97.033V91.1455C47.5915 90.8543 47.5099 90.5692 47.3564 90.3218L37.947 75.1809C34.8862 70.2553 33.2681 64.5871 33.2681 58.7879V39.2867C33.2681 37.8161 34.4646 36.6196 35.9359 36.6196C37.4066 36.6196 38.6031 37.8161 38.6031 39.2867V60.247C38.6031 63.34 39.6637 66.377 41.5889 68.798C41.5986 68.8102 41.6096 68.8212 41.62 68.8328C41.6644 68.8937 41.7089 68.954 41.7564 69.0137L50.9867 80.5932C51.5235 81.267 52.5049 81.3772 53.1781 80.8405C53.8519 80.3038 53.9628 79.3229 53.4261 78.6491L44.1957 67.0697C42.9968 65.5655 43.2234 63.3394 44.6996 62.1076C46.1861 60.8672 48.3598 61.0274 49.6477 62.4731L58.4753 72.3784C61.1278 75.3551 62.5887 79.1907 62.5887 83.1781V90.7946C62.5887 91.656 63.2869 92.3542 64.1483 92.3542C65.0098 92.3542 65.708 91.656 65.708 90.7946V83.1781C65.708 78.4243 63.9662 73.8521 60.8037 70.3028L51.9767 60.3975Z" fill="#3EB6D0"/>
<path d="M64.1499 95.4733C63.7399 95.4733 63.3372 95.6403 63.0472 95.9302C62.7573 96.2202 62.5903 96.6229 62.5903 97.0329C62.5903 97.4429 62.7573 97.8456 63.0472 98.1356C63.3372 98.4256 63.7399 98.5925 64.1499 98.5925C64.5599 98.5925 64.9626 98.4256 65.2526 98.1356C65.5426 97.8456 65.7095 97.4429 65.7095 97.0329C65.7095 96.6229 65.5426 96.2202 65.2526 95.9302C64.9626 95.6403 64.5599 95.4733 64.1499 95.4733Z" fill="#3EB6D0"/>
<path d="M104.215 33.4996C101.025 33.4996 98.4291 36.0961 98.4291 39.2866V60.2469C98.4291 60.4022 98.4248 60.5576 98.4181 60.7129C98.136 60.3522 97.8144 60.016 97.4507 59.7126C94.6641 57.3872 90.5896 57.6875 88.1752 60.3973L79.3476 70.3033C76.1851 73.852 74.4434 78.4242 74.4434 83.1779V97.0329C74.4434 97.8943 75.1415 98.5925 76.003 98.5925C76.8644 98.5925 77.5626 97.8943 77.5626 97.0329V83.1779C77.5626 79.1906 79.0235 75.3549 81.6767 72.3783L90.5037 62.4729C91.7916 61.0273 93.9653 60.8664 95.4518 62.1068C96.9285 63.3393 97.1546 65.5654 95.9556 67.0689L86.7259 78.6484C86.1892 79.3222 86.2994 80.3036 86.9732 80.8404C87.647 81.3777 88.6279 81.2662 89.1652 80.593L98.3949 69.0129C98.4425 68.9538 98.4863 68.8935 98.5308 68.8332C98.5412 68.821 98.5527 68.8101 98.5625 68.7973C100.488 66.3762 101.548 63.3399 101.548 60.2469V39.2866C101.548 37.8159 102.745 36.6194 104.216 36.6194C105.687 36.6194 106.883 37.8159 106.883 39.2866V58.7878C106.883 64.5869 105.266 70.2551 102.204 75.1807L92.7956 90.3217C92.6421 90.569 92.5604 90.8541 92.5604 91.1453V97.0329C92.5604 97.8943 93.2586 98.5925 94.12 98.5925C94.9815 98.5925 95.6796 97.8943 95.6796 97.0329V91.5901L104.854 76.8274C108.222 71.4072 110.002 65.1694 110.002 58.7878V39.2866C110.002 36.0961 107.407 33.4996 104.215 33.4996Z" fill="#3EB6D0"/>
<path d="M91.5177 53.052V49.153C91.5177 48.2916 90.8195 47.5934 89.9581 47.5934C89.0967 47.5934 88.3985 48.2916 88.3985 49.153V52.1291L71.6358 61.3338V43.0578L74.9268 41.2508V45.4465C74.9268 45.9966 75.2174 46.5066 75.6908 46.7874C75.9357 46.933 76.211 47.0061 76.4864 47.0061C76.7435 47.0061 77.0006 46.9422 77.2339 46.8148L84.5086 42.8427C85.0094 42.5692 85.3207 42.044 85.3207 41.4738V35.5436L88.3985 33.8536V36.6762C88.3985 37.5376 89.0967 38.2358 89.9581 38.2358C90.8195 38.2358 91.5177 37.5376 91.5177 36.6762V31.2175C91.5177 30.6485 91.2076 30.1246 90.7087 29.8505L70.8267 18.9332C70.3595 18.6767 69.7929 18.6767 69.3256 18.9332L49.4443 29.8505C48.9453 30.1246 48.6353 30.6485 48.6353 31.2175V53.052C48.6353 53.6211 48.9453 54.145 49.4443 54.4191L69.3256 65.3364C69.5596 65.4649 69.8179 65.5289 70.0762 65.5289C70.3351 65.5289 70.5934 65.4649 70.8267 65.3364L90.7087 54.4191C91.2076 54.145 91.5177 53.6217 91.5177 53.052ZM56.5978 29.4807L73.2399 38.619L70.0762 40.3559L53.4347 31.2175L56.5978 29.4807ZM63.8786 25.4829L80.5207 34.6207L76.4797 36.8394L59.8382 27.7017L63.8786 25.4829ZM78.046 42.8177V39.5377L82.2015 37.2561V40.5484L78.046 42.8177ZM70.0762 22.0798L86.7176 31.2175L83.7611 32.8411L67.119 23.7034L70.0762 22.0798ZM51.7539 33.8536L68.5166 43.0578V61.3338L51.7539 52.1291V33.8536Z" fill="#3EB6D0"/>
<path d="M89.9556 41.355C89.5456 41.355 89.1429 41.5219 88.8529 41.8119C88.5629 42.1019 88.396 42.5046 88.396 42.9146C88.396 43.3246 88.5629 43.7273 88.8529 44.0173C89.1429 44.3073 89.5456 44.4742 89.9556 44.4742C90.3656 44.4742 90.7683 44.3073 91.0583 44.0173C91.3483 43.7273 91.5152 43.3246 91.5152 42.9146C91.5152 42.5046 91.3483 42.1019 91.0583 41.8119C90.7683 41.5219 90.3656 41.355 89.9556 41.355Z" fill="#3EB6D0"/>
</g>
<defs>
<clipPath id="clip0">
<rect width="79.8519" height="79.8519" fill="white" transform="translate(30.1489 18.7407)"/>
</clipPath>
</defs>
</svg>
