<svg width="110" height="100" viewBox="0 0 110 100" fill="none" xmlns="http://www.w3.org/2000/svg">
<circle cx="45" cy="45" r="45" fill="#F3F3F3"/>
<g clip-path="url(#clip0)">
<path d="M100.684 39.5204V26.2122C100.684 25.4773 100.089 24.8814 99.3536 24.8814H94.0303V27.5431H98.0227V39.5204H100.684Z" fill="#3EB6D0"/>
<path d="M39.4666 59.4828V92.7533C39.4666 93.4882 40.0624 94.0841 40.7974 94.0841H94.0302C94.7651 94.0841 95.361 93.4882 95.361 92.7533V83.4375H92.6994V91.4225H42.1282V59.4828H39.4666Z" fill="#3EB6D0"/>
<path d="M82.6039 19.6914C82.5623 19.6725 82.5226 19.6621 82.4797 19.6472C82.3686 19.6089 82.253 19.5861 82.1353 19.5783C82.1061 19.5731 82.0808 19.5582 82.0528 19.5582H40.7974C40.0624 19.5582 39.4666 20.154 39.4666 20.889V23.5506H42.1282V22.2198H80.722V32.8664C80.722 33.6013 81.3179 34.1972 82.0528 34.1972H92.6994V40.8513H95.361V32.8664C95.361 32.8384 95.3467 32.8131 95.3448 32.7838C95.3376 32.6662 95.3142 32.5506 95.2759 32.4394C95.2609 32.3966 95.2506 32.3569 95.2317 32.3153C95.1674 32.1704 95.0771 32.0385 94.9659 31.9254L82.9885 19.9481C82.8761 19.8408 82.7462 19.7538 82.6039 19.6914ZM90.8175 31.5356H83.3836V24.1017L90.8175 31.5356Z" fill="#3EB6D0"/>
<path d="M60.7598 75.4526V86.0992C60.7598 86.8342 61.3556 87.43 62.0906 87.43H79.3913V84.7684H63.4214V76.7835H70.0755V74.1218H62.0906C61.3556 74.1218 60.7598 74.7177 60.7598 75.4526Z" fill="#3EB6D0"/>
<path d="M66.083 79.4451H74.0679V82.1067H66.083V79.4451Z" fill="#3EB6D0"/>
<path d="M100.684 42.1821C95.5423 42.1886 91.375 46.3558 91.3685 51.4978V51.631L84.5812 58.7959L80.3321 54.5467C79.8122 54.0269 78.97 54.0269 78.4502 54.5467L66.4728 66.5241C65.9536 67.044 65.9536 67.8861 66.4728 68.406L85.1043 87.0375C85.6241 87.5567 86.4663 87.5567 86.9862 87.0375L90.9786 83.045L98.0226 76.0036V96.7457H46.1206V99.4073H99.3534C100.088 99.4073 100.684 98.8115 100.684 98.0765V66.1368H98.0226V72.2399L93.3836 67.6009L100.551 60.8136H100.684C105.829 60.8136 110 56.643 110 51.4978C110 46.3526 105.829 42.1821 100.684 42.1821ZM86.0452 84.2173L69.2956 67.4677L71.4062 65.3571L88.1558 82.1067L86.0452 84.2173ZM96.1407 74.1218L90.0377 80.2248L73.2881 63.4752L79.3911 57.3721L82.75 60.731L79.7557 63.8904C79.2553 64.4148 79.267 65.2427 79.781 65.7534L86.4351 72.4075C86.9446 72.917 87.7672 72.928 88.2903 72.4329L91.451 69.4385L96.1407 74.1218ZM100.684 58.1519H100.019C99.6783 58.1519 99.3508 58.2825 99.1032 58.5165L87.4014 69.5971L82.585 64.7807L93.6708 53.0788C93.9034 52.8306 94.0314 52.5031 94.0301 52.1632V51.4978C94.0301 47.8231 97.0095 44.8437 100.684 44.8437C104.359 44.8437 107.338 47.8231 107.338 51.4978C107.338 55.1725 104.359 58.1519 100.684 58.1519Z" fill="#3EB6D0"/>
<path d="M55.4365 58.152H68.7447V60.8136H55.4365V58.152Z" fill="#3EB6D0"/>
<path d="M47.4514 63.4752H63.4213V66.1369H47.4514V63.4752Z" fill="#3EB6D0"/>
<path d="M59.4287 52.8287H75.3986V55.4903H59.4287V52.8287Z" fill="#3EB6D0"/>
<path d="M47.4514 68.7985H55.4363V71.4602H47.4514V68.7985Z" fill="#3EB6D0"/>
<path d="M47.4514 74.1218H58.098V76.7835H47.4514V74.1218Z" fill="#3EB6D0"/>
<path d="M47.4514 79.4451H58.098V82.1067H47.4514V79.4451Z" fill="#3EB6D0"/>
<path d="M47.4514 84.7684H58.098V87.43H47.4514V84.7684Z" fill="#3EB6D0"/>
<path d="M47.4514 58.152H52.7747V60.8136H47.4514V58.152Z" fill="#3EB6D0"/>
<path d="M58.0981 68.7985H63.4214V71.4602H58.0981V68.7985Z" fill="#3EB6D0"/>
<path d="M63.4214 46.1746H76.7296V48.8362H63.4214V46.1746Z" fill="#3EB6D0"/>
<path d="M46.1206 56.8211C54.7157 56.8114 61.7617 50 62.0625 41.4101C62.7812 42.0118 63.7098 42.3023 64.6429 42.2165C65.3285 43.0379 66.3435 43.5129 67.4138 43.5129C68.484 43.5129 69.499 43.0379 70.1846 42.2165C71.2503 42.312 72.303 41.93 73.0593 41.1736C73.8157 40.4172 74.1978 39.3645 74.1023 38.2988C74.9243 37.6132 75.3987 36.5982 75.3987 35.528C75.3987 34.4577 74.9243 33.4427 74.1023 32.7572C74.1978 31.6915 73.8157 30.6388 73.0593 29.8824C72.303 29.126 71.2503 28.7439 70.1846 28.8394C69.499 28.0181 68.484 27.5431 67.4138 27.5431C66.3435 27.5431 65.3285 28.0181 64.6429 28.8394C63.5772 28.7439 62.5245 29.126 61.7682 29.8824C61.0118 30.6388 60.6297 31.6915 60.7252 32.7572C60.5283 32.9196 60.3496 33.1035 60.193 33.3056C56.5008 26.4189 48.3683 23.2153 40.9715 25.7333C33.5747 28.252 29.0857 35.7522 30.3626 43.4609C31.6395 51.1697 38.3073 56.8224 46.1206 56.8211ZM62.7104 34.6494C63.0652 34.5234 63.3498 34.253 63.4941 33.9054C63.6377 33.5577 63.6279 33.1652 63.4668 32.8254C63.2939 32.468 63.3661 32.0411 63.6461 31.7603C63.9268 31.4803 64.3538 31.4081 64.7112 31.581C65.051 31.7422 65.4435 31.7519 65.7912 31.6083C66.1388 31.464 66.4091 31.1794 66.5352 30.8246C66.6671 30.4523 67.0187 30.2034 67.4138 30.2034C67.8088 30.2034 68.1604 30.4523 68.2923 30.8246C68.4184 31.1794 68.6887 31.464 69.0363 31.6083C69.384 31.7519 69.7765 31.7422 70.117 31.581C70.4737 31.4081 70.9007 31.4803 71.1814 31.7603C71.4615 32.0411 71.5336 32.468 71.3607 32.8254C71.1996 33.1652 71.1898 33.5577 71.3334 33.9054C71.4777 34.253 71.7623 34.5234 72.1171 34.6494C72.4895 34.7813 72.7383 35.1329 72.7383 35.528C72.7383 35.9231 72.4895 36.2746 72.1171 36.4065C71.7623 36.5326 71.4777 36.8029 71.3334 37.1506C71.1898 37.4982 71.1996 37.8907 71.3607 38.2312C71.5446 38.5867 71.4699 39.0214 71.1775 39.2956C70.902 39.5854 70.4692 39.6595 70.1124 39.4795C69.7726 39.3177 69.3801 39.3079 69.0324 39.4522C68.6848 39.5958 68.4145 39.8804 68.2884 40.2352C68.1565 40.6076 67.8043 40.8565 67.4099 40.8565C67.0148 40.8565 66.6632 40.6076 66.5313 40.2352C66.4052 39.8798 66.1343 39.5952 65.786 39.4516C65.6242 39.3853 65.4513 39.3508 65.2765 39.3502C65.079 39.3508 64.884 39.3963 64.7066 39.4834C64.3499 39.6556 63.923 39.5835 63.6422 39.3034C63.3622 39.0227 63.29 38.5958 63.4629 38.239C63.624 37.8991 63.6338 37.5067 63.4902 37.159C63.3459 36.8107 63.0613 36.5404 62.7065 36.4143C62.3342 36.2831 62.0853 35.9309 62.0853 35.5358C62.0853 35.1413 62.3342 34.7891 62.7065 34.6579L62.7104 34.6494ZM46.1206 27.5431C53.4707 27.5431 59.4288 33.5012 59.4288 40.8513C59.4288 48.2013 53.4707 54.1595 46.1206 54.1595C38.7706 54.1595 32.8124 48.2013 32.8124 40.8513C32.8202 33.5045 38.7738 27.5508 46.1206 27.5431Z" fill="#3EB6D0"/>
<path d="M39.8565 48.4464C40.3763 48.9656 41.2185 48.9656 41.7383 48.4464L55.0465 35.1381L53.1647 33.2563L40.7974 45.6236L37.7459 42.572L35.864 44.4539L39.8565 48.4464Z" fill="#3EB6D0"/>
</g>
<defs>
<clipPath id="clip0">
<rect width="79.8519" height="79.8519" fill="white" transform="translate(30.1482 19.5555)"/>
</clipPath>
</defs>
</svg>
