<svg width="110" height="104" viewBox="0 0 110 104" fill="none" xmlns="http://www.w3.org/2000/svg">
<circle cx="45" cy="45" r="45" fill="#F3F3F3"/>
<path d="M91.0032 51.3388C91.0032 49.0086 89.377 47.0608 87.2038 46.5403V43.8605H84.6709V46.5415C82.4977 47.0621 80.8716 49.0086 80.8716 51.3401C80.8716 53.4728 82.2305 55.3586 84.2543 56.0323L86.8188 56.8884C87.8079 57.2177 88.4703 58.1371 88.4703 59.1782C88.4703 60.5092 87.3887 61.5907 86.0577 61.5907H85.8183C84.486 61.5907 83.4045 60.5092 83.4045 59.1782V57.7914H80.8716V59.1782C80.8716 61.5084 82.4977 63.4562 84.6709 63.9767V66.6565H87.2038V63.9755C89.377 63.4549 91.0032 61.5084 91.0032 59.1769C91.0032 57.0442 89.6443 55.1585 87.6205 54.4847L85.0559 53.6286C84.0668 53.2993 83.4045 52.3799 83.4045 51.3388C83.4045 50.0078 84.486 48.9263 85.8171 48.9263H86.0564C87.3887 48.9263 88.4703 50.0078 88.4703 51.3388V51.4592L91.0032 51.3388Z" fill="#3EB6D0"/>
<path d="M107.495 42.1508L88.9932 24.8055C87.3304 23.2478 84.543 23.2478 82.8814 24.8055L64.78 41.7759C62.5207 38.4515 58.71 36.2618 54.3977 36.2618H49.09C42.1727 36.2618 36.5459 41.8886 36.5459 48.8047C36.5459 49.8318 36.6725 50.8538 36.9207 51.8467L37.6325 54.6924C36.9625 55.5523 36.5459 56.6187 36.5459 57.7914C36.5459 60.5852 38.8179 62.8572 41.6116 62.8572H41.9447C42.6083 65.423 44.2509 67.5937 46.4545 68.9488L45.6668 71.873L41.4495 72.5772C39.5625 72.8912 37.7958 73.5891 36.2001 74.6516C32.4527 77.1516 30.2136 81.3346 30.2136 85.8381V102.117H66.9406H68.207H94.8024C96.8971 102.117 98.6018 100.412 98.6018 98.3177V83.1203C98.6018 81.0256 96.8971 79.321 94.8024 79.321H91.0031V78.0546C91.0031 76.6235 90.5079 75.3165 89.7037 74.2552H103.668V48.9263H104.816C106.976 48.9263 108.733 47.1684 108.733 45.0091C108.733 43.9301 108.283 42.8878 107.495 42.1508ZM67.0584 48.9263H68.207V74.2552H72.0393C71.2402 75.3114 70.7475 76.6095 70.7425 78.0318C69.8002 76.7146 68.644 75.5571 67.2851 74.6516C65.6906 73.5891 63.9252 72.8912 62.0369 72.5772L57.8196 71.873L57.0319 68.9488C59.2343 67.5924 60.8768 65.423 61.5417 62.8572H61.9711C64.7648 62.8572 67.0368 60.5852 67.0368 57.7914C67.0368 56.5781 66.5911 55.4776 65.8768 54.605L66.567 51.848C66.8064 50.8905 66.9254 49.9065 66.9343 48.9174C66.9761 48.9187 67.0166 48.9263 67.0584 48.9263ZM63.1413 83.1203V98.3177C63.1413 98.7635 63.2324 99.1865 63.3743 99.5842H56.6153L54.3268 85.8521L56.1619 82.1832L58.8404 83.7903L61.3429 75.029L61.6215 75.0759C63.1527 75.3317 64.5875 75.8978 65.8806 76.759C66.9191 77.4517 67.8081 78.3294 68.549 79.321H66.9406C64.8459 79.321 63.1413 81.0256 63.1413 83.1203ZM57.2434 74.3451L58.8277 74.6098L57.3118 79.9188L53.786 77.8038L57.2434 74.3451ZM51.7432 79.5312L53.9823 80.8749L52.227 84.3868H51.2594L49.5042 80.8749L51.7432 79.5312ZM51.5495 86.9197H51.937L54.0482 99.5842H49.4383L51.5495 86.9197ZM61.8748 55.2585H61.9698C63.3667 55.2585 64.5027 56.3945 64.5027 57.7914C64.5027 59.1883 63.3667 60.3243 61.9698 60.3243H61.8748V55.2585ZM49.0888 38.7947H54.3964C59.9169 38.7947 64.4077 43.2855 64.4077 48.8047C64.4077 49.6228 64.3077 50.4409 64.1101 51.2312L63.658 53.0359C63.1273 52.8472 62.565 52.7256 61.9698 52.7256H61.719C61.3074 51.2515 60.0486 50.1307 58.4541 49.9711L54.3711 49.562C51.4292 49.2682 49.2103 46.8176 49.2103 43.8605H46.6774C46.6774 45.0307 46.9181 46.1451 47.355 47.1558C44.8639 48.1563 42.8844 50.1902 41.9523 52.7256H41.6116C40.9848 52.7256 40.3895 52.8548 39.8348 53.0637L39.3764 51.2312C39.1788 50.4409 39.0788 49.6241 39.0788 48.8047C39.0788 43.2855 43.5696 38.7947 49.0888 38.7947ZM39.0788 57.7914C39.0788 56.3945 40.2148 55.2585 41.6116 55.2585H41.6408L41.6116 60.3243C40.2148 60.3243 39.0788 59.1883 39.0788 57.7914ZM44.1445 60.3243V54.1542C44.7664 51.8771 46.5217 50.0623 48.7468 49.3429C50.0816 50.85 51.9661 51.867 54.1191 52.0823L58.2034 52.4913C58.8518 52.5559 59.3419 53.0979 59.3419 53.7514V60.3243C59.3419 64.515 55.9339 67.923 51.7432 67.923C47.5526 67.923 44.1445 64.515 44.1445 60.3243ZM51.7432 70.4559C52.7703 70.4559 53.7607 70.3001 54.6953 70.0139L55.3957 72.6101L51.7432 76.2638L48.0908 72.6114L48.7911 70.0151C49.7258 70.3001 50.7161 70.4559 51.7432 70.4559ZM46.243 74.3451L49.7004 77.8025L46.1747 79.9175L44.6587 74.6085L46.243 74.3451ZM37.6046 76.759C38.8989 75.8978 40.3338 75.3317 41.8649 75.0759L42.1436 75.029L44.6461 83.7903L47.3246 82.1832L49.1597 85.8521L46.8712 99.5842H40.3452V84.3868H37.8123V91.9855H32.7465V85.8381C32.7465 82.1832 34.5639 78.7878 37.6046 76.759ZM32.7465 94.5184H37.8123V99.5842H32.7465V94.5184ZM96.0689 98.3177C96.0689 99.0168 95.5015 99.5842 94.8024 99.5842H68.207H66.9406C66.2415 99.5842 65.6742 99.0168 65.6742 98.3177V89.312C67.2851 90.9596 69.5267 91.9855 72.0064 91.9855H75.8057V94.5184H85.9373V91.9855H89.7367C92.2164 91.9855 94.458 90.9596 96.0689 89.312V98.3177ZM78.3386 91.9855V89.4526H83.4044V91.9855H78.3386ZM96.0689 83.1203C96.0689 86.6119 93.2282 89.4526 89.7367 89.4526H85.9373V86.9197H75.8057V89.4526H72.0064C68.5148 89.4526 65.6742 86.6119 65.6742 83.1203C65.6742 82.4213 66.2415 81.8539 66.9406 81.8539H94.8024C95.5015 81.8539 96.0689 82.4213 96.0689 83.1203ZM88.4702 78.0546V79.321H73.2728V78.0546C73.2728 75.9598 74.9775 74.2552 77.0722 74.2552H84.6709C86.7656 74.2552 88.4702 75.9598 88.4702 78.0546ZM104.816 46.3934H101.135V71.7223H84.6709H77.0722H70.7399V46.3934H67.0584C66.933 46.3934 66.8127 46.3706 66.6949 46.3389C66.5417 45.5714 66.3124 44.8318 66.025 44.1214C66.0579 44.0834 66.0743 44.034 66.1111 43.9985L84.6126 26.6533C85.3319 25.9782 86.5414 25.9782 87.262 26.6533L105.764 43.9985C106.041 44.2594 106.2 44.6267 106.2 45.0091C106.2 45.7728 105.58 46.3934 104.816 46.3934Z" fill="#3EB6D0"/>
<path d="M56.5419 62.424L56.6749 62.1568L54.4092 61.0233L54.2762 61.2918C53.7937 62.2568 52.8236 62.8571 51.7433 62.8571C50.663 62.8571 49.6929 62.2568 49.2104 61.2918L49.0774 61.0246L46.8118 62.1581L46.9447 62.4253C47.8591 64.254 49.698 65.39 51.7433 65.39C53.7886 65.39 55.6275 64.254 56.5419 62.424Z" fill="#3EB6D0"/>
<path d="M55.5426 57.7913C56.242 57.7913 56.809 57.2243 56.809 56.5249C56.809 55.8254 56.242 55.2584 55.5426 55.2584C54.8431 55.2584 54.2761 55.8254 54.2761 56.5249C54.2761 57.2243 54.8431 57.7913 55.5426 57.7913Z" fill="#3EB6D0"/>
<path d="M47.9439 57.7913C48.6434 57.7913 49.2104 57.2243 49.2104 56.5249C49.2104 55.8254 48.6434 55.2584 47.9439 55.2584C47.2445 55.2584 46.6775 55.8254 46.6775 56.5249C46.6775 57.2243 47.2445 57.7913 47.9439 57.7913Z" fill="#3EB6D0"/>
</svg>
