<svg width="135" height="121" viewBox="0 0 135 121" fill="none" xmlns="http://www.w3.org/2000/svg">
<circle cx="56" cy="56" r="56" fill="white"/>
<path d="M63.7887 74.1242C60.8248 70.7992 55.8244 70.4291 52.4052 73.2838C51.9588 73.6561 51.5633 74.0688 51.2171 74.5115C51.2089 74.3208 51.2037 74.1302 51.2037 73.9395V48.2155C51.2037 44.2999 48.0178 41.1141 44.1022 41.1141C40.1859 41.1133 37 44.2999 37 48.2155V72.1488C37 79.9808 39.1855 87.6363 43.3186 94.2884L54.5787 112.406V119.086C54.5787 120.143 55.4356 121 56.4928 121C57.5493 121 58.4068 120.143 58.4068 119.086V111.86C58.4068 111.503 58.3067 111.153 58.1182 110.85L46.5703 92.2674C42.814 86.2224 40.8281 79.266 40.8281 72.1488V48.2155C40.8281 46.4106 42.2966 44.9422 44.1022 44.9422C45.9071 44.9422 47.3756 46.4106 47.3756 48.2155V73.9395C47.3756 77.7355 48.6773 81.4627 51.0399 84.4339C51.0519 84.4489 51.0654 84.4624 51.0781 84.4766C51.1327 84.5513 51.1872 84.6254 51.2456 84.6986L62.5737 98.9098C63.2324 99.7367 64.4369 99.8721 65.2631 99.2133C66.09 98.5546 66.2261 97.3509 65.5674 96.5239L54.2393 82.3128C52.7678 80.4668 53.046 77.7347 54.8576 76.2229C56.6819 74.7006 59.3497 74.8973 60.9303 76.6715L71.7642 88.8281C75.0196 92.4812 76.8125 97.1886 76.8125 102.082V111.43C76.8125 112.487 77.6693 113.344 78.7266 113.344C79.7838 113.344 80.6406 112.487 80.6406 111.43V102.082C80.6406 96.248 78.503 90.6367 74.6218 86.2807L63.7887 74.1242Z" fill="#3EB6D0"/>
<path d="M78.7266 117.172C78.2234 117.172 77.7292 117.377 77.3733 117.733C77.0174 118.089 76.8125 118.583 76.8125 119.086C76.8125 119.589 77.0174 120.083 77.3733 120.439C77.7292 120.795 78.2234 121 78.7266 121C79.2298 121 79.724 120.795 80.0799 120.439C80.4358 120.083 80.6406 119.589 80.6406 119.086C80.6406 118.583 80.4358 118.089 80.0799 117.733C79.724 117.377 79.2298 117.172 78.7266 117.172Z" fill="#3EB6D0"/>
<path d="M127.898 41.1133C123.982 41.1133 120.796 44.2999 120.796 48.2155V73.9395C120.796 74.1301 120.791 74.3208 120.783 74.5114C120.437 74.0688 120.042 73.6561 119.596 73.2837C116.176 70.4298 111.175 70.7984 108.212 74.1241L97.3782 86.2814C93.497 90.6367 91.3594 96.248 91.3594 102.082V119.086C91.3594 120.143 92.2162 121 93.2734 121C94.3307 121 95.1875 120.143 95.1875 119.086V102.082C95.1875 97.1886 96.9804 92.4812 100.237 88.828L111.07 76.6715C112.65 74.8972 115.318 74.6998 117.142 76.2221C118.955 77.7347 119.232 80.4667 117.761 82.312L106.433 96.5231C105.775 97.3501 105.91 98.5546 106.737 99.2133C107.564 99.8728 108.768 99.7359 109.427 98.9097L120.754 84.6978C120.813 84.6253 120.867 84.5513 120.921 84.4773C120.934 84.4623 120.948 84.4489 120.96 84.4332C123.323 81.4619 124.624 77.7354 124.624 73.9395V48.2155C124.624 46.4106 126.093 44.9422 127.899 44.9422C129.703 44.9422 131.172 46.4106 131.172 48.2155V72.1488C131.172 79.2659 129.187 86.2224 125.43 92.2673L113.883 110.849C113.694 111.153 113.594 111.503 113.594 111.86V119.086C113.594 120.143 114.451 121 115.508 121C116.565 121 117.422 120.143 117.422 119.086V112.406L128.681 94.2883C132.815 87.6362 135 79.9807 135 72.1488V48.2155C135 44.2999 131.814 41.1133 127.898 41.1133Z" fill="#3EB6D0"/>
<path d="M112.315 65.1094V60.3242C112.315 59.267 111.458 58.4102 110.4 58.4102C109.343 58.4102 108.486 59.267 108.486 60.3242V63.9766L87.914 75.2733V52.8437L91.9529 50.626V55.7753C91.9529 56.4505 92.3096 57.0763 92.8905 57.421C93.1911 57.5997 93.5291 57.6894 93.867 57.6894C94.1825 57.6894 94.498 57.6109 94.7844 57.4546L103.712 52.5797C104.327 52.244 104.709 51.5995 104.709 50.8997V43.6218L108.486 41.5477V45.0117C108.486 46.0689 109.343 46.9258 110.4 46.9258C111.458 46.9258 112.315 46.0689 112.315 45.0117V38.3125C112.315 37.6142 111.934 36.9712 111.322 36.6347L86.9211 23.2363C86.3476 22.9215 85.6522 22.9215 85.0788 23.2363L60.679 36.6347C60.0666 36.9712 59.686 37.6142 59.686 38.3125V65.1094C59.686 65.8077 60.0666 66.4507 60.679 66.7872L85.0788 80.1856C85.3659 80.3434 85.6829 80.4219 85.9999 80.4219C86.3177 80.4219 86.6347 80.3434 86.9211 80.1856L111.322 66.7872C111.934 66.4507 112.315 65.8085 112.315 65.1094ZM69.4582 36.1809L89.8826 47.3961L85.9999 49.5277L65.5763 38.3125L69.4582 36.1809ZM78.3938 31.2746L98.8181 42.489L93.8588 45.2121L73.4351 33.9976L78.3938 31.2746ZM95.7811 52.5491V48.5236L100.881 45.7235V49.764L95.7811 52.5491ZM85.9999 27.098L106.424 38.3125L102.795 40.3051L82.3707 29.0906L85.9999 27.098ZM63.5134 41.5477L84.0858 52.8437V75.2733L63.5134 63.9766V41.5477Z" fill="#3EB6D0"/>
<path d="M110.401 50.7539C109.897 50.7539 109.403 50.9588 109.047 51.3147C108.691 51.6706 108.487 52.1648 108.487 52.668C108.487 53.1712 108.691 53.6654 109.047 54.0213C109.403 54.3772 109.897 54.582 110.401 54.582C110.904 54.582 111.398 54.3772 111.754 54.0213C112.11 53.6654 112.315 53.1712 112.315 52.668C112.315 52.1648 112.11 51.6706 111.754 51.3147C111.398 50.9588 110.904 50.7539 110.401 50.7539Z" fill="#3EB6D0"/>
</svg>
