<svg width="292" height="100" viewBox="0 0 292 100" fill="none" xmlns="http://www.w3.org/2000/svg">
<path fill-rule="evenodd" clip-rule="evenodd" d="M40.9685 73.8493C61.5025 76.7577 77.9098 75.569 95.0131 70.9155C87.953 79.8938 77.4374 87.6581 48.2275 81.8665C30.5026 78.351 15.4129 78.0728 0 79.8179C9.34718 74.9621 22.8459 71.2696 40.9685 73.8493Z" fill="#2B2A29"/>
<path fill-rule="evenodd" clip-rule="evenodd" d="M12.5541 43.0703C15.5373 24.608 29.7818 9.9393 47.8795 6.80324C50.6638 6.12038 52.8514 3.5913 54.6413 0C56.3318 3.76834 58.6188 6.29742 61.9749 6.60091C80.4704 9.53465 95.1126 24.3804 98.0461 43.1209C98.6675 45.9788 101.079 48.2549 104.559 50.177C100.805 51.7956 98.2449 54.0465 97.9466 57.3849C97.4743 60.5716 96.6042 63.7076 95.4109 66.7425L84.075 69.4992C87.7045 63.9353 89.8176 57.2838 89.8176 50.1012C89.8176 30.7284 74.3798 15.0228 55.3374 15.0228C36.295 15.0228 20.8572 30.7284 20.8572 50.1012C20.8572 54.1224 21.5284 57.9919 22.7217 61.6844L15.7859 67.7289C14.344 64.4411 13.2999 60.9509 12.6784 57.3343C12.2807 53.9707 9.745 51.7198 5.99121 50.1012C9.47155 48.1791 11.8829 45.8776 12.579 43.045L12.5541 43.0703Z" fill="#5B5B5B"/>
<path fill-rule="evenodd" clip-rule="evenodd" d="M57.3758 60.7738C62.1737 46.6616 63.7895 33.0045 63.168 19.7268C78.4567 33.4092 89.2954 47.3191 64.2619 63.2018C68.662 65.655 73.0373 68.1082 77.4374 70.5614C56.5057 74.1021 34.3807 65.5791 15.9349 71.8512C24.8346 61.6337 36.8418 55.5386 57.4006 60.7738H57.3758Z" fill="#727271"/>
<path fill-rule="evenodd" clip-rule="evenodd" d="M60.1103 24.9622C59.8617 35.1797 59.2402 45.4983 54.9146 56.8286C48.4263 55.2606 41.1425 55.4882 33.5603 56.424C45.0703 46.9905 53.4976 36.343 60.1103 24.9622Z" fill="#2B2A29"/>
<path fill-rule="evenodd" clip-rule="evenodd" d="M24.6606 82.0434C44.0511 83.2067 62.9195 92.5138 83.5777 83.9655C78.4815 88.0879 72.9379 92.2356 64.4856 93.4748C59.0662 94.2841 55.9588 96.1557 54.8153 99.9999C53.3734 96.2062 50.788 94.0312 46.537 93.3989C35.8474 91.8309 30.3783 86.9498 24.6606 82.0181V82.0434Z" fill="#727271"/>
<path d="M119.301 44.7142V38.4673H120.519C121.066 40.2883 121.837 41.654 122.906 42.5644C123.95 43.5002 125.242 43.9554 126.784 43.9554C128.151 43.9554 129.294 43.5761 130.189 42.8426C131.084 42.0839 131.532 41.1482 131.532 39.9848C131.532 39.3778 131.432 38.872 131.209 38.4673C130.985 38.0627 130.637 37.7086 130.115 37.3545C129.518 36.9499 128.375 36.5705 126.634 36.1659C125.988 36.0141 125.516 35.8877 125.168 35.8118C123.154 35.2807 121.687 34.522 120.768 33.5103C119.848 32.4987 119.4 31.133 119.4 29.4385C119.4 27.4405 120.022 25.8219 121.24 24.608C122.458 23.3687 124.049 22.7617 126.038 22.7617C126.833 22.7617 127.604 22.8882 128.3 23.1158C128.996 23.3434 129.642 23.6722 130.264 24.1274L131.407 23.1917H132.427L132.551 28.8315H131.482C131.084 27.1876 130.388 25.9231 129.444 25.0632C128.499 24.2033 127.306 23.7734 125.889 23.7734C124.72 23.7734 123.751 24.0768 122.98 24.6585C122.234 25.2402 121.837 25.9989 121.837 26.8841C121.837 28.2245 123.229 29.2109 126.038 29.8432C126.411 29.919 126.709 29.9949 126.908 30.0455C129.518 30.6525 131.358 31.5376 132.402 32.6757C133.446 33.8138 133.993 35.4071 133.993 37.5063C133.993 39.656 133.322 41.4517 131.979 42.8679C130.637 44.2842 128.946 44.9924 126.908 44.9924C125.864 44.9924 124.969 44.8659 124.173 44.6383C123.378 44.4107 122.657 44.0313 121.986 43.5002L120.544 44.7648H119.375L119.301 44.7142ZM267.861 76.783V83.1563H266.817L265.4 81.9676C264.779 82.524 264.058 82.9539 263.213 83.2321C262.368 83.5103 261.423 83.6621 260.404 83.6621C258.962 83.6621 257.644 83.3839 256.476 82.8275C255.283 82.2711 254.164 81.4112 253.145 80.2478C252.125 79.1097 251.38 77.921 250.882 76.6312C250.385 75.3414 250.137 73.9757 250.137 72.5088C250.137 71.0672 250.385 69.7268 250.907 68.437C251.404 67.1724 252.175 65.9585 253.219 64.8204C254.238 63.6823 255.357 62.8224 256.575 62.266C257.793 61.7096 259.111 61.4314 260.553 61.4314C261.423 61.4314 262.268 61.5579 263.039 61.8108C263.809 62.0637 264.58 62.4431 265.301 62.9489L266.444 61.8361H267.489L267.613 67.7288H266.494C265.798 65.832 264.978 64.4663 264.033 63.657C263.088 62.8224 261.895 62.4178 260.478 62.4178C258.862 62.4178 257.768 62.9489 257.197 64.0364C256.625 65.0986 256.327 67.8047 256.327 72.1294C256.327 74.4056 256.352 76.1254 256.401 77.2382C256.451 78.3763 256.55 79.1856 256.675 79.6914C256.923 80.7536 257.371 81.5124 257.967 81.9929C258.564 82.4734 259.409 82.701 260.478 82.701C261.97 82.701 263.287 82.1446 264.456 81.0318C265.624 79.919 266.395 78.5027 266.718 76.7577H267.911L267.861 76.783ZM237.11 83.1563V82.1193H239.671V62.873H237.11V61.8867H247.651V62.873H245.09V82.1193H247.651V83.1563H237.11ZM220.38 83.1563V82.1193H222.94V62.873H221.822C220.454 62.873 219.361 63.3029 218.59 64.1628C217.794 65.0227 217.098 66.5655 216.502 68.7658H215.656L215.905 61.8867H235.395L235.668 68.7658H234.823C234.251 66.616 233.555 65.1239 232.76 64.2134C231.939 63.3282 230.895 62.873 229.553 62.873H228.36V82.1193H230.92V83.1563H220.38ZM199.025 83.4092V77.1623H200.244C200.79 78.9833 201.561 80.349 202.63 81.2594C203.674 82.1952 204.967 82.6504 206.508 82.6504C207.875 82.6504 209.019 82.2711 209.914 81.5376C210.809 80.7789 211.256 79.8432 211.256 78.6798C211.256 78.0728 211.157 77.567 210.933 77.1623C210.709 76.7577 210.361 76.4036 209.839 76.0495C209.243 75.6449 208.099 75.2655 206.359 74.8609C205.713 74.7091 205.24 74.5827 204.892 74.5068C202.879 73.9757 201.412 73.217 200.492 72.2053C199.572 71.1937 199.125 69.828 199.125 68.1335C199.125 66.1355 199.746 64.5169 200.964 63.3029C202.183 62.0637 203.774 61.4567 205.762 61.4567C206.558 61.4567 207.328 61.5832 208.025 61.8108C208.721 62.0384 209.367 62.3672 209.988 62.8224L211.132 61.8867H212.151L212.276 67.5265H211.207C210.809 65.8826 210.113 64.6181 209.168 63.7582C208.223 62.8983 207.03 62.4683 205.613 62.4683C204.445 62.4683 203.475 62.7718 202.705 63.3535C201.959 63.9352 201.561 64.6939 201.561 65.5791C201.561 66.9195 202.953 67.9059 205.762 68.5381C206.135 68.614 206.434 68.6899 206.632 68.7405C209.243 69.3475 211.082 70.2326 212.126 71.3707C213.17 72.5088 213.717 74.1021 213.717 76.2013C213.717 78.351 213.046 80.1466 211.704 81.5629C210.361 82.9792 208.671 83.6874 206.632 83.6874C205.588 83.6874 204.693 83.5609 203.898 83.3333C203.102 83.1057 202.381 82.7263 201.71 82.1952L200.268 83.4597H199.1L199.025 83.4092ZM185.974 83.1563V82.1193H188.535V62.873H185.974V61.8867H196.515V62.873H193.954V82.1193H196.515V83.1563H185.974ZM184.458 75.9989H182.519V76.2771C182.519 78.5786 181.773 80.3996 180.281 81.6894C178.79 83.0045 176.726 83.6621 174.116 83.6621C173.072 83.6621 172.078 83.5356 171.183 83.2574C170.288 82.9792 169.443 82.5746 168.697 82.0435C167.131 80.9559 165.937 79.5902 165.117 77.9716C164.297 76.353 163.874 74.5574 163.874 72.5594C163.874 71.0166 164.172 69.5751 164.744 68.2094C165.316 66.8437 166.186 65.6044 167.354 64.4663C168.349 63.48 169.418 62.7465 170.586 62.2407C171.755 61.7349 172.973 61.482 174.24 61.482C175.285 61.482 176.229 61.6085 177.074 61.8867C177.92 62.1649 178.641 62.5695 179.262 63.1512L180.43 61.8867H181.375L181.524 68.0323H180.356C179.809 66.2114 179.038 64.8204 178.069 63.8846C177.074 62.9489 175.906 62.4683 174.539 62.4683C173.544 62.4683 172.724 62.6454 172.103 62.9742C171.481 63.3282 171.009 63.8593 170.71 64.6181C170.462 65.1745 170.313 65.9585 170.213 66.9954C170.114 68.0323 170.064 70.1062 170.064 73.2169C170.064 77.5923 170.338 80.2478 170.86 81.2341C171.382 82.1952 172.376 82.701 173.868 82.701C174.887 82.701 175.657 82.4734 176.204 82.0182C176.751 81.5629 177.025 80.9054 177.025 80.0455V76.0242H174.29V75.0126H184.433V76.0242L184.458 75.9989ZM145.18 72.5594C145.18 75.2908 145.229 77.1623 145.304 78.1992C145.403 79.2362 145.553 79.9949 145.776 80.5007C146.124 81.2847 146.597 81.8411 147.218 82.1699C147.84 82.524 148.685 82.6757 149.729 82.6757C150.798 82.6757 151.643 82.4987 152.265 82.1699C152.886 81.8411 153.358 81.2594 153.706 80.5007C153.955 79.9696 154.104 79.135 154.204 78.0475C154.303 76.96 154.353 75.1391 154.353 72.5594C154.353 70.005 154.303 68.1841 154.204 67.0966C154.104 66.0091 153.93 65.1998 153.706 64.6434C153.358 63.8593 152.886 63.3029 152.265 62.9742C151.643 62.6201 150.798 62.4683 149.729 62.4683C148.66 62.4683 147.84 62.6454 147.218 62.9742C146.597 63.3029 146.124 63.8846 145.776 64.6434C145.553 65.1492 145.379 65.9079 145.304 66.9448C145.205 67.9817 145.18 69.8533 145.18 72.5594ZM138.94 72.5594C138.94 71.1431 139.213 69.7774 139.76 68.4623C140.307 67.1471 141.103 65.9585 142.122 64.8457C143.241 63.7076 144.409 62.873 145.652 62.3166C146.895 61.7602 148.262 61.482 149.729 61.482C151.221 61.482 152.588 61.7602 153.831 62.3166C155.074 62.873 156.242 63.7076 157.361 64.8457C158.405 65.9332 159.2 67.1471 159.747 68.4623C160.294 69.7774 160.568 71.1431 160.568 72.5594C160.568 74.001 160.294 75.392 159.747 76.7071C159.2 78.0222 158.405 79.2362 157.361 80.3237C156.292 81.4618 155.123 82.2964 153.856 82.8275C152.613 83.3839 151.221 83.6621 149.729 83.6621C148.237 83.6621 146.87 83.3839 145.627 82.8275C144.384 82.2711 143.216 81.4365 142.122 80.3237C141.078 79.2362 140.307 78.0222 139.76 76.7071C139.213 75.3667 138.94 74.001 138.94 72.5594ZM119.301 83.1815V82.1446H121.464V62.8983H119.301V61.9119H129.717V62.8983H126.833V82.1446H129.891C131.606 82.1446 132.974 81.6894 133.943 80.7536C134.913 79.8179 135.683 78.2751 136.23 76.1001H137.225L137.001 83.2068H119.326L119.301 83.1815ZM277.308 44.7395V38.4926H278.526C279.073 40.3136 279.844 41.6793 280.913 42.5897C281.957 43.5255 283.25 43.9807 284.791 43.9807C286.158 43.9807 287.302 43.6014 288.197 42.8679C289.091 42.1092 289.539 41.1735 289.539 40.0101C289.539 39.4031 289.44 38.8973 289.216 38.4926C288.992 38.088 288.644 37.7339 288.122 37.3798C287.525 36.9752 286.382 36.5958 284.642 36.1912C283.995 36.0394 283.523 35.913 283.175 35.8371C281.161 35.306 279.695 34.5473 278.775 33.5356C277.855 32.524 277.408 31.1583 277.408 29.4638C277.408 27.4658 278.029 25.8472 279.247 24.6332C280.465 23.394 282.056 22.787 284.045 22.787C284.841 22.787 285.611 22.9135 286.307 23.1411C287.003 23.3687 287.65 23.6975 288.271 24.1527L289.415 23.217H290.434L290.558 28.8568H289.489C289.091 27.2129 288.395 25.9484 287.451 25.0885C286.506 24.2286 285.313 23.7986 283.896 23.7986C282.727 23.7986 281.758 24.1021 280.987 24.6838C280.242 25.2655 279.844 26.0242 279.844 26.9094C279.844 28.2498 281.236 29.2362 284.045 29.8684C284.418 29.9443 284.716 30.0202 284.915 30.0708C287.525 30.6778 289.365 31.5629 290.409 32.701C291.453 33.8391 292 35.4324 292 37.5316C292 39.6813 291.329 41.4769 289.986 42.8932C288.644 44.3095 286.954 45.0177 284.915 45.0177C283.871 45.0177 282.976 44.8912 282.181 44.6636C281.385 44.436 280.664 44.0566 279.993 43.5255L278.551 44.79H277.383L277.308 44.7395ZM253.567 44.4866V43.4496H255.183C255.606 43.4496 255.879 43.3485 256.053 43.1714C256.202 42.9944 256.302 42.615 256.302 42.0839V25.3414C256.302 24.8861 256.202 24.5827 256.028 24.4309C255.854 24.2792 255.481 24.2033 254.91 24.2033H253.617V23.217H262.069L270.869 35.4577V25.7713C270.869 25.1138 270.77 24.7091 270.571 24.5068C270.372 24.3045 269.95 24.2033 269.328 24.2033H267.986V23.217H274.673V24.2033H273.455C272.933 24.2033 272.56 24.3045 272.361 24.5321C272.162 24.7597 272.063 25.1643 272.063 25.7966V44.9924H271.193L257.52 25.8725V42.2863C257.52 42.6656 257.619 42.9438 257.818 43.1461C258.017 43.3485 258.315 43.4496 258.713 43.4496H260.578V44.4866H253.542H253.567ZM237.135 37.4304H242.803L240.044 29.9696L237.135 37.4304ZM231.567 44.4866V43.4496H232.859C233.207 43.4496 233.506 43.3232 233.729 43.0956C233.953 42.8679 234.202 42.438 234.425 41.831L241.61 22.8123H242.853L250.708 43.4496H252.573V44.4866H242.43V43.4496H244.966L243.126 38.4673H236.762L235.37 42.1092C235.345 42.1598 235.32 42.261 235.295 42.4127C235.271 42.5392 235.271 42.6909 235.271 42.8932C235.271 43.0703 235.345 43.222 235.519 43.3232C235.668 43.4243 235.917 43.4749 236.19 43.4749H238.055V44.5118H231.517L231.567 44.4866ZM209.566 43.4496H212.052V24.2033H209.566V23.217H221.25C223.661 23.217 225.501 23.6216 226.794 24.4056C228.086 25.1896 228.708 26.353 228.708 27.8452C228.708 29.3626 228.111 30.5766 226.893 31.4871C225.7 32.3722 223.984 32.8781 221.747 32.9792V33.2574C224.009 33.5609 225.625 34.2943 226.57 35.4324C227.514 36.5705 227.987 38.3662 227.987 40.87C227.987 41.8816 228.086 42.5644 228.285 42.8932C228.484 43.222 228.832 43.3738 229.329 43.3738C229.528 43.3738 229.752 43.3485 229.976 43.2979C230.199 43.2473 230.473 43.1714 230.746 43.0703L231.069 43.9554C230.373 44.2842 229.727 44.5118 229.081 44.6889C228.459 44.8659 227.887 44.9418 227.415 44.9418C226.545 44.9418 225.749 44.8153 225.053 44.5371C224.357 44.2589 223.786 43.9049 223.363 43.4243C222.543 42.4886 222.095 40.7688 222.02 38.2397C222.02 37.8856 221.996 37.6327 221.996 37.481C221.921 36.0141 221.598 35.0025 220.976 34.4208C220.355 33.8391 219.311 33.5609 217.844 33.5609H217.297V43.4496H220.032V44.4866H209.541V43.4496H209.566ZM217.322 32.524H219.957C221.15 32.524 221.946 32.2711 222.369 31.7653C222.791 31.2594 222.99 30.1719 222.99 28.5533C222.99 26.4795 222.816 25.2402 222.468 24.8356C222.12 24.4309 221.275 24.2286 219.932 24.2286H217.297V32.5493L217.322 32.524ZM192.711 44.4866V43.4496H195.272V24.2033H194.153C192.786 24.2033 191.692 24.6332 190.921 25.4931C190.126 26.353 189.43 27.8958 188.833 30.0961H187.988L188.236 23.217H207.726L208 30.0961H207.154C206.583 27.9463 205.887 26.4542 205.091 25.5437C204.271 24.6585 203.227 24.2033 201.884 24.2033H200.691V43.4496H203.252V44.4866H192.711ZM162.084 37.4304H167.752L164.993 29.9696L162.084 37.4304ZM156.516 44.4866V43.4496H157.808C158.156 43.4496 158.455 43.3232 158.678 43.0956C158.902 42.8679 159.151 42.438 159.374 41.831L166.559 22.8123H167.802L175.657 43.4496H177.522V44.4866H167.379V43.4496H169.915L168.075 38.4673H161.711L160.319 42.1092C160.294 42.1598 160.269 42.261 160.245 42.4127C160.22 42.5392 160.22 42.6909 160.22 42.8932C160.22 43.0703 160.294 43.222 160.468 43.3232C160.617 43.4243 160.866 43.4749 161.139 43.4749H163.004V44.5118H156.466L156.516 44.4866ZM136.255 44.4866V43.4496H138.791V24.2033H136.603V23.217H154.03L154.104 28.8062H153.035C152.314 26.9853 151.593 25.7713 150.873 25.1391C150.127 24.5068 149.083 24.178 147.666 24.178H144.061V32.9033C144.136 32.9033 144.235 32.9286 144.359 32.9286C144.484 32.9286 144.608 32.9286 144.807 32.9286C145.95 32.9286 146.796 32.6251 147.392 32.0182C147.989 31.4112 148.362 30.4248 148.536 29.0338H149.605V38.088H148.536C148.411 36.6211 148.063 35.5589 147.467 34.9266C146.87 34.2943 145.95 33.9656 144.682 33.9656H144.061V43.399H147.566C149.281 43.399 150.649 42.9438 151.618 42.0081C152.588 41.0723 153.358 39.5295 153.905 37.3545H154.9L154.676 44.4613H136.255V44.4866Z" fill="#2B2A29"/>
</svg>
