<svg width="277" height="129" viewBox="0 0 277 129" fill="none" xmlns="http://www.w3.org/2000/svg">
<g clip-path="url(#clip0)">
<g clip-path="url(#clip1)">
<path d="M8.60754 118.376C10.2003 117.938 11.7252 116.491 11.7252 114.136C11.7252 111.343 9.5564 109.459 5.59151 109.459H0V109.728H0.338879C1.32163 109.728 2.13494 110.502 2.13494 111.478V127.023C2.10105 127.999 1.32163 128.773 0.338879 128.773H0V129.042H6.84536C11.0475 129.042 13.4196 126.956 13.4196 123.793C13.4196 120.967 11.5897 118.813 8.60754 118.376ZM6.7437 127.999H3.99878V110.334H5.48985C8.16699 110.334 9.59029 111.781 9.59029 114.304C9.59029 117.905 6.64204 118.409 4.94764 118.409V118.679C7.65867 118.679 11.3186 119.385 11.2847 123.558C11.3186 126.384 9.65806 127.999 6.7437 127.999Z" fill="white"/>
<path d="M24.2639 128.134H19.8584V121.034H24.7383C25.4838 121.068 25.8227 121.606 25.8227 122.212V122.582H26.1277V118.645H25.8227V119.015C25.8227 119.654 25.4499 120.193 24.6705 120.193H19.8923V113.093H25.721C26.5682 113.093 27.1443 113.732 27.1443 114.54V114.977H27.4493V111.814C26.9749 112.016 25.4499 112.252 24.2978 112.252H16.063V112.521H16.4358C17.3507 112.521 18.0624 113.16 18.0624 114.001V127.259C18.0285 128.1 17.3507 128.739 16.4358 128.739H16.063V129.009H27.4832L29.0421 125.005H28.7371C27.9577 126.788 26.9749 128.1 24.2639 128.134Z" fill="white"/>
<path d="M39.3778 128.134H34.9724V114.001C35.0063 113.16 35.7518 112.487 36.6668 112.487H37.0057V112.218H31.1431V112.487H31.4819C32.3969 112.487 33.1425 113.16 33.1763 114.001V127.225C33.1425 128.067 32.4647 128.706 31.5497 128.706H31.177V128.975H42.5972L44.156 124.971H43.8511C43.0377 126.788 42.0889 128.1 39.3778 128.134Z" fill="white"/>
<path d="M53.78 128.134H49.3745V114.001C49.4084 113.16 50.154 112.487 51.0689 112.487H51.4078V112.218H45.5791V112.487H45.918C46.833 112.487 47.5785 113.16 47.6124 114.001V127.225C47.5785 128.067 46.9007 128.706 45.9858 128.706H45.613V128.975H57.0332L58.5921 124.971H58.2871C57.4399 126.788 56.491 128.1 53.78 128.134Z" fill="white"/>
<path d="M68.1823 128.134H63.7769V121.034H68.6567C69.4023 121.068 69.7412 121.606 69.7412 122.212V122.582H70.0461V118.645H69.7412V119.015C69.7412 119.654 69.3684 120.193 68.589 120.193H63.7769V113.093H69.6056C70.4528 113.093 71.0289 113.732 71.0289 114.54V114.977H71.3339V111.814C70.8595 112.016 69.3345 112.252 68.1823 112.252H59.9814V112.521H60.3542C61.2692 112.521 61.9808 113.16 61.9808 114.001V127.259C61.9469 128.1 61.2692 128.739 60.3542 128.739H59.9814V129.009H71.4017L72.9605 125.005H72.6555C71.8422 126.788 70.8933 128.1 68.1823 128.134Z" fill="white"/>
<path d="M104.137 126.956L101.968 109.055H101.663L93.9709 125.913L86.1089 109.055H85.8378L83.7367 126.99C83.6012 128.1 82.6862 128.74 81.6695 128.74H81.229V129.009H86.685V128.74H86.2444C85.6344 128.74 85.0922 128.134 85.16 127.562L86.38 113.901L93.5642 129.413H93.8353C94.0047 128.269 94.8181 126.552 94.8181 126.552L100.748 113.497L102.036 127.562C102.104 128.168 101.562 128.74 100.952 128.74H100.511V129.009H106.645V128.74H106.204C105.154 128.74 104.273 128.067 104.137 126.956Z" fill="white"/>
<path d="M117.659 111.848C112.406 111.848 108.17 115.415 108.17 120.63C108.17 125.846 112.406 129.412 117.659 129.412C122.911 129.412 127.147 125.846 127.147 120.63C127.147 115.415 122.911 111.848 117.659 111.848ZM117.659 128.571C113.524 128.571 110.237 125.341 110.237 120.63C110.237 115.919 113.524 112.689 117.659 112.689C121.793 112.689 125.08 115.919 125.08 120.63C125.08 125.341 121.793 128.571 117.659 128.571Z" fill="white"/>
<path d="M144.024 112.521H144.498C145.346 112.521 146.023 113.127 146.057 113.934V125.509L131.451 111.848H131.146C131.146 111.848 131.418 113.429 131.418 115.347V127.293C131.418 128.1 130.706 128.74 129.859 128.74H129.384V129.009H134.705V128.74H134.23C133.383 128.74 132.671 128.1 132.671 127.293V115.617L147.311 129.412H147.582C147.582 129.412 147.311 127.663 147.311 125.846V113.934C147.345 113.16 148.057 112.521 148.87 112.521H149.344V112.252H144.024V112.521Z" fill="white"/>
<path d="M153.885 112.218C152.767 112.218 151.242 111.983 150.768 111.781V114.944H151.073V114.506C151.073 113.732 151.615 113.093 152.496 113.059H157.579V127.225C157.579 128.067 156.834 128.74 155.919 128.74H155.58V129.009H161.375V128.74H161.036C160.155 128.74 159.409 128.067 159.375 127.259V113.059H164.458C165.306 113.059 165.882 113.699 165.882 114.506V114.944H166.187V111.781C165.712 111.983 164.153 112.218 163.035 112.218H153.885Z" fill="white"/>
<path d="M183.368 128.134H179.335V119.789H184.113C184.859 119.823 185.435 120.428 185.435 121.169V121.572H185.706V117.164H185.435V117.568C185.435 118.308 184.825 118.948 184.08 118.948H179.335V110.3H185.062C185.943 110.367 186.655 111.074 186.655 111.949V112.454H186.926V110.199V109.728V108.921C186.418 109.122 184.791 109.425 183.571 109.425H175.336V109.694H175.709C176.624 109.694 177.404 110.401 177.505 111.31V126.956C177.471 127.932 176.692 128.706 175.709 128.706H175.336V128.975H186.994L188.62 124.466H188.349C187.468 126.62 186.35 128.134 183.368 128.134Z" fill="white"/>
<path d="M200.074 121.875L194.381 117.535C193.5 116.828 193.297 116.054 193.263 115.347C193.263 113.867 194.754 112.689 196.652 112.689C198.854 112.689 199.905 113.598 199.905 115.145H200.244L200.21 112.117H199.261C198.617 111.983 197.77 111.848 196.482 111.848C193.873 111.848 191.806 113.665 191.84 115.919C191.84 116.895 192.145 118.039 193.195 118.948L198.821 123.255C199.532 123.894 199.837 124.601 199.837 125.476C199.837 127.293 198.414 128.504 196.076 128.571C193.602 128.639 191.874 127.124 192.145 124.634H191.806C191.433 125.711 191.365 127.36 191.535 128.1C192.551 129.009 194.72 129.412 196.381 129.412C199.159 129.412 201.396 127.394 201.362 124.904C201.328 123.793 200.956 122.615 200.074 121.875Z" fill="white"/>
<path d="M213.596 128.74C212.715 128.74 211.969 128.067 211.935 127.259V113.059H217.019C217.866 113.059 218.442 113.699 218.442 114.506V114.944H218.747V111.781C218.272 111.983 216.714 112.218 215.595 112.218H206.412C205.293 112.218 203.768 111.983 203.294 111.781V114.944H203.599V114.506C203.599 113.732 204.141 113.093 205.022 113.059H210.105V127.225C210.105 128.067 209.36 128.74 208.445 128.74H208.106V129.009H213.901V128.74H213.596Z" fill="white"/>
<path d="M233.59 127.091L226.643 111.848H226.372C226.304 112.588 225.287 114.742 225.287 114.742L219.458 127.124C218.882 128.268 218.001 128.74 217.256 128.74H217.019V129.009H222.373V128.74H222.136C221.492 128.74 220.746 128.1 221.153 126.99L222.712 123.356H229.828L231.353 127.091C231.726 128.167 231.014 128.773 230.37 128.773H230.133V129.042H235.928V128.773H235.725C235.013 128.74 234.166 128.235 233.59 127.091ZM223.118 122.481L226.372 114.843L229.523 122.481H223.118Z" fill="white"/>
<path d="M237.419 112.218C236.301 112.218 234.776 111.983 234.301 111.781V114.944H234.606V114.506C234.606 113.732 235.148 113.093 236.03 113.059H241.113V127.225C241.113 128.067 240.367 128.74 239.452 128.74H239.113V129.009H244.908V128.74H244.569C243.688 128.74 242.943 128.067 242.909 127.259V113.059H247.992C248.839 113.059 249.415 113.699 249.415 114.506V114.944H249.72V111.781C249.246 111.983 247.687 112.218 246.569 112.218H237.419Z" fill="white"/>
<path d="M259.92 128.134H255.515V121.034H260.395C261.14 121.068 261.479 121.606 261.479 122.212V122.582H261.784V118.645H261.479V119.015C261.479 119.654 261.106 120.193 260.327 120.193H255.515V113.093H261.344C262.191 113.093 262.767 113.732 262.767 114.54V114.977H263.072V111.814C262.597 112.016 261.072 112.252 259.92 112.252H251.686V112.521H252.058C252.973 112.521 253.685 113.16 253.685 114.001V127.259C253.651 128.1 252.973 128.739 252.058 128.739H251.686V129.009H263.106L264.665 125.005H264.36C263.58 126.788 262.597 128.1 259.92 128.134Z" fill="white"/>
<path d="M275.712 121.875L270.019 117.535C269.138 116.828 268.935 116.054 268.901 115.347C268.901 113.867 270.392 112.689 272.289 112.689C274.492 112.689 275.543 113.598 275.543 115.145H275.882L275.848 112.117H274.899C274.255 111.983 273.408 111.848 272.12 111.848C269.511 111.848 267.443 113.665 267.477 115.919C267.477 116.895 267.782 118.039 268.833 118.948L274.458 123.255C275.17 123.894 275.475 124.601 275.475 125.476C275.475 127.293 274.052 128.504 271.713 128.571C269.24 128.639 267.511 127.124 267.782 124.634H267.443C267.071 125.711 267.003 127.36 267.172 128.1C268.189 129.009 270.358 129.412 272.018 129.412C274.797 129.412 277.034 127.394 277 124.904C276.966 123.793 276.593 122.615 275.712 121.875Z" fill="white"/>
<path d="M81.1617 55.7558L78.2474 53.3668L75.4347 55.6885L75.333 55.7558V63.4613H81.1617V55.7558ZM76.1802 62.6538V56.4961H80.3145V62.6538H76.1802ZM76.8241 55.6549L78.2474 54.5108L79.6707 55.6549H76.8241Z" fill="white"/>
<path d="M76.6206 62.2162H79.8739V56.9334H76.6206V62.2162ZM79.0267 57.7746V61.375H77.4678V57.7746H79.0267Z" fill="white"/>
<path d="M198.617 53.4003L195.804 55.7221L195.703 55.7894V63.4949H201.531V55.7894L198.617 53.4003ZM196.55 62.6537V56.496H200.684V62.6537H196.55ZM197.194 55.6548L198.617 54.5107L200.04 55.6548H197.194Z" fill="white"/>
<path d="M196.991 62.2162H200.244V56.9334H196.991V62.2162ZM199.397 57.7746V61.375H197.838V57.7746H199.397Z" fill="white"/>
<path d="M276.221 100.912H274.662V99.2634H274.018V82.0689H274.662V80.4202H275.882V77.4591H274.493V76.0459L271.138 69.2152V40.5803H272.73V38.023H270.223V31.697H271.917V29.4089H262.869V31.697H264.563V37.9893H262.056V40.5466H263.648V53.2994L256.905 39.0997V34.9273H254.363V35.8022H240.503V34.9273H237.961V39.0324L232.98 52.6264V40.5803H234.573V38.023H232.065V31.697H233.759V29.4089H224.711V31.697H226.406V37.9893H223.898V40.5466H225.491V73.1857L224.508 75.9113H224.101L207.157 48.8578V44.719H204.65V45.5939H163.205L157.783 32.5719L157.681 32.3027H148.294C148.26 28.9379 147.718 24.328 143.719 22.0735V20.1892H142.262V15.5794H143.516V13.0221H142.872C142.635 11.8444 141.72 8.74871 138.941 8.44587V7.57101C138.941 7.53736 138.975 7.50371 139.144 7.36912C139.415 7.16722 139.856 6.79709 139.856 6.02317C139.856 5.82128 139.89 5.61939 139.924 5.4175C139.991 5.08101 140.025 4.71088 139.856 4.3071C139.788 4.10521 139.619 3.97061 139.483 3.83602C139.348 3.73507 139.212 3.60048 139.212 3.46588C139.212 2.89386 139.381 2.79291 139.551 2.65832C139.72 2.52372 139.991 2.35548 139.991 1.9517C139.991 1.37967 139.009 -0.0335693 138.5 -0.0335693C137.992 -0.0335693 137.009 1.37967 137.009 1.9517C137.009 2.35548 137.28 2.52372 137.45 2.65832C137.653 2.79291 137.789 2.89386 137.789 3.46588C137.789 3.56683 137.653 3.70142 137.518 3.83602C137.382 3.97061 137.213 4.10521 137.145 4.3071C136.975 4.71088 137.043 5.08101 137.077 5.4175C137.111 5.58574 137.145 5.78763 137.145 5.98952C137.145 6.76344 137.585 7.13358 137.856 7.33547C138.06 7.47006 138.06 7.50371 138.06 7.53736V8.41222C135.247 8.71506 134.366 11.8107 134.129 12.9884H133.485V15.5457H134.739V20.1892H133.282V22.0735C129.317 24.328 128.741 28.9379 128.707 32.3027H119.32L113.796 45.5939H72.5205V44.719H70.0128V48.8578L53.0689 75.9113H52.6622L51.6456 73.1184V40.5466H53.2383V37.9893H50.7306V31.697H52.425V29.4089H43.3769V31.697H45.0713V37.9893H42.5636V40.5466H44.1563V52.5255L39.1409 39.0324V34.8936H36.5993V35.7685H22.7053V34.8936H20.1637V39.0324L13.3522 53.3331V40.5466H14.9449V37.9893H12.4372V31.697H14.1316V29.4089H5.04966V31.697H6.74406V37.9893H4.23635V40.5466H5.82909V69.2488L2.50807 76.0459V77.4591H1.08478V80.4202H2.30474V82.0689H2.94861V99.2634H2.30474V100.912H0.779785V104.311H276.255V100.912H276.221ZM138.5 2.65832C138.331 2.28818 138.094 2.08629 137.924 1.98534C137.89 1.9517 137.856 1.9517 137.856 1.9517C137.89 1.7498 138.229 1.24508 138.5 0.975888C138.738 1.24508 139.11 1.7498 139.144 1.9517C139.144 1.9517 139.11 1.98534 139.076 1.98534C138.907 2.08629 138.636 2.28818 138.5 2.65832ZM138.5 4.00426C138.636 4.20615 138.805 4.37439 138.941 4.47534C138.975 4.50899 139.076 4.60993 139.11 4.64358C139.178 4.81183 139.144 5.01372 139.11 5.31655C139.076 5.51845 139.043 5.75398 139.043 6.02317C139.043 6.39331 138.873 6.5279 138.636 6.69615C138.602 6.72979 138.568 6.76344 138.5 6.79709C138.466 6.76344 138.433 6.72979 138.365 6.69615C138.128 6.5279 137.958 6.39331 137.958 6.02317C137.958 5.75398 137.924 5.51845 137.89 5.31655C137.856 5.04737 137.823 4.84547 137.89 4.67723C137.924 4.64358 138.026 4.54264 138.06 4.50899C138.195 4.37439 138.365 4.20615 138.5 4.00426ZM134.976 13.0221C135.247 11.7434 136.128 9.28709 138.466 9.28709H138.5C140.873 9.28709 141.72 11.7771 141.991 13.0221H134.976ZM134.332 14.7382V13.8633H142.635V14.7382H134.332ZM141.415 15.5794V20.1892H141.211V15.5794H141.415ZM140.364 15.5794V20.1892H136.637V15.5794H140.364ZM135.789 15.5794V20.1892H135.586V15.5794H135.789ZM134.129 21.9053V21.0304H142.838V21.9053H134.129ZM143.177 22.7465C146.905 24.7654 147.413 29.1397 147.447 32.3027H129.588C129.622 29.1061 130.13 24.7318 133.858 22.7465H143.177ZM271.07 30.2501V30.8558H263.716V30.2501H271.07ZM269.376 31.697V37.9893H265.377V31.697H269.376ZM271.883 38.8305V39.7054H262.869V38.8305H271.883ZM273.645 76.7188V77.4254H255.786V76.7188H273.645ZM254.939 75.4738V77.4254H252.974V75.4738H254.939ZM245.722 75.4738V77.4254H243.756V75.4738H245.722ZM255.786 75.8776V74.6326H255.177V65.0091H255.82V63.4276H256.905V61.0722L251.822 58.5822V51.9535L249.382 49.8336L246.942 51.9535V58.5822L241.859 61.1059V63.4613H242.943V65.0428H243.587V74.6663H242.943V75.9113H225.253L238.538 39.7054H256.193L270.324 69.3834L270.358 69.5853H270.426L273.442 75.9113H255.786V75.8776ZM254.939 63.4276V64.1679H252.974V63.4276H254.939ZM245.959 74.6326V65.0091H246.603V63.4276H252.127V65.0091H252.77V74.6326H252.127V75.4402H246.569V74.6326H245.959ZM245.722 63.4276V64.1679H243.756V63.4276H245.722ZM256.024 61.8462V62.5864H242.672V61.8462H256.024ZM248.365 51.8189L249.348 50.944L250.331 51.8189H248.365ZM254.77 61.0049H243.892L249.178 58.414L249.348 58.3467L254.77 61.0049ZM247.755 58.1448V52.6601H250.941V58.1785L249.449 57.4718L249.348 57.4045L247.755 58.1448ZM244.4 74.6326V65.0091H245.112V74.6326H244.4ZM253.584 74.6326V65.0091H254.295V74.6326H253.584ZM270.324 40.5466V67.3982L264.462 55.0828V40.5466H270.324ZM252.127 76.2814V77.4591H246.569V76.2814H252.127ZM255.99 35.7685V38.8642H255.143V35.7685H255.99ZM238.707 38.8305V35.7349H239.554V38.8305H238.707ZM240.435 38.8305V36.6434H254.295V38.8305H240.435ZM226.168 70.864V40.5466H232.031V54.9145L226.168 70.864ZM232.777 30.2501V30.8558H225.423V30.2501H232.777ZM231.082 31.697V37.9893H227.083V31.697H231.082ZM233.59 38.8305V39.7054H224.576V38.8305H233.59ZM70.86 48.6223V45.5266H71.6733V48.6223H70.86ZM72.5205 48.6223V46.4351H113.423L112.508 48.6223H72.5205ZM156.834 75.6421V77.4591H145.041V75.6421H156.834ZM132.468 74.8009V54.9482H144.499V74.8009H144.194V77.4591H132.773V74.8009H132.468ZM145.346 74.8009V54.9482H146.566V74.8009H145.346ZM147.447 74.8009V54.9482H154.428V74.8009H147.447ZM155.275 74.8009V54.9482H156.495V74.8009H155.275ZM131.926 75.6421V77.4591H120.133V75.6421H131.926ZM119.659 67.8692V74.8009H119.32V75.9113H105.053V67.8692H119.659ZM163.815 49.2279V49.4971H163.916L170.423 65.1437H157.342V54.9482H158.359V51.9198L142.635 44.9882V36.1386H134.366V44.9882L118.676 51.8862V54.9482H119.659V65.1437H106.578L113.084 49.4971H113.186V49.2279L119.862 33.1776H157.105L162.29 45.6275L163.815 49.2279ZM157.511 52.6601V54.107H119.523V52.6601H157.511ZM135.755 37.5182V44.3825L135.213 44.6181V36.9799H141.787V44.6181L141.245 44.3825V37.5519H135.755V37.5182ZM136.603 38.3595H140.432V43.9788L138.534 43.1376L136.603 43.9788V38.3595ZM141.821 45.6275H141.991L156.054 51.8189H120.946L138.5 44.0797L141.787 45.5266L141.821 45.6275ZM120.506 74.8009V54.9482H121.726V74.8009H120.506ZM122.573 74.8009V54.9482H129.554V74.8009H122.573ZM130.401 74.8009V54.9482H131.621V74.8009H130.401ZM157.342 74.8009V67.8692H171.982V75.9113H157.715V74.8009H157.342ZM157.342 67.028V65.9849H173.642V67.028H157.342ZM205.022 75.8776H202.684C202.65 75.5748 202.582 75.2719 202.481 74.9691L204.48 73.7578C204.785 74.4307 204.955 75.171 205.022 75.8776ZM194.754 75.0027C194.653 75.3056 194.585 75.6084 194.551 75.9113H192.213C192.247 75.171 192.45 74.4644 192.755 73.7914L194.754 75.0027ZM193.162 73.0175C193.67 72.2099 194.348 71.5369 195.127 70.9986L196.279 72.9838C195.805 73.3203 195.398 73.7241 195.127 74.2288L193.162 73.0175ZM196.72 73.7241L197.974 75.9113H195.398C195.534 75.0364 196.008 74.2288 196.72 73.7241ZM198.211 69.9891V72.3109C197.804 72.3445 197.431 72.4455 197.059 72.6137L195.907 70.5948C196.584 70.2246 197.398 70.0228 198.211 69.9891ZM200.651 73.825C201.295 74.3298 201.701 75.1037 201.837 75.9113H199.465L200.651 73.825ZM202.108 74.2288C201.837 73.7914 201.498 73.3876 201.091 73.0848L202.244 71.0995C202.989 71.6042 203.633 72.2772 204.074 73.0175L202.108 74.2288ZM201.532 70.6621L200.38 72.6473C199.973 72.4454 199.533 72.3445 199.058 72.2772V69.9891C199.905 70.0228 200.753 70.2583 201.532 70.6621ZM199.939 73.3876L198.719 75.4738L197.465 73.3203C198.245 73.0175 199.16 73.0175 199.939 73.3876ZM198.618 68.5422C202.752 68.5422 206.208 71.8398 206.446 75.9113H205.836C205.598 72.1426 202.413 69.1479 198.618 69.1479C194.822 69.1479 191.603 72.1763 191.399 75.9113H190.789C191.027 71.8061 194.483 68.5422 198.618 68.5422ZM207.293 75.8776C207.056 71.3351 203.226 67.6674 198.618 67.6674C194.009 67.6674 190.179 71.3351 189.942 75.8776H172.829V67.8356H174.489V65.1101H171.338L164.831 49.4635H206.378L222.915 75.8776H207.293ZM119.659 65.9849V67.028H103.359V65.9849H119.659ZM84.6524 75.8776H82.3142C82.2803 75.5748 82.2125 75.2719 82.1108 74.9691L84.1102 73.7578C84.4152 74.4307 84.5846 75.171 84.6524 75.8776ZM74.3844 75.0027C74.2827 75.3056 74.2149 75.6084 74.181 75.9113H71.8428C71.8767 75.171 72.08 74.4644 72.385 73.7914L74.3844 75.0027ZM72.7916 73.0175C73.3 72.2099 73.9777 71.5369 74.7571 70.9986L75.9093 72.9838C75.4349 73.3203 75.0283 73.7241 74.7571 74.2288L72.7916 73.0175ZM76.3499 73.7241L77.6037 75.9113H75.0282C75.1638 75.0364 75.6382 74.2288 76.3499 73.7241ZM77.8071 69.9891V72.3109C77.4004 72.3445 77.0276 72.4455 76.6549 72.6137L75.5027 70.5948C76.2143 70.2246 76.9938 70.0228 77.8071 69.9891ZM80.2809 73.825C80.9248 74.3298 81.3314 75.1037 81.467 75.9113H79.0948L80.2809 73.825ZM81.7381 74.2288C81.467 73.7914 81.1281 73.3876 80.6875 73.0848L81.8397 71.0995C82.5853 71.6042 83.2291 72.2772 83.6697 73.0175L81.7381 74.2288ZM81.1281 70.6621L79.9759 72.6473C79.5692 72.4454 79.1287 72.3445 78.6543 72.2772V69.9891C79.5353 70.0228 80.3825 70.2583 81.1281 70.6621ZM79.5692 73.3876L78.3493 75.4738L77.0954 73.3203C77.8748 73.0175 78.7898 73.0175 79.5692 73.3876ZM78.2476 68.5422C82.3819 68.5422 85.8385 71.8398 86.0757 75.9113H85.4657C85.2285 72.1426 82.0431 69.1479 78.2476 69.1479C74.4521 69.1479 71.2328 72.1763 71.0295 75.9113H70.4195C70.6567 71.8061 74.1133 68.5422 78.2476 68.5422ZM112.169 49.4635L105.663 65.1101H102.511V67.8356H104.172V75.8776H86.9229C86.6857 71.3351 82.8564 67.6674 78.2476 67.6674C73.6388 67.6674 69.8095 71.3351 69.5723 75.8776H54.0855L70.6228 49.4635H112.169ZM157.681 77.4591V76.7188H242.909V77.4254H157.681V77.4591ZM206.141 45.5602V48.6559H205.327V45.5602H206.141ZM163.577 46.4351H204.48V48.6223H164.492L163.577 46.4351ZM21.2142 76.7188V77.4254H3.32138V76.7188H21.2142ZM51.5439 30.2501V30.8558H44.1902V30.2501H51.5439ZM49.8495 31.697V37.9893H45.8507V31.697H49.8495ZM52.3572 38.8305V39.7054H43.343V38.8305H52.3572ZM50.7984 40.5466V70.7967L44.9358 54.8473V40.5466H50.7984ZM33.2105 75.4738V77.4254H31.245V75.4738H33.2105ZM24.0269 75.4738V77.4254H22.0614V75.4738H24.0269ZM34.0577 75.8776V74.6326H33.4139V65.0091H34.0577V63.4276H35.1421V61.0722L30.059 58.5822V51.9535L27.619 49.8336L25.1791 51.9535V58.5822L20.2315 61.0386L20.0959 61.1059V63.4613H21.1803V65.0428H21.8242V74.6663H21.1803V75.9113H3.5586L20.7737 39.7054H38.4293L51.7134 75.9113H34.0577V75.8776ZM33.2105 63.4276V64.1679H31.245V63.4276H33.2105ZM24.2302 74.6326V65.0091H24.8741V63.4276H30.4317V65.0091H31.0756V74.6326H30.4317V75.4402H24.8741V74.6326H24.2302ZM24.0269 63.4276V64.1679H22.0614V63.4276H24.0269ZM34.3288 61.8462V62.5864H20.9431V61.8462H34.3288ZM26.6363 51.8189L27.619 50.944L28.6018 51.8189H26.6363ZM33.075 61.0049H22.197L27.4835 58.414L27.6529 58.3467L33.075 61.0049ZM26.0602 58.1448V52.6601H29.2457V58.1785L27.7546 57.4718L27.6529 57.4382L26.0602 58.1448ZM22.6714 74.6326V65.0091H23.383V74.6326H22.6714ZM31.8889 74.6326V65.0091H32.6006V74.6326H31.8889ZM30.3978 76.2814V77.4591H24.8741V76.2814H30.3978ZM34.0577 77.4591V76.7188H119.286V77.4254H34.0577V77.4591ZM38.2937 35.7685V38.8642H37.4465V35.7685H38.2937ZM21.0109 38.8305V35.7349H21.8581V38.8305H21.0109ZM22.7053 38.8305V36.6434H36.5654V38.8305H22.7053ZM6.6424 67.4655V40.5466H12.505V55.1164L6.6424 67.4655ZM13.2505 30.2501V30.8558H5.89686V30.2501H13.2505ZM11.59 31.697V37.9893H7.59126V31.697H11.59ZM14.0977 38.8305V39.7054H5.08355V38.8305H14.0977ZM273.849 100.071V100.878H271.578V100.071H273.849ZM272.188 99.2297V82.0353H273.171V99.2297H272.188ZM271.578 81.1941V80.4202H273.849V81.2277H271.578V81.1941ZM255.143 99.2297V82.0353H255.786V80.4202H270.731V82.0689H271.375V99.2634H270.731V100.912H255.786V99.2634H255.143V99.2297ZM254.939 100.071V100.878H252.669V100.071H254.939ZM253.313 99.2297V82.0353H254.295V99.2297H253.313ZM252.669 81.1941V80.4202H254.939V81.2277H252.669V81.1941ZM246.095 99.2297V82.0353H246.738V80.4202H251.822V82.0689H252.465V99.2634H251.822V100.912H246.738V99.2634H246.095V99.2297ZM245.891 100.071V100.878H243.621V100.071H245.891ZM244.265 99.2297V82.0353H245.247V99.2297H244.265ZM243.621 81.1941V80.4202H245.891V81.2277H243.621V81.1941ZM226.982 99.2297V82.0353H227.626V80.4202H242.774V82.0689H243.417V99.2634H242.774V100.912H227.626V99.2634H226.982V99.2297ZM226.778 100.071V100.878H224.508V100.071H226.778ZM225.118 99.2297V82.0353H226.101V99.2297H225.118ZM224.508 81.1941V80.4202H226.778V81.2277H224.508V81.1941ZM220.272 99.2297V82.0353H220.916V80.4202H223.661V82.0689H224.305V99.2634H223.661V100.912H220.916V99.2634H220.272V99.2297ZM220.069 100.071V100.878H217.798V100.071H220.069ZM218.442 99.2297V82.0353H219.425V99.2297H218.442ZM217.798 81.1941V80.4202H220.069V81.2277H217.798V81.1941ZM207.53 99.2297V82.0353H208.174V80.4202H216.985V82.0689H217.629V99.2634H216.985V100.912H208.174V99.2634H207.53V99.2297ZM207.293 100.071V100.878H205.022V100.071H207.293ZM205.666 99.2297V82.0353H206.649V99.2297H205.666ZM205.022 81.1941V80.4202H207.293V81.2277H205.022V81.1941ZM192.247 99.2297V82.0353H192.89V80.4202H204.175V82.0689H204.819V99.2634H204.175V100.912H192.89V99.2634H192.247V99.2297ZM192.043 100.071V100.878H189.773V100.071H192.043ZM190.417 99.2297V82.0353H191.399V99.2297H190.417ZM189.773 81.1941V80.4202H192.043V81.2277H189.773V81.1941ZM179.911 99.2297V82.0353H180.555V80.4202H188.959V82.0689H189.603V99.2634H188.959V100.912H180.555V99.2634H179.911V99.2297ZM179.708 100.071V100.878H177.438V100.071H179.708ZM178.048 99.2297V82.0353H179.03V99.2297H178.048ZM177.438 81.1941V80.4202H179.708V81.2277H177.438V81.1941ZM172.829 99.2297V82.0353H173.473V80.4202H176.59V82.0689H177.234V99.2634H176.59V100.912H173.473V99.2634H172.829V99.2297ZM172.592 100.071V100.878H170.321V100.071H172.592ZM170.965 99.2297V82.0353H171.948V99.2297H170.965ZM170.321 81.1941V80.4202H172.592V81.2277H170.321V81.1941ZM157.681 99.2297V82.0353H158.325V80.4202H169.508V82.0689H170.152V99.2634H169.508V100.912H158.325V99.2634H157.681V99.2297ZM157.478 100.071V100.878H155.207V100.071H157.478ZM155.851 99.2297V82.0353H156.834V99.2297H155.851ZM155.207 81.1941V80.4202H157.478V81.2277H155.207V81.1941ZM147.548 99.2297V82.0353H148.192V80.4202H154.36V82.0689H155.004V99.2634H154.36V100.912H148.192V99.2634H147.548V99.2297ZM147.311 100.071V100.878H145.041V100.071H147.311ZM145.685 99.2297V82.0353H146.667V99.2297H145.685ZM145.041 81.1941V80.4202H147.311V81.2277H145.041V81.1941ZM132.129 99.2297V82.0353H132.773V80.4202H144.194V82.0689H144.837V99.2634H144.194V100.912H132.773V99.2634H132.129V99.2297ZM131.926 100.071V100.878H129.656V100.071H131.926ZM130.299 99.2297V82.0353H131.282V99.2297H130.299ZM129.656 81.1941V80.4202H131.926V81.2277H129.656V81.1941ZM121.997 99.2297V82.0353H122.641V80.4202H128.808V82.0689H129.452V99.2634H128.808V100.912H122.641V99.2634H121.997V99.2297ZM121.794 100.071V100.878H119.523V100.071H121.794ZM120.167 99.2297V82.0353H121.15V99.2297H120.167ZM119.523 81.1941V80.4202H121.794V81.2277H119.523V81.1941ZM106.849 99.2297V82.0353H107.493V80.4202H118.676V82.0689H119.32V99.2634H118.676V100.912H107.493V99.2634H106.849V99.2297ZM106.646 100.071V100.878H104.375V100.071H106.646ZM105.019 99.2297V82.0353H106.002V99.2297H105.019ZM104.375 81.1941V80.4202H106.646V81.2277H104.375V81.1941ZM99.7664 99.2297V82.0353H100.41V80.4202H103.528V82.0689H104.172V99.2634H103.528V100.912H100.41V99.2634H99.7664V99.2297ZM99.5631 100.071V100.878H97.2926V100.071H99.5631ZM97.9365 99.2297V82.0353H98.9192V99.2297H97.9365ZM97.2926 81.1941V80.4202H99.5631V81.2277H97.2926V81.1941ZM87.1262 99.2297V82.0353H87.7701V80.4202H96.4454V82.0689H97.0893V99.2634H96.4454V100.912H87.7701V99.2634H87.1262V99.2297ZM86.9229 100.071V100.878H84.6524V100.071H86.9229ZM85.2963 99.2297V82.0353H86.279V99.2297H85.2963ZM84.6524 81.1941V80.4202H86.9229V81.2277H84.6524V81.1941ZM72.0461 99.2297V82.0353H72.69V80.4202H83.8052V82.0689H84.4491V99.2634H83.8052V100.912H72.69V99.2634H72.0461V99.2297ZM71.8428 100.071V100.878H69.5723V100.071H71.8428ZM70.2162 99.2297V82.0353H71.1989V99.2297H70.2162ZM69.5723 81.1941V80.4202H71.8428V81.2277H69.5723V81.1941ZM59.4059 99.2297V82.0353H60.0498V80.4202H68.7251V82.0689H69.369V99.2634H68.7251V100.912H60.0498V99.2634H59.4059V99.2297ZM59.1687 100.071V100.878H56.8982V100.071H59.1687ZM57.5421 99.2297V82.0353H58.5248V99.2297H57.5421ZM56.8982 81.1941V80.4202H59.1687V81.2277H56.8982V81.1941ZM52.6961 99.2297V82.0353H53.34V80.4202H56.0849V82.0689H56.7288V99.2634H56.0849V100.912H53.34V99.2634H52.6961V99.2297ZM52.4928 100.071V100.878H50.2223V100.071H52.4928ZM50.8662 99.2297V82.0353H51.8489V99.2297H50.8662ZM50.2223 81.1941V80.4202H52.4928V81.2277H50.2223V81.1941ZM33.5833 99.2297V82.0353H34.2272V80.4202H49.3751V82.0689H50.019V99.2634H49.3751V100.912H34.2272V99.2634H33.5833V99.2297ZM33.38 100.071V100.878H31.1095V100.071H33.38ZM31.7534 99.2297V82.0353H32.7361V99.2297H31.7534ZM31.1095 81.1941V80.4202H33.38V81.2277H31.1095V81.1941ZM24.5352 99.2297V82.0353H25.1791V80.4202H30.2623V82.0689H30.9062V99.2634H30.2623V100.912H25.1791V99.2634H24.5352V99.2297ZM24.3319 100.071V100.878H22.0614V100.071H24.3319ZM22.6714 99.2297V82.0353H23.6541V99.2297H22.6714ZM22.0614 81.1941V80.4202H24.3319V81.2277H22.0614V81.1941ZM5.62576 99.2297V82.0353H6.26963V80.4202H21.2142V82.0689H21.8581V99.2634H21.2142V100.912H6.26963V99.2634H5.62576V99.2297ZM5.42243 80.4202V81.2277H3.15194V80.4202H5.42243ZM4.77856 82.0353V99.2297H3.79581V82.0353H4.77856ZM5.42243 100.071V100.878H3.15194V100.071H5.42243ZM1.93197 79.5789V78.3003H275.035V79.5789H1.93197ZM1.62698 103.436V101.72H275.408V103.436H1.62698Z" fill="white"/>
</g>
</g>
<defs>
<clipPath id="clip0">
<rect width="277" height="129" fill="white"/>
</clipPath>
<clipPath id="clip1">
<rect width="277" height="129.379" fill="white"/>
</clipPath>
</defs>
</svg>
