<svg width="28" height="28" viewBox="0 0 28 28" fill="none" xmlns="http://www.w3.org/2000/svg">
<rect width="28" height="28" fill="black"/>
<path d="M19.8476 8.49624C19.7718 8.44205 19.6837 8.40751 19.5913 8.39571C19.4989 8.38391 19.4049 8.39522 19.3179 8.42862C19.0158 8.55767 18.6861 8.60895 18.359 8.57778C18.0319 8.5466 17.7178 8.43396 17.4454 8.25015C17.1731 8.06633 16.9511 7.81721 16.7998 7.52552C16.6486 7.23384 16.5728 6.9089 16.5794 6.58039C16.5813 6.50568 16.5684 6.43134 16.5413 6.36168C16.5142 6.29203 16.4735 6.22846 16.4216 6.17468C16.3692 6.11974 16.3063 6.07595 16.2366 6.04593C16.1669 6.01591 16.0918 6.00029 16.0159 6H13.762C13.6125 6 13.4692 6.05937 13.3635 6.16504C13.2578 6.27072 13.1985 6.41404 13.1985 6.56349V16.2104C13.1985 16.489 13.1159 16.7613 12.9611 16.993C12.8063 17.2247 12.5863 17.4052 12.3289 17.5118C12.0715 17.6185 11.7882 17.6464 11.5149 17.592C11.2417 17.5376 10.9907 17.4035 10.7937 17.2065C10.5966 17.0095 10.4625 16.7584 10.4081 16.4852C10.3538 16.2119 10.3817 15.9287 10.4883 15.6713C10.5949 15.4139 10.7755 15.1938 11.0071 15.0391C11.2388 14.8843 11.5112 14.8016 11.7898 14.8016C11.9392 14.8016 12.0825 14.7423 12.1882 14.6366C12.2939 14.5309 12.3533 14.3876 12.3533 14.2382V11.9842C12.3533 11.8348 12.2939 11.6914 12.1882 11.5858C12.0825 11.4801 11.9392 11.4207 11.7898 11.4207C10.5199 11.4222 9.30254 11.9273 8.40464 12.8252C7.50673 13.7231 7.00163 14.9405 7.00014 16.2104C6.99234 17.2216 7.30826 18.2089 7.90172 19.0278C7.95357 19.1006 8.022 19.1601 8.10136 19.2012C8.18073 19.2424 8.26874 19.264 8.35814 19.2644C8.48007 19.2584 8.59674 19.2129 8.6906 19.1348C8.7511 19.0917 8.80247 19.037 8.84176 18.974C8.88105 18.9109 8.90748 18.8407 8.91953 18.7674C8.93157 18.694 8.929 18.6191 8.91195 18.5467C8.8949 18.4744 8.86372 18.4062 8.8202 18.346C8.36922 17.7253 8.12657 16.9776 8.12711 16.2104C8.12841 15.3365 8.44113 14.4918 9.00913 13.8277C9.57713 13.1637 10.3632 12.7238 11.2263 12.5871V13.7141C10.7619 13.82 10.3367 14.0545 9.99941 14.3908C9.66213 14.7272 9.4264 15.1517 9.31922 15.6158C9.21205 16.0799 9.23775 16.5648 9.3934 17.015C9.54905 17.4651 9.82834 17.8624 10.1993 18.1611C10.5702 18.4599 11.0178 18.6482 11.4908 18.7044C11.9638 18.7605 12.4431 18.6823 12.8737 18.4788C13.3043 18.2752 13.6689 17.9544 13.9256 17.5532C14.1824 17.152 14.3209 16.6866 14.3255 16.2104V7.12697H15.4919C15.6107 7.85308 15.9836 8.51339 16.5439 8.99018C17.1043 9.46697 17.8158 9.72925 18.5516 9.73027C18.6929 9.7293 18.834 9.71989 18.9742 9.7021V10.7953C18.0566 10.9541 17.1123 10.7887 16.3033 10.3276C16.2176 10.2781 16.1205 10.2521 16.0215 10.2521C15.9226 10.2521 15.8255 10.2781 15.7398 10.3276C15.6538 10.3772 15.5825 10.4487 15.533 10.5348C15.4835 10.6209 15.4577 10.7185 15.4581 10.8178V16.2104C15.4567 16.8128 15.3069 17.4057 15.022 17.9365C14.7371 18.4674 14.3259 18.9199 13.8246 19.2541C13.3233 19.5883 12.7474 19.7939 12.1478 19.8527C11.5482 19.9115 10.9434 19.8217 10.3867 19.5913C10.2518 19.5461 10.1047 19.5537 9.97513 19.6124C9.84554 19.6712 9.74298 19.7768 9.68805 19.9081C9.63312 20.0394 9.62988 20.1865 9.67899 20.3201C9.7281 20.4536 9.82592 20.5637 9.95281 20.6281C10.5375 20.8753 11.1662 21.0018 11.801 21C13.0067 20.9982 14.1676 20.5428 15.0529 19.7243C15.9382 18.9058 16.4832 17.7841 16.5794 16.5823C16.5826 16.5523 16.5826 16.5221 16.5794 16.4921V11.6912C17.582 12.0416 18.6686 12.0731 19.6898 11.7814C19.8107 11.7462 19.9163 11.6717 19.9898 11.5695C20.0633 11.4674 20.1005 11.3436 20.0955 11.2179V8.99211C20.1005 8.89509 20.0802 8.79846 20.0368 8.71157C19.9933 8.62469 19.9282 8.55051 19.8476 8.49624Z" fill="white"/>
</svg>
