<svg width="28" height="28" viewBox="0 0 28 28" fill="none" xmlns="http://www.w3.org/2000/svg">
<rect width="28" height="28" fill="#E62117"/>
<path d="M17.7143 14.5C17.7143 14.2935 17.6306 14.1428 17.4632 14.048L13.1775 11.3694C13.0045 11.2578 12.8231 11.2522 12.6334 11.3526C12.4492 11.4531 12.3571 11.6093 12.3571 11.8214V17.1785C12.3571 17.3906 12.4492 17.5468 12.6334 17.6473C12.7227 17.6919 12.8092 17.7143 12.8929 17.7143C13.0045 17.7143 13.0993 17.6863 13.1775 17.6305L17.4632 14.952C17.6306 14.8571 17.7143 14.7064 17.7143 14.5ZM22 14.5C22 15.0357 21.9972 15.4542 21.9916 15.7555C21.986 16.0569 21.9623 16.4377 21.9205 16.8981C21.8786 17.3585 21.8158 17.7701 21.7321 18.1328C21.6429 18.5401 21.4503 18.8833 21.1546 19.1624C20.8588 19.4414 20.5128 19.6032 20.1166 19.6478C18.8778 19.7874 17.0056 19.8571 14.5 19.8571C11.9944 19.8571 10.1222 19.7874 8.88337 19.6478C8.48717 19.6032 8.13979 19.4414 7.84124 19.1624C7.54269 18.8833 7.34877 18.5401 7.25949 18.1328C7.18136 17.7701 7.12137 17.3585 7.07952 16.8981C7.03767 16.4377 7.01395 16.0569 7.00837 15.7555C7.00279 15.4542 7 15.0357 7 14.5C7 13.9643 7.00279 13.5457 7.00837 13.2444C7.01395 12.943 7.03767 12.5622 7.07952 12.1018C7.12137 11.6414 7.18415 11.2299 7.26786 10.8672C7.35714 10.4598 7.54967 10.1166 7.84542 9.83758C8.14118 9.55856 8.48717 9.39673 8.88337 9.35209C10.1222 9.21258 11.9944 9.14282 14.5 9.14282C17.0056 9.14282 18.8778 9.21258 20.1166 9.35209C20.5128 9.39673 20.8602 9.55856 21.1588 9.83758C21.4573 10.1166 21.6512 10.4598 21.7405 10.8672C21.8186 11.2299 21.8786 11.6414 21.9205 12.1018C21.9623 12.5622 21.986 12.943 21.9916 13.2444C21.9972 13.5457 22 13.9643 22 14.5Z" fill="white"/>
</svg>
